<?xml version="1.0" encoding="utf-8" ?>
<svg baseProfile="full" height="200mm" version="1.1" viewBox="0,0,200,200" width="200mm" xmlns="http://www.w3.org/2000/svg" xmlns:ev="http://www.w3.org/2001/xml-events" xmlns:xlink="http://www.w3.org/1999/xlink"><defs /><rect fill="#1a1a1a" height="200" width="200" x="0" y="0" /><text alignment-baseline="middle" fill="#e1ed5e" style="dominant-baseline: central; font-size:9.0px; font-family:Arial;" text-anchor="middle" x="100.0" y="100.0">2025</text><line stroke="#e1ed5e" stroke-width="0.3" x1="100.0" x2="100.0" y1="15.0" y2="10.0" /><path d="M 100.0 14.0 a86.0,86.0 0 0,1 42.46469731375804,11.215312516191453" fill="none" id="id61" stroke="none" /><text fill="#e1ed5e" style="font-size:6.75px; font-family:Arial;" text-anchor="middle"><textPath startOffset="22.20632615414155" xlink:href="#id61">January</textPath></text><path d="M 100.36148047927253 79.00311137660856 l 0.42133428285822366 -24.47354564814797 a45.47717220534051,45.47717220534051 0 0,0 0.7825827972222064,0.020211804808102272 l -0.8425437152752978 24.462667051197506" fill="#fff617" stroke="none" /><path d="M 100.72285384407766 79.0124445844662 l 0.7070819592450345 -20.529629778637563 a41.54180283580319,41.54180283580319 0 0,0 0.7144382349154851,0.03076521325620917 l -1.060361026549851 20.51441683885716" fill="#ffbe11" stroke="none" /><path d="M 101.44485096284872 79.0497635885617 l 3.0353390620868024 -44.01220096376832 a65.11674417833845,65.11674417833845 0 0,0 1.117557782793135,0.08674399264427844 l -3.7924870342422783 43.95343170893558" fill="#32ff4d" stroke="none" /><path d="M 102.16513564639614 79.11191278185805 l 2.596432005106568 -25.049007099815885 a46.18321297697671,46.18321297697671 0 0,0 0.7900260876300848,0.08876863607046857 l -3.027224796246378 25.000602510274813" fill="#feff18" stroke="none" /><path d="M 102.52436894288641 79.15227682838746 l 2.8549849159444833 -23.578144294028583 a44.75036478078396,44.75036478078396 0 0,0 0.7639212698958219,0.09917890551972598 l -3.2604209143481513 23.52550706534472" fill="#ffec16" stroke="none" /><path d="M 102.88285421437855 79.19881850522331 l 3.42127463311731 -24.68614411092918 a45.92209524058472,45.92209524058472 0 0,0 0.7820555115115565,0.11525465324114906 l -3.8456991250575223 24.623594973527062" fill="#fffc17" stroke="none" /><path d="M 103.59715602781102 79.31037775812273 l 3.6466202737400857 -20.9741238189118 a42.288769560307976,42.288769560307976 0 0,0 0.7160996561047929,0.1308626349593407 l -4.007115050947779 20.908245702601718" fill="#ffc912" stroke="none" /><path d="M 103.95276090670814 79.375362276772 l 9.120950684053405 -47.59111618180165 a69.45726035188821,69.45726035188821 0 0,0 1.1722850559569722,0.23514935393974384 l -9.938802149477501 47.4270628717847" fill="#39ff86" stroke="none" /><path d="M 104.66035177308747 79.52364482259891 l 5.670721060773413 -24.915651050830146 a46.5528226353926,46.5528226353926 0 0,0 0.7798181099126661,0.18455775170369212 l -6.0987628576486035 24.814347386985585" fill="#f9ff18" stroke="none" /><path d="M 105.01212808612495 79.60689891045804 l 5.7932087769450575 -23.57112392001968 a45.27260082451399,45.27260082451399 0 0,0 0.7551709359494407,0.19250988615580675 l -6.198088601579523 23.467911037695004" fill="#fff316" stroke="none" /><path d="M 105.36241919743992 79.69619591428918 l 8.288147157018207 -31.381529476467986 a53.4575688488651,53.4575688488651 0 0,0 0.8876555759318125,0.24262980028580483 l -8.827100622173731 31.234213135355887" fill="#9eff22" stroke="none" /><path d="M 106.0581310904928 79.89281104454417 l 7.123825929890423 -23.644274433558174 a45.69414119520644,45.69414119520644 0 0,0 0.7511564724765242,0.2333879724408049 l -7.529767775077666 23.51814632623485" fill="#fff917" stroke="none" /><path d="M 106.40334571778207 80.00007090966166 l 13.957237841820438 -43.59342434974492 a66.77325785554353,66.77325785554353 0 0,0 1.0916384017449778,0.35989601789269865 l -14.705559065807833 43.346714607592986" fill="#35ff63" stroke="none" /><path d="M 107.08798089147638 80.2323363322302 l 8.958067274027322 -24.983145933586574 a47.54062075432454,47.54062075432454 0 0,0 0.7679342287433312,0.28283665730972035 l -9.38678382854323 24.82524600847053" fill="#ebff1a" stroke="none" /><path d="M 107.4271985657038 80.35727306442388 l 9.28203711581295 -24.548222167333307 a47.24445512096,47.24445512096 0 0,0 0.7581988921991053,0.2941693908467209 l -9.703219173011721 24.38481007259604" fill="#efff19" stroke="none" /><path d="M 108.09893153111575 80.62456947434976 l 9.567682778778458 -22.889188809593957 a45.808375966930505,45.808375966930505 0 0,0 0.7248984458599419,0.3103636836110867 l -9.960264982428715 22.721105598020078" fill="#fffb17" stroke="none" /><path d="M 108.43124777332544 80.76684994638697 l 20.84064698942189 -47.541158976500455 a72.90851918294905,72.90851918294905 0 0,0 1.1450730163163987,0.513760884343902 l -21.65590212420507 47.17537776164002" fill="#3dffb0" stroke="none" /><path d="M 108.76106565485865 80.91482961587045 l 10.470767740264085 -22.809598084082776 a46.09810235511736,46.09810235511736 0 0,0 0.7183001670636057,0.3372515597900656 l -10.86184611862729 22.625981541652706" fill="#ffff18" stroke="none" /><path d="M 109.08828744355905 81.06846463323043 l 11.291959797880727 -23.52193827509523 a47.09195156162805,47.09195156162805 0 0,0 0.7277472083000605,0.3571023945414147 l -11.695178273191221 23.324080720418984" fill="#f2ff19" stroke="none" /><path d="M 109.73455568895987 81.39251694778311 l 12.319537935814601 -23.548644712340952 a47.576487404095346,47.576487404095346 0 0,0 0.722380889408534,0.38587085348756067 l -12.723063871751446 23.333095132351637" fill="#ebff1a" stroke="none" /><path d="M 110.36928655335952 81.73862282372117 l 12.372551538657687 -21.789332286045784 a46.05703559977632,46.05703559977632 0 0,0 0.6860376775509872,0.397397303505617 l -12.745785948674003 21.573130825150116" fill="#fffe18" stroke="none" /><line stroke="#e1ed5e" stroke-width="0.3" x1="143.23703022742887" x2="145.7803849466894" y1="26.81831364943548" y2="22.513508569990506" /><path d="M 143.74570117128098 25.957352633546492 a86.0,86.0 0 0,1 28.547481713284135,27.462654790039103" fill="none" id="id62" stroke="none" /><text fill="#e1ed5e" style="font-size:6.75px; font-family:Arial;" text-anchor="middle"><textPath startOffset="19.985693538727396" xlink:href="#id62">February</textPath></text><path d="M 110.68208982089419 81.91981866633111 l 10.487685878939592 -17.75113911613911 a41.617819841482586,41.617819841482586 0 0,0 0.6136407497258703,0.36971168563662477 l -10.791688694883101 17.56798082104387" fill="#ffc011" stroke="none" /><path d="M 111.2981086023043 82.29822771554956 l 29.919931528510997 -46.87827257883055 a76.61272105054672,76.61272105054672 0 0,0 1.1055324153669743,0.7190690353394635 l -30.722430969662252 46.35630461933156" fill="#43ffdc" stroke="none" /><path d="M 111.60114157652 82.49532879139004 l 13.740385733110081 -20.732522997940702 a45.872388505223924,45.872388505223924 0 0,0 0.6544358215487809,0.4418779880482959 l -14.095226249065403 20.492933097593735" fill="#fffc17" stroke="none" /><path d="M 112.19680574252982 82.90503203632743 l 14.524193503769 -20.357020345034435 a46.00720844602755,46.00720844602755 0 0,0 0.6407154091203946,0.46550699307431775 l -14.872454229243184 20.10399411714344" fill="#fffe18" stroke="none" /><path d="M 112.48926042617603 83.11751280151076 l 13.836410169308493 -18.703510823332135 a44.26515771474257,44.26515771474257 0 0,0 0.6086540259344622,0.4584255936125603 l -14.15631034900134 18.46256864021373" fill="#ffe515" stroke="none" /><path d="M 113.06298171725822 83.55741782278167 l 33.990021279463114 -42.78377863413832 a75.64222964698006,75.64222964698006 0 0,0 1.0125130323223992,0.8187151232430978 l -34.72143771035 42.19235741363109" fill="#41ffd1" stroke="none" /><path d="M 113.6212207817346 84.01681056812373 l 16.389770223193903 -19.231815299074352 a46.2683059912374,46.2683059912374 0 0,0 0.6017219663007622,0.5218073597093035 l -16.71838598814143 18.946842945945377" fill="#fdff18" stroke="none" /><path d="M 113.89432698308785 84.25364557470407 l 16.427698092400732 -18.617408160147694 a45.82895791644508,45.82895791644508 0 0,0 0.5870231490214045,0.5270351792329352 l -16.745732229018127 18.331873972145463" fill="#fffb17" stroke="none" /><path d="M 114.16331599549186 84.49514656593476 l 19.210971551021483 -21.03061869970239 a49.48417720114851,49.48417720114851 0 0,0 0.6239533333220433,0.5798966224320229 l -19.57013276813837 20.69681749119573" fill="#d2ff1c" stroke="none" /><path d="M 114.68862486808459 84.99185889309783 l 16.634025841065245 -16.995859669681828 a44.78129646576787,44.78129646576787 0 0,0 0.5462554750773017,0.5439096804679013 l -16.92411711630987 16.707014138563807" fill="#ffed16" stroke="none" /><path d="M 114.94478906791727 85.2469230424477 l 39.73425051525298 -39.22453860259692 a76.8334585405158,76.8334585405158 0 0,0 0.9210346313301615,0.9492071488155075 l -40.40354941028625 38.5347672582313" fill="#43ffde" stroke="none" /><path d="M 115.4437574822437 85.77008943001954 l 18.197381295958817 -16.767105333468944 a45.74430252187672,45.74430252187672 0 0,0 0.5285783767865383,0.5836694456683527 l -18.48330331336139 16.451383100531043" fill="#fffa17" stroke="none" /><path d="M 115.68641384162765 86.03803664274999 l 19.17530817673337 -17.067313971856056 a46.67071580393914,46.67071580393914 0 0,0 0.5289528616182582,0.6046845595773845 l -19.46625290192948 16.73471385607572" fill="#f7ff18" stroke="none" /><path d="M 115.9244219780498 86.31012108654704 l 18.850969612425082 -16.20576820628092 a45.859323773672514,45.859323773672514 0 0,0 0.5094520718597962,0.6030305636267054 l -19.127132297771997 15.878878693025108" fill="#fffc17" stroke="none" /><path d="M 116.38621287248628 86.86637796730983 l 16.206238518045556 -12.989371792247438 a41.76935113240221,41.76935113240221 0 0,0 0.4448354731904591,0.5648958772023094 l -16.42742807182998 12.70848352109209" fill="#ffc212" stroke="none" /><path d="M 116.60985879189232 87.15038557335679 l 44.864000510302155 -34.70740572915066 a77.72197593734083,77.72197593734083 0 0,0 0.8095079100389975,1.0652175201606984 l -45.45478436056526 33.93000343310892" fill="#44ffe8" stroke="none" /><path d="M 117.04232023915458 87.72973835380427 l 21.53797509946992 -15.507078032284092 a47.53966541772398,47.53966541772398 0 0,0 0.4724251538773697,0.6682118768764387 l -21.80171287315117 15.13403965507586" fill="#ebff1a" stroke="none" /><path d="M 117.2510076193507 88.02491185347247 l 20.920283738841437 -14.522180231488532 a46.466683929979375,46.466683929979375 0 0,0 0.4504514290308396,0.6609818893158418 l -21.16715963354101 14.159920318902284" fill="#faff18" stroke="none" /><path d="M 117.45458315368197 88.32363383020206 l 22.71515319126216 -15.195461497359334 a48.329109656559204,48.329109656559204 0 0,0 0.45660276028653085,0.6954373296311596 l -22.973352586906618 14.8022061037505" fill="#e1ff1b" stroke="none" /><line stroke="#e1ed5e" stroke-width="0.3" x1="172.23445277983987" x2="176.4835382374775" y1="55.19839476539836" y2="52.563006222186495" /><path d="M 173.08426987136738 54.67131705675599 a86.0,86.0 0 0,1 12.851231095245387,41.99856678651699" fill="none" id="id63" stroke="none" /><text fill="#e1ed5e" style="font-size:6.75px; font-family:Arial;" text-anchor="middle"><textPath startOffset="22.20632615414155" xlink:href="#id63">March</textPath></text><path d="M 117.84615892207809 88.93136811851018 l 20.233028129749485 -12.549027563514912 a44.80868581188577,44.80868581188577 0 0,0 0.4008973411242649,0.6589698199499495 l -20.446041269159974 12.19888997035788" fill="#ffed16" stroke="none" /><path d="M 118.03404312379186 89.2402003453031 l 30.767306777574372 -18.356951603634144 a56.827431369322866,56.827431369322866 0 0,0 0.49396656291292046,0.8443489776321336 l -31.07873301495762 17.824623213648113" fill="#75ff27" stroke="none" /><path d="M 118.3937258080291 89.86733742301442 l 22.820080435745968 -12.571035224095274 a47.053540981973256,47.053540981973256 0 0,0 0.38470056617604054,0.7127917232338661 l -23.033089101140472 12.176362517528949" fill="#f2ff19" stroke="none" /><path d="M 118.56541770881063 90.18545643968196 l 22.189073185978472 -11.73017643678012 a46.09884475609785,46.09884475609785 0 0,0 0.36481872098474755,0.7047136494758605 l -22.387701340123336 11.346490065043914" fill="#ffff18" stroke="none" /><path d="M 119.04729006885535 91.15688171328212 l 23.125050841148806 -10.73630732956717 a46.495808900300354,46.495808900300354 0 0,0 0.3307793390771363,0.7288284271935337 l -23.306432497189288 10.336656893531574" fill="#faff18" stroke="none" /><path d="M 119.196687751892 91.48605970444005 l 57.03729481706526 -25.296662058009606 a83.39530520260288,83.39530520260288 0 0,0 0.5706990530056693,1.3172520987221292 l -57.46428457991361 24.311110814700875" fill="#4cd8ff" stroke="none" /><path d="M 119.47837535516314 92.15188598940014 l 24.928621820536847 -10.044095701382066 a47.87601243357852,47.87601243357852 0 0,0 0.3014056023649042,0.7670443821380616 l -25.09782097278345 9.61350231434822" fill="#e7ff1a" stroke="none" /><path d="M 119.61058180528143 92.48833698450437 l 23.635347530514554 -9.053314565891045 a46.30992211598399,46.30992211598399 0 0,0 0.2787315077289277,0.7468618641265409 l -23.787683626745107 8.64512956473517" fill="#fcff18" stroke="none" /><path d="M 119.7369772167798 92.82701384747503 l 21.895621547649693 -7.957499693959886 a44.29678184508052,44.29678184508052 0 0,0 0.25427812292687696,0.7188784949745661 l -22.029352751386376 7.579423572558706" fill="#ffe615" stroke="none" /><path d="M 120.08093135843002 93.85539295169968 l 52.48374766980646 -16.059613973916864 a75.8858357908408,75.8858357908408 0 0,0 0.37145792438324543,1.252371459394468 l -52.75241149130141 15.153813127775864" fill="#42ffd4" stroke="none" /><path d="M 120.28053869075195 94.5502522615342 l 26.73703830933947 -7.184726021406958 a48.68554687120644,48.68554687120644 0 0,0 0.21051553527646918,0.8112022321116246 l -26.856750176486244 6.723427363746484" fill="#dcff1b" stroke="none" /><path d="M 120.37134235888165 94.90015583598534 l 24.083295429105725 -6.029109495124509 a45.82650358044373,45.82650358044373 0 0,0 0.18498020868341652,0.7668623875990965 l -24.183508438049962 5.613661875866007" fill="#fffb17" stroke="none" /><path d="M 120.45610955862082 95.25157060432595 l 25.587234696177212 -5.939505605264784 a47.26755234566454,47.26755234566454 0 0,0 0.17715341344184782,0.7941440161662029 l -25.685682496621098 5.498183419548616" fill="#efff19" stroke="none" /><path d="M 120.67395015179393 96.31383870115 l 17.26753034975476 -3.078797309398586 a38.539857389729875,38.539857389729875 0 0,0 0.11082620214485066,0.6541025185705049 l -17.317968413419834 2.7811090025122436" fill="#ff920d" stroke="none" /><path d="M 120.78858239683441 97.02765380044208 l 28.11467575241366 -4.019829155701105 a49.40059892157877,49.40059892157877 0 0,0 0.11311325928993571,0.8428251659343712 l -28.17970501076143 3.5352856477020693" fill="#d3ff1c" stroke="none" /><path d="M 120.83666639777658 97.38593545837742 l 24.948623001826864 -3.1299301676368048 a46.14418924009218,46.14418924009218 0 0,0 0.09208984199942162,0.7889695279322883 l -24.998803196829876 2.7000169013796635" fill="#ffff18" stroke="none" /><path d="M 120.94382443527127 98.46500227214037 l 22.99370413859443 -1.6852358420450995 a44.05537789446376,44.05537789446376 0 0,0 0.04892120836076344,0.7567894403016668 l -23.01930593795961 1.2891873374903973" fill="#ffe215" stroke="none" /><path d="M 120.96714384426684 98.82574320788733 l 43.660598270913475 -2.445194941577198 a64.72901576386562,64.72901576386562 0 0,0 0.052727614396041324,1.112996603407459 l -43.69621949354302 1.6932872315467389" fill="#32ff48" stroke="none" /><line stroke="#e1ed5e" stroke-width="0.3" x1="184.98032266829074" x2="189.97916517819016" y1="98.17113171792111" y2="98.06355123074" /><path d="M 185.9800911702706 98.14961562048488 a86.0,86.0 0 0,1 -9.607161424134198,41.387399972396054" fill="none" id="id64" stroke="none" /><text fill="#e1ed5e" style="font-size:6.75px; font-family:Arial;" text-anchor="middle"><textPath startOffset="21.466115282336823" xlink:href="#id64">April</textPath></text><path d="M 120.99513854157772 99.54816195383933 l 22.51939361091264 -0.4846416607219568 a43.5246080130714,43.5246080130714 0 0,0 0.009672811228629757,0.7491698894693504 l -22.524399429258985 0.09693551319214375" fill="#ffdb14" stroke="none" /><path d="M 120.99980553446 99.90962569577887 l 25.183169253943365 -0.10837773691158191 a46.18340245889377,46.18340245889377 0 0,0 -0.003421316399298773,0.7949934406283209 l -25.181303640254566 -0.32512518192042367" fill="#feff18" stroke="none" /><path d="M 120.99824983174949 100.27111621757518 l 28.083041576538864 0.36259060022830164 a49.085382250077785,49.085382250077785 0 0,0 -0.018180144105883464,0.8447598590958686 l -28.07263936974797 -0.845940275114285" fill="#d7ff1c" stroke="none" /><path d="M 120.95626037817324 101.35467743843564 l 44.37653226094873 2.8686361958229747 a65.46915435592416,65.46915435592416 0 0,0 -0.08237715997234207,1.1239708988642927 l -44.32057854231205 -3.6320802311840374" fill="#33ff52" stroke="none" /><path d="M 120.89721153311464 102.0752229133903 l 24.688304845639237 2.4517020286294215 a45.809740808569515,45.809740808569515 0 0,0 -0.08467755747723862,0.7840090161954406 l -24.642444986660948 -2.8763073667096535" fill="#fffb17" stroke="none" /><path d="M 120.8583938346157 102.4346265915055 l 23.930144775506342 2.7931664955111235 a45.092604841493156,45.092604841493156 0 0,0 -0.09662376961883148,0.7701865128370406 l -23.878519496640664 -3.2046707626355593" fill="#fff116" stroke="none" /><path d="M 120.81339534386255 102.79330883721812 l 22.923460001621898 3.0764948411470137 a44.12898266144802,44.12898266144802 0 0,0 -0.10751910835928254,0.751988393442723 l -22.867106842246013 -3.4706287065701455" fill="#ffe315" stroke="none" /><path d="M 120.64145759157962 103.86396538481128 l 24.390174390179276 4.565704197731087 a45.81383206206845,45.81383206206845 0 0,0 -0.15177482700951286,0.7738965730682499 l -24.307969630194098 -4.984864497867282" fill="#fffb17" stroke="none" /><path d="M 120.41448212921028 104.9243191809786 l 21.08129442847959 5.085165612184707 a42.685937473016715,42.685937473016715 0 0,0 -0.1784448737542547,0.7127985676671634 l -20.990638240430275 -5.447292019249266" fill="#ffcf13" stroke="none" /><path d="M 120.02730092923936 106.31721596034902 l 21.470724280301766 6.772515307130155 a43.513528481916204,43.513528481916204 0 0,0 -0.23146658652644203,0.7123809027585871 l -21.35096544275908 -7.141095109866538" fill="#ffdb14" stroke="none" /><path d="M 119.9155931802556 106.66101706037122 l 10.29856873874108 3.4444840003143544 a31.859327239520717,31.859327239520717 0 0,0 -0.1784261430165583,0.5185898910323232 l -10.237751764781292 -3.621246594435978" fill="#ff2a04" stroke="none" /><path d="M 119.26925614724726 108.34839909993367 l 40.87768610709974 17.7102445105352 a65.54927588742063,65.54927588742063 0 0,0 -0.4574681319386142,1.031469869461805 l -40.56677689042986 -18.411262716489695" fill="#33ff53" stroke="none" /><path d="M 119.12269723197855 108.67885076344098 l 22.511654715092902 10.216931708968401 a45.72165632714136,45.72165632714136 0 0,0 -0.33142841205317347,0.7138673143068351 l -22.332451686199896 -10.602919090554067" fill="#fffa17" stroke="none" /><path d="M 118.97047184881838 109.00673069616215 l 18.940128595685607 8.992324438289906 a41.96641051836421,41.96641051836421 0 0,0 -0.31544101104256145,0.6499019132889082 l -18.782534328028333 -9.317015307544088" fill="#ffc512" stroke="none" /><path d="M 118.81262510543309 109.33194174019688 l 19.12775073990345 9.488258790328851 a42.35176581082065,42.35176581082065 0 0,0 -0.32958009074784395,0.6502927863168069 l -18.961591979369338 -9.816105788348352" fill="#ffca12" stroke="none" /><line stroke="#e1ed5e" stroke-width="0.3" x1="174.80103733775053" x2="179.2010983576182" y1="140.37084112569926" y2="142.7455964860345" /><path d="M 175.68104954172406 140.8457921977663 a86.0,86.0 0 0,1 -30.038265399797805,32.042727171017184" fill="none" id="id65" stroke="none" /><text fill="#e1ed5e" style="font-size:6.75px; font-family:Arial;" text-anchor="middle"><textPath startOffset="22.206326154141568" xlink:href="#id65">May</textPath></text><path d="M 118.30583269289576 110.29060199501025 l 18.768685626423782 10.550794219044297 a42.53097347534814,42.53097347534814 0 0,0 -0.3642433657732122,0.6350890103902658 l -18.58429026449819 -10.872303075292876" fill="#ffcd13" stroke="none" /><path d="M 117.14729908036423 112.12312394758627 l 20.15010675088639 14.246106080801013 a45.67748651174898,45.67748651174898 0 0,0 -0.4594289611796296,0.6381066442860184 l -19.901897997331158 -14.590846330538163" fill="#fff917" stroke="none" /><path d="M 116.71984013943494 112.70617746262583 l 16.68419092909121 12.679085983924335 a41.955224845992845,41.955224845992845 0 0,0 -0.44191474847698725,0.5712343831140845 l -16.463469363396154 -12.964398361151671" fill="#ffc412" stroke="none" /><path d="M 116.498646956653 112.99209946851258 l 38.855736467996294 30.597514719893677 a70.45681109315973,70.45681109315973 0 0,0 -0.7585249029475372,0.9463764449626444 l -38.323293652993904 -31.261818998434574" fill="#3aff92" stroke="none" /><path d="M 116.0416608686014 113.55231037782055 l 18.86981912787289 15.941594058680812 a45.70231760484034,45.70231760484034 0 0,0 -0.512861593978852,0.5965738988990478 l -18.59261502432326 -16.264045056741388" fill="#fff917" stroke="none" /><path d="M 115.80600337817218 113.82643327865902 l 18.043216094805825 15.783453761105594 a44.972381184872276,44.972381184872276 0 0,0 -0.514700658477411,0.578271646103589 l -17.768856586680077 -16.09169957695005" fill="#ffef16" stroke="none" /><path d="M 115.07121518719521 114.62390073753431 l 18.015248094193982 17.480554594919596 a46.10217028149806,46.10217028149806 0 0,0 -0.557527540393929,0.5647724549065464 l -17.711679928744516 -17.788067543806804" fill="#ffff18" stroke="none" /><path d="M 114.81725581225074 114.88116024355365 l 31.267408635374842 31.40225991907256 a65.3142502000937,65.3142502000937 0 0,0 -0.8035209357015951,0.7864143543230034 l -30.722237747297452 -31.935824376318134" fill="#33ff50" stroke="none" /><path d="M 114.29624159901734 115.38237550388516 l 17.15951507830073 18.46318156914361 a46.205912627349846,46.205912627349846 0 0,0 -0.5872561379778283,0.5364445583341065 l -16.839159390856036 -18.7558188940643" fill="#feff18" stroke="none" /><path d="M 114.0293411484842 115.62618273729858 l 14.338834011481852 15.97090256283461 a42.46326837833385,42.46326837833385 0 0,0 -0.5480949340251081,0.48363005337190507 l -14.061796724550156 -16.215355757978802" fill="#ffcc13" stroke="none" /><path d="M 113.75828350139079 115.86535959552629 l 14.246077439263829 16.427858996857218 a42.74454583628098,42.74454583628098 0 0,0 -0.5600238213140822,0.4772644499811991 l -13.961188141372698 -16.670647837061363" fill="#ffd013" stroke="none" /><path d="M 113.20401910651253 116.32954008644616 l 13.397330508755898 16.568610195829997 a42.30744725635155,42.30744725635155 0 0,0 -0.5702288546745794,0.453024289189064 l -13.110144161363968 -16.796768399024185" fill="#ffca12" stroke="none" /><path d="M 112.92097659922987 116.55440617244103 l 30.693996351824044 39.32526916686806 a70.88585177274626,70.88585177274626 0 0,0 -0.9683387823747358,0.7424808862409836 l -30.012528840955813 -39.84778939493641" fill="#3bff97" stroke="none" /><path d="M 111.7513745106137 117.40417183066458 l 15.005556979057676 22.223723007250925 a47.815305416026135,47.815305416026135 0 0,0 -0.6860933956821286,0.45470529112873426 l -14.620788884635582 -22.478726319470976" fill="#e8ff1a" stroke="none" /><path d="M 111.1453310114006 117.79835938074945 l 28.9894052310941 46.294170357920244 a75.62175230419405,75.62175230419405 0 0,0 -1.1091939355837441,0.6813575092667231 l -28.188232095578048 -46.786316334015346" fill="#41ffd0" stroke="none" /><line stroke="#e1ed5e" stroke-width="0.3" x1="143.8653032363475" x2="146.44561519142675" y1="172.8068346515853" y2="177.08958963109032" /><path d="M 144.38136562736335 173.6633856474863 a86.0,86.0 0 0,1 -40.68145358897372,12.25698825130547" fill="none" id="id66" stroke="none" /><text fill="#e1ed5e" style="font-size:6.75px; font-family:Arial;" text-anchor="middle"><textPath startOffset="21.466115282336833" xlink:href="#id66">June</textPath></text><path d="M 110.8373102113329 117.98757091392108 l 12.765581664764033 21.188080895965413 a45.73650838929646,45.73650838929646 0 0,0 -0.6778414703680476,0.4004806886153684 l -12.398972323367603 -21.40468015687453" fill="#fffa17" stroke="none" /><path d="M 110.21172684928248 118.3499491758327 l 12.091898104000128 21.7285204473855 a45.86649554299865,45.86649554299865 0 0,0 -0.693189494517908,0.3779821821302256 l -11.716085797613571 -21.933443281275498" fill="#fffc17" stroke="none" /><path d="M 109.89434966115114 118.52300852407294 l 10.725988067814116 20.079901682604437 a43.765088877796,43.765088877796 0 0,0 -0.6675407675854544,0.34922577967563756 l -10.378756397702167 -20.26155688122479" fill="#ffde14" stroke="none" /><path d="M 109.57404056367764 118.69057910512821 l 8.816847408499257 17.212375783281534 a40.3391488522545,40.3391488522545 0 0,0 -0.6207351580480714,0.31124949449580214 l -8.519258342768424 -17.36159311868664" fill="#ffad10" stroke="none" /><path d="M 108.92500713936063 119.00905698771935 l 8.798979707145763 18.740635618012757 a41.703465102583465,41.703465102583465 0 0,0 -0.6524249035045346,0.29949627377815735 l -8.47508680787381 -18.88931896212499" fill="#ffc111" stroke="none" /><path d="M 108.59647513512805 119.15986991738527 l 20.932319215762675 46.65406540924323 a72.13476123891196,72.13476123891196 0 0,0 -1.1372537183191898,0.49853860930511207 l -20.12614482278573 -47.0074685718428" fill="#3cffa7" stroke="none" /><path d="M 107.93186726928326 119.44442032107085 l 9.451418170528582 23.169493550359253 a46.02308407879286,46.02308407879286 0 0,0 -0.7361039979818887,0.2929109722521655 l -9.051193096504827 -23.328751367017485" fill="#fffe18" stroke="none" /><path d="M 107.2578585660854 119.70592522655815 l 8.302048490978105 22.54102161138054 a45.021275245733236,45.021275245733236 0 0,0 -0.7295171105537024,0.261578880868985 l -7.912811819794668 -22.68058803328948" fill="#fff016" stroke="none" /><path d="M 106.57524785965236 119.94407469862006 l 5.75076120375567 17.44323764970484 a39.366757855612455,39.366757855612455 0 0,0 -0.6453873544124245,0.2066326502219426 l -5.449652504252305 -17.53964314658649" fill="#ff9e0e" stroke="none" /><path d="M 106.2309692047433 120.05430185196036 l 14.67451927993098 47.22976947922044 a70.45697767916442,70.45697767916442 0 0,0 -1.161282057145896,0.3498847576760854 l -13.859362248344837 -47.475369606002246" fill="#3aff92" stroke="none" /><path d="M 105.18746579009965 120.34920634021253 l 5.370583553131713 21.067534189546816 a42.74130089320538,42.74130089320538 0 0,0 -0.7144853944934192,0.1756031266231994 l -5.007144873895082 -21.156858574484048" fill="#ffd013" stroke="none" /><path d="M 104.13013068566511 120.58985236759428 l 4.952565674552505 24.689919966401646 a46.181740501960434,46.181740501960434 0 0,0 -0.7807625473162642,0.1496350004236862 l -4.526835512664537 -24.771512165173803" fill="#feff18" stroke="none" /><path d="M 103.7750983002368 120.6578951692458 l 9.551778338328456 52.268741076407025 a74.13433695019671,74.13433695019671 0 0,0 -1.2572866835261987,0.21859540592185123 l -8.650642683330206 -52.42541506084988" fill="#3fffbf" stroke="none" /><path d="M 103.06178313531738 120.77559828337769 l 3.454598594876384 23.441030754137046 a44.69422238158747,44.69422238158747 0 0,0 -0.7620820559040057,0.10561762884078692 l -3.050587947785548 -23.497022948470438" fill="#ffeb16" stroke="none" /><path d="M 102.34483914955558 120.86867818915974 l 2.3334861356459013 20.767638254798694 a41.89832424448022,41.89832424448022 0 0,0 -0.7173938883411561,0.07436080977319938 l -1.9756596506991428 -20.804728433027652" fill="#ffc412" stroke="none" /><path d="M 101.62511606390274 120.93702456842531 l 1.6217814308017073 20.894063147568286 a41.956909357628675,41.956909357628675 0 0,0 -0.7205344741420889,0.049692275938304366 l -1.261884195880688 -20.918883768022873" fill="#ffc412" stroke="none" /><path d="M 101.26447882468166 120.96189622390904 l 2.9717709282571736 49.264529056102944 a70.35408033354128,70.35408033354128 0 0,0 -1.2094601160097602,0.0625152730519739 l -2.1233227438339335 -49.30838413591712" fill="#3aff91" stroke="none" /><line stroke="#e1ed5e" stroke-width="0.3" x1="102.19456741930631" x2="102.32365962044197" y1="184.97166512339345" y2="189.96999836594603" /><path d="M 102.22038585953345 185.97133177190398 a86.0,86.0 0 0,1 -42.740103519485714,-10.115201625700543" fill="none" id="id67" stroke="none" /><text fill="#e1ed5e" style="font-size:6.75px; font-family:Arial;" text-anchor="middle"><textPath startOffset="22.20632615414155" xlink:href="#id67">July</textPath></text><path d="M 100.54218724476979 120.99299961872073 l 0.6409831263752795 24.81828677713724 a45.82656274880844,45.82656274880844 0 0,0 -0.7887412881467826,0.013578896567736956 l -0.213682148335829 -24.82564315098414" fill="#fffb17" stroke="none" /><path d="M 100.18074693466247 120.99922214144158 l 0.18289355626215656 21.24861715281352 a42.24940424952575,42.24940424952575 0 0,0 -0.7272809818492094,0.0 l 0.1828935562621419 -21.24861715281352" fill="#ffc912" stroke="none" /><path d="M 99.81925306533755 120.99922214144158 l -0.19168054958892464 22.269492141200313 a43.27031705342502,43.27031705342502 0 0,0 -0.7447446102015485,-0.012821453857281067 l 0.574984849683141 -22.262893210063872" fill="#ffd714" stroke="none" /><path d="M 99.09653310690486 120.98055641714683 l -0.9038492638129211 20.989435935010786 a42.00888774689458,42.00888774689458 0 0,0 -0.7221766528241585,-0.03732828395533438 l 1.2650139850505686 -20.97076784429325" fill="#ffc512" stroke="none" /><path d="M 98.73552117531835 120.96189622390904 l -3.0649619978025653 50.80940390151455 a71.90176339651914,71.90176339651914 0 0,0 -1.2347834974498688,-0.08515789942237154 l 3.939108256031364 -50.749117657575894" fill="#3cffa4" stroke="none" /><path d="M 97.65516085044442 120.86867818915974 l -2.8112517124516185 25.01967237581999 a46.177115442086134,46.177115442086134 0 0,0 -0.7891285911788064,-0.0955524826916378 l 3.241507726681814 -24.967574364403003" fill="#feff18" stroke="none" /><path d="M 96.58105272829116 120.7198165907248 l -4.045499529979843 24.51690582439141 a45.84843531591365,45.84843531591365 0 0,0 -0.777569875912373,-0.13519048987376545 l 4.466918377364266 -24.44363675599664" fill="#fffb17" stroke="none" /><path d="M 96.22490169976321 120.6578951692458 l -10.635434242074412 58.19866614821639 a80.16246447663448,80.16246447663448 0 0,0 -1.3552509992833952,-0.25973707953721953 l 11.635652855929502 -58.0069718703307" fill="#48faff" stroke="none" /><path d="M 95.16358092515715 120.4354850818985 l -4.813890408305403 20.340293945271025 a41.902179279759416,41.902179279759416 0 0,0 -0.7004582094409831,-0.1721555858170271 l 5.163301902489596 -20.254417101139968" fill="#ffc412" stroke="none" /><path d="M 94.11515582081647 120.15858648285463 l -6.437086354627835 22.050297004698592 a43.97066996698955,43.97066996698955 0 0,0 -0.7247309174382749,-0.21835548036578392 l 6.815692246506356 -21.936226155227082" fill="#ffe115" stroke="none" /><path d="M 93.08242187328487 119.8279376855182 l -8.348132915349733 23.92835414416627 a46.34279888293684,46.34279888293684 0 0,0 -0.7509308555016172,-0.2692570879427534 l 8.758783331481077 -23.78110951518356" fill="#fcff18" stroke="none" /><path d="M 92.40401165467489 119.57807347666478 l -9.21429721393607 23.74913963648884 a46.47400452657955,46.47400452657955 0 0,0 -0.7433161253530168,-0.29578082657448107 l 9.621734415330947 -23.587011965508292" fill="#faff18" stroke="none" /><path d="M 91.7346041902142 119.30500536409082 l -6.674297749826019 15.588769954535278 a37.95747620221696,37.95747620221696 0 0,0 -0.5984255053678454,-0.26233215544875993 l 6.941643929851608 -15.471573245792067" fill="#ff890c" stroke="none" /><path d="M 90.42595943632237 118.69057910512821 l -11.333691930934265 22.125795705518684 a45.85967434194731,45.85967434194731 0 0,0 -0.6994890904237129,-0.36593963221362735 l 11.712871923884473 -21.92742665436034" fill="#fffc17" stroke="none" /><path d="M 90.10565033884886 118.52300852407294 l -8.602387788949693 16.104353272224845 a39.25790979241846,39.25790979241846 0 0,0 -0.5933126200872539,-0.32352134675951644 l 8.878323220905589 -15.953891273705562" fill="#ff9d0e" stroke="none" /><line stroke="#e1ed5e" stroke-width="0.3" x1="58.666819895761336" x2="56.23545636021788" y1="174.27360380694188" y2="178.64263932499728" /><path d="M 58.180547188652646 175.14741091055294 a86.0,86.0 0 0,1 -31.652253787137756,-30.449443065178592" fill="none" id="id68" stroke="none" /><text fill="#e1ed5e" style="font-size:6.75px; font-family:Arial;" text-anchor="middle"><textPath startOffset="22.20632615414155" xlink:href="#id68">August</textPath></text><path d="M 89.4739219176387 118.17145234162733 l -10.656477282685731 18.396563996276047 a42.260152279451745,42.260152279451745 0 0,0 -0.6263198649808828,-0.37004081601091154 l 10.971565018694996 -18.210404607971387" fill="#ffc912" stroke="none" /><path d="M 89.1626897886671 117.98757091392108 l -22.732864031043047 37.73159537385061 a65.05061176090379,65.05061176090379 0 0,0 -0.9541400704517311,-0.5861107611920259 l 23.378983301427088 -37.33469614583021" fill="#32ff4c" stroke="none" /><path d="M 88.24862548938628 117.40417183066458 l -13.49944933219948 19.993128087675927 a45.123853402863254,45.123853402863254 0 0,0 -0.6399918607299422,-0.44019223756740294 l 13.841598077552312 -19.757795060743423" fill="#fff116" stroke="none" /><path d="M 87.95078237400918 117.19931262002967 l -14.871310000492791 21.227628025916452 a46.91848862756913,46.91848862756913 0 0,0 -0.6574680486536371,-0.46908599585499433 l 15.234505376995315 -20.96849776821724" fill="#f4ff19" stroke="none" /><path d="M 87.36589467227662 116.77436683061367 l -12.568702829920444 16.687531596829654 a41.89129008994031,41.89129008994031 0 0,0 -0.5722575072928274,-0.4387826542801895 l 12.85408906570676 -16.4687096007221" fill="#ffc412" stroke="none" /><path d="M 87.07902340077011 116.55440617244103 l -26.69813104129435 34.20575077343497 a64.39151515068899,64.39151515068899 0 0,0 -0.8678826617132969,-0.6894984753911791 l 27.282971195725004 -33.74111838403866" fill="#31ff43" stroke="none" /><path d="M 86.51685102203217 116.09983520530335 l -15.947643284504233 19.042616024864127 a45.838449053839994,45.838449053839994 0 0,0 -0.600559039755959,-0.5118094425301574 l 16.273067800837246 -18.76528219211102" fill="#fffb17" stroke="none" /><path d="M 86.24171649860922 115.8653595955263 l -16.300902379615408 18.797379626464718 a45.88093445212985,45.88093445212985 0 0,0 -0.592208482811495,-0.5225551311815224 l 16.62205321533349 -18.514001353510906" fill="#fffc17" stroke="none" /><path d="M 85.44109423537348 115.13401014063109 l -16.013848170767798 16.64642552984775 a44.09863234386768,44.09863234386768 0 0,0 -0.5425182745809788,-0.5309683166382086 l 16.29801639772457 -16.36830711028697" fill="#ffe315" stroke="none" /><path d="M 85.18274418774928 114.88116024355367 l -36.507868803131174 36.665321345188076 a72.74137873977213,72.74137873977213 0 0,0 -0.8796835751119644,-0.8911148172266267 l 37.13359300329868 -36.031466033980784" fill="#3dffae" stroke="none" /><path d="M 83.06392112726016 112.41649034213515 l -13.853927003636272 10.156846347602475 a38.178265952967664,38.178265952967664 0 0,0 -0.38400101244405266,-0.533343820607128 l 14.026707808455933 -9.916868921544209" fill="#ff8d0d" stroke="none" /><path d="M 82.6465618267979 111.8261652097733 l -20.52504445594598 13.987577807422415 a45.838071238267574,45.838071238267574 0 0,0 -0.43872904632635706,-0.655840396719204 l 20.76277660768307 -13.63220049649739" fill="#fffb17" stroke="none" /><path d="M 82.24976979558568 111.22182372390057 l -17.849629416180765 11.284664623420861 a42.117597542288564,42.117597542288564 0 0,0 -0.38213769638285555,-0.6161276418605894 l 18.041231752231578 -10.975740650195007" fill="#ffc712" stroke="none" /><path d="M 82.05923443525364 110.91462005526583 l -7.6806755867881495 4.672691112038047 a29.990373724045227,29.990373724045227 0 0,0 -0.2645138456500197,-0.44334042011740915 l 7.759970308136402 -4.5397885980345265" fill="#ff0c01" stroke="none" /><line stroke="#e1ed5e" stroke-width="0.3" x1="26.63291911575756" x2="22.317208475507996" y1="142.92168965132927" y2="145.44649492493687" /><path d="M 25.769776987707644 143.4266507060508 a86.0,86.0 0 0,1 -11.730757126820373,-40.83630448921669" fill="none" id="id69" stroke="none" /><text fill="#e1ed5e" style="font-size:6.75px; font-family:Arial;" text-anchor="middle"><textPath startOffset="21.46611528233685" xlink:href="#id69">September</textPath></text><line stroke="#e1ed5e" stroke-width="0.3" x1="15.007084014347285" x2="10.007500721073583" y1="101.09737516637583" y2="101.16192664675087" /><path d="M 14.007167355692545 101.11028546245083 a86.0,86.0 0 0,1 10.666146001902534,-42.60595125391555" fill="none" id="id70" stroke="none" /><text fill="#e1ed5e" style="font-size:6.75px; font-family:Arial;" text-anchor="middle"><textPath startOffset="22.20632615414155" xlink:href="#id70">October</textPath></text><path d="M 79.21141760316559 97.0276538004421 l -22.513654050776807 -3.21899650387791 a43.74261544348049,43.74261544348049 0 0,0 0.11298948063618,-0.7444595040853004 l 22.454908676701326 3.606055120355302" fill="#ffde14" stroke="none" /><path d="M 79.46518482838121 95.60439243477599 l -22.56930403963856 -4.831102824611177 a44.08057710144206,44.08057710144206 0 0,0 0.16520899247966395,-0.7405995190583305 l 22.482800660156858 5.218880513219467" fill="#ffe315" stroke="none" /><path d="M 79.62865764111835 94.90015583598534 l -24.463466858873005 -6.124283147074774 a46.218407063506646,46.218407063506646 0 0,0 0.19984766173703333,-0.770094563664696 l 24.354422865265665 6.544474136288334" fill="#fdff18" stroke="none" /><path d="M 79.91906864156998 93.8553929516997 l -24.547533574127755 -7.5113521940630985 a46.671030683558186,46.671030683558186 0 0,0 0.2416770787487071,-0.7661823838506852 l 24.414601011610845 7.932784744340197" fill="#f7ff18" stroke="none" /><path d="M 80.14247586403 93.16781622104843 l -7.838332108094574 -2.696858133786831 a29.289299972287075,29.289299972287075 0 0,0 0.16813023223316845,-0.47532680718373477 l 7.790748795051596 2.831382567397177" fill="#ff0000" stroke="none" /><path d="M 81.10775173730289 90.83032412892265 l -17.093512366575798 -8.296628634149405 a40.000584509937255,40.000584509937255 0 0,0 0.30598539893010657,-0.6168478927609593 l 16.94816695469228 8.589636115409327" fill="#ffa80f" stroke="none" /><path d="M 81.26839172434947 90.50648371742162 l -20.40666376189102 -10.342464557538722 a43.8779041656971,43.8779041656971 0 0,0 0.3472425602401617,-0.6707621012969346 l 20.225611768490744 10.692199381095993" fill="#ffe015" stroke="none" /><path d="M 81.43458229118936 90.18545643968196 l -18.216971855904397 -9.630338870965026 a41.60586058305823,41.60586058305823 0 0,0 0.34016139462650136,-0.6302674026804151 l 18.048502362059427 9.942487256977914" fill="#ffbf11" stroke="none" /><line stroke="#e1ed5e" stroke-width="0.3" x1="26.266209847984243" x2="21.928928074336255" y1="57.711370442889674" y2="55.22380399835377" /><path d="M 25.398753493254645 57.213857153982495 a86.0,86.0 0 0,1 29.58750427330803,-30.492523968695096" fill="none" id="id71" stroke="none" /><text fill="#e1ed5e" style="font-size:6.75px; font-family:Arial;" text-anchor="middle"><textPath startOffset="21.46611528233685" xlink:href="#id71">November</textPath></text><path d="M 81.78341655067845 89.55222093294921 l -52.20816865938056 -29.94301391180179 a81.18535500342821,81.18535500342821 0 0,0 0.7056952919318104,-1.2062620084013134 l 51.68501369297842 30.837255332556992" fill="#49efff" stroke="none" /><path d="M 82.34701348167596 88.62581576622439 l -20.93093792126402 -13.486236102602511 a45.899452332911814,45.899452332911814 0 0,0 0.4336478941942124,-0.6604754937297181 l 20.695693391711888 13.844529660309897" fill="#fffc17" stroke="none" /><path d="M 82.7489923806493 88.02491185347247 l -20.225738421419038 -14.04004947243873 a45.6211998870931,45.6211998870931 0 0,0 0.4533604136114793,-0.641246153796971 l 19.981065388003678 14.386122126567486" fill="#fff817" stroke="none" /><path d="M 83.17141714833178 87.43820079747576 l -20.15921527060345 -15.047970262372838 a46.15621929749756,46.15621929749756 0 0,0 0.4807369366026189,-0.6325934572187498 l 19.897202393776723 15.392748495472613" fill="#feff18" stroke="none" /><path d="M 83.39014120810768 87.1503855733568 l -49.25348572337879 -38.10317165504871 a83.2716431939706,83.2716431939706 0 0,0 0.8868268191698262,-1.1261800016721706 l 48.59030482361499 38.94534405067393" fill="#4cd9ff" stroke="none" /><path d="M 83.84228863543731 86.58626213691792 l -19.072844016420646 -15.833809886023074 a45.788765890649636,45.788765890649636 0 0,0 0.5086682430386356,-0.6021027575347857 l 18.797465159894887 16.159771593186974" fill="#fffb17" stroke="none" /><path d="M 84.07557802195018 86.31012108654704 l -18.669210185538393 -16.049513583734036 a45.61963231297888,45.61963231297888 0 0,0 0.5170401748131473,-0.5910662992430048 l 18.390178147147402 16.368495439179984" fill="#fff817" stroke="none" /><path d="M 84.31358615837235 86.03803664274999 l -13.5364680411996 -12.048366993625367 a39.12178562513913,39.12178562513913 0 0,0 0.45205476535218125,-0.4991701626330467 l 13.327069635231373 12.279589943527968" fill="#ff9b0e" stroke="none" /><path d="M 84.80347519578584 85.50635884689758 l -15.081134337199655 -14.38358783216595 a41.840542503070665,41.840542503070665 0 0,0 0.5015599892414982,-0.5169016572811134 l 14.831310084255039 14.641053684997187" fill="#ffc312" stroke="none" /><path d="M 85.05521093208273 85.24692304244772 l -44.83436720375183 -44.259230872656865 a84.0,84.0 0 0,0 1.0246567993307472,-1.0202565973995625 l 44.06587460425377 45.02442332070654" fill="#4dd2ff" stroke="none" /><path d="M 85.57189188830299 84.74124197986013 l -14.151877898484178 -14.966624779341007 a41.59794905662186,41.59794905662186 0 0,0 0.5245147124046033,-0.4874792615016706 l 13.892155302284719 15.208008626917325" fill="#ffbf11" stroke="none" /><path d="M 85.83668400450813 84.49514656593479 l -17.028408081593586 -18.64132464492056 a46.2480824283866,46.2480824283866 0 0,0 0.5923917151424677,-0.5318551309035936 l 16.705005378855144 18.93167878459343" fill="#fdff18" stroke="none" /><path d="M 86.10567301691215 84.25364557470407 l -18.61345048693637 -21.094507765777426 a49.132522050290405,49.132522050290405 0 0,0 0.6389712600027835,-0.5541095801470579 l 18.24758542828681 21.411782339344164" fill="#d6ff1c" stroke="none" /><path d="M 86.65592168130627 83.78471172551755 l -16.331428701420748 -19.84541891939506 a46.701288207322854,46.701288207322854 0 0,0 0.6251225427494393,-0.5054722885445178 l 15.987402760106807 20.123597305203713" fill="#f7ff19" stroke="none" /><path d="M 86.93701828274178 83.55741782278169 l -28.34856152830042 -35.682783810313964 a66.57304028894099,66.57304028894099 0 0,0 0.9033880564956249,-0.7051087073987433 l 27.730140916645368 36.16547090693592" fill="#34ff60" stroke="none" /><path d="M 87.51073957382395 83.11751280151077 l -15.813878147960892 -21.376573654582806 a47.59016064803593,47.59016064803593 0 0,0 0.662760256047336,-0.48152351189011317 l 15.443572575559775 21.645616401289587" fill="#ebff1a" stroke="none" /><path d="M 87.80319425747018 82.90503203632743 l -12.148259750458953 -17.02692619956359 a41.91641534226183,41.91641534226183 0 0,0 0.5909593011010209,-0.41400475614224413 l 11.853369309774273 17.233515798469774" fill="#ffc412" stroke="none" /><path d="M 88.09926311788651 82.69761687909137 l -17.52061113837829 -25.47307191408497 a51.91681108074392,51.91681108074392 0 0,0 0.74066823243683,-0.500102496813102 l 17.07953821153492 25.770886323196738" fill="#b2ff20" stroke="none" /><line stroke="#e1ed5e" stroke-width="0.3" x1="56.762969772571076" x2="54.21961505331055" y1="26.818313649435495" y2="22.513508569990535" /><path d="M 56.25429882871897 25.957352633546506 a86.0,86.0 0 0,1 42.265352541879196,-11.944610805530505" fill="none" id="id72" stroke="none" /><text fill="#e1ed5e" style="font-size:6.75px; font-family:Arial;" text-anchor="middle"><textPath startOffset="22.20632615414155" xlink:href="#id72">December</textPath></text></svg>