<?xml version="1.0" encoding="utf-8" ?>
<svg baseProfile="full" height="200mm" version="1.1" viewBox="0,0,200,200" width="200mm" xmlns="http://www.w3.org/2000/svg" xmlns:ev="http://www.w3.org/2001/xml-events" xmlns:xlink="http://www.w3.org/1999/xlink"><defs /><rect fill="#1a1a1a" height="200" width="200" x="0" y="0" /><text alignment-baseline="middle" fill="#e1ed5e" style="dominant-baseline: central; font-size:9.0px; font-family:Arial;" text-anchor="middle" x="100.0" y="100.0">2025</text><line stroke="#e1ed5e" stroke-width="0.3" x1="100.0" x2="100.0" y1="15.0" y2="10.0" /><path d="M 100.0 14.0 a86.0,86.0 0 0,1 42.46469731375804,11.215312516191453" fill="none" id="id61" stroke="none" /><text fill="#e1ed5e" style="font-size:6.75px; font-family:Arial;" text-anchor="middle"><textPath startOffset="22.20632615414155" xlink:href="#id61">January</textPath></text><path d="M 100.36148047927253 79.00311137660856 l 0.2996174338478434 -17.403523146782614 a38.40610204862834,38.40610204862834 0 0,0 0.6609020155410527,0.017069149210552165 l -0.5991460845837637 17.395787205429702" fill="#ffad10" stroke="none" /><path d="M 100.72285384407766 79.0124445844662 l 0.5028170997905482 -14.59894255552767 a35.607599007894436,35.607599007894436 0 0,0 0.6123814675383628,0.0263704341708374 l -0.7540393997182426 14.588124394832636" fill="#ff840c" stroke="none" /><path d="M 101.44485096284872 79.0497635885617 l 2.1584773365014502 -31.29776817899512 a52.37211050277475,52.37211050277475 0 0,0 0.898829639476171,0.06976647904532796 l -2.6968971653399625 31.255976437761326" fill="#9bff22" stroke="none" /><path d="M 102.16513564639614 79.11191278185805 l 1.846363626650839 -17.812742833957017 a38.908178743538,38.908178743538 0 0,0 0.6655768243082854,0.07478531129420704 l -2.1527071544688496 17.77832156919221" fill="#ffb410" stroke="none" /><path d="M 102.52436894288641 79.15227682838746 l 2.030224667185282 -16.766789164052305 a37.88925786027999,37.88925786027999 0 0,0 0.6467971852704142,0.08397283785161165 l -2.3185365809635425 16.72935800303656" fill="#ffa50f" stroke="none" /><path d="M 102.88285421437855 79.19881850522331 l 2.4329221897385005 -17.554705256689243 a38.722493815221235,38.722493815221235 0 0,0 0.6594459496896495,0.09718519100499641 l -2.734737119856806 17.51022558152328" fill="#ffb110" stroke="none" /><path d="M 103.59715602781102 79.31037775812273 l 2.5931690182523655 -14.915029257051648 a36.138778791432635,36.138778791432635 0 0,0 0.6119583836007837,0.1118314830634947 l -2.84952252295605 14.868182292637414" fill="#ff8c0c" stroke="none" /><path d="M 103.95276090670814 79.375362276772 l 6.48605145460803 -33.842791067500414 a55.45871980660786,55.45871980660786 0 0,0 0.9360206279720322,0.18775693234630425 l -7.0676384920471875 33.726130179076904" fill="#77ff27" stroke="none" /><path d="M 104.66035177308747 79.52364482259891 l 4.0325389160595995 -17.71791125055454 a39.17101398359657,39.17101398359657 0 0,0 0.6561635655756685,0.15529271617721963 l -4.336926168597792 17.64587262223645" fill="#ffb711" stroke="none" /><path d="M 105.01212808612495 79.60689891045804 l 4.119641857097942 -16.761796865702102 a38.26062812292224,38.26062812292224 0 0,0 0.6382075211803532,0.16269330743210048 l -4.40755826696332 16.688400562101133" fill="#ffaa0f" stroke="none" /><path d="M 105.36241919743992 79.69619591428918 l 5.893831771042232 -22.315899072289962 a44.0810875902757,44.0810875902757 0 0,0 0.731960394668744,0.20007242582706275 l -6.277090054934686 22.21114010563661" fill="#fffa17" stroke="none" /><path d="M 106.0581310904928 79.89281104454417 l 5.065864637961858 -16.81381534614089 a38.56039210906964,38.56039210906964 0 0,0 0.6338862566695732,0.1969515455474251 l -5.354536267342149 16.72412366571094" fill="#ffaf10" stroke="none" /><path d="M 106.40334571778207 80.00007090966166 l 9.925211301111736 -30.999969543674 a53.55008342662783,53.55008342662783 0 0,0 0.8754601671768076,0.2886254527936763 l -10.457354290530962 30.824530366621087" fill="#8dff24" stroke="none" /><path d="M 107.08798089147638 80.2323363322302 l 6.370222500464218 -17.765907923011756 a39.87345275868601,39.87345275868601 0 0,0 0.6440847575342149,0.23722185185471986 l -6.675089583771009 17.65362280335071" fill="#ffc112" stroke="none" /><path d="M 107.4271985657038 80.35727306442388 l 6.600602549249763 -17.456626793832683 a39.662844719718365,39.662844719718365 0 0,0 0.6365260187880548,0.24696220626473697 l -6.900111733037485 17.3404218836774" fill="#ffbe11" stroke="none" /><path d="M 108.09893153111575 80.62456947434976 l 6.803729671844465 -16.276862085530762 a38.641626251537176,38.641626251537176 0 0,0 0.6114876204181876,0.2618070868263868 l -7.082901050052968 16.157335470741586" fill="#ffb010" stroke="none" /><path d="M 108.43124777332544 80.76684994638697 l 14.820111784733427 -33.80726571325433 a57.912964230993104,57.912964230993104 0 0,0 0.9095586274273942,0.40809244312906223 l -15.399852530627602 33.547152939608736" fill="#5cff2a" stroke="none" /><path d="M 108.76106565485865 80.91482961587045 l 7.445927588594455 -16.220263869088516 a38.84765524200449,38.84765524200449 0 0,0 0.6053237731002504,0.28420762797621624 l -7.724029572994303 16.0896912584723" fill="#ffb310" stroke="none" /><path d="M 109.08828744355905 81.06846463323043 l 8.029890173671163 -16.726820180172396 a39.55439704062202,39.55439704062202 0 0,0 0.6112637312266376,0.2999444582236728 l -8.316625171908232 16.586120561813892" fill="#ffbd11" stroke="none" /><path d="M 109.73455568895987 81.39251694778311 l 8.760617145797212 -16.745811547645506 a39.89895809732626,39.89895809732626 0 0,0 0.6058085917948489,0.32360196925665513 l -9.047570784120373 16.592530851887098" fill="#ffc112" stroke="none" /><path d="M 110.36928655335952 81.73862282372117 l 8.798315952395916 -15.494736816846654 a38.81845202652373,38.81845202652373 0 0,0 0.5782161254540248,0.33494010113142414 l -9.063728810315268 15.34099255832518" fill="#ffb210" stroke="none" /><line stroke="#e1ed5e" stroke-width="0.3" x1="143.23703022742887" x2="145.7803849466894" y1="26.81831364943548" y2="22.513508569990506" /><path d="M 143.74570117128098 25.957352633546492 a86.0,86.0 0 0,1 28.547481713284135,27.462654790039103" fill="none" id="id62" stroke="none" /><text fill="#e1ed5e" style="font-size:6.75px; font-family:Arial;" text-anchor="middle"><textPath startOffset="19.985693538727396" xlink:href="#id62">February</textPath></text><path d="M 110.68208982089419 81.91981866633111 l 7.45795834303734 -12.623114154808363 a35.661655895969034,35.661655895969034 0 0,0 0.5258191165183551,0.31680013427205767 l -7.674139525773333 12.49286741107769" fill="#ff850c" stroke="none" /><path d="M 111.2981086023043 82.29822771554956 l 21.27653378847445 -33.335876772256796 a60.547080426084364,60.547080426084364 0 0,0 0.8737029457902257,0.5682806995705149 l -21.847203760048956 32.96469714852675" fill="#3fff2d" stroke="none" /><path d="M 111.60114157652 82.49532879139004 l 9.77100435669807 -14.743223114186105 a38.68714657408832,38.68714657408832 0 0,0 0.5519279762096617,0.372664233290161 l -10.023337027314273 14.572846968597272" fill="#ffb110" stroke="none" /><path d="M 112.19680574252982 82.90503203632743 l 10.328382387466688 -14.476197273080526 a38.78301915398159,38.78301915398159 0 0,0 0.5401083617867923,0.39241169456940783 l -10.57603606560727 14.296266343694443" fill="#ffb210" stroke="none" /><path d="M 112.48926042617603 83.11751280151076 l 9.839288843223311 -13.30036065144458 a37.5442194859375,37.5442194859375 0 0,0 0.5162398943192342,0.3888211856258433 l -10.066774891300929 13.129022876312888" fill="#ffa00e" stroke="none" /><path d="M 113.06298171725822 83.55741782278167 l 24.170838610854698 -30.424217743962092 a59.856948728432116,59.856948728432116 0 0,0 0.8012183266600843,0.6478628324926775 l -24.690960336079275 30.003648814205285" fill="#46ff2c" stroke="none" /><path d="M 113.6212207817346 84.01681056812373 l 11.655023328072161 -13.676046271514274 a38.968689724031236,38.968689724031236 0 0,0 0.5067900391544308,0.4394833279627489 l -11.888707165873356 13.473397950131854" fill="#ffb410" stroke="none" /><path d="M 113.89432698308785 84.25364557470407 l 11.681994432265197 -13.239131693725351 a38.65626239947963,38.65626239947963 0 0,0 0.4951480879079186,0.4445488422261175 l -11.908153507769107 13.036083842729937" fill="#ffb010" stroke="none" /><path d="M 114.16331599549186 84.49514656593476 l 13.661223954514563 -14.95520365514048 a41.255546309643925,41.255546309643925 0 0,0 0.5201973053585863,0.4834667021804123 l -13.916629143667995 14.717832366885427" fill="#ffd413" stroke="none" /><path d="M 114.68862486808459 84.99185889309783 l 11.828717338759056 -12.08602306397563 a37.911253867860005,37.911253867860005 0 0,0 0.46245266722446937,0.4604667485044338 l -12.035005806150847 11.880620464821076" fill="#ffa60f" stroke="none" /><path d="M 114.94478906791727 85.2469230424477 l 28.255650346054153 -27.893186189955387 a60.704050326207124,60.704050326207124 0 0,0 0.727684705003394,0.7499430537974233 l -28.731599314760658 27.40267894060785" fill="#3dff2e" stroke="none" /><path d="M 115.4437574822437 85.77008943001954 l 12.940443985851896 -11.923352258427313 a38.596062617231,38.596062617231 0 0,0 0.4459800019644189,0.4924622571741429 l -13.14376762843235 11.69883721398362" fill="#ffaf10" stroke="none" /><path d="M 115.68641384162765 86.03803664274999 l 13.635863168266477 -12.13683534184108 a39.25484966957134,39.25484966957134 0 0,0 0.4449035054945903,0.5086016161277246 l -13.842758537338915 11.900318169510406" fill="#ffb811" stroke="none" /><path d="M 115.9244219780498 86.31012108654704 l 13.405220915097054 -11.524176600489717 a38.67785603804461,38.67785603804461 0 0,0 0.42967301460709645,0.5085973234495162 l -13.601604543191268 11.291720327411094" fill="#ffb010" stroke="none" /><path d="M 116.38621287248628 86.86637796730983 l 11.524511046581006 -9.236946533966996 a35.769412179708866,35.769412179708866 0 0,0 0.38093728921640235,0.48375167251743556 l -11.681802416391372 9.037202467496522" fill="#ff870c" stroke="none" /><path d="M 116.60985879189232 87.15038557335679 l 31.903496230730948 -24.680981973601313 a61.33588901865802,61.33588901865802 0 0,0 0.6388397455297189,0.8406382211638624 l -32.32361191648478 24.128158976556417" fill="#36ff2e" stroke="none" /><path d="M 117.04232023915458 87.72973835380427 l 15.315992768984742 -11.02732703114652 a39.872773403807074,39.872773403807074 0 0,0 0.39623545822828155,0.5604469555751969 l -15.503540847016907 10.762053575239529" fill="#ffc111" stroke="none" /><path d="M 117.2510076193507 88.02491185347247 l 14.87674272950062 -10.32695071789017 a39.10975939568171,39.10975939568171 0 0,0 0.3791328650734847,0.5563306969569921 l -15.052300060242837 10.069341997662772" fill="#ffb610" stroke="none" /><path d="M 117.45458315368197 88.32363383020206 l 16.15310262069689 -10.805731613120377 a40.43415961572699,40.43415961572699 0 0,0 0.382013014963569,0.5818320301960063 l -16.336712271018385 10.526081518946697" fill="#ffc912" stroke="none" /><line stroke="#e1ed5e" stroke-width="0.3" x1="172.23445277983987" x2="176.4835382374775" y1="55.19839476539836" y2="52.563006222186495" /><path d="M 173.08426987136738 54.67131705675599 a86.0,86.0 0 0,1 12.851231095245387,41.99856678651699" fill="none" id="id63" stroke="none" /><text fill="#e1ed5e" style="font-size:6.75px; font-family:Arial;" text-anchor="middle"><textPath startOffset="22.20632615414155" xlink:href="#id63">March</textPath></text><path d="M 117.84615892207809 88.93136811851018 l 14.388024459065086 -8.923810828684399 a37.930730862570584,37.930730862570584 0 0,0 0.339361194692103,0.5578205750557407 l -14.539501452043414 8.674822480421575" fill="#ffa60f" stroke="none" /><path d="M 118.03404312379186 89.2402003453031 l 21.879115652708784 -13.053916940816922 a46.47744981826779,46.47744981826779 0 0,0 0.40400041998169667,0.6905676764089647 l -22.100575747160807 12.675369852054063" fill="#e5ff1a" stroke="none" /><path d="M 118.3937258080291 89.86733742301442 l 16.227718034186854 -8.939460822184456 a39.52708267343901,39.52708267343901 0 0,0 0.3231657122167442,0.5987769843719537 l -16.379191845622064 8.658802854480044" fill="#ffbc11" stroke="none" /><path d="M 118.56541770881063 90.18545643968196 l 15.778998856549133 -8.341512916367947 a38.84818317501566,38.84818317501566 0 0,0 0.3074381705978802,0.5938726899907977 l -15.920246460307132 8.068667504116805" fill="#ffb310" stroke="none" /><path d="M 119.04729006885535 91.15688171328212 l 16.44458728500232 -7.634756966048109 a39.13047062005507,39.13047062005507 0 0,0 0.27838103079857385,0.6133757005606862 l -16.57357063276424 7.35055925664536" fill="#ffb710" stroke="none" /><path d="M 119.196687751892 91.48605970444005 l 40.56011723228906 -17.988854169000383 a65.37028266994244,65.37028266994244 0 0,0 0.44734842475622555,1.0325418419159753 l -40.86375636688797 17.288013182497803" fill="#34ff5b" stroke="none" /><path d="M 119.47837535516314 92.15188598940014 l 17.727134968852962 -7.142514392504083 a40.11195505569897,40.11195505569897 0 0,0 0.25252662786755903,0.6426527235269281 l -17.847455146602222 6.83631266408137" fill="#ffc412" stroke="none" /><path d="M 119.61058180528143 92.48833698450437 l 16.807467285014724 -6.437954347432789 a38.998283604734894,38.998283604734894 0 0,0 0.23472400495003753,0.6289436358329523 l -16.915795878466383 6.147687574570503" fill="#ffb510" stroke="none" /><path d="M 119.7369772167798 92.82701384747503 l 15.570320782127878 -5.65870316076684 a37.56670790229718,37.56670790229718 0 0,0 0.21564528103522415,0.6096582485924255 l -15.66541914397291 5.3898472857478" fill="#ffa10e" stroke="none" /><path d="M 120.08093135843002 93.85539295169968 l 37.32201825322749 -11.420244027640772 a60.03018088793736,60.03018088793736 0 0,0 0.2938451709808455,0.9906998382880567 l -37.51306932132004 10.776114802606184" fill="#44ff2d" stroke="none" /><path d="M 120.28053869075195 94.5502522615342 l 19.01312837064195 -5.1091716506680225 a40.687627723890444,40.687627723890444 0 0,0 0.17593265927737237,0.6779403036441408 l -19.098257361789624 4.781134921475031" fill="#ffcc13" stroke="none" /><path d="M 120.37134235888165 94.90015583598534 l 17.126010079498368 -4.287394567236589 a38.65451708255566,38.65451708255566 0 0,0 0.1560302462075506,0.6468461031373249 l -17.19727312596674 3.991963232439858" fill="#ffb010" stroke="none" /><path d="M 120.45610955862082 95.25157060432595 l 18.195484941135938 -4.223675832173224 a39.67926951940008,39.67926951940008 0 0,0 0.14871339194455946,0.6666529763216695 l -18.265492720082534 3.9098446863015903" fill="#ffbe11" stroke="none" /><path d="M 120.67395015179393 96.31383870115 l 12.279212356484589 -2.189381179527827 a33.47286839684098,33.47286839684098 0 0,0 0.09625543866970397,0.568105047736561 l -12.315079656674516 1.9776903434754283" fill="#ff6509" stroke="none" /><path d="M 120.78858239683441 97.02765380044208 l 19.992788019191092 -2.85856372277018 a41.196112480808,41.196112480808 0 0,0 0.0943273291114599,0.7028481657197363 l -20.03903134736039 2.513997214985779" fill="#ffd313" stroke="none" /><path d="M 120.83666639777658 97.38593545837742 l 17.7413581233786 -2.225742559064075 a38.88042835060729,38.88042835060729 0 0,0 0.07759357272586692,0.6647743455189269 l -17.777042049108054 1.920024475220295" fill="#ffb310" stroke="none" /><path d="M 120.94382443527127 98.46500227214037 l 16.351184579443323 -1.1983977069149783 a37.39504175703631,37.39504175703631 0 0,0 0.04152525110187096,0.6423772550347666 l -16.36939042154961 0.9167613876271764" fill="#ff9e0e" stroke="none" /><path d="M 120.96714384426684 98.82574320788733 l 31.047737975299096 -1.7388165726348221 a52.09639073037415,52.09639073037415 0 0,0 0.042437203307362996,0.8957822894174577 l -31.073068786839954 1.2041231765943645" fill="#9fff22" stroke="none" /><line stroke="#e1ed5e" stroke-width="0.3" x1="184.98032266829074" x2="189.97916517819016" y1="98.17113171792111" y2="98.06355123074" /><path d="M 185.9800911702706 98.14961562048488 a86.0,86.0 0 0,1 -9.607161424134198,41.387399972396054" fill="none" id="id64" stroke="none" /><text fill="#e1ed5e" style="font-size:6.75px; font-family:Arial;" text-anchor="middle"><textPath startOffset="21.466115282336823" xlink:href="#id64">April</textPath></text><path d="M 120.99513854157772 99.54816195383933 l 16.0138949048719 -0.3446363057290809 a37.01760294824131,37.01760294824131 0 0,0 0.008226709022794002,0.6371676799668262 l -16.01745462101241 0.06893236770179191" fill="#ff990e" stroke="none" /><path d="M 120.99980553446 99.90962569577887 l 17.90814765140146 -0.07706911291292057 a38.90831348710874,38.90831348710874 0 0,0 -0.002882369940607692,0.6697612640318834 l -17.90682098417135 -0.2312016293226475" fill="#ffb410" stroke="none" /><path d="M 120.99824983174949 100.27111621757518 l 19.970292459292192 0.25784387740958914 a40.971956949051844,40.971956949051844 0 0,0 -0.015175110134395164,0.7051277384950625 l -19.96289528647279 -0.6015614316947664" fill="#ffd013" stroke="none" /><path d="M 120.95626037817324 101.35467743843564 l 31.556849893379088 2.039932306967608 a52.62271492156026,52.62271492156026 0 0,0 -0.0662130105072919,0.903423921890225 l -31.517060324207456 -2.5828293653546033" fill="#98ff23" stroke="none" /><path d="M 120.89721153311464 102.0752229133903 l 17.55624178911822 1.743443864558911 a38.64259681188824,38.64259681188824 0 0,0 -0.07142936534572816,0.6613472107674127 l -17.52363012227144 -2.045387397211115" fill="#ffb010" stroke="none" /><path d="M 120.8583938346157 102.4346265915055 l 17.017102241493145 1.9862646163460231 a38.13263014903372,38.13263014903372 0 0,0 -0.08171003834069783,0.6513094007992194 l -16.9803906939056 -2.2788917714326375" fill="#ffa90f" stroke="none" /><path d="M 120.81339534386255 102.79330883721812 l 16.301232869082146 2.1877438581487723 a37.447383264243335,37.447383264243335 0 0,0 -0.09123956674571672,0.6381293173140247 l -16.261159251319828 -2.468018647443206" fill="#ff9f0e" stroke="none" /><path d="M 120.64145759157962 103.86396538481128 l 17.344236534262517 3.246744048816996 a38.6455061665846,38.6455061665846 0 0,0 -0.12802716448565127,0.6528077534812844 l -17.285779436801203 -3.544815529366225" fill="#ffb010" stroke="none" /><path d="M 120.41448212921028 104.9243191809786 l 14.99123996272882 3.61614122895089 a36.421211139461,36.421211139461 0 0,0 -0.15225572655787475,0.6081859429542105 l -14.926772921875884 -3.8736550113024966" fill="#ff900d" stroke="none" /><path d="M 120.02730092923936 106.31721596034902 l 15.26816965398295 4.816042129902771 a37.00972411941581,37.00972411941581 0 0,0 -0.1968701415185548,0.6059039935130228 l -15.183007261448148 -5.0781450233935885" fill="#ff990e" stroke="none" /><path d="M 119.9155931802556 106.66101706037122 l 7.323474170853356 2.4494267357100195 a28.722238358453286,28.722238358453286 0 0,0 -0.16085707556134066,0.4675259571092808 l -7.280226264348785 -2.5751253959086005" fill="#ff1d02" stroke="none" /><path d="M 119.26925614724726 108.34839909993367 l 29.068765375468217 12.594033357712664 a52.67969060248536,52.67969060248536 0 0,0 -0.3676513481615434,0.8289567329829435 l -28.8476729425754 -13.092538427188297" fill="#98ff23" stroke="none" /><path d="M 119.12269723197855 108.67885076344098 l 16.008391654363546 7.265420795273471 a38.57995855205264,38.57995855205264 0 0,0 -0.2796594748995066,0.6023616292586915 l -15.880957562624209 -7.5399024918109925" fill="#ffaf10" stroke="none" /><path d="M 118.97047184881838 109.00673069616215 l 13.468623270081752 6.3945833086510815 a35.9095442077438,35.9095442077438 0 0,0 -0.2699145052210623,0.5561038267910218 l -13.356555508245975 -6.6254760914073785" fill="#ff890c" stroke="none" /><path d="M 118.81262510543309 109.33194174019688 l 13.602044327115692 6.747250024748575 a36.18357641576219,36.18357641576219 0 0,0 -0.2815794376073352,0.5555829438474399 l -13.483886219722088 -6.98038718029871" fill="#ff8d0d" stroke="none" /><line stroke="#e1ed5e" stroke-width="0.3" x1="174.80103733775053" x2="179.2010983576182" y1="140.37084112569926" y2="142.7455964860345" /><path d="M 175.68104954172406 140.8457921977663 a86.0,86.0 0 0,1 -30.038265399797805,32.042727171017184" fill="none" id="id65" stroke="none" /><text fill="#e1ed5e" style="font-size:6.75px; font-family:Arial;" text-anchor="middle"><textPath startOffset="22.206326154141568" xlink:href="#id65">May</textPath></text><path d="M 118.30583269289576 110.29060199501025 l 13.346707478769874 7.5028356760383454 a36.3110138039741,36.3110138039741 0 0,0 -0.31097444525372064,0.5422101574138594 l -13.215581037363773 -7.73146567931052" fill="#ff8f0d" stroke="none" /><path d="M 117.14729908036423 112.12312394758627 l 14.329057762651146 10.130630048184424 a38.54854870177503,38.54854870177503 0 0,0 -0.387725355257529,0.53851660703482 l -14.152552615018013 -10.375780260670375" fill="#ffaf10" stroke="none" /><path d="M 116.71984013943494 112.70617746262583 l 11.864390521679583 9.016297416552415 a35.90158990023045,35.90158990023045 0 0,0 -0.3781517589030296,0.48881212375225136 l -11.707431945558485 -9.21918753441792" fill="#ff890c" stroke="none" /><path d="M 116.498646956653 112.99209946851258 l 27.63092519277982 21.758373850582146 a56.16951605624808,56.16951605624808 0 0,0 -0.6047105461364273,0.7544693848022452 l -27.252296734588537 -22.230771068962643" fill="#6fff27" stroke="none" /><path d="M 116.0416608686014 113.55231037782055 l 13.418625101932825 11.336318210102055 a38.56620648253097,38.56620648253097 0 0,0 -0.43278168738325773,0.5034228759679464 l -13.221500904978788 -11.56561818523153" fill="#ffaf10" stroke="none" /><path d="M 115.80600337817218 113.82643327865902 l 12.830814687127967 11.223862157805533 a38.04713721634333,38.04713721634333 0 0,0 -0.4354425107696893,0.48922427694410886 l -12.63571332670994 -11.443060604490508" fill="#ffa70f" stroke="none" /><path d="M 115.07121518719521 114.62390073753431 l 12.810926202107643 12.430697246939465 a38.85054800842026,38.85054800842026 0 0,0 -0.46983147087944366,0.47593679948698425 l -12.595054106172665 -12.649374540407115" fill="#ffb310" stroke="none" /><path d="M 114.81725581225074 114.88116024355365 l 22.2347459476856 22.330640816003715 a52.512560140545425,52.512560140545425 0 0,0 -0.6460296387228038,0.632275972705198 l -21.847066356587003 -22.710066891631485" fill="#9aff23" stroke="none" /><path d="M 114.29624159901734 115.38237550388516 l 12.202400998458158 13.129458739712986 a38.92432082186096,38.92432082186096 0 0,0 -0.49471041733576276,0.45190623676543734 l -11.97459103165553 -13.337557743065005" fill="#ffb410" stroke="none" /><path d="M 114.0293411484842 115.62618273729858 l 10.19657033779993 11.357159948269924 a36.262867644852584,36.262867644852584 0 0,0 -0.4680632181273129,0.4130113692201505 l -9.99956476676603 -11.530994459262363" fill="#ff8e0d" stroke="none" /><path d="M 113.75828350139079 115.86535959552629 l 10.130609680736956 11.68210885395436 a36.4628884681705,36.4628884681705 0 0,0 -0.4777237829197319,0.4071265718003313 l -9.928020421240177 -11.854759815977637" fill="#ff910d" stroke="none" /><path d="M 113.20401910651253 116.32954008644616 l 9.527052392258273 11.782199244798301 a36.15206079478827,36.15206079478827 0 0,0 -0.48726523479960115,0.38711297197965583 l -9.32282966474132 -11.944446130783083" fill="#ff8c0c" stroke="none" /><path d="M 112.92097659922987 116.55440617244103 l 21.826983456181594 27.964817278155056 a56.47461362998933,56.47461362998933 0 0,0 -0.7714735342797003,0.5915330087665406 l -21.3423811934084 -28.336389628748968" fill="#6cff28" stroke="none" /><path d="M 111.7513745106137 117.40417183066458 l 10.67068752398605 15.803638889310081 a40.06878534092472,40.06878534092472 0 0,0 -0.5749399435227548,0.3810388440499923 l -10.39707288172333 -15.984975754451392" fill="#ffc412" stroke="none" /><path d="M 111.1453310114006 117.79835938074945 l 20.614821906240074 32.920512498201596 a59.84238696797924,59.84238696797924 0 0,0 -0.8777476148493975,0.5391842755648018 l -20.045095091458368 -33.27048524059478" fill="#46ff2c" stroke="none" /><line stroke="#e1ed5e" stroke-width="0.3" x1="143.8653032363475" x2="146.44561519142675" y1="172.8068346515853" y2="177.08958963109032" /><path d="M 144.38136562736335 173.6633856474863 a86.0,86.0 0 0,1 -40.68145358897372,12.25698825130547" fill="none" id="id66" stroke="none" /><text fill="#e1ed5e" style="font-size:6.75px; font-family:Arial;" text-anchor="middle"><textPath startOffset="21.466115282336833" xlink:href="#id66">June</textPath></text><path d="M 110.8373102113329 117.98757091392108 l 9.077805855306337 15.06717749893103 a38.59052008699366,38.59052008699366 0 0,0 -0.5719337964189058,0.3379085680725301 l -8.81710418785905 -15.22120463929731" fill="#ffaf10" stroke="none" /><path d="M 110.21172684928248 118.3499491758327 l 8.598738881851723 15.451492562134305 a38.68295599598552,38.68295599598552 0 0,0 -0.5846232286959372,0.3187831977462254 l -8.331492841287137 -15.5972164116403" fill="#ffb010" stroke="none" /><path d="M 109.89434966115114 118.52300852407294 l 7.627418776749387 14.279133834650182 a37.188612672609125,37.188612672609125 0 0,0 -0.5672309981645313,0.2967484492470943 l -7.38049687605836 -14.408311702841994" fill="#ff9b0e" stroke="none" /><path d="M 109.57404056367764 118.69057910512821 l 6.269798833463224 12.239991076982731 a34.75237284895642,34.75237284895642 0 0,0 -0.5347663564234285,0.26814295267815985 l -6.058178569357036 -12.346101870570193" fill="#ff780b" stroke="none" /><path d="M 108.92500713936063 119.00905698771935 l 6.257092830068542 13.326760676714015 a35.72255958787419,35.72255958787419 0 0,0 -0.5588573379867664,0.25654399364823366 l -6.026767496314356 -13.432491740696323" fill="#ff860c" stroke="none" /><path d="M 108.59647513512805 119.15986991738527 l 14.885301346392211 33.17643952839823 a57.362732789964646,57.362732789964646 0 0,0 -0.9043626129470971,0.39644599274868375 l -14.312018058787359 -33.42775007444136" fill="#62ff29" stroke="none" /><path d="M 107.93186726928326 119.44442032107085 l 6.7210520807050935 16.476191194365096 a38.79430856607877,38.79430856607877 0 0,0 -0.620485267470207,0.24690389328290951 l -6.43644573719302 -16.589441932054076" fill="#ffb210" stroke="none" /><path d="M 107.2578585660854 119.70592522655815 l 5.903717228213845 16.029274916095986 a38.08190655186045,38.08190655186045 0 0,0 -0.6170727568344978,0.22126033620375934 l -5.626924910749612 -16.128522793339705" fill="#ffa80f" stroke="none" /><path d="M 106.57524785965236 119.94407469862006 l 4.08945672033243 12.40416058040372 a34.06089032079795,34.06089032079795 0 0,0 -0.5584017859356822,0.17878261810940532 l -3.8753335893058076 -12.472716045172831" fill="#ff6e0a" stroke="none" /><path d="M 106.2309692047433 120.05430185196036 l 10.435281410706136 33.58583174526744 a56.16963451817552,56.16963451817552 0 0,0 -0.9257960087278834,0.27893474300924903 l -9.855610427538005 -33.760481857382416" fill="#6fff27" stroke="none" /><path d="M 105.18746579009965 120.34920634021253 l 3.819106414837398 14.981454840449663 a36.46058093812405,36.46058093812405 0 0,0 -0.6094936749848924,0.14979871640384804 l -3.5606594551092945 -15.044974815167542" fill="#ff910d" stroke="none" /><path d="M 104.13013068566511 120.58985236759428 l 3.5218473282214475 17.557390326889475 a38.907131643399865,38.907131643399865 0 0,0 -0.6577757979775704,0.12606429720199505 l -3.219103915672173 -17.61541182243994" fill="#ffb410" stroke="none" /><path d="M 103.7750983002368 120.6578951692458 l 6.792419774149717 37.16912368377139 a58.78466252076039,58.78466252076039 0 0,0 -0.9969627627827262,0.17333475544992455 l -6.151608039894941 -37.28053701774232" fill="#52ff2b" stroke="none" /><path d="M 103.06178313531738 120.77559828337769 l 2.4566193829508958 16.669285569781724 a37.84933411739536,37.84933411739536 0 0,0 -0.6453697328598151,0.08944236435197173 l -2.1693210589042504 -16.709102499626297" fill="#ffa50f" stroke="none" /><path d="M 102.34483914955558 120.86867818915974 l 1.6593786841623 14.768194125510714 a35.86112698775639,35.86112698775639 0 0,0 -0.6140234435135387,0.06364604051056795 l -1.4049226440431586 -14.794569534477041" fill="#ff880c" stroke="none" /><path d="M 101.62511606390274 120.93702456842531 l 1.1532742772854265 14.85809685473833 a35.90278778294294,35.90278778294294 0 0,0 -0.6165658222085947,0.04252198898296585 l -0.8973456942979013 -14.87574718823758" fill="#ff890c" stroke="none" /><path d="M 101.26447882468166 120.96189622390904 l 2.1132730369525845 35.03278127614149 a56.09646259768469,56.09646259768469 0 0,0 -0.9643567770267213,0.04984623009665287 l -1.5099281915123839 -35.06396731300035" fill="#70ff27" stroke="none" /><line stroke="#e1ed5e" stroke-width="0.3" x1="102.19456741930631" x2="102.32365962044197" y1="184.97166512339345" y2="189.96999836594603" /><path d="M 102.22038585953345 185.97133177190398 a86.0,86.0 0 0,1 -42.740103519485714,-10.115201625700543" fill="none" id="id67" stroke="none" /><text fill="#e1ed5e" style="font-size:6.75px; font-family:Arial;" text-anchor="middle"><textPath startOffset="22.20632615414155" xlink:href="#id67">July</textPath></text><path d="M 100.54218724476979 120.99299961872073 l 0.455813180360053 17.648673984518574 a38.654559158110196,38.654559158110196 0 0,0 -0.66530075472236,0.01145375583930513 l -0.15195273574502502 -17.653905217637035" fill="#ffb010" stroke="none" /><path d="M 100.18074693466247 120.99922214144158 l 0.13005848378355842 15.110225783083324 a36.11078549993216,36.11078549993216 0 0,0 -0.6216108368920173,0.0 l 0.130058483783548 -15.110225783083324" fill="#ff8c0c" stroke="none" /><path d="M 99.81925306533755 120.99922214144158 l -0.13630705291005954 15.836186040162197 a36.83677264821659,36.83677264821659 0 0,0 -0.6340140252059376,-0.010915126417426558 l 0.40888076800866513 -15.83149343646561" fill="#ff960d" stroke="none" /><path d="M 99.09653310690486 120.98055641714683 l -0.6427414241532662 14.92591794358633 a35.939750432888594,35.939750432888594 0 0,0 -0.6178418440244885,-0.03193536609504473 l 0.8995713365912436 -14.912642770729084" fill="#ff890c" stroke="none" /><path d="M 98.73552117531835 120.96189622390904 l -2.179542671897343 36.13136607123176 a57.19704436044439,57.19704436044439 0 0,0 -0.9822563890359872,-0.06774215152474893 l 2.8011618217122605 -36.08849557519072" fill="#64ff29" stroke="none" /><path d="M 97.65516085044442 120.86867818915974 l -1.9991252984949668 17.791882450447137 a38.9038426905961,38.9038426905961 0 0,0 -0.6648343942655996,-0.08050218641295549 l 2.305087115811956 -17.754834735308833" fill="#ffb410" stroke="none" /><path d="M 96.58105272829116 120.7198165907248 l -2.8768183295758103 17.434357249930166 a38.67011308451578,38.67011308451578 0 0,0 -0.655828597540116,-0.11402420814031694 l 3.176495898587976 -17.382254463268843" fill="#ffb010" stroke="none" /><path d="M 96.22490169976321 120.6578951692458 l -7.56302452734442 41.385986647954525 a63.07135879462278,63.07135879462278 0 0,0 -1.0663035697647345,-0.20435961696929134 l 8.27429571168085 -41.24966983263677" fill="#31ff3d" stroke="none" /><path d="M 95.16358092515715 120.4354850818985 l -3.423233165781918 14.464302867193043 a35.86386836396226,35.86386836396226 0 0,0 -0.5995187231224209,-0.1473471159254254 l 3.67170517364755 -14.403234492953587" fill="#ff880c" stroke="none" /><path d="M 94.11515582081647 120.15858648285463 l -4.5775133272968045 15.680312931842945 a37.33480461781227,37.33480461781227 0 0,0 -0.6153576286956524,-0.18540220567040022 l 4.846745930432703 -15.599195357066819" fill="#ff9d0e" stroke="none" /><path d="M 93.08242187328487 119.8279376855182 l -5.936488587043023 17.01582889539028 a39.02166279068862,39.02166279068862 0 0,0 -0.6323004075892463,-0.2267204299905477 l 6.228508555261996 -16.911120924359775" fill="#ffb510" stroke="none" /><path d="M 92.40401165467489 119.57807347666478 l -6.552431639843172 16.888386640906837 a39.11496518703744,39.11496518703744 0 0,0 -0.6256139246515389,-0.24894469181878115 l 6.842166640536569 -16.77309510468199" fill="#ffb710" stroke="none" /><path d="M 91.7346041902142 119.30500536409082 l -4.746198080473328 11.085419441631036 a33.05872797669721,33.05872797669721 0 0,0 -0.5211933978665763,-0.22847586916262572 l 4.9363121529976475 -11.002079019173959" fill="#ff5f08" stroke="none" /><path d="M 90.42595943632237 118.69057910512821 l -8.059566549706062 15.73400124518196 a38.67810533265735,38.67810533265735 0 0,0 -0.5899499529089817,-0.30863393260527816 l 8.32920740514154 -15.592937893631964" fill="#ffb010" stroke="none" /><path d="M 90.10565033884886 118.52300852407294 l -6.1172932257127 11.452058846174541 a33.983486751469925,33.983486751469925 0 0,0 -0.5135992127657539,-0.28005524134000087 l 6.313515250347095 -11.345062953074775" fill="#ff6d0a" stroke="none" /><line stroke="#e1ed5e" stroke-width="0.3" x1="58.666819895761336" x2="56.23545636021788" y1="174.27360380694188" y2="178.64263932499728" /><path d="M 58.180547188652646 175.14741091055294 a86.0,86.0 0 0,1 -31.652253787137756,-30.449443065178592" fill="none" id="id68" stroke="none" /><text fill="#e1ed5e" style="font-size:6.75px; font-family:Arial;" text-anchor="middle"><textPath startOffset="22.20632615414155" xlink:href="#id68">August</textPath></text><path d="M 89.4739219176387 118.17145234162733 l -7.577988564416244 13.082085936113074 a36.118428593020866,36.118428593020866 0 0,0 -0.5352959726721543,-0.3162622960090922 l 7.80205240811678 -12.949705067810234" fill="#ff8c0c" stroke="none" /><path d="M 89.1626897886671 117.98757091392108 l -16.16569707736071 26.831530784079 a52.325082700832056,52.325082700832056 0 0,0 -0.7674863731961143,-0.47145281529315913 l 16.625162650489134 -26.549289501957464" fill="#9cff22" stroke="none" /><path d="M 88.24862548938628 117.40417183066458 l -9.599670693385272 14.217427766817625 a38.154851492394705,38.154851492394705 0 0,0 -0.5411504683450382,-0.372208226601132 l 9.8429780463532 -14.050078750851393" fill="#ffa90f" stroke="none" /><path d="M 87.95078237400918 117.19931262002967 l -10.575222386550339 15.09530008490148 a39.431044820579814,39.431044820579814 0 0,0 -0.5525466154791585,-0.3942273391218338 l 10.833496329878384 -14.911028483935425" fill="#ffbb11" stroke="none" /><path d="M 87.36589467227662 116.77436683061367 l -8.937802220010798 11.866766123039007 a35.85612488985389,35.85612488985389 0 0,0 -0.4898139113547011,-0.37556842049011413 l 9.140744859858986 -11.711158360721527" fill="#ff880c" stroke="none" /><path d="M 87.07902340077011 116.55440617244103 l -18.985460800534362 24.324247246275164 a51.85638873728667,51.85638873728667 0 0,0 -0.6989315374678559,-0.5552734842467657 l 19.401349830719575 -23.993839848023267" fill="#a2ff22" stroke="none" /><path d="M 86.51685102203217 116.09983520530335 l -11.340619909706668 13.541503692543046 a38.66301169652537,38.66301169652537 0 0,0 -0.506549014153295,-0.43169205920761644 l 11.572034400437019 -13.344287243112477" fill="#ffb010" stroke="none" /><path d="M 86.24171649860922 115.8653595955263 l -11.591828007093405 13.367112233400272 a38.6932237313146,38.6932237313146 0 0,0 -0.4994330563366247,-0.4406916041313211 l 11.820203416336618 -13.165597487496662" fill="#ffb110" stroke="none" /><path d="M 85.44109423537348 115.13401014063109 l -11.38769924537314 11.837534952432271 a37.425800676165764,37.425800676165764 0 0,0 -0.4604265422410218,-0.45062427852423503 l 11.589775739989955 -11.639760570985466" fill="#ff9f0e" stroke="none" /><path d="M 85.18274418774928 114.88116024355367 l -25.961319577046147 26.07328655557892 a57.79410803363566,57.79410803363566 0 0,0 -0.6989216929378617,-0.7080039849314862 l 26.40628189503954 -25.622542076666768" fill="#5dff2a" stroke="none" /><path d="M 83.06392112726016 112.41649034213515 l -9.85174533955877 7.222693149988701 a33.21573504028356,33.21573504028356 0 0,0 -0.33408735483835733,-0.4640181157646801 l 9.974612486772735 -7.052041428772883" fill="#ff6109" stroke="none" /><path d="M 82.6465618267979 111.8261652097733 l -14.595681860459383 9.946786527734714 a38.66274302593082,38.66274302593082 0 0,0 -0.37005196592928746,-0.5531774797542168 l 14.764736931799401 -9.694072133774677" fill="#ffb010" stroke="none" /><path d="M 82.24976979558568 111.22182372390057 l -12.693152155887224 8.024702460399148 a36.017055677809836,36.017055677809836 0 0,0 -0.3267867943652758,-0.5268843636973678 l 12.829403589920457 -7.805021765336516" fill="#ff8a0c" stroke="none" /><path d="M 82.05923443525364 110.91462005526583 l -5.461849185212409 3.322824125905659 a27.393196125077516,27.393196125077516 0 0,0 -0.2416068475292117,-0.4049469736588647 l 5.518236908439853 -3.228315058360683" fill="#ff0801" stroke="none" /><line stroke="#e1ed5e" stroke-width="0.3" x1="26.63291911575756" x2="22.317208475507996" y1="142.92168965132927" y2="145.44649492493687" /><path d="M 25.769776987707644 143.4266507060508 a86.0,86.0 0 0,1 -11.730757126820373,-40.83630448921669" fill="none" id="id69" stroke="none" /><text fill="#e1ed5e" style="font-size:6.75px; font-family:Arial;" text-anchor="middle"><textPath startOffset="21.46611528233685" xlink:href="#id69">September</textPath></text><line stroke="#e1ed5e" stroke-width="0.3" x1="15.007084014347285" x2="10.007500721073583" y1="101.09737516637583" y2="101.16192664675087" /><path d="M 14.007167355692545 101.11028546245083 a86.0,86.0 0 0,1 10.666146001902534,-42.60595125391555" fill="none" id="id70" stroke="none" /><text fill="#e1ed5e" style="font-size:6.75px; font-family:Arial;" text-anchor="middle"><textPath startOffset="22.20632615414155" xlink:href="#id70">October</textPath></text><path d="M 79.21141760316559 97.0276538004421 l -16.009813413407098 -2.2890790312964295 a37.1726314600819,37.1726314600819 0 0,0 0.09601886581248711,-0.6326443561216626 l 15.96803865415531 2.5643224998101846" fill="#ff9b0e" stroke="none" /><path d="M 79.46518482838121 95.60439243477599 l -16.04938699555975 -3.435473185675083 a37.412961309365684,37.412961309365684 0 0,0 0.1402195263772703,-0.6285766424631883 l 15.987873082180442 3.7112279976882303" fill="#ff9e0e" stroke="none" /><path d="M 79.62865764111835 94.90015583598534 l -17.396355961244385 -4.355074047704738 a38.93320581188189,38.93320581188189 0 0,0 0.1683465666555783,-0.6487079942104392 l 17.3188130627185 4.6538784674640405" fill="#ffb410" stroke="none" /><path d="M 79.91906864156998 93.8553929516997 l -17.456137124376376 -5.341440658105296 a39.255073585419794,39.255073585419794 0 0,0 0.20327495174714452,-0.6444371469282061 l 17.36160668886103 5.641127971459916" fill="#ffb811" stroke="none" /><path d="M 80.14247586403 93.16781622104843 l -5.5739612165970085 -1.917778225914718 a26.89465155610747,26.89465155610747 0 0,0 0.15438416132297222,-0.4364648136547935 l 5.540123974464227 2.0134406659961224" fill="#ff0000" stroke="none" /><path d="M 81.10775173730289 90.83032412892265 l -12.15546543228521 -5.89986308279795 a34.51161442135035,34.51161442135035 0 0,0 0.263997394933454,-0.5322026388464415 l 12.052108024398343 6.108225310143353" fill="#ff740a" stroke="none" /><path d="M 81.26839172434947 90.50648371742162 l -14.511499487429445 -7.354689177843958 a37.26883739780935,37.26883739780935 0 0,0 0.29493948631454653,-0.5697292102067113 l 14.382750567954783 7.603391110311005" fill="#ff9c0e" stroke="none" /><path d="M 81.43458229118936 90.18545643968196 l -12.954375141082652 -6.848285404239471 a35.65315147924908,35.65315147924908 0 0,0 0.2914932069678109,-0.5400926423655769 l 12.83457383489637 7.07025902993752" fill="#ff850c" stroke="none" /><line stroke="#e1ed5e" stroke-width="0.3" x1="26.266209847984243" x2="21.928928074336255" y1="57.711370442889674" y2="55.22380399835377" /><path d="M 25.398753493254645 57.213857153982495 a86.0,86.0 0 0,1 29.58750427330803,-30.492523968695096" fill="none" id="id71" stroke="none" /><text fill="#e1ed5e" style="font-size:6.75px; font-family:Arial;" text-anchor="middle"><textPath startOffset="21.46611528233685" xlink:href="#id71">November</textPath></text><path d="M 81.78341655067845 89.55222093294921 l -37.12604968554766 -21.29294803419346 a63.798752332756344,63.798752332756344 0 0,0 0.5545640485337361,-0.9479297235216738 l 36.7540259625436 21.92885717006903" fill="#32ff47" stroke="none" /><path d="M 82.34701348167596 88.62581576622439 l -14.884319086153935 -9.5902745580463 a38.70639208752468,38.70639208752468 0 0,0 0.3656894487295461,-0.5569701189260818 l 14.717033002066469 9.845062740950048" fill="#ffb110" stroke="none" /><path d="M 82.7489923806493 88.02491185347247 l -14.38284063284366 -9.984099953823053 a38.508522397898346,38.508522397898346 0 0,0 0.38267822164005155,-0.5412712058685454 l 14.20884979139973 10.230197660023384" fill="#ffae10" stroke="none" /><path d="M 83.17141714833178 87.43820079747576 l -14.335534974249654 -10.7008482766828 a38.88898311359593,38.88898311359593 0 0,0 0.4050455365315132,-0.5329924471713612 l 14.149213497494031 10.946025499735189" fill="#ffb310" stroke="none" /><path d="M 83.39014120810768 87.1503855733568 l -35.02492818858949 -27.095764520522327 a65.28234467107006,65.28234467107006 0 0,0 0.6952442854734638,-0.8828896393886964 l 34.55332982252206 27.69464655386407" fill="#34ff5a" stroke="none" /><path d="M 83.84228863543731 86.58626213691792 l -13.56299929266154 -11.259671190063589 a38.6276812179335,38.6276812179335 0 0,0 0.4291156216069829,-0.5079375459481823 l 13.367173057567435 11.491467685640888" fill="#ffb010" stroke="none" /><path d="M 84.07557802195018 86.31012108654704 l -13.275968928546101 -11.413061481357301 a38.507407671296264,38.507407671296264 0 0,0 0.4364322065854036,-0.49891745706243645 l 13.077544858382854 11.639894494622682" fill="#ffae10" stroke="none" /><path d="M 84.31358615837235 86.03803664274999 l -9.625995279459149 -8.567783224755525 a33.88668671562136,33.88668671562136 0 0,0 0.3915628585713005,-0.43237348829145267 l 9.477088780271803 8.732209500316532" fill="#ff6b09" stroke="none" /><path d="M 84.80347519578584 85.50635884689758 l -10.724431771783516 -10.228395483423718 a35.82003748284607,35.82003748284607 0 0,0 0.4293896909488644,-0.442523820942233 l 10.546777817131533 10.411483499916073" fill="#ff880c" stroke="none" /><path d="M 85.05521093208273 85.24692304244772 l -31.882423520471516 -31.473435031648922 a65.80029064894714,65.80029064894714 0 0,0 0.8026513715640842,-0.7992045314928221 l 31.335936348740116 32.01757541379185" fill="#34ff60" stroke="none" /><path d="M 85.57189188830299 84.74124197986013 l -10.063622906039722 -10.643002224574788 a35.6475254683947,35.6475254683947 0 0,0 0.44948493839299974,-0.4177472635980542 l 9.878930083851866 10.814654074247489" fill="#ff850c" stroke="none" /><path d="M 85.83668400450813 84.49514656593479 l -12.109168751496401 -13.25613908212417 a38.95430843048088,38.95430843048088 0 0,0 0.49896575969509416,-0.4479763856508749 l 11.879192004205334 13.462614476544323" fill="#ffb410" stroke="none" /><path d="M 86.10567301691215 84.25364557470407 l -13.236317330072003 -15.000636174655579 a41.0054788022369,41.0054788022369 0 0,0 0.5332785976356749,-0.46245394485509167 l 12.976144933789556 15.22625511293035" fill="#ffd113" stroke="none" /><path d="M 86.65592168130627 83.78471172551755 l -11.613535754542966 -14.112389454587511 a39.2765901863559,39.2765901863559 0 0,0 0.5257388579695017,-0.42511092712447784 l 11.368893498008964 14.310206478976124" fill="#ffb911" stroke="none" /><path d="M 86.93701828274178 83.55741782278169 l -20.15910787218127 -25.37458866453351 a53.407705566678324,53.407705566678324 0 0,0 0.724736066196859,-0.5656679952396428 l 19.719339250824987 25.717835048996374" fill="#8fff24" stroke="none" /><path d="M 87.51073957382395 83.11751280151077 l -11.245497417709235 -15.201217663554534 a39.90868135609851,39.90868135609851 0 0,0 0.5557847990826438,-0.4038012929524568 l 10.98216730227281 15.39253819132366" fill="#ffc212" stroke="none" /><path d="M 87.80319425747018 82.90503203632743 l -8.638818534912177 -12.108114961882883 a35.87399185186392,35.87399185186392 0 0,0 0.505770089817448,-0.354324269554257 l 8.429117305511069 12.255024074201081" fill="#ff880c" stroke="none" /><path d="M 88.09926311788651 82.69761687909137 l -12.459182084865525 -18.114301991627602 a42.98543051358599,42.98543051358599 0 0,0 0.613249199561155,-0.41406859702913834 l 12.145528190897831 18.32608250095541" fill="#ffec16" stroke="none" /><path d="M 88.70189139769569 82.29822771554957 l -9.392730440996727 -14.716443366621416 a38.45843894797591,38.45843894797591 0 0,0 0.5610918630152967,-0.3513556731455139 l 9.138019425609187 14.875943381089861" fill="#ffad10" stroke="none" /><path d="M 89.00827224532344 82.1063720568725 l -26.729437210269868 -43.513323405072896 a72.06732935382684,72.06732935382684 0 0,0 1.0626085216348145,-0.6402097446770844 l 25.9764666224174 43.9669797592086" fill="#3dffac" stroke="none" /><line stroke="#e1ed5e" stroke-width="0.3" x1="56.762969772571076" x2="54.21961505331055" y1="26.818313649435495" y2="22.513508569990535" /><path d="M 56.25429882871897 25.957352633546506 a86.0,86.0 0 0,1 42.265352541879196,-11.944610805530505" fill="none" id="id72" stroke="none" /><text fill="#e1ed5e" style="font-size:6.75px; font-family:Arial;" text-anchor="middle"><textPath startOffset="22.20632615414155" xlink:href="#id72">December</textPath></text><path d="M 89.63071344664047 81.73862282372117 l -10.838983588030038 -19.088561830166036 a42.951235909753606,42.951235909753606 0 0,0 0.6460600365940422,-0.35953171089022673 l 10.508799462363951 19.272308938616447" fill="#ffeb16" stroke="none" /><path d="M 90.26544431104013 81.39251694778311 l -8.117207775883777 -15.515942478235399 a38.510954658863625,38.510954658863625 0 0,0 0.5900236083063815,-0.302233008815806 l 7.848923679988633 15.65336801236371" fill="#ffae10" stroke="none" /><path d="M 90.58718382345135 81.22770947309562 l -10.44077715547648 -20.822387095754 a44.29338172047464,44.29338172047464 0 0,0 0.6844988118842473,-0.3358805942458975 l 10.080807076581808 20.999022850134725" fill="#fffd17" stroke="none" /><path d="M 90.91171255644093 81.06846463323043 l -7.5492739027172675 -15.725663032809374 a38.44385319474213,38.44385319474213 0 0,0 0.5990317336627992,-0.2812534310932956 l 7.277463957754859 15.853281446542677" fill="#ffad10" stroke="none" /><path d="M 91.23893434514133 80.91482961587045 l -15.109633226940385 -32.91493705653713 a57.21731764899855,57.21731764899855 0 0,0 0.8986330711431592,-0.40319046449664675 l 14.540818037330453 33.170147851550304" fill="#63ff29" stroke="none" /><path d="M 91.90106846888425 80.62456947434976 l -9.043749996399645 -21.63576134374983 a44.4498525138449,44.4498525138449 0 0,0 0.7084801252762555,-0.2890068319767184 l 8.66998600153501 21.788229061910126" fill="#ffff18" stroke="none" /><path d="M 92.23578459929587 80.48803036053334 l -6.332671975084935 -15.91440949762325 a38.1280811535346,38.1280811535346 0 0,0 0.611895487380939,-0.23740594273703847 l 6.0577933227043195 16.02105814425084" fill="#ffa90f" stroke="none" /><path d="M 93.59665428221793 80.00007090966166 l -9.333778727443171 -29.152714990130246 a51.610459268502254,51.610459268502254 0 0,0 0.848413593362101,-0.26360623332335603 l 8.830579761370343 29.309061358336127" fill="#a5ff21" stroke="none" /><path d="M 93.94186890950719 79.89281104454417 l -5.024543340336 -16.676668241392367 a38.41715531917826,38.41715531917826 0 0,0 0.6348156525235027,-0.18532009676298364 l 4.736737470089076 16.76068666707405" fill="#ffad10" stroke="none" /><path d="M 94.63758080256005 79.69619591428918 l -4.494936244266345 -17.01924104048314 a38.602812770522924,38.602812770522924 0 0,0 0.6439153421557796,-0.1641483580886687 l 4.201312013425566 17.094092394740674" fill="#ffaf10" stroke="none" /><path d="M 95.33964822691252 79.52364482259891 l -3.2419653497901844 -14.244339742437942 a35.60861232380534,35.60861232380534 0 0,0 0.5988305011880217,-0.13088115347309007 l 2.9962921244486416 14.298034394006901" fill="#ff840c" stroke="none" /><path d="M 96.04723909329186 79.375362276772 l -11.858282720124423 -61.87391316968403 a84.0,84.0 0 0,0 1.4224195155884267,-0.2599380745970552 l 10.791468083433102 62.06886672563182" fill="#4dd2ff" stroke="none" /><path d="M 97.11714578562143 79.19881850522333 l -2.011893976082604 -14.516783934481168 a35.655535922353984,35.655535922353984 0 0,0 0.6086659273963285,-0.07902230620512925 l 1.7617133201784176 14.549264563850434" fill="#ff850c" stroke="none" /><path d="M 97.47563105711357 79.15227682838746 l -2.1419843857832808 -17.689766639921558 a38.81897698757763,38.81897698757763 0 0,0 0.6640509080775194,-0.07461385682620714 l 1.8371667741960431 17.724016450218365" fill="#ffb210" stroke="none" /><path d="M 98.19473922651362 79.07773832637324 l -0.814650517852549 -9.441478792091623 a30.47655935705324,30.47655935705324 0 0,0 0.523050046988721,-0.040598750352920654 l 0.6520102815014939 9.454102804633006" fill="#ff3805" stroke="none" /><path d="M 98.55514903715128 79.0497635885617 l -2.388681541801053 -34.63571281684564 a55.71798383891476,55.71798383891476 0 0,0 0.9573887205343333,-0.0577523021378142 l 1.7921307724270967 34.671698388363765" fill="#74ff27" stroke="none" /></svg>