<?xml version="1.0" encoding="utf-8" ?>
<svg baseProfile="full" height="200mm" version="1.1" viewBox="0,0,200,200" width="200mm" xmlns="http://www.w3.org/2000/svg" xmlns:ev="http://www.w3.org/2001/xml-events" xmlns:xlink="http://www.w3.org/1999/xlink"><defs /><rect fill="#1a1a1a" height="200" width="200" x="0" y="0" /><text alignment-baseline="middle" fill="#e1ed5e" style="dominant-baseline: central; font-size:9.0px; font-family:Arial;" text-anchor="middle" x="100.0" y="100.0">2021</text><line stroke="#e1ed5e" stroke-width="0.3" x1="100.0" x2="100.0" y1="15.0" y2="10.0" /><path d="M 100.0 14.0 a86.0,86.0 0 0,1 42.46469731375804,11.215312516191453" fill="none" id="id13" stroke="none" /><text fill="#e1ed5e" style="font-size:6.75px; font-family:Arial;" text-anchor="middle"><textPath startOffset="22.20632615414155" xlink:href="#id13">January</textPath></text><path d="M 101.08401301168833 79.027996857942 l 3.2520390350649873 -62.916009426173986 a84.0,84.0 0 0,0 1.4433518046415523,0.08706692247878367 l -4.334552888546152 62.8507092343149" fill="#4dd2ff" stroke="none" /><path d="M 101.80526077348638 79.07773832637324 l 2.40222977008538 -27.84089733077108 a48.94434239789551,48.94434239789551 0 0,0 0.8387542380997247,0.07964982145289314 l -2.881109135275349 27.79542196480301" fill="#ffef16" stroke="none" /><path d="M 103.2404852339499 79.25152402106235 l 6.526560433163902 -41.78885956765311 a63.295446268514226,63.295446268514226 0 0,0 1.0750303365897687,0.17738921675267863 l -7.244919975892546 41.670324087960815" fill="#46ff2d" stroke="none" /><path d="M 103.95276090670814 79.375362276772 l 7.356149500270285 -38.382771450583526 a60.08132648334824,60.08132648334824 0 0,0 1.0140400128319529,0.20340688698093873 l -8.015755922569364 38.25046060752538" fill="#6fff27" stroke="none" /><path d="M 104.307194497241 79.44645832069477 l 9.162521728894333 -43.72272307716781 a65.67245591765874,65.67245591765874 0 0,0 1.1044145538108516,0.24138224493986782 l -9.913779006858713 43.55852733413207" fill="#30ff38" stroke="none" /><path d="M 104.66035177308747 79.52364482259891 l 6.535352295124299 -28.71461239840118 a50.44893537654292,50.44893537654292 0 0,0 0.8450828801631516,0.20000381420182592 l -7.028658862249974 28.597862672058486" fill="#f8ff18" stroke="none" /><path d="M 105.71112130821622 79.79150937346287 l 7.58915098489635 -26.853795999923214 a48.90558317392857,48.90558317392857 0 0,0 0.8081293223473228,0.23591510955830003 l -8.0502705249671 26.71918256144621" fill="#ffee16" stroke="none" /><path d="M 106.40334571778207 80.00007090966166 l 11.933978240252486 -37.274064073704544 a60.13790604017353,60.13790604017353 0 0,0 0.983160770379193,0.3241326483588203 l -12.573821832874097 37.06311770108649" fill="#6eff28" stroke="none" /><path d="M 106.74666289553966 80.11325718540242 l 12.55106443194721 -36.99603704412038 a60.06707021706155,60.06707021706155 0 0,0 0.9762843822989558,0.3406064511377522 l -13.186030818309439 36.77450973981042" fill="#6fff27" stroke="none" /><path d="M 107.08798089147638 80.2323363322302 l 11.355623403140537 -31.669688111190865 a54.644008797021456,54.644008797021456 0 0,0 0.8826768368851662,0.3250973282410622 l -11.899082565798281 31.46952751514348" fill="#baff1f" stroke="none" /><path d="M 108.09893153111575 80.62456947434976 l 16.16116597339104 -38.66306898976863 a62.904846847675046,62.904846847675046 0 0,0 0.9954429676759574,0.42619672871026454 l -16.82429269885731 38.37915273309558" fill="#4bff2c" stroke="none" /><path d="M 108.76106565485865 80.91482961587045 l 16.326202154483415 -35.56511982891722 a60.13339526841876,60.13339526841876 0 0,0 0.9369979600171561,0.4399331059990039 l -16.935978325800168 35.27882174027821" fill="#6eff28" stroke="none" /><path d="M 109.41281617654863 81.2277094730956 l 17.500273834905276 -34.90137473923165 a60.04312414478313,60.04312414478313 0 0,0 0.9199164517138257,0.47121693631665396 l -18.098450774207855 34.5949652776025" fill="#70ff27" stroke="none" /><line stroke="#e1ed5e" stroke-width="0.3" x1="143.23703022742887" x2="145.7803849466894" y1="26.81831364943548" y2="22.513508569990506" /><path d="M 143.74570117128098 25.957352633546492 a86.0,86.0 0 0,1 28.547481713284135,27.462654790039103" fill="none" id="id14" stroke="none" /><text fill="#e1ed5e" style="font-size:6.75px; font-family:Arial;" text-anchor="middle"><textPath startOffset="19.985693538727396" xlink:href="#id14">February</textPath></text><path d="M 111.2981086023043 82.29822771554956 l 15.107394770649618 -23.67012669596697 a49.080389501561044,49.080389501561044 0 0,0 0.7082369717297159,0.46065702730605185 l -15.512598768163613 23.40657074450139" fill="#fff116" stroke="none" /><line stroke="#e1ed5e" stroke-width="0.3" x1="172.23445277983987" x2="176.4835382374775" y1="55.19839476539836" y2="52.563006222186495" /><path d="M 173.08426987136738 54.67131705675599 a86.0,86.0 0 0,1 12.851231095245387,41.99856678651699" fill="none" id="id15" stroke="none" /><text fill="#e1ed5e" style="font-size:6.75px; font-family:Arial;" text-anchor="middle"><textPath startOffset="22.20632615414155" xlink:href="#id15">March</textPath></text><line stroke="#e1ed5e" stroke-width="0.3" x1="184.98032266829074" x2="189.97916517819016" y1="98.17113171792111" y2="98.06355123074" /><path d="M 185.9800911702706 98.14961562048488 a86.0,86.0 0 0,1 -9.607161424134198,41.387399972396054" fill="none" id="id16" stroke="none" /><text fill="#e1ed5e" style="font-size:6.75px; font-family:Arial;" text-anchor="middle"><textPath startOffset="21.466115282336823" xlink:href="#id16">April</textPath></text><path d="M 120.99513854157772 99.54816195383933 l 16.731478828894684 -0.3600794864227766 a37.73535302998695,37.73535302998695 0 0,0 0.008386220190544762,0.6495219956965972 l -16.735198056202943 0.07202123266571675" fill="#ff3304" stroke="none" /><path d="M 120.13307415673323 105.97154293290107 l 26.785399981288446 7.944646938564945 a48.93877354387727,48.93877354387727 0 0,0 -0.24649581082511357,0.8055625719286356 l -26.6446773979572 -8.404536483045637" fill="#ffef16" stroke="none" /><path d="M 119.9155931802556 106.66101706037122 l 13.196352315627975 4.413683645446863 a34.91489553537018,34.91489553537018 0 0,0 -0.19553865960089467,0.5683268744178592 l -13.118422825083849 -4.640183222954023" fill="#ff0000" stroke="none" /><path d="M 119.67450827220406 107.3425965602758 l 26.150220291916757 9.75935535004718 a48.91198735604954,48.91198735604954 0 0,0 -0.30117141721844165,0.7862635347979796 l -25.97835459510481 -10.208042451678304" fill="#ffee16" stroke="none" /><path d="M 119.41010516605496 108.01547362559984 l 25.79179070462839 10.65081391271811 a48.90441371458474,48.90441371458474 0 0,0 -0.3280066041459358,0.7753107206164908 l -25.604633119290146 -11.093199159000765" fill="#ffee16" stroke="none" /><path d="M 119.12269723197855 108.67885076344098 l 25.402636763883155 11.529006122784839 a48.89645025333866,48.89645025333866 0 0,0 -0.3544419464279334,0.7634364199699374 l -25.20042020061539 -11.964562610033607" fill="#ffee16" stroke="none" /><path d="M 118.81262510543309 109.33194174019688 l 25.009743530243753 12.406002259307106 a48.917667587148145,48.917667587148145 0 0,0 -0.3806757289545172,0.7511093279430259 l -24.792489131502965 -12.834665798952827" fill="#ffee16" stroke="none" /><line stroke="#e1ed5e" stroke-width="0.3" x1="174.80103733775053" x2="179.2010983576182" y1="140.37084112569926" y2="142.7455964860345" /><path d="M 175.68104954172406 140.8457921977663 a86.0,86.0 0 0,1 -30.038265399797805,32.042727171017184" fill="none" id="id17" stroke="none" /><text fill="#e1ed5e" style="font-size:6.75px; font-family:Arial;" text-anchor="middle"><textPath startOffset="22.206326154141568" xlink:href="#id17">May</textPath></text><path d="M 117.35343817320211 111.8261652097733 l 23.066154334039226 15.719314477388158 a48.91315681539337,48.91315681539337 0 0,0 -0.48013875113149357,0.6916756814451237 l -22.792154675745596 -16.1140314210203" fill="#ffee16" stroke="none" /><path d="M 115.80600337817218 113.82643327865902 l 21.030809538999364 18.39687604323331 a48.94172503650693,48.94172503650693 0 0,0 -0.5601290712127999,0.6293109493950955 l -20.711021618138226 -18.75616116236927" fill="#ffef16" stroke="none" /><path d="M 115.07121518719521 114.62390073753431 l 20.723766837429228 20.1086843611561 a49.876178740767195,49.876178740767195 0 0,0 -0.6031677703630296,0.6110057669038973 l -20.37455844201066 -20.462430622040664" fill="#fffd17" stroke="none" /><path d="M 114.55890576462653 115.13401014063108 l 19.554860557088723 20.32731461787843 a49.206245602373215,49.206245602373215 0 0,0 -0.6154627354242073,0.5819584315906109 l -19.202061987273705 -20.660907686214962" fill="#fff316" stroke="none" /><path d="M 114.0293411484842 115.62618273729858 l 18.61131197317031 20.72968065966905 a48.85858204601465,48.85858204601465 0 0,0 -0.6306424899863413,0.5564686738679352 l -18.25172713027738 -21.046972475309275" fill="#ffed16" stroke="none" /><path d="M 112.92097659922987 116.55440617244103 l 17.140956509727662 21.96106107514285 a48.85858204601465,48.85858204601465 0 0,0 -0.667434455025961,0.5117602792487026 l -16.76039332620821 -22.252860696218924" fill="#ffed16" stroke="none" /><line stroke="#e1ed5e" stroke-width="0.3" x1="143.8653032363475" x2="146.44561519142675" y1="172.8068346515853" y2="177.08958963109032" /><path d="M 144.38136562736335 173.6633856474863 a86.0,86.0 0 0,1 -40.68145358897372,12.25698825130547" fill="none" id="id18" stroke="none" /><text fill="#e1ed5e" style="font-size:6.75px; font-family:Arial;" text-anchor="middle"><textPath startOffset="21.466115282336833" xlink:href="#id18">June</textPath></text><path d="M 110.5260780823613 118.17145234162733 l 12.840482487488021 22.166871054840822 a46.61734105783476,46.61734105783476 0 0,0 -0.6978199354469223,0.39624037132836143 l -12.4570137851199 -22.38461459196381" fill="#ffca12" stroke="none" /><path d="M 105.88484417918355 120.15858648285463 l 15.605637216165812 53.45725016049251 a76.68854018237555,76.68854018237555 0 0,0 -1.2703596615717136,0.3590163296398481 l -14.683146386489494 -53.71795528347087" fill="#42ffd3" stroke="none" /><path d="M 103.41894727170886 120.7198165907248 l 4.5409489531492735 27.519473679999102 a48.89160535034279,48.89160535034279 0 0,0 -0.8315394286546851,0.12986935728378196 l -4.066573660886071 -27.59356134462999" fill="#ffee16" stroke="none" /><line stroke="#e1ed5e" stroke-width="0.3" x1="102.19456741930631" x2="102.32365962044197" y1="184.97166512339345" y2="189.96999836594603" /><path d="M 102.22038585953345 185.97133177190398 a86.0,86.0 0 0,1 -42.740103519485714,-10.115201625700543" fill="none" id="id19" stroke="none" /><text fill="#e1ed5e" style="font-size:6.75px; font-family:Arial;" text-anchor="middle"><textPath startOffset="22.20632615414155" xlink:href="#id19">July</textPath></text><line stroke="#e1ed5e" stroke-width="0.3" x1="58.666819895761336" x2="56.23545636021788" y1="174.27360380694188" y2="178.64263932499728" /><path d="M 58.180547188652646 175.14741091055294 a86.0,86.0 0 0,1 -31.652253787137756,-30.449443065178592" fill="none" id="id20" stroke="none" /><text fill="#e1ed5e" style="font-size:6.75px; font-family:Arial;" text-anchor="middle"><textPath startOffset="22.20632615414155" xlink:href="#id20">August</textPath></text><line stroke="#e1ed5e" stroke-width="0.3" x1="26.63291911575756" x2="22.317208475507996" y1="142.92168965132927" y2="145.44649492493687" /><path d="M 25.769776987707644 143.4266507060508 a86.0,86.0 0 0,1 -11.730757126820373,-40.83630448921669" fill="none" id="id21" stroke="none" /><text fill="#e1ed5e" style="font-size:6.75px; font-family:Arial;" text-anchor="middle"><textPath startOffset="21.46611528233685" xlink:href="#id21">September</textPath></text><path d="M 80.87730276802145 108.67885076344099 l -25.33940109144418 11.500306564486879 a48.82700664373124,48.82700664373124 0 0,0 -0.34076348235827814,-0.7683316937858656 l 25.533605658533737 -11.062426534208317" fill="#ffed16" stroke="none" /><path d="M 80.0844068197444 106.66101706037122 l -26.472452067909405 8.854039809822071 a48.913880766415744,48.913880766415744 0 0,0 -0.2601933102131372,-0.8007926673261094 l 26.62093762913879 -8.397048242518157" fill="#ffee16" stroke="none" /><path d="M 79.97269907076064 106.31721596034903 l -31.853830607765573 10.047660831812037 a54.40092831912539,54.40092831912539 0 0,0 -0.2740077031893593,-0.8954730280024339 l 32.022065083461065 -9.497860831257555" fill="#beff1f" stroke="none" /><line stroke="#e1ed5e" stroke-width="0.3" x1="15.007084014347285" x2="10.007500721073583" y1="101.09737516637583" y2="101.16192664675087" /><path d="M 14.007167355692545 101.11028546245083 a86.0,86.0 0 0,1 10.666146001902534,-42.60595125391555" fill="none" id="id22" stroke="none" /><text fill="#e1ed5e" style="font-size:6.75px; font-family:Arial;" text-anchor="middle"><textPath startOffset="22.20632615414155" xlink:href="#id22">October</textPath></text><line stroke="#e1ed5e" stroke-width="0.3" x1="26.266209847984243" x2="21.928928074336255" y1="57.711370442889674" y2="55.22380399835377" /><path d="M 25.398753493254645 57.213857153982495 a86.0,86.0 0 0,1 29.58750427330803,-30.492523968695096" fill="none" id="id23" stroke="none" /><text fill="#e1ed5e" style="font-size:6.75px; font-family:Arial;" text-anchor="middle"><textPath startOffset="21.46611528233685" xlink:href="#id23">November</textPath></text><path d="M 83.39014120810768 87.1503855733568 l -23.315808188342494 -18.037428795723002 a50.478394614299404,50.478394614299404 0 0,0 0.5375850939835872,-0.6826784767381211 l 23.001869013764935 18.436099666414172" fill="#f8ff18" stroke="none" /><line stroke="#e1ed5e" stroke-width="0.3" x1="56.762969772571076" x2="54.21961505331055" y1="26.818313649435495" y2="22.513508569990535" /><path d="M 56.25429882871897 25.957352633546506 a86.0,86.0 0 0,1 42.265352541879196,-11.944610805530505" fill="none" id="id24" stroke="none" /><text fill="#e1ed5e" style="font-size:6.75px; font-family:Arial;" text-anchor="middle"><textPath startOffset="22.20632615414155" xlink:href="#id24">December</textPath></text></svg>