<?xml version="1.0" encoding="utf-8" ?>
<svg baseProfile="full" height="200mm" version="1.1" viewBox="0,0,200,200" width="200mm" xmlns="http://www.w3.org/2000/svg" xmlns:ev="http://www.w3.org/2001/xml-events" xmlns:xlink="http://www.w3.org/1999/xlink"><defs /><rect fill="#1a1a1a" height="200" width="200" x="0" y="0" /><text alignment-baseline="middle" fill="#e1ed5e" style="dominant-baseline: central; font-size:9.0px; font-family:Arial;" text-anchor="middle" x="100.0" y="100.0">2025</text><line stroke="#e1ed5e" stroke-width="0.3" x1="100.0" x2="100.0" y1="15.0" y2="10.0" /><path d="M 100.0 14.0 a86.0,86.0 0 0,1 42.46469731375804,11.215312516191453" fill="none" id="id61" stroke="none" /><text fill="#e1ed5e" style="font-size:6.75px; font-family:Arial;" text-anchor="middle"><textPath startOffset="22.20632615414155" xlink:href="#id61">January</textPath></text><path d="M 100.36148047927253 79.00311137660856 l 0.4679678269563559 -27.182293112224126 a48.186321059053455,48.186321059053455 0 0,0 0.829202522794788,0.021415854778054227 l -0.9357969849460117 27.17021046530371" fill="#ff6008" stroke="none" /><path d="M 100.72285384407766 79.0124445844662 l 0.7853422363432131 -22.801862147449025 a43.81538252625744,43.81538252625744 0 0,0 0.7535393848441031,0.032448991023589224 l -1.1777224535766477 22.78496542990124" fill="#ff0000" stroke="none" /><path d="M 101.44485096284872 79.0497635885617 l 3.371292303404784 -48.88349911823247 a69.9996132417107,69.9996132417107 0 0,0 1.201359397769253,0.0932486108259878 l -4.212241890536378 48.81822524521802" fill="#32ff4b" stroke="none" /><path d="M 102.16513564639614 79.11191278185805 l 2.883806736606121 -27.821447000218562 a48.970506868486765,48.970506868486765 0 0,0 0.8377065053888638,0.09412608656227914 l -3.36227994550471 27.767684960185683" fill="#ff700a" stroke="none" /><path d="M 102.52436894288641 79.15227682838746 l 3.170976446645533 -26.187788171637497 a47.3790701304602,47.3790701304602 0 0,0 0.8087951818458964,0.10500482718074201 l -3.6212863569992755 26.12932502129262" fill="#ff4e07" stroke="none" /><path d="M 102.88285421437855 79.19881850522331 l 3.7999434667877554 -27.41842210691944 a48.680488456383706,48.680488456383706 0 0,0 0.8290310818994076,0.12217763120903331 l -4.271343529115819 27.34894999154944" fill="#ff6a09" stroke="none" /><path d="M 103.59715602781102 79.31037775812273 l 4.050230505005846 -23.295553068375536 a44.645023998828606,44.645023998828606 0 0,0 0.7559994453553109,0.13815406641183825 l -4.450625071464058 23.222383520612958" fill="#ff1302" stroke="none" /><path d="M 103.95276090670814 79.375362276772 l 10.130463256959368 -52.85853092927469 a74.82054048225169,74.82054048225169 0 0,0 1.2628053718445127,0.25330687773586563 l -11.038835038271005 52.67632009546161" fill="#3bff9f" stroke="none" /><path d="M 104.66035177308747 79.52364482259891 l 6.298360043440219 -27.67333101964373 a49.38102515695267,49.38102515695267 0 0,0 0.827194045891604,0.19577010509480539 l -6.773777776294347 27.560815002408056" fill="#ff790b" stroke="none" /><path d="M 105.01212808612495 79.60689891045804 l 6.434404777272095 -26.179990778206605 a47.959107588805026,47.959107588805026 0 0,0 0.7999832902360458,0.20393355305215244 l -6.884096956193166 26.065354228985584" fill="#ff5b08" stroke="none" /><path d="M 105.36241919743992 79.69619591428918 l 9.205484510429523 -34.85485694647626 a57.04999303510449,57.04999303510449 0 0,0 0.9473072852911205,0.2589348658100793 l -9.804089684944355 34.69123553983989" fill="#efff19" stroke="none" /><path d="M 106.0581310904928 79.89281104454417 l 7.912295475723103 -26.261237636708422 a48.427304313527046,48.427304313527046 0 0,0 0.796086371867565,0.2473479108891448 l -8.363167220301387 26.12114959093676" fill="#ff6509" stroke="none" /><path d="M 106.40334571778207 80.00007090966166 l 15.502033726858036 -48.418372044510306 a71.83947089721983,71.83947089721983 0 0,0 1.1744630666681664,0.38720200771634755 l -16.33317961576862 48.144356312534725" fill="#36ff6c" stroke="none" /><path d="M 107.08798089147638 80.2323363322302 l 9.949551808405829 -27.748296278582387 a50.47815339454188,50.47815339454188 0 0,0 0.8153848473234105,0.30031312058500664 l -10.425718981501815 27.572919890191056" fill="#ff8f0d" stroke="none" /><path d="M 107.4271985657038 80.35727306442388 l 10.30937883655874 -27.265234875639997 a50.149207962129964,50.149207962129964 0 0,0 0.8048155878652637,0.31225594453137023 l -10.77717758942367 27.08373622721808" fill="#ff890c" stroke="none" /><path d="M 108.09893153111575 80.62456947434976 l 10.626639941614505 -25.422578659766312 a48.554182661816014,48.554182661816014 0 0,0 0.7683496917017775,0.3289672394525743 l -11.062673391106596 25.23589189235095" fill="#ff6709" stroke="none" /><path d="M 108.43124777332544 80.76684994638697 l 23.147302939234162 -52.803044428990326 a78.6537868169178,78.6537868169178 0 0,0 1.2353059686914913,0.5542457798471766 l -24.052791026392434 52.396778318626616" fill="#43ffdd" stroke="none" /><path d="M 108.76106565485865 80.91482961587045 l 11.629678916075555 -25.33417878256981 a48.875976149333724,48.875976149333724 0 0,0 0.7615849685744366,0.3575743544852233 l -12.06404209594959 25.130239445444584" fill="#ff6e0a" stroke="none" /><path d="M 109.08828744355905 81.06846463323043 l 12.541761028430008 -26.125361235088018 a49.979825212690386,49.979825212690386 0 0,0 0.7723756833959279,0.3790013934516175 l -12.989607978836368 25.90560468150157" fill="#ff850c" stroke="none" /><path d="M 109.73455568895987 81.39251694778311 l 13.683072162607482 -26.155023557647777 a50.51798978772494,50.51798978772494 0 0,0 0.7670433944403947,0.4097280169150806 l -14.131260603576187 25.915616814230944" fill="#ff900d" stroke="none" /><path d="M 110.36928655335952 81.73862282372117 l 13.74195334444085 -24.200989322679767 a48.83036409961697,48.83036409961697 0 0,0 0.7273474973937103,0.42132661752289396 l -14.156497574299888 23.960858547766826" fill="#ff6d0a" stroke="none" /><line stroke="#e1ed5e" stroke-width="0.3" x1="143.23703022742887" x2="145.7803849466894" y1="26.81831364943548" y2="22.513508569990506" /><path d="M 143.74570117128098 25.957352633546492 a86.0,86.0 0 0,1 28.547481713284135,27.462654790039103" fill="none" id="id62" stroke="none" /><text fill="#e1ed5e" style="font-size:6.75px; font-family:Arial;" text-anchor="middle"><textPath startOffset="19.985693538727396" xlink:href="#id62">February</textPath></text><path d="M 110.68208982089419 81.91981866633111 l 11.648469565007357 -19.71584638645421 a43.89981314205778,43.89981314205778 0 0,0 0.6472879730827892,0.38998376122781664 l -11.986119604307783 19.51241601576778" fill="#ff0200" stroke="none" /><path d="M 111.2981086023043 82.29822771554956 l 33.23148841603209 -52.06678934684481 a82.76797208289736,82.76797208289736 0 0,0 1.194353559527812,0.7768407782225343 l -34.12280900134419 51.48704964446274" fill="#4be3ff" stroke="none" /><path d="M 111.60114157652 82.49532879139004 l 15.261180290020008 -23.027211716198497 a48.625280148210706,48.625280148210706 0 0,0 0.6937097935986047,0.4683959492915706 l -15.655294778025153 22.76110385460826" fill="#ff6909" stroke="none" /><path d="M 112.19680574252982 82.90503203632743 l 16.131740398963686 -22.61014819289622 a48.775022045072895,48.775022045072895 0 0,0 0.679261125810894,0.4935120955224115 l -16.51854684112837 22.329116862557132" fill="#ff6c0a" stroke="none" /><path d="M 112.48926042617603 83.11751280151076 l 15.367832771364853 -20.773627194715193 a46.84016004040312,46.84016004040312 0 0,0 0.6440607795352046,0.48509322636565705 l -15.72313970465844 20.50601737884369" fill="#ff4306" stroke="none" /><path d="M 113.06298171725822 83.55741782278167 l 37.75205826700553 -47.5191142305801 a81.69006607884276,81.69006607884276 0 0,0 1.093466664085945,0.8841739968481576 l -38.56442832965597 46.86223413646781" fill="#49f3ff" stroke="none" /><path d="M 113.6212207817346 84.01681056812373 l 18.203800326029732 -21.360404742953754 a49.06501803122103,49.06501803122103 0 0,0 0.6380933663730856,0.5533482794422944 l -18.568787491049584 21.04389147009179" fill="#ff720a" stroke="none" /><path d="M 113.89432698308785 84.25364557470407 l 18.245926075715712 -20.677994634477663 a48.57704263448076,48.57704263448076 0 0,0 0.622223367797927,0.558638283203962 l -18.599160431109627 20.360857342504403" fill="#ff6809" stroke="none" /><path d="M 114.16331599549186 84.49514656593476 l 21.337253995723422 -23.35830083819475 a52.63682389440547,52.63682389440547 0 0,0 0.663705523300838,0.6168419506671413 l -21.736167402819106 22.987554301452967" fill="#ffbb11" stroke="none" /><path d="M 114.68862486808459 84.99185889309783 l 18.475090309701912 -18.876972134623283 a47.41342535384204,47.41342535384204 0 0,0 0.5783629603377775,0.5758792859829436 l -18.79728907020701 18.556156997990218" fill="#ff4f07" stroke="none" /><path d="M 114.94478906791727 85.2469230424477 l 44.132062416623434 -43.565935268076906 a83.01314093744175,83.01314093744175 0 0,0 0.9951130550573561,1.0255514761436637 l -44.8754397353839 42.799819596383124" fill="#4be0ff" stroke="none" /><path d="M 115.4437574822437 85.77008943001954 l 20.211478932113366 -18.622899124237826 a48.48301752746231,48.48301752746231 0 0,0 0.5602244059601399,0.6186137814878632 l -20.52904697868954 18.272232555480414" fill="#ff6609" stroke="none" /><path d="M 115.68641384162765 86.03803664274999 l 21.29764337668164 -18.9563350440175 a49.511966815731206,49.511966815731206 0 0,0 0.561154807257505,0.6414969501122063 l -21.620790047516994 18.586922537702346" fill="#ff7b0b" stroke="none" /><path d="M 115.9244219780498 86.31012108654704 l 20.937406815564756 -17.999432849862764 a48.61076940393325,48.61076940393325 0 0,0 0.5400179320077524,0.6392109010733055 l -21.244135361059627 17.63636299916035" fill="#ff6909" stroke="none" /><path d="M 116.38621287248628 86.86637796730983 l 17.999955216030063 -14.427043652632536 a44.0681160118041,44.0681160118041 0 0,0 0.4693168724738944,0.5959847681672505 l -18.24562616909792 14.115066490512248" fill="#ff0600" stroke="none" /><path d="M 116.60985879189232 87.15038557335679 l 49.829576375676965 -38.54884327992963 a84.0,84.0 0 0,0 0.874896239103546,1.1512608964758657 l -50.48574855500462 37.68539760757273" fill="#4dd2ff" stroke="none" /><path d="M 117.04232023915458 87.72973835380427 l 23.921811764200985 -17.223411206850454 a50.47709232068398,50.47709232068398 0 0,0 0.5016158169676705,0.7094999996843552 l -24.21474020097254 16.809084706834305" fill="#ff8f0d" stroke="none" /><path d="M 117.2510076193507 88.02491185347247 l 23.23575393429424 -16.129504296437748 a49.285352565309736,49.285352565309736 0 0,0 0.47777580872322817,0.7010770448630604 l -23.509954208686203 15.727149228304281" fill="#ff770a" stroke="none" /><path d="M 117.45458315368197 88.32363383020206 l 25.22928066945979 -16.87730475735112 a51.35391274565578,51.35391274565578 0 0,0 0.48518043220350715,0.7389630845620889 l -25.51605773702122 16.440523608811358" fill="#ffa10e" stroke="none" /><line stroke="#e1ed5e" stroke-width="0.3" x1="172.23445277983987" x2="176.4835382374775" y1="55.19839476539836" y2="52.563006222186495" /><path d="M 173.08426987136738 54.67131705675599 a86.0,86.0 0 0,1 12.851231095245387,41.99856678651699" fill="none" id="id63" stroke="none" /><text fill="#e1ed5e" style="font-size:6.75px; font-family:Arial;" text-anchor="middle"><textPath startOffset="22.20632615414155" xlink:href="#id63">March</textPath></text><path d="M 117.84615892207809 88.93136811851018 l 22.472432441040514 -13.93796184700583 a47.44384617005855,47.44384617005855 0 0,0 0.42447376970917344,0.6977232695390411 l -22.70902200903591 13.549070804259708" fill="#ff5007" stroke="none" /><path d="M 118.03404312379186 89.2402003453031 l 34.17265169197236 -20.3887105820589 a60.792834064185755,60.792834064185755 0 0,0 0.5284354152356115,0.9032674194942557 l -34.5185467816783 19.797463750210746" fill="#acff21" stroke="none" /><path d="M 118.3937258080291 89.86733742301442 l 25.345821327524703 -13.962405329336114 a49.9371633258597,49.9371633258597 0 0,0 0.4082764995740391,0.756474347256614 l -25.582405926317207 13.52404999874704" fill="#ff840c" stroke="none" /><path d="M 118.56541770881063 90.18545643968196 l 24.644973797472733 -13.028479761239298 a48.87680071972284,48.87680071972284 0 0,0 0.3868030103300367,0.747180299032202 l -24.865586240962887 12.60232673994675" fill="#ff6e0a" stroke="none" /><line stroke="#e1ed5e" stroke-width="0.3" x1="184.98032266829074" x2="189.97916517819016" y1="98.17113171792111" y2="98.06355123074" /><path d="M 185.9800911702706 98.14961562048488 a86.0,86.0 0 0,1 -9.607161424134198,41.387399972396054" fill="none" id="id64" stroke="none" /><text fill="#e1ed5e" style="font-size:6.75px; font-family:Arial;" text-anchor="middle"><textPath startOffset="21.466115282336823" xlink:href="#id64">April</textPath></text><line stroke="#e1ed5e" stroke-width="0.3" x1="174.80103733775053" x2="179.2010983576182" y1="140.37084112569926" y2="142.7455964860345" /><path d="M 175.68104954172406 140.8457921977663 a86.0,86.0 0 0,1 -30.038265399797805,32.042727171017184" fill="none" id="id65" stroke="none" /><text fill="#e1ed5e" style="font-size:6.75px; font-family:Arial;" text-anchor="middle"><textPath startOffset="22.206326154141568" xlink:href="#id65">May</textPath></text><line stroke="#e1ed5e" stroke-width="0.3" x1="143.8653032363475" x2="146.44561519142675" y1="172.8068346515853" y2="177.08958963109032" /><path d="M 144.38136562736335 173.6633856474863 a86.0,86.0 0 0,1 -40.68145358897372,12.25698825130547" fill="none" id="id66" stroke="none" /><text fill="#e1ed5e" style="font-size:6.75px; font-family:Arial;" text-anchor="middle"><textPath startOffset="21.466115282336833" xlink:href="#id66">June</textPath></text><line stroke="#e1ed5e" stroke-width="0.3" x1="102.19456741930631" x2="102.32365962044197" y1="184.97166512339345" y2="189.96999836594603" /><path d="M 102.22038585953345 185.97133177190398 a86.0,86.0 0 0,1 -42.740103519485714,-10.115201625700543" fill="none" id="id67" stroke="none" /><text fill="#e1ed5e" style="font-size:6.75px; font-family:Arial;" text-anchor="middle"><textPath startOffset="22.20632615414155" xlink:href="#id67">July</textPath></text><line stroke="#e1ed5e" stroke-width="0.3" x1="58.666819895761336" x2="56.23545636021788" y1="174.27360380694188" y2="178.64263932499728" /><path d="M 58.180547188652646 175.14741091055294 a86.0,86.0 0 0,1 -31.652253787137756,-30.449443065178592" fill="none" id="id68" stroke="none" /><text fill="#e1ed5e" style="font-size:6.75px; font-family:Arial;" text-anchor="middle"><textPath startOffset="22.20632615414155" xlink:href="#id68">August</textPath></text><line stroke="#e1ed5e" stroke-width="0.3" x1="26.63291911575756" x2="22.317208475507996" y1="142.92168965132927" y2="145.44649492493687" /><path d="M 25.769776987707644 143.4266507060508 a86.0,86.0 0 0,1 -11.730757126820373,-40.83630448921669" fill="none" id="id69" stroke="none" /><text fill="#e1ed5e" style="font-size:6.75px; font-family:Arial;" text-anchor="middle"><textPath startOffset="21.46611528233685" xlink:href="#id69">September</textPath></text><line stroke="#e1ed5e" stroke-width="0.3" x1="15.007084014347285" x2="10.007500721073583" y1="101.09737516637583" y2="101.16192664675087" /><path d="M 14.007167355692545 101.11028546245083 a86.0,86.0 0 0,1 10.666146001902534,-42.60595125391555" fill="none" id="id70" stroke="none" /><text fill="#e1ed5e" style="font-size:6.75px; font-family:Arial;" text-anchor="middle"><textPath startOffset="22.20632615414155" xlink:href="#id70">October</textPath></text><line stroke="#e1ed5e" stroke-width="0.3" x1="26.266209847984243" x2="21.928928074336255" y1="57.711370442889674" y2="55.22380399835377" /><path d="M 25.398753493254645 57.213857153982495 a86.0,86.0 0 0,1 29.58750427330803,-30.492523968695096" fill="none" id="id71" stroke="none" /><text fill="#e1ed5e" style="font-size:6.75px; font-family:Arial;" text-anchor="middle"><textPath startOffset="21.46611528233685" xlink:href="#id71">November</textPath></text><line stroke="#e1ed5e" stroke-width="0.3" x1="56.762969772571076" x2="54.21961505331055" y1="26.818313649435495" y2="22.513508569990535" /><path d="M 56.25429882871897 25.957352633546506 a86.0,86.0 0 0,1 42.265352541879196,-11.944610805530505" fill="none" id="id72" stroke="none" /><text fill="#e1ed5e" style="font-size:6.75px; font-family:Arial;" text-anchor="middle"><textPath startOffset="22.20632615414155" xlink:href="#id72">December</textPath></text></svg>