<?xml version="1.0" encoding="utf-8" ?>
<svg baseProfile="full" height="200mm" version="1.1" viewBox="0,0,200,200" width="200mm" xmlns="http://www.w3.org/2000/svg" xmlns:ev="http://www.w3.org/2001/xml-events" xmlns:xlink="http://www.w3.org/1999/xlink"><defs /><rect fill="#1a1a1a" height="200" width="200" x="0" y="0" /><text alignment-baseline="middle" fill="#e1ed5e" style="dominant-baseline: central; font-size:9.0px; font-family:Arial;" text-anchor="middle" x="100.0" y="100.0">2025</text><line stroke="#e1ed5e" stroke-width="0.3" x1="100.0" x2="100.0" y1="15.0" y2="10.0" /><path d="M 100.0 14.0 a86.0,86.0 0 0,1 42.46469731375804,11.215312516191453" fill="none" id="id61" stroke="none" /><text fill="#e1ed5e" style="font-size:6.75px; font-family:Arial;" text-anchor="middle"><textPath startOffset="22.20632615414155" xlink:href="#id61">January</textPath></text><path d="M 100.36148047927253 79.00311137660856 l 0.4754149306514171 -27.614864207533973 a48.61895625393594,48.61895625393594 0 0,0 0.8366474197523027,0.021608134501881322 l -0.9506889855985876 27.602589280889735" fill="#ff6209" stroke="none" /><path d="M 100.72285384407766 79.0124445844662 l 0.7978399439488787 -23.1647243402561 a44.17845987843484,44.17845987843484 0 0,0 0.7597836093341354,0.032717880465205136 l -1.1964643856723456 23.147558733266703" fill="#ff0000" stroke="none" /><path d="M 101.44485096284872 79.0497635885617 l 3.424942067178307 -49.66141688509824 a70.77937881491741,70.77937881491741 0 0,0 1.2147420245588334,0.0942873602290792 l -4.2792742810994815 49.59510426268069" fill="#33ff57" stroke="none" /><path d="M 102.16513564639614 79.11191278185805 l 2.9296987970575867 -28.264189404338158 a49.41562136793391,49.41562136793391 0 0,0 0.8453207886722932,0.09498164000830746 l -3.415786289239605 28.209571810859252" fill="#ff730a" stroke="none" /><path d="M 102.52436894288641 79.15227682838746 l 3.221438442219789 -26.604533004988333 a47.79885896918981,47.79885896918981 0 0,0 0.8159612825992945,0.1059351927270018 l -3.6789144533269296 26.545139489097195" fill="#ff5007" stroke="none" /><path d="M 102.88285421437855 79.19881850522331 l 3.860414660323839 -27.854750890274516 a49.12098768729314,49.12098768729314 0 0,0 0.8365328051884805,0.1232831902181656 l -4.339316445940976 27.784173215895382" fill="#ff6d0a" stroke="none" /><path d="M 103.59715602781102 79.31037775812273 l 4.114684693568026 -23.666271714702845 a45.02130402375414,45.02130402375414 0 0,0 0.7623712078645987,0.13931846528312958 l -4.521451022535525 23.591937768068977" fill="#ff1302" stroke="none" /><path d="M 103.95276090670814 79.375362276772 l 10.291676498570995 -53.69970619458971 a75.6770248873921,75.6770248873921 0 0,0 1.2772609357944806,0.25620652787334414 l -11.2145038438326 53.514595710639156" fill="#3dffac" stroke="none" /><path d="M 104.66035177308747 79.52364482259891 l 6.39859031067332 -28.1137163491896 a49.83267252487242,49.83267252487242 0 0,0 0.8347597052192178,0.19756065222100236 l -6.881573702855062 27.99940978482773" fill="#ff7c0b" stroke="none" /><path d="M 105.01212808612495 79.60689891045804 l 6.536800020774191 -26.596611526109502 a48.38812697470154,48.38812697470154 0 0,0 0.8071395605913486,0.20575784570672537 l -6.993648470050564 26.48015068423391" fill="#ff5d08" stroke="none" /><path d="M 105.36241919743992 79.69619591428918 l 9.351977909683743 -35.40952698788733 a57.62368212412747,57.62368212412747 0 0,0 0.9568333136850081,0.26153868921793605 l -9.960109112592463 35.2433017578431" fill="#e8ff1a" stroke="none" /><path d="M 106.0581310904928 79.89281104454417 l 8.03820944134102 -26.679151323453073 a48.863774445730996,48.863774445730996 0 0,0 0.8032614134871694,0.24957723124666878 l -8.496256227538908 26.536833957323882" fill="#ff6709" stroke="none" /><path d="M 106.40334571778207 80.00007090966166 l 15.748728576371727 -49.188887914600556 a72.64851542926829,72.64851542926829 0 0,0 1.1876896802597419,0.3915626142635377 l -16.593101078873886 48.91051157607778" fill="#37ff78" stroke="none" /><path d="M 107.08798089147638 80.2323363322302 l 10.107886077918533 -28.18987458342418 a50.94726014167847,50.94726014167847 0 0,0 0.822962433024747,0.30310400934868525 l -10.591630836715858 28.011707306269173" fill="#ff930d" stroke="none" /><path d="M 107.4271985657038 80.35727306442388 l 10.473439288592088 -27.699125882014737 a50.61307996746578,50.61307996746578 0 0,0 0.8122600009644797,0.31514426115796934 l -10.948682454556234 27.51473891696622" fill="#ff8c0c" stroke="none" /><path d="M 108.09893153111575 80.62456947434976 l 10.795749194466328 -25.827146171824754 a48.99267189909928,48.99267189909928 0 0,0 0.7752886010152711,0.3319381182937123 l -11.238721553271915 25.63748852556825" fill="#ff6a09" stroke="none" /><path d="M 108.43124777332544 80.76684994638697 l 23.515662376186544 -53.64333669830116 a79.57127238773373,79.57127238773373 0 0,0 1.249715642372625,0.5607109803959952 l -24.43556013702595 53.230605387388636" fill="#44ffeb" stroke="none" /><path d="M 108.76106565485865 80.91482961587045 l 11.81475023901579 -25.737339524730423 a49.319586314449836,49.319586314449836 0 0,0 0.7684972977037211,0.3608197856956369 l -12.256025748019109 25.530154756394783" fill="#ff710a" stroke="none" /><path d="M 109.08828744355905 81.06846463323043 l 12.741346960447737 -26.541112624353456 a50.441001710287054,50.441001710287054 0 0,0 0.7795025893221,0.38249853523777755 l -13.19632081678027 26.317858928980847" fill="#ff880c" stroke="none" /><path d="M 109.73455568895987 81.39251694778311 l 13.900820587589369 -26.5712469844748 a50.98773047961966,50.98773047961966 0 0,0 0.7741757347479113,0.4135378660987689 l -14.356141368865591 26.32803039187428" fill="#ff940d" stroke="none" /><path d="M 110.36928655335952 81.73862282372117 l 13.960638787400347 -24.586116817835272 a49.27324840785914,49.27324840785914 0 0,0 0.7339444335250428,0.42514798873292564 l -14.38177995339072 24.3421646717123" fill="#ff700a" stroke="none" /><line stroke="#e1ed5e" stroke-width="0.3" x1="143.23703022742887" x2="145.7803849466894" y1="26.81831364943548" y2="22.513508569990506" /><path d="M 143.74570117128098 25.957352633546492 a86.0,86.0 0 0,1 28.547481713284135,27.462654790039103" fill="none" id="id62" stroke="none" /><text fill="#e1ed5e" style="font-size:6.75px; font-family:Arial;" text-anchor="middle"><textPath startOffset="19.985693538727396" xlink:href="#id62">February</textPath></text><path d="M 110.68208982089419 81.91981866633111 l 11.833839916861619 -20.029598623292312 a44.26423409846326,44.26423409846326 0 0,0 0.6526612374622361,0.3932210928945679 l -12.176863220541494 19.82293092093913" fill="#ff0200" stroke="none" /><path d="M 111.2981086023043 82.29822771554956 l 33.76032464348176 -52.895365067224446 a83.75092959971374,83.75092959971374 0 0,0 1.2085377757110773,0.7860665869877719 l -34.66582944497711 52.30639955607715" fill="#4dd6ff" stroke="none" /><path d="M 111.60114157652 82.49532879139004 l 15.504042268092277 -23.393660056405977 a49.06490081018418,49.06490081018418 0 0,0 0.6999816167685639,0.47263071229274234 l -15.904428579267384 23.123317431814563" fill="#ff6b09" stroke="none" /><path d="M 112.19680574252982 82.90503203632743 l 16.388456217045114 -22.969959505670296 a49.217025655978304,49.217025655978304 0 0,0 0.6854166508679334,0.4979843462585531 l -16.781418184266837 22.684455924595067" fill="#ff6f0a" stroke="none" /><path d="M 112.48926042617603 83.11751280151076 l 15.612391985961006 -21.104212647240367 a47.25137282092576,47.25137282092576 0 0,0 0.6497150305828057,0.4893518910297926 l -15.973353170302195 20.832344166704726" fill="#ff4406" stroke="none" /><path d="M 113.06298171725822 83.55741782278167 l 38.35283352637523 -48.27531957374269 a82.655870113468,82.655870113468 0 0,0 1.1063944846471763,0.8946273953390157 l -39.178131409586896 47.60798608113955" fill="#4ae5ff" stroke="none" /><path d="M 113.6212207817346 84.01681056812373 l 18.493490302269866 -21.70032800247324 a49.51163655378403,49.51163655378403 0 0,0 0.6439016658088558,0.5583851794770612 l -18.864285766725484 21.378777829576507" fill="#ff750a" stroke="none" /><path d="M 113.89432698308785 84.25364557470407 l 18.53628642886654 -21.00705821829372 a49.015895658710676,49.015895658710676 0 0,0 0.6278446364445041,0.5636851136971104 l -18.895142052907033 20.684874095827315" fill="#ff6a09" stroke="none" /><path d="M 114.16331599549186 84.49514656593476 l 21.676808840994507 -23.730018034254673 a53.14028309512954,53.14028309512954 0 0,0 0.6700537150714418,0.6227419030669852 l -22.082070439860797 23.35337154511305" fill="#ffbf11" stroke="none" /><path d="M 114.68862486808459 84.99185889309783 l 18.769097515724646 -19.1773747709533 a47.83376091159003,47.83376091159003 0 0,0 0.5834903375669079,0.580984644624777 l -19.096423653458878 18.851454275678403" fill="#ff5107" stroke="none" /><path d="M 114.94478906791727 85.2469230424477 l 44.8343672037518 -44.25923087265689 a84.0,84.0 0 0,0 1.0069429451875638,1.0377432177995427 l -45.58957441264248 43.480923459307235" fill="#4dd2ff" stroke="none" /><path d="M 115.4437574822437 85.77008943001954 l 20.533118520922173 -18.919258516683406 a48.92037426352546,48.92037426352546 0 0,0 0.5652780913565749,0.624194187125816 l -20.855740252894783 18.56301154228804" fill="#ff6809" stroke="none" /><path d="M 115.68641384162765 86.03803664274999 l 21.636567870098524 -19.258000638571904 a49.96569795106991,49.96569795106991 0 0,0 0.566297269255537,0.6473756731403985 l -21.96485700293191 18.88270940922856" fill="#ff7e0b" stroke="none" /><path d="M 115.9244219780498 86.31012108654704 l 21.270598609272692 -18.285870581612475 a49.05015914614878,49.05015914614878 0 0,0 0.5448991207411579,0.6449886889274766 l -21.582208343500966 17.91702294305589" fill="#ff6b09" stroke="none" /><line stroke="#e1ed5e" stroke-width="0.3" x1="172.23445277983987" x2="176.4835382374775" y1="55.19839476539836" y2="52.563006222186495" /><path d="M 173.08426987136738 54.67131705675599 a86.0,86.0 0 0,1 12.851231095245387,41.99856678651699" fill="none" id="id63" stroke="none" /><text fill="#e1ed5e" style="font-size:6.75px; font-family:Arial;" text-anchor="middle"><textPath startOffset="22.20632615414155" xlink:href="#id63">March</textPath></text><line stroke="#e1ed5e" stroke-width="0.3" x1="184.98032266829074" x2="189.97916517819016" y1="98.17113171792111" y2="98.06355123074" /><path d="M 185.9800911702706 98.14961562048488 a86.0,86.0 0 0,1 -9.607161424134198,41.387399972396054" fill="none" id="id64" stroke="none" /><text fill="#e1ed5e" style="font-size:6.75px; font-family:Arial;" text-anchor="middle"><textPath startOffset="21.466115282336823" xlink:href="#id64">April</textPath></text><line stroke="#e1ed5e" stroke-width="0.3" x1="174.80103733775053" x2="179.2010983576182" y1="140.37084112569926" y2="142.7455964860345" /><path d="M 175.68104954172406 140.8457921977663 a86.0,86.0 0 0,1 -30.038265399797805,32.042727171017184" fill="none" id="id65" stroke="none" /><text fill="#e1ed5e" style="font-size:6.75px; font-family:Arial;" text-anchor="middle"><textPath startOffset="22.206326154141568" xlink:href="#id65">May</textPath></text><line stroke="#e1ed5e" stroke-width="0.3" x1="143.8653032363475" x2="146.44561519142675" y1="172.8068346515853" y2="177.08958963109032" /><path d="M 144.38136562736335 173.6633856474863 a86.0,86.0 0 0,1 -40.68145358897372,12.25698825130547" fill="none" id="id66" stroke="none" /><text fill="#e1ed5e" style="font-size:6.75px; font-family:Arial;" text-anchor="middle"><textPath startOffset="21.466115282336833" xlink:href="#id66">June</textPath></text><line stroke="#e1ed5e" stroke-width="0.3" x1="102.19456741930631" x2="102.32365962044197" y1="184.97166512339345" y2="189.96999836594603" /><path d="M 102.22038585953345 185.97133177190398 a86.0,86.0 0 0,1 -42.740103519485714,-10.115201625700543" fill="none" id="id67" stroke="none" /><text fill="#e1ed5e" style="font-size:6.75px; font-family:Arial;" text-anchor="middle"><textPath startOffset="22.20632615414155" xlink:href="#id67">July</textPath></text><line stroke="#e1ed5e" stroke-width="0.3" x1="58.666819895761336" x2="56.23545636021788" y1="174.27360380694188" y2="178.64263932499728" /><path d="M 58.180547188652646 175.14741091055294 a86.0,86.0 0 0,1 -31.652253787137756,-30.449443065178592" fill="none" id="id68" stroke="none" /><text fill="#e1ed5e" style="font-size:6.75px; font-family:Arial;" text-anchor="middle"><textPath startOffset="22.20632615414155" xlink:href="#id68">August</textPath></text><line stroke="#e1ed5e" stroke-width="0.3" x1="26.63291911575756" x2="22.317208475507996" y1="142.92168965132927" y2="145.44649492493687" /><path d="M 25.769776987707644 143.4266507060508 a86.0,86.0 0 0,1 -11.730757126820373,-40.83630448921669" fill="none" id="id69" stroke="none" /><text fill="#e1ed5e" style="font-size:6.75px; font-family:Arial;" text-anchor="middle"><textPath startOffset="21.46611528233685" xlink:href="#id69">September</textPath></text><line stroke="#e1ed5e" stroke-width="0.3" x1="15.007084014347285" x2="10.007500721073583" y1="101.09737516637583" y2="101.16192664675087" /><path d="M 14.007167355692545 101.11028546245083 a86.0,86.0 0 0,1 10.666146001902534,-42.60595125391555" fill="none" id="id70" stroke="none" /><text fill="#e1ed5e" style="font-size:6.75px; font-family:Arial;" text-anchor="middle"><textPath startOffset="22.20632615414155" xlink:href="#id70">October</textPath></text><line stroke="#e1ed5e" stroke-width="0.3" x1="26.266209847984243" x2="21.928928074336255" y1="57.711370442889674" y2="55.22380399835377" /><path d="M 25.398753493254645 57.213857153982495 a86.0,86.0 0 0,1 29.58750427330803,-30.492523968695096" fill="none" id="id71" stroke="none" /><text fill="#e1ed5e" style="font-size:6.75px; font-family:Arial;" text-anchor="middle"><textPath startOffset="21.46611528233685" xlink:href="#id71">November</textPath></text><line stroke="#e1ed5e" stroke-width="0.3" x1="56.762969772571076" x2="54.21961505331055" y1="26.818313649435495" y2="22.513508569990535" /><path d="M 56.25429882871897 25.957352633546506 a86.0,86.0 0 0,1 42.265352541879196,-11.944610805530505" fill="none" id="id72" stroke="none" /><text fill="#e1ed5e" style="font-size:6.75px; font-family:Arial;" text-anchor="middle"><textPath startOffset="22.20632615414155" xlink:href="#id72">December</textPath></text></svg>