<?xml version="1.0" encoding="utf-8" ?>
<svg baseProfile="full" height="200mm" version="1.1" viewBox="0,0,200,200" width="200mm" xmlns="http://www.w3.org/2000/svg" xmlns:ev="http://www.w3.org/2001/xml-events" xmlns:xlink="http://www.w3.org/1999/xlink"><defs /><rect fill="#1a1a1a" height="200" width="200" x="0" y="0" /><text alignment-baseline="middle" fill="#e1ed5e" style="dominant-baseline: central; font-size:9.0px; font-family:Arial;" text-anchor="middle" x="100.0" y="100.0">2024</text><line stroke="#e1ed5e" stroke-width="0.3" x1="100.0" x2="100.0" y1="15.0" y2="10.0" /><path d="M 100.0 14.0 a86.0,86.0 0 0,1 42.35913384403234,11.155469271406648" fill="none" id="id49" stroke="none" /><text fill="#e1ed5e" style="font-size:6.75px; font-family:Arial;" text-anchor="middle"><textPath startOffset="22.145653131862478" xlink:href="#id49">January</textPath></text><line stroke="#e1ed5e" stroke-width="0.3" x1="143.13028292997686" x2="145.6673583964461" y1="26.7553504044142" y2="22.446841604673864" /><path d="M 143.63769802327073 25.89364864446614 a86.0,86.0 0 0,1 29.32050498858742,28.57503671076993" fill="none" id="id50" stroke="none" /><text fill="#e1ed5e" style="font-size:6.75px; font-family:Arial;" text-anchor="middle"><textPath startOffset="20.669276256404974" xlink:href="#id50">February</textPath></text><line stroke="#e1ed5e" stroke-width="0.3" x1="172.87174338648825" x2="177.1583165268699" y1="56.24261187166439" y2="53.66864786411523" /><path d="M 173.72905801456457 55.72781907015455 a86.0,86.0 0 0,1 12.242430191666344,42.057860355516425" fill="none" id="id51" stroke="none" /><text fill="#e1ed5e" style="font-size:6.75px; font-family:Arial;" text-anchor="middle"><textPath startOffset="22.145653131862474" xlink:href="#id51">March</textPath></text><line stroke="#e1ed5e" stroke-width="0.3" x1="184.99686870605535" x2="189.99668451229388" y1="99.2704041080226" y2="99.22748670261217" /><path d="M 185.99683186730306 99.26182062694052 a86.0,86.0 0 0,1 -10.086455211305974,41.156179273409016" fill="none" id="id52" stroke="none" /><text fill="#e1ed5e" style="font-size:6.75px; font-family:Arial;" text-anchor="middle"><textPath startOffset="21.40746469413373" xlink:href="#id52">April</textPath></text><line stroke="#e1ed5e" stroke-width="0.3" x1="174.33088141563837" x2="178.70328620479359" y1="141.23008692659167" y2="143.65538615756765" /><path d="M 175.20536237346943 141.71514677278685 a86.0,86.0 0 0,1 -30.301960400862466,31.631185727798858" fill="none" id="id53" stroke="none" /><text fill="#e1ed5e" style="font-size:6.75px; font-family:Arial;" text-anchor="middle"><textPath startOffset="22.145653131862474" xlink:href="#id53">May</textPath></text><line stroke="#e1ed5e" stroke-width="0.3" x1="143.1302829299769" x2="145.66735839644613" y1="173.24464959558577" y2="177.55315839532614" /><path d="M 143.63769802327073 174.10635135553383 a86.0,86.0 0 0,1 -40.68552437913181,11.842963189579606" fill="none" id="id54" stroke="none" /><text fill="#e1ed5e" style="font-size:6.75px; font-family:Arial;" text-anchor="middle"><textPath startOffset="21.407464694133747" xlink:href="#id54">June</textPath></text><path d="M 110.34350942703117 118.27599006163325 l 5.8404934296150115 10.319592264858164 a32.857712596209126,32.857712596209126 0 0,0 -0.49326594570722043,0.27360630510641715 l -5.662483295751696 -10.418331485397726" fill="#ff5608" stroke="none" /><path d="M 109.71004243097381 118.62028667847754 l 6.8659102548403625 13.16628821785745 a35.848968619510714,35.848968619510714 0 0,0 -0.5481013311128051,0.2798644450428001 l -6.638881702013975 -13.282210614573085" fill="#ff830c" stroke="none" /><path d="M 109.3889696526874 118.78422872680471 l 2.8178013948554583 5.637490360033716 a27.302483816744193,27.302483816744193 0 0,0 -0.421029978749563,0.20594686068769963 l -2.720611166843826 -5.685030970818639" fill="#ff0000" stroke="none" /><path d="M 109.06512990194946 118.94263497670748 l 7.673656784140265 16.0349913317011 a38.776556343918564,38.776556343918564 0 0,0 -0.6029039658803265,0.28218949843786517 l -7.397264104388432 -16.1643570617095" fill="#ffad10" stroke="none" /><path d="M 107.407793817531 119.65005319985036 l 3.5310732936750786 9.366591428217195 a31.010070608565016,31.010070608565016 0 0,0 -0.49972115723380517,0.18350453079552198 l -3.3697629847871466 -9.425826808021437" fill="#ff3a05" stroke="none" /><path d="M 106.72888874123015 119.89276391827305 l 4.748553149944767 14.038253625212121 a35.819626238999135,35.819626238999135 0 0,0 -0.5841622634673242,0.19202573893859895 l -4.506868148829708 -14.11770028555274" fill="#ff830c" stroke="none" /><path d="M 105.3480935250658 120.30758222061773 l 3.7810333601123203 14.357199529048007 a35.84672999643957,35.84672999643957 0 0,0 -0.5964122721873504,0.15160566733797395 l -3.5340157946995725 -14.41999042822125" fill="#ff830c" stroke="none" /><path d="M 104.9986988182912 120.39639698878246 l 3.521603026416184 14.369342097757462 a35.79458279905346,35.79458279905346 0 0,0 -0.598055627356355,0.14113949963505346 l -3.27441524531995 -14.42767774103874" fill="#ff820c" stroke="none" /><path d="M 103.58742460773223 120.69131181640829 l 5.055064043560304 29.156266072261683 a50.59124065937442,50.59124065937442 0 0,0 -0.8569734500474097,0.14101465508865277 l -4.553813090459822 -29.238746725846006" fill="#b4ff20" stroke="none" /><path d="M 103.2317021107853 120.74984581791261 l 1.3721254713264672 8.810029822314382 a29.916241011723027,29.916241011723027 0 0,0 -0.508112957308159,0.07467510689364176 l -1.2206874084106227 -8.832286002506907" fill="#ff2904" stroke="none" /><path d="M 102.51750503828377 120.84855314841334 l 1.7753398767936466 14.702360954583284 a35.80916099301337,35.80916099301337 0 0,0 -0.6109112751235125,0.06845388261656982 l -1.5226927000693349 -14.730670597706824" fill="#ff820c" stroke="none" /><line stroke="#e1ed5e" stroke-width="0.3" x1="101.45913802915013" x2="101.54496967792366" y1="184.9874750549273" y2="189.98673829345242" /><path d="M 101.47630435890484 185.9873277026323 a86.0,86.0 0 0,1 -42.54439059252881,-10.42667462771756" fill="none" id="id55" stroke="none" /><text fill="#e1ed5e" style="font-size:6.75px; font-family:Arial;" text-anchor="middle"><textPath startOffset="22.145653131862474" xlink:href="#id55">July</textPath></text><path d="M 100.0 121.0 l 1.0880297799600104e-15 8.88443737996571 a29.88443737996571,29.88443737996571 0 0,0 -0.5130061065983909,-0.004403540431917574 l 0.15251318174953757 -8.883128237728227" fill="#ff2904" stroke="none" /><path d="M 99.63950707515114 120.99690560180557 l -0.5076997402052391 29.570964599708244 a50.57532259136665,50.57532259136665 0 0,0 -0.8679368046907459,-0.022354973305028416 l 1.015249858966729 -29.557891909053165" fill="#b4ff20" stroke="none" /><path d="M 98.91894614982273 120.97215588758144 l -0.7620384697222496 14.78334273239805 a35.80297014024155,35.80297014024155 0 0,0 -0.6135190959713953,-0.036907785311326116 l 1.0157019178260913 -14.768082969262032" fill="#ff820c" stroke="none" /><path d="M 98.55909050195518 120.95050786540614 l -1.0154140953215847 14.763898093214861 a35.798775378111905,35.798775378111905 0 0,0 -0.61272332476049,-0.04742866046959837 l 1.2687064148573106 -14.74429166575021" fill="#ff820c" stroke="none" /><path d="M 98.19965949673042 120.92268563240118 l -3.8038500478476394 44.20650349163032 a65.36985717964431,65.36985717964431 0 0,0 -1.1172033468206446,-0.10580031849585589 l 4.562152958053299 -44.13469141762928" fill="#34ff59" stroke="none" /><path d="M 97.12497278360702 120.80226474461374 l -2.0272884637628024 14.668449431169053 a35.80787990328357,35.80787990328357 0 0,0 -0.6081796087103033,-0.08938145866536396 l 2.278793178080791 -14.631486899204805" fill="#ff820c" stroke="none" /><path d="M 96.76829788921471 120.74984581791261 l -4.55160763952418 29.224586148755566 a50.57690936643331,50.57690936643331 0 0,0 -0.856730689889836,-0.14097470899710726 l 5.05261583246708 -29.14214544126279" fill="#b4ff20" stroke="none" /><path d="M 96.05791012581884 120.62667999033965 l -2.7780133627810497 14.535739790781495 a35.798820544526464,35.798820544526464 0 0,0 -0.602619470301745,-0.12054077140292457 l 3.027129318613753 -14.48590962271571" fill="#ff820c" stroke="none" /><path d="M 95.70440661134978 120.55596938700252 l -9.68134822845533 46.32875596066898 a68.32950593851405,68.32950593851405 0 0,0 -1.146105716447169,-0.24978840654014894 l 10.475216361521634 -46.15573609599511" fill="#38ff7e" stroke="none" /><path d="M 95.00130118170881 120.39639698878247 l -3.5228400858110342 14.37438972223605 a35.799779800960636,35.799779800960636 0 0,0 -0.5956311221977454,-0.1514071020652835 l 3.7690765012341583 -14.311797388335503" fill="#ff820c" stroke="none" /><path d="M 94.6519064749342 120.30758222061772 l -7.539990455235542 28.630571884115376 a50.606774604413445,50.606774604413445 0 0,0 -0.8381894021962254,-0.22845224883128845 l 8.030361258366462 -28.49691914113994" fill="#b4ff20" stroke="none" /><path d="M 94.30408787586889 120.21278271476187 l -6.420888516029899 22.785468171179012 a44.6728825687768,44.6728825687768 0 0,0 -0.736336715201635,-0.21433688630892772 l 6.811085243613141 -22.671887590567568" fill="#fffe18" stroke="none" /><path d="M 93.61358852112213 120.00534299687104 l -4.498209941619097 14.090578574783077 a35.791156048497925,35.791156048497925 0 0,0 -0.5836979590434274,-0.1918731128522076 l 4.739430638310268 -14.011284540528848" fill="#ff820c" stroke="none" /><path d="M 92.59220618246901 119.65005319985036 l -10.435651127376945 27.681804445305428 a50.583527710542825,50.583527710542825 0 0,0 -0.8098850036767492,-0.3132809177336059 l 10.909308393547223 -27.498583639433782" fill="#b4ff20" stroke="none" /><path d="M 92.25597844496254 119.51999308798841 l -5.456546409362923 13.754061431526704 a35.79689509930181,35.79689509930181 0 0,0 -0.5692482581736004,-0.2315083109228334 l 5.691849128726964 -13.65836586402458" fill="#ff820c" stroke="none" /><path d="M 91.92203290615298 119.3841803445677 l -7.76083431413907 18.623177121403373 a41.17556133907259,41.17556133907259 0 0,0 -0.6501129476288049,-0.27749455923728344 l 8.079382336938307 -18.487207912506683" fill="#ffcf13" stroke="none" /><path d="M 91.26138138417905 119.09545874513695 l -9.852746504732558 21.530029250479856 a44.67738949320718,44.67738949320718 0 0,0 -0.6946510430614982,-0.32513176314015635 l 10.220886261665546 -21.35772125576917" fill="#fffe18" stroke="none" /><path d="M 90.93487009805054 118.94263497670748 l -11.009970432505648 23.006603685011306 a46.50535751648709,46.50535751648709 0 0,0 -0.7171563517198821,-0.3507971087892728 l 11.4032870334876 -22.814212826124812" fill="#e8ff1a" stroke="none" /><path d="M 90.28995756902619 118.62028667847754 l -13.67506805295001 26.223746116841827 a50.57519816760981,50.57519816760981 0 0,0 -0.7663616047973536,-0.4080443890655384 l 14.123218473533926 -25.985131260053716" fill="#b4ff20" stroke="none" /><path d="M 89.97174638481275 118.45085714620012 l -14.129181388375837 25.996102351745737 a50.58768500893685,50.58768500893685 0 0,0 -0.7594315098474165,-0.4212438567856673 l 14.573357086379357 -25.749725579526924" fill="#b4ff20" stroke="none" /><line stroke="#e1ed5e" stroke-width="0.3" x1="58.13341422392154" x2="55.67067388415222" y1="173.97424548756322" y2="178.32567169271397" /><path d="M 57.64086615596768 174.84453072859336 a86.0,86.0 0 0,1 -31.369924170532247,-30.572349798747897" fill="none" id="id56" stroke="none" /><text fill="#e1ed5e" style="font-size:6.75px; font-family:Arial;" text-anchor="middle"><textPath startOffset="22.145653131862474" xlink:href="#id56">August</textPath></text><path d="M 89.65649057296885 118.27599006163327 l -7.30187589220402 12.901715049289946 a35.82469705451767,35.82469705451767 0 0,0 -0.5326066789066557,-0.3075006094389526 l 7.522275038971076 -12.774467542574822" fill="#ff830c" stroke="none" /><path d="M 89.03521579738668 117.91015095944536 l -12.60180798707658 20.58410628425253 a45.13526457415687,45.13526457415687 0 0,0 -0.6573325220640043,-0.4102241098710654 l 12.953304637930296 -20.364746377539916" fill="#faff18" stroke="none" /><path d="M 88.72937992617639 117.7192867562869 l -25.74734687045255 40.47910580099597 a68.97378322913076,68.97378322913076 0 0,0 -0.9935981154477411,-0.6440382941213614 l 26.438430618157298 -40.03115366517071" fill="#39ff86" stroke="none" /><path d="M 88.1277618465304 117.32195027204791 l -16.722474130117238 24.39858951303511 a50.57925474480429,50.57925474480429 0 0,0 -0.7119750470160364,-0.49701387758587573 l 17.13884426830704 -24.107930819644103" fill="#b4ff20" stroke="none" /><path d="M 87.54013794807813 116.9041958592261 l -17.554635499414303 23.816234520321288 a50.58679188834505,50.58679188834505 0 0,0 -0.6945976305522564,-0.5212390112568068 l 17.960886118877326 -23.511376481800465" fill="#b4ff20" stroke="none" /><path d="M 86.96720088162412 116.46651593811092 l -18.027190413436163 22.776766185528313 a50.04755879712632,50.04755879712632 0 0,0 -0.6690863608520453,-0.5389686101640344 l 18.41552754464347 -22.46394928157087" fill="#bbff1f" stroke="none" /><path d="M 86.68645165197938 116.24036423190432 l -32.92364335249038 40.16149158051125 a72.93179852049667,72.93179852049667 0 0,0 -0.961399699343199,-0.8020338225572856 l 33.608217385995474 -39.5903955740421" fill="#3effb5" stroke="none" /><path d="M 86.13680546590413 115.77377054828092 l -17.278167494112697 19.65938289884024 a47.17300914907999,47.17300914907999 0 0,0 -0.6036684451589948,-0.539804046065525 l 17.613100966095065 -19.35988332289133" fill="#dfff1b" stroke="none" /><path d="M 85.86807049272751 115.53346607816431 l -20.135965379650887 22.13295325418487 a50.921977232837264,50.921977232837264 0 0,0 -0.6415447219827004,-0.5938042169606171 l 20.512939872947555 -21.784031291091875" fill="#b0ff20" stroke="none" /><path d="M 85.60350026404147 115.28858382429668 l -10.001341949125802 10.621078564169752 a35.58883650774145,35.58883650774145 0 0,0 -0.44117873042886074,-0.4226392438842168 l 10.182193165419976 -10.447827189979952" fill="#ff7f0b" stroke="none" /><path d="M 84.3458050057657 113.99807769240083 l -10.839207874476214 9.692486519229178 a35.540726332324205,35.540726332324205 0 0,0 -0.4027761736175558,-0.4582853489743817 l 11.003995112052364 -9.504988892443496" fill="#ff7e0b" stroke="none" /><path d="M 82.98947788004972 112.3143062007846 l -19.709807529078645 14.268380674038573 a45.33234883632492,45.33234883632492 0 0,0 -0.4509163438133897,-0.6342703073743418 l 19.951838971421996 -13.927933139954726" fill="#f7ff18" stroke="none" /><path d="M 82.37810715431573 111.42229804090323 l -13.564860855289679 8.792578920399375 a37.16523721121412,37.16523721121412 0 0,0 -0.34241980413795625,-0.538340806522605 l 13.713798351053525 -8.558424439198099" fill="#ff960d" stroke="none" /><line stroke="#e1ed5e" stroke-width="0.3" x1="26.387840678322732" x2="22.057713659400548" y1="142.50000000000003" y2="145.00000000000006" /><path d="M 25.521815274538298 143.00000000000003 a86.0,86.0 0 0,1 -11.493303480769221,-40.785679425670985" fill="none" id="id57" stroke="none" /><text fill="#e1ed5e" style="font-size:6.75px; font-family:Arial;" text-anchor="middle"><textPath startOffset="21.40746469413373" xlink:href="#id57">September</textPath></text><path d="M 81.63589988554817 110.18625677009913 l -25.189460671276 13.972169215958889 a49.80504194597101,49.80504194597101 0 0,0 -0.4082937896953563,-0.7512145859515128 l 25.425599810586686 -13.53769979653279" fill="#beff1f" stroke="none" /><path d="M 81.4637452351635 109.86951160357371 l -25.556978693839852 13.607651651920074 a49.953883045929906,49.953883045929906 0 0,0 -0.39651948700598094,-0.7603783993880845 l 25.786806249820785 -13.166927009427486" fill="#bcff1f" stroke="none" /><path d="M 81.29705330413844 109.54985784667822 l -25.76543125240848 13.156012783445878 a49.929882820031935,49.929882820031935 0 0,0 -0.38322394506002616,-0.7667046016636679 l 25.987475110680244 -12.711776325618457" fill="#bcff1f" stroke="none" /><path d="M 80.83023694016515 108.57439118712176 l -27.03971318793268 12.094519777695556 a50.62133518156684,50.62133518156684 0 0,0 -0.34800026891812796,-0.796292718526751 l 27.243347338867775 -11.628564989392956" fill="#b4ff20" stroke="none" /><path d="M 80.68587082218212 108.24405325689762 l -57.178789778667124 24.406225295503706 a83.16975015011636,83.16975015011636 0 0,0 -0.5492140410561377,-1.3179137641833256 l 57.58932966425974 -23.4210790218791" fill="#4cdaff" stroke="none" /><path d="M 80.41425534168474 107.57618678355246 l -26.791843214861306 10.36366050985278 a49.726439424564816,49.726439424564816 0 0,0 -0.3011274903792753,-0.7987764443290535 l 26.965801389055017 -9.902215785329581" fill="#bfff1e" stroke="none" /><path d="M 80.28708602549918 107.23885506374661 l -18.01626790516126 6.615823126088315 a40.1925773377686,40.1925773377686 0 0,0 -0.23227449291463131,-0.6497130961489906 l 18.12718256811984 -6.305575073558402" fill="#ffc112" stroke="none" /><path d="M 79.94057633289273 106.21446072829308 l -27.504792774590328 8.521055109764282 a49.79447873736901,49.79447873736901 0 0,0 -0.24594602753052047,-0.8186743360387996 l 27.647015122124476 -8.047643170134759" fill="#beff1f" stroke="none" /><path d="M 79.73907114497094 105.5222062557868 l -60.78278656508718 16.566618767360406 a84.0,84.0 0 0,0 -0.36724207678106957,-1.3944779825087894 l 61.05821812267298 -15.520760280478815" fill="#4dd2ff" stroke="none" /><path d="M 79.56144815229197 104.8234425847677 l -28.01533295633303 6.61154229589785 a49.784915705706794,49.784915705706794 0 0,0 -0.18915693007535941,-0.8334603357079162 l 28.124700747966052 -6.129647626250908" fill="#beff1f" stroke="none" /><path d="M 79.48165901384964 104.47187691870673 l -16.990509162711977 3.7030023924981132 a38.38935387894117,38.38935387894117 0 0,0 -0.13480565880983789,-0.645093877602905 l 17.05157253234618 -3.410792063609799" fill="#ffa80f" stroke="none" /><path d="M 79.34024301695615 103.76489593502545 l -28.478063343756965 5.18965179543518 a49.94706509421806,49.94706509421806 0 0,0 -0.14647614855022248,-0.844835500315949 l 28.562954309799423 -4.700023262198639" fill="#bcff1f" stroke="none" /><path d="M 79.2786578344484 103.40968896794605 l -52.44542388946076 8.629874543186382 a74.1507029264558,74.1507029264558 0 0,0 -0.19589382644087464,-1.2577788904997036 l 52.58583920803991 -7.728307470755229" fill="#40ffc3" stroke="none" /><path d="M 79.17382384314188 102.69636545807758 l -28.627637816162206 3.7064208605782016 a49.866575871223276,49.866575871223276 0 0,0 -0.10262520831088483,-0.8498839435471363 l 28.687045110732754 -3.214443240107666" fill="#bdff1f" stroke="none" /><path d="M 79.13060592940153 102.33845913500099 l -28.60389556722699 3.2051261603244945 a49.78290595691172,49.78290595691172 0 0,0 -0.08787301043490152,-0.850091663988698 l 28.654700970143555 -2.7136299740528647" fill="#beff1f" stroke="none" /><path d="M 79.0935383218832 101.97986365728391 l -29.045029496805782 2.750594491350817 a50.17498086590919,50.17498086590919 0 0,0 -0.0738441376083536,-0.8581808131125458 l 29.087967257111877 -2.251592630862609" fill="#b9ff1f" stroke="none" /><path d="M 79.03789590574601 101.26102812881392 l -62.08033751064 3.7345989455628117 a83.19256816307858,83.19256816307858 0 0,0 -0.07352008733964163,-1.4262700533398696 l 62.13529918743622 -2.6683570988462115" fill="#4cdaff" stroke="none" /><path d="M 79.01933749520258 100.90099992219065 l -17.814273872304295 0.7650215701796335 a38.8306929646692,38.8306929646692 0 0,0 -0.02288295140795564,-0.6662121627525912 l 17.824781510709098 -0.4591031428629223" fill="#ffae10" stroke="none" /><line stroke="#e1ed5e" stroke-width="0.3" x1="15.003131293944662" x2="10.003315487706104" y1="100.72959589197737" y2="100.7725132973878" /><path d="M 14.003168132696942 100.73817937305945 a86.0,86.0 0 0,1 10.791469493833604,-42.45332614584628" fill="none" id="id58" stroke="none" /><text fill="#e1ed5e" style="font-size:6.75px; font-family:Arial;" text-anchor="middle"><textPath startOffset="22.145653131862435" xlink:href="#id58">October</textPath></text><path d="M 79.00077361379809 99.81974689727619 l -29.390335348605905 -0.2522806811664541 a50.391418091776444,50.391418091776444 0 0,0 0.014850035128627462,-0.8649400980892242 l 29.381673881878612 0.7567676952247306" fill="#b6ff1f" stroke="none" /><path d="M 79.01933749520258 99.09900007780938 l -46.3636833033127 -1.9910560516953872 a67.40641586732237,67.40641586732237 0 0,0 0.05956933042509142,-1.1556290961721722 l 46.32267238343103 2.7866569412442717" fill="#36ff73" stroke="none" /><path d="M 79.06263194458094 98.37931529534042 l -29.371505785833282 -2.2735403062086443 a50.4593675704553,50.4593675704553 0 0,0 0.07426267869360743,-0.8630448949543656 l 29.328149484441933 2.7774062485386906" fill="#b6ff1f" stroke="none" /><path d="M 79.13060592940154 97.66154086499901 l -28.70849669234384 -3.216846934570921 a49.88816170224017,49.88816170224017 0 0,0 0.10266963186243495,-0.8502518342808487 l 28.649044974221738 3.709192445775206" fill="#bdff1f" stroke="none" /><path d="M 79.17382384314186 97.30363454192245 l -28.663099621681003 -3.711012101272653 a49.90233365557532,49.90233365557532 0 0,0 0.11728351440924956,-0.8486050855479638 l 28.595171590716546 4.2025054950206835" fill="#bcff1f" stroke="none" /><path d="M 79.2786578344484 96.59031103205396 l -18.043968688587572 -2.9691281811717047 a39.28662156307055,39.28662156307055 0 0,0 0.11521303614643916,-0.6645181758197493 l 17.9903408349489 3.2784393899120468" fill="#ffb410" stroke="none" /><path d="M 79.48165901384962 95.52812308129327 l -28.182671548291555 -6.1422820923663375 a49.844247345026815,49.844247345026815 0 0,0 0.18938235961745217,-0.8344536198649131 l 28.07307832711644 6.6251700461702585" fill="#bdff1f" stroke="none" /><path d="M 79.56144815229197 95.17655741523228 l -33.6510896092286 -7.941565520611451 a55.57548690628228,55.57548690628228 0 0,0 0.2270985712613888,-0.9266396683239315 l 33.50980351145091 8.5180610135435" fill="#78ff26" stroke="none" /><path d="M 79.73907114497095 94.47779374421319 l -23.497266519948667 -6.404284477715001 a45.3543916692863,45.3543916692863 0 0,0 0.21118194326013467,-0.7494102154972161 l 23.383866084613953 6.806702617115231" fill="#f7ff19" stroke="none" /><line stroke="#e1ed5e" stroke-width="0.3" x1="26.387840678322718" x2="22.05771365940052" y1="57.49999999999999" y2="54.99999999999999" /><path d="M 25.521815274538284 56.99999999999999 a86.0,86.0 0 0,1 29.574782752854787,-30.34633250058573" fill="none" id="id59" stroke="none" /><text fill="#e1ed5e" style="font-size:6.75px; font-family:Arial;" text-anchor="middle"><textPath startOffset="21.40746469413373" xlink:href="#id59">November</textPath></text><line stroke="#e1ed5e" stroke-width="0.3" x1="56.869717070023135" x2="54.33264160355391" y1="26.7553504044142" y2="22.446841604673864" /><path d="M 56.362301976729285 25.89364864446614 a86.0,86.0 0 0,1 42.16139366436587,-11.88097634709845" fill="none" id="id60" stroke="none" /><text fill="#e1ed5e" style="font-size:6.75px; font-family:Arial;" text-anchor="middle"><textPath startOffset="22.145653131862474" xlink:href="#id60">December</textPath></text></svg>