<?xml version="1.0" encoding="utf-8" ?>
<svg baseProfile="full" height="200mm" version="1.1" viewBox="0,0,200,200" width="200mm" xmlns="http://www.w3.org/2000/svg" xmlns:ev="http://www.w3.org/2001/xml-events" xmlns:xlink="http://www.w3.org/1999/xlink"><defs /><rect fill="#1a1a1a" height="200" width="200" x="0" y="0" /><text alignment-baseline="middle" fill="#e1ed5e" style="dominant-baseline: central; font-size:9.0px; font-family:Arial;" text-anchor="middle" x="100.0" y="100.0">2025</text><line stroke="#e1ed5e" stroke-width="0.3" x1="100.0" x2="100.0" y1="15.0" y2="10.0" /><path d="M 100.0 14.0 a86.0,86.0 0 0,1 42.46469731375804,11.215312516191453" fill="none" id="id61" stroke="none" /><text fill="#e1ed5e" style="font-size:6.75px; font-family:Arial;" text-anchor="middle"><textPath startOffset="22.20632615414155" xlink:href="#id61">January</textPath></text><path d="M 100.36148047927253 79.00311137660856 l 0.36962767724996826 -21.470125266402682 a42.473306768516395,42.473306768516395 0 0,0 0.7308915133971127,0.018876771451042218 l -0.7391458258419488 21.46058170280928" fill="#ffd714" stroke="none" /><path d="M 100.72285384407766 79.0124445844662 l 0.6203080851814847 -18.010211080860476 a39.02089024709076,39.02089024709076 0 0,0 0.6710834400507881,0.028898264590101752 l -0.9302323576216044 17.99686508974618" fill="#ffa60f" stroke="none" /><path d="M 101.44485096284872 79.0497635885617 l 2.662838921091947 -38.610975357945456 a59.702688914486984,59.702688914486984 0 0,0 1.0246397526775861,0.07953176519173519 l -3.3270688631318746 38.55941833056526" fill="#4eff2b" stroke="none" /><path d="M 102.16513564639614 79.11191278185805 l 2.2777950198464043 -21.974965457150887 a43.092701441775105,43.092701441775105 0 0,0 0.737158723504766,0.08282837171777702 l -2.655720446860896 21.93250113196251" fill="#ffdf14" stroke="none" /><path d="M 102.52436894288641 79.15227682838746 l 2.504618033703539 -20.684608549167034 a41.83569394877519,41.83569394877519 0 0,0 0.714165719204254,0.09271920704609413 l -2.8602984814156387 20.638431018956805" fill="#ffce13" stroke="none" /><path d="M 102.88285421437855 79.19881850522331 l 3.0014120552799115 -21.656633412503805 a42.8636283605708,42.8636283605708 0 0,0 0.7299696720532438,0.10757855445125737 l -3.373750707761811 21.60176037389158" fill="#ffdc14" stroke="none" /><path d="M 103.59715602781102 79.31037775812273 l 3.1991030315678057 -18.400156324678438 a39.67618839536564,39.67618839536564 0 0,0 0.6718593414015471,0.12277800022429762 l -3.5153574940722536 18.342362843103402" fill="#ffaf10" stroke="none" /><path d="M 103.95276090670814 79.375362276772 l 8.001617605830116 -41.750682172549396 a63.51053217948658,63.51053217948658 0 0,0 1.0719174265251956,0.21501655168536438 l -8.719101441822438 41.60676166478682" fill="#31ff3c" stroke="none" /><path d="M 104.66035177308747 79.52364482259891 l 4.9748039485584945 -21.85797500885543 a43.41695219726227,43.41695219726227 0 0,0 0.7272883508227278,0.17212565489555137 l -5.350315986343746 21.76910344181901" fill="#ffe415" stroke="none" /><path d="M 105.01212808612495 79.60689891045804 l 5.082259837770845 -20.678449723161396 a42.29384061206273,42.29384061206273 0 0,0 0.7054836395132321,0.1798434879604123 l -5.4374523659691025 20.587903239032116" fill="#ffd413" stroke="none" /><path d="M 105.36241919743992 79.69619591428918 l 7.2710166416375515 -27.530353737774114 a49.47434037743356,49.47434037743356 0 0,0 0.8215146151845559,0.2245509772243127 l -7.743829146045819 27.401116219723505" fill="#c9ff1d" stroke="none" /><path d="M 106.0581310904928 79.89281104454417 l 6.249582193349632 -20.74262312539549 a42.663649085821724,42.663649085821724 0 0,0 0.7013388437125073,0.21790939268403392 l -6.605706409772857 20.63197359782893" fill="#ffd914" stroke="none" /><path d="M 106.40334571778207 80.00007090966166 l 12.244390295753389 -38.24359146960385 a61.15591341519573,61.15591341519573 0 0,0 0.9998035998520036,0.32961952757098184 l -12.90087671784781 38.02715821777363" fill="#3eff2d" stroke="none" /><path d="M 107.08798089147638 80.2323363322302 l 7.858723426647566 -21.917186845524114 a44.28352664692689,44.28352664692689 0 0,0 0.7153216626551749,0.26345900520374227 l -8.234827415075317 21.778664572514046" fill="#fff016" stroke="none" /><path d="M 107.4271985657038 80.35727306442388 l 8.142935333891186 -21.535637401195835 a44.02370678513168,44.02370678513168 0 0,0 0.7065109678908458,0.2741152792352003 l -8.5124294667817 21.39227941807009" fill="#ffec16" stroke="none" /><path d="M 108.09893153111575 80.62456947434976 l 8.393526247600427 -20.080202437913357 a42.76386484098674,42.76386484098674 0 0,0 0.6767203269675987,0.2897363274148098 l -8.73793033235834 19.932746582535756" fill="#ffdb14" stroke="none" /><path d="M 108.43124777332544 80.76684994638697 l 18.28305991819484 -41.706855770310966 a66.53824873903062,66.53824873903062 0 0,0 1.0450240114303577,0.4688718122100277 l -18.998266048091978 41.38596362758441" fill="#35ff64" stroke="none" /><path d="M 108.76106565485865 80.91482961587045 l 9.185783631473537 -20.010379173588017 a43.018035688839554,43.018035688839554 0 0,0 0.6703065992609433,0.3147179361832304 l -9.52886844203408 19.849296254764784" fill="#ffde14" stroke="none" /><path d="M 109.08828744355905 81.06846463323043 l 9.906198098518221 -20.635300194563495 a43.88991862997416,43.88991862997416 0 0,0 0.6782637944762266,0.33282109828216616 l -10.25993316000488 20.461723936146495" fill="#ffea16" stroke="none" /><path d="M 109.73455568895987 81.39251694778311 l 10.807670719594137 -20.658729188520006 a44.31499170207403,44.31499170207403 0 0,0 0.6728597436791949,0.3594183724648309 l -11.161675509801643 20.46963208955342" fill="#fff016" stroke="none" /><path d="M 110.36928655335952 81.73862282372117 l 10.8541784349137 -19.115321514031514 a42.98200869078487,42.98200869078487 0 0,0 0.6402339411276745,0.3708648229426181 l -11.181609108506704 18.925652533698848" fill="#ffde14" stroke="none" /><line stroke="#e1ed5e" stroke-width="0.3" x1="143.23703022742887" x2="145.7803849466894" y1="26.81831364943548" y2="22.513508569990506" /><path d="M 143.74570117128098 25.957352633546492 a86.0,86.0 0 0,1 28.547481713284135,27.462654790039103" fill="none" id="id62" stroke="none" /><text fill="#e1ed5e" style="font-size:6.75px; font-family:Arial;" text-anchor="middle"><textPath startOffset="19.985693538727396" xlink:href="#id62">February</textPath></text><path d="M 110.68208982089419 81.91981866633111 l 9.200625557603068 -15.572699841867351 a39.087578362404244,39.087578362404244 0 0,0 0.5763331905090967,0.34723429864564787 l -9.467320814329803 15.412018933763088" fill="#ffa60f" stroke="none" /><path d="M 111.2981086023043 82.29822771554956 l 26.248124694099424 -41.12531951888333 a69.78786688806181,69.78786688806181 0 0,0 1.007048803202863,0.6550125544880302 l -26.95214052308657 40.66740804023577" fill="#39ff8d" stroke="none" /><path d="M 111.60114157652 82.49532879139004 l 12.054150515819938 -18.18820502161469 a42.8200216903268,42.8200216903268 0 0,0 0.6108894039919982,0.4124752525269369 l -12.365444614218477 17.978017856789084" fill="#ffdc14" stroke="none" /><path d="M 112.19680574252982 82.90503203632743 l 12.741768536631746 -17.858784466388606 a42.93829638002964,42.93829638002964 0 0,0 0.5979764706728014,0.43445533669033803 l -13.047290323658336 17.63680989488159" fill="#ffdd14" stroke="none" /><path d="M 112.48926042617603 83.11751280151076 l 12.138390727820916 -16.40819544792226 a41.4100320263949,41.4100320263949 0 0,0 0.5693955247909558,0.4288569044653548 l -12.419032406370254 16.19682195395106" fill="#ffc812" stroke="none" /><path d="M 113.06298171725822 83.55741782278167 l 29.818728563876526 -37.5333063648056 a68.93647525465866,68.93647525465866 0 0,0 0.9227528051917907,0.7461352619755295 l -30.460384767632807 37.01446500556594" fill="#38ff82" stroke="none" /><path d="M 113.6212207817346 84.01681056812373 l 14.378399633571641 -16.871665818585324 a43.167351747935825,43.167351747935825 0 0,0 0.5613938789694152,0.48683523977513077 l -14.66668731118782 16.621665585390524" fill="#ffe015" stroke="none" /><path d="M 113.89432698308785 84.25364557470407 l 14.411672953043437 -16.3326593980618 a42.781920951068116,42.781920951068116 0 0,0 0.5479936507321065,0.49199411030650053 l -14.690677591371534 16.082166278986" fill="#ffdb14" stroke="none" /><path d="M 114.16331599549186 84.49514656593476 l 16.8533800381696 -18.449718091695082 a45.98856771353641,45.98856771353641 0 0,0 0.5798766745767281,0.5389321717760556 l -17.168464596541174 18.15688133384439" fill="#f7ff18" stroke="none" /><path d="M 114.68862486808459 84.99185889309783 l 14.5926799339464 -14.910109118001222 a41.86282966343025,41.86282966343025 0 0,0 0.5106551554030612,0.5084622398800864 l -14.847170889516782 14.656711027471017" fill="#ffce13" stroke="none" /><path d="M 114.94478906791727 85.2469230424477 l 34.85801968353796 -34.41086017621372 a69.9815152310017,69.9815152310017 0 0,0 0.8388975363737285,0.8645576524084215 l -35.4451814836148 33.80573832825518" fill="#3aff8f" stroke="none" /><path d="M 115.4437574822437 85.77008943001954 l 15.964178691627179 -14.709427764987092 a42.70765455943079,42.70765455943079 0 0,0 0.49348971301044964,0.5449236667359246 l -16.215012045253665 14.432451310981618" fill="#ffda14" stroke="none" /><path d="M 115.68641384162765 86.03803664274999 l 16.822093312314806 -14.972794469791271 a43.520377386776595,43.520377386776595 0 0,0 0.4932478056293073,0.5638675083389961 l -17.077332981521963 14.681011405249327" fill="#ffe515" stroke="none" /><path d="M 115.9244219780498 86.31012108654704 l 16.537557932581176 -14.216978546117101 a42.80856027696997,42.80856027696997 0 0,0 0.4755610840244804,0.5629143237975329 l -16.779829630092774 13.930205272690463" fill="#ffdb14" stroke="none" /><path d="M 116.38621287248628 86.86637796730983 l 14.217391140705809 -11.395301830020465 a39.22051356699607,39.22051356699607 0 0,0 0.417690848393702,0.5304249602902349 l -14.411436069693474 11.14888447577719" fill="#ffa80f" stroke="none" /><path d="M 116.60985879189232 87.15038557335679 l 39.35824112927559 -30.448074806566385 a70.7609927977373,70.7609927977373 0 0,0 0.7370062675473033,0.9698138571886348 l -39.876523337047004 29.766076173496717" fill="#3bff99" stroke="none" /><path d="M 117.04232023915458 87.72973835380427 l 18.89481115725766 -13.60403239708815 a44.28268855028243,44.28268855028243 0 0,0 0.44005896483804907,0.6224321978144808 l -19.126182741899594 13.276773698941875" fill="#fff016" stroke="none" /><path d="M 117.2510076193507 88.02491185347247 l 18.352923558323997 -12.740002335335104 a43.34138452831489,43.34138452831489 0 0,0 0.42015454828612364,0.6165249552616975 l -18.569502572278857 12.422199356803" fill="#ffe315" stroke="none" /><path d="M 117.45458315368197 88.32363383020206 l 19.927524661667956 -13.330657785329624 a44.97525132570989,44.97525132570989 0 0,0 0.42491624707827574,0.6471765961282714 l -20.154037544104156 12.98566312522368" fill="#fff917" stroke="none" /><line stroke="#e1ed5e" stroke-width="0.3" x1="172.23445277983987" x2="176.4835382374775" y1="55.19839476539836" y2="52.563006222186495" /><path d="M 173.08426987136738 54.67131705675599 a86.0,86.0 0 0,1 12.851231095245387,41.99856678651699" fill="none" id="id63" stroke="none" /><text fill="#e1ed5e" style="font-size:6.75px; font-family:Arial;" text-anchor="middle"><textPath startOffset="22.20632615414155" xlink:href="#id63">March</textPath></text><path d="M 117.84615892207809 88.93136811851018 l 17.75000871184532 -11.008997128317375 a41.88685775893265,41.88685775893265 0 0,0 0.3747561348731213,0.616000550240448 l -17.936880645004667 10.701828804869846" fill="#ffcf13" stroke="none" /><path d="M 118.03404312379186 89.2402003453031 l 26.991509122600352 -16.104166356015604 a52.43064967094449,52.43064967094449 0 0,0 0.4557479932698302,0.7790210533807211 l -27.264716790340508 15.637165890280988" fill="#a4ff21" stroke="none" /><path d="M 118.3937258080291 89.86733742301442 l 20.019575119550684 -11.028303984637828 a43.856221838810356,43.856221838810356 0 0,0 0.3585599089810488,0.6643570555293286 l -20.206443127750198 10.682065945776042" fill="#ffea16" stroke="none" /><path d="M 118.56541770881063 90.18545643968196 l 19.46600577200739 -10.290636310547539 a43.018686981556925,43.018686981556925 0 0,0 0.3404428559129747,0.6576272368392173 l -19.640258061080477 9.954036351447977" fill="#ffde14" stroke="none" /><path d="M 119.04729006885535 91.15688171328212 l 20.28711922209636 -9.41873591094669 a43.36693525031332,43.36693525031332 0 0,0 0.30851998318082685,0.6797828870654511 l -20.446241522240538 9.068131015039176" fill="#ffe315" stroke="none" /><path d="M 119.196687751892 91.48605970444005 l 50.037615398478344 -22.19222792707287 a75.73808486906708,75.73808486906708 0 0,0 0.5182984006861159,1.1963041684972393 l -50.41220450900714 21.32762461398903" fill="#42ffd4" stroke="none" /><path d="M 119.47837535516314 92.15188598940014 l 21.869353991468255 -8.81147325347722 a44.57775869120924,44.57775869120924 0 0,0 0.2806412967045214,0.7142014891034736 l -22.017788838054475 8.433722759477963" fill="#fff417" stroke="none" /><path d="M 119.61058180528143 92.48833698450437 l 20.734791741690692 -7.942281866319525 a43.203860696179675,43.203860696179675 0 0,0 0.26003665481009947,0.6967689528001818 l -20.868432985002418 7.5841897764900095" fill="#ffe115" stroke="none" /><path d="M 119.7369772167798 92.82701384747503 l 19.208566840798543 -6.9809465981325305 a41.43777520875018,41.43777520875018 0 0,0 0.23786648283383263,0.6724805784163072 l -19.325886404442187 6.649268393289609" fill="#ffc812" stroke="none" /><path d="M 120.08093135843002 93.85539295169968 l 46.04288455466555 -14.088760521553557 a69.15018578518618,69.15018578518618 0 0,0 0.33848720534987287,1.1412105854363508 l -46.27857765712712 13.294120549370675" fill="#38ff85" stroke="none" /><path d="M 120.28053869075195 94.5502522615342 l 23.455839624021408 -6.30300855879719 a45.2879461741845,45.2879461741845 0 0,0 0.19582436355601163,0.7545911545665914 l -23.560860319447723 5.898320978681748" fill="#fffd18" stroke="none" /><path d="M 120.37134235888165 94.90015583598534 l 21.127766982542322 -5.289210560913426 a42.7797678138745,42.7797678138745 0 0,0 0.17268195824164131,0.7158781998084334 l -21.215681741044783 4.924747129445586" fill="#ffdb14" stroke="none" /><path d="M 120.45610955862082 95.25157060432595 l 22.44714117218003 -5.210602958757877 a44.0439694930712,44.0439694930712 0 0,0 0.16507179132455832,0.7399844731824253 l -22.533507350506625 4.823440316025488" fill="#ffec16" stroke="none" /><path d="M 120.67395015179393 96.31383870115 l 15.148440074056053 -2.7009639245980464 a36.38734684080551,36.38734684080551 0 0,0 0.10463638761591612,0.617569882835423 l -15.192688323192192 2.4398082534467855" fill="#ff7f0b" stroke="none" /><path d="M 120.78858239683441 97.02765380044208 l 24.66441188811947 -3.5265113099364767 a45.91524625216293,45.91524625216293 0 0,0 0.10513279733565169,0.7833614548444829 l -24.72146068451296 3.1014315130273293" fill="#f8ff18" stroke="none" /><path d="M 120.83666639777658 97.38593545837742 l 21.886900605838985 -2.7458217023547733 a43.05846674070973,43.05846674070973 0 0,0 0.08593167339570726,0.7362101000658524 l -21.930922632238282 2.3686678639640686" fill="#ffdf14" stroke="none" /><path d="M 120.94382443527127 98.46500227214037 l 20.171891531032948 -1.4784218499569135 a41.22599661589482,41.22599661589482 0 0,0 0.04577932744460159,0.7081859331580523 l -20.194351449481964 1.130976852545826" fill="#ffc512" stroke="none" /><path d="M 120.96714384426684 98.82574320788733 l 38.30252173344299 -2.1451179347365814 a59.362542956571595,59.362542956571595 0 0,0 0.0483561388605242,1.020721664011099 l -38.33377148053701 1.4854851641024827" fill="#52ff2b" stroke="none" /><line stroke="#e1ed5e" stroke-width="0.3" x1="184.98032266829074" x2="189.97916517819016" y1="98.17113171792111" y2="98.06355123074" /><path d="M 185.9800911702706 98.14961562048488 a86.0,86.0 0 0,1 -9.607161424134198,41.387399972396054" fill="none" id="id64" stroke="none" /><text fill="#e1ed5e" style="font-size:6.75px; font-family:Arial;" text-anchor="middle"><textPath startOffset="21.466115282336823" xlink:href="#id64">April</textPath></text><path d="M 120.99513854157772 99.54816195383933 l 19.75578891186577 -0.4251659042221885 a40.76036339686878,40.76036339686878 0 0,0 0.00905849170726258,0.701590165535597 l -19.76018041069075 0.08503948062612869" fill="#ffbf11" stroke="none" /><path d="M 120.99980553446 99.90962569577887 l 22.092663084480403 -0.09507750209283565 a43.092867670263345,43.092867670263345 0 0,0 -0.0031923662398912695,0.7417934866582411 l -22.091026420951007 -0.2852254627690901" fill="#ffdf14" stroke="none" /><path d="M 120.99824983174949 100.27111621757518 l 24.63665989302665 0.31809308382379364 a45.63871331653998,45.63871331653998 0 0,0 -0.016903573872045878,0.7854426565158501 l -24.627534256469595 -0.7421255561297586" fill="#fcff18" stroke="none" /><path d="M 120.95626037817324 101.35467743843564 l 38.93059551848098 2.5165940135330134 a60.01185092830794,60.01185092830794 0 0,0 -0.07551045821184083,1.0302802089622023 l -38.8815085016048 -3.186347358991986" fill="#4bff2c" stroke="none" /><path d="M 120.89721153311464 102.0752229133903 l 21.658528979478827 2.1508264649242044 a42.76506218776189,42.76506218776189 0 0,0 -0.07904958525206227,0.7319009831003453 l -21.61829709272571 -2.523323769909341" fill="#ffdb14" stroke="none" /><path d="M 120.8583938346157 102.4346265915055 l 20.99341114523605 2.450386037671701 a42.13593393362445,42.13593393362445 0 0,0 -0.09028825873750562,0.7196862575481133 l -20.948121377251695 -2.811390049507209" fill="#ffd213" stroke="none" /><path d="M 120.81339534386255 102.79330883721812 l 20.11026783164286 2.6989440177772726 a41.29056852509326,41.29056852509326 0 0,0 -0.10060338679287849,0.7036198529146579 l -20.06083039383338 -3.0447093426723395" fill="#ffc612" stroke="none" /><path d="M 120.64145759157962 103.86396538481128 l 21.396985420712156 4.005395967708711 a42.76865135814127,42.76865135814127 0 0,0 -0.14168656864411153,0.7224567610055956 l -21.32486891909238 -4.373116455782252" fill="#ffdb14" stroke="none" /><path d="M 120.41448212921028 104.9243191809786 l 18.49417483941994 4.461108507269808 a40.02461542593355,40.02461542593355 0 0,0 -0.16731944686134947,0.6683580175571635 l -18.41464407826353 -4.7787943642243675" fill="#ffb410" stroke="none" /><path d="M 120.02730092923936 106.31721596034902 l 18.83581343242584 5.94138479577918 a40.75064355793678,40.75064355793678 0 0,0 -0.21676965054744735,0.6671483848491161 l -18.730751530862147 -6.264732080606091" fill="#ffbe11" stroke="none" /><path d="M 119.9155931802556 106.66101706037122 l 9.034717080406462 3.02177314346217 a30.526658682535945,30.526658682535945 0 0,0 -0.17096261722536485,0.4968973914841334 l -8.981363632237867 -3.176843238035604" fill="#ff2403" stroke="none" /><path d="M 119.26925614724726 108.34839909993367 l 35.86113160462861 15.536823867145133 a60.082139857525505,60.082139857525505 0 0,0 -0.41931301164489965,0.9454401458570617 l -35.58837750825244 -16.151812349494882" fill="#4aff2c" stroke="none" /><path d="M 119.12269723197855 108.67885076344098 l 19.748999741834503 8.96309863652442 a42.68778753056764,42.68778753056764 0 0,0 -0.30943641967145374,0.6664985192160996 l -19.591788705323218 -9.301717223019349" fill="#ffda14" stroke="none" /><path d="M 118.97047184881838 109.00673069616215 l 16.615775227563656 7.888776514114479 a39.39338960883943,39.39338960883943 0 0,0 -0.2961008695553837,0.6100554934646353 l -16.477521101393556 -8.173620963544389" fill="#ffab0f" stroke="none" /><path d="M 118.81262510543309 109.33194174019688 l 16.780372176327113 8.32384925818147 a39.7314536768768,39.7314536768768 0 0,0 -0.30918890529525894,0.6100590429065916 l -16.634604601245584 -8.611462512790755" fill="#ffb010" stroke="none" /><line stroke="#e1ed5e" stroke-width="0.3" x1="174.80103733775053" x2="179.2010983576182" y1="140.37084112569926" y2="142.7455964860345" /><path d="M 175.68104954172406 140.8457921977663 a86.0,86.0 0 0,1 -30.038265399797805,32.042727171017184" fill="none" id="id65" stroke="none" /><text fill="#e1ed5e" style="font-size:6.75px; font-family:Arial;" text-anchor="middle"><textPath startOffset="22.206326154141568" xlink:href="#id65">May</textPath></text><path d="M 118.30583269289576 110.29060199501025 l 16.465371927648924 9.25598917294849 a39.88866878013241,39.88866878013241 0 0,0 -0.34161416458312915,0.5956330906943113 l -16.303605766913414 -9.538042109501118" fill="#ffb210" stroke="none" /><path d="M 117.14729908036423 112.12312394758627 l 17.677263535602815 12.497808307412335 a42.64903828339674,42.64903828339674 0 0,0 -0.42896851053332974,0.5957997424846085 l -17.45951523269388 -12.800241655348074" fill="#ffd914" stroke="none" /><path d="M 116.71984013943494 112.70617746262583 l 14.63668870731345 11.123094636634569 a39.3835766544578,39.3835766544578 0 0,0 -0.414827555692176,0.5362205350493832 l -14.443054334403206 -11.373393165797205" fill="#ffab0f" stroke="none" /><path d="M 116.498646956653 112.99209946851258 l 34.087317844332944 26.842554132585622 a64.38741695677871,64.38741695677871 0 0,0 -0.6931829363325349,0.8648522948237654 l -33.620216995945555 -27.425334260987636" fill="#32ff48" stroke="none" /><path d="M 116.0416608686014 113.55231037782055 l 16.554094214805815 13.985224139842556 a42.670822077491714,42.670822077491714 0 0,0 -0.47884280215873837,0.5570023585259212 l -16.310908903076296 -14.268103597530006" fill="#ffd914" stroke="none" /><path d="M 115.80600337817218 113.82643327865902 l 15.828932813156548 13.846490993145318 a42.030464256089985,42.030464256089985 0 0,0 -0.4810309585296698,0.5404433812822634 l -15.58824300497854 -14.116908544168448" fill="#ffd113" stroke="none" /><path d="M 115.07121518719521 114.62390073753431 l 15.804397076274773 15.33532175005938 a43.02160439483025,43.02160439483025 0 0,0 -0.520273321962815,0.5270341283225379 l -15.538083129256423 -15.605096372362583" fill="#ffde14" stroke="none" /><path d="M 114.81725581225074 114.88116024355365 l 27.43023793154795 27.548540117710512 a59.875956780488856,59.875956780488856 0 0,0 -0.7366169659897229,0.7209347385409112 l -26.951971013182433 -28.016624959173996" fill="#4cff2c" stroke="none" /><path d="M 114.29624159901734 115.38237550388516 l 15.05368055526201 16.19735966356998 a43.112615366141505,43.112615366141505 0 0,0 -0.5479417364230939,0.5005317846493206 l -14.772639269372052 -16.454084214805885" fill="#ffe015" stroke="none" /><path d="M 114.0293411484842 115.62618273729858 l 12.579156564670782 14.01093587220041 a39.8292725269303,39.8292725269303 0 0,0 -0.5140966141234293,0.4536304889755467 l -12.336117597640765 -14.225389502948246" fill="#ffb110" stroke="none" /><path d="M 113.75828350139079 115.86535959552629 l 12.497783180796027 14.41181411112843 a40.076031306535135,40.076031306535135 0 0,0 -0.5250618940098514,0.44746913704971897 l -12.247855810209128 -14.624807638401096" fill="#ffb510" stroke="none" /><path d="M 113.20401910651253 116.32954008644616 l 11.753195405102845 14.535292168488322 a39.692573944051915,39.692573944051915 0 0,0 -0.5349850309345902,0.42502446408862254 l -11.501252881450904 -14.73545054658207" fill="#ffaf10" stroke="none" /><path d="M 112.92097659922987 116.55440617244103 l 26.927195432756545 34.49922897508533 a64.76380529329268,64.76380529329268 0 0,0 -0.8847083415279368,0.678356630384601 l -26.329358362735114 -34.957624947297305" fill="#32ff4d" stroke="none" /><path d="M 111.7513745106137 117.40417183066458 l 13.16405855793484 19.49640332918498 a44.52450170547705,44.52450170547705 0 0,0 -0.6388742328502787,0.423411004786035 l -12.826509626344599 -19.720112355062334" fill="#fff316" stroke="none" /><path d="M 111.1453310114006 117.79835938074945 l 25.43179360515749 40.61289896357742 a68.9185109138533,68.9185109138533 0 0,0 -1.0108730891028097,0.6209608149483494 l -24.72894131612237 -41.04464824535415" fill="#38ff82" stroke="none" /><line stroke="#e1ed5e" stroke-width="0.3" x1="143.8653032363475" x2="146.44561519142675" y1="172.8068346515853" y2="177.08958963109032" /><path d="M 144.38136562736335 173.6633856474863 a86.0,86.0 0 0,1 -40.68145358897372,12.25698825130547" fill="none" id="id66" stroke="none" /><text fill="#e1ed5e" style="font-size:6.75px; font-family:Arial;" text-anchor="middle"><textPath startOffset="21.466115282336833" xlink:href="#id66">June</textPath></text><path d="M 110.8373102113329 117.98757091392108 l 11.198975472592293 18.58785635441737 a42.700816931354865,42.700816931354865 0 0,0 -0.6328507696368039,0.37389938959813174 l -10.877356831927107 -18.77787431630925" fill="#ffda14" stroke="none" /><path d="M 110.21172684928248 118.3499491758327 l 10.607967097775472 19.06197257095283 a42.81485191889335,42.81485191889335 0 0,0 -0.6470693958227887,0.35283382705169636 l -10.278274890084035 -19.241747049764296" fill="#ffdb14" stroke="none" /><path d="M 109.89434966115114 118.52300852407294 l 9.409683040321399 17.61567411035074 a40.97133218594577,40.97133218594577 0 0,0 -0.6249281159413063,0.3269328543337124 l -9.105064021853597 -17.775036383629168" fill="#ffc212" stroke="none" /><path d="M 109.57404056367764 118.69057910512821 l 7.734834218006416 15.100054136512759 a37.965827280320255,37.965827280320255 0 0,0 -0.5842147012965114,0.2929373793283243 l -7.473765609027144 -15.230959356750384" fill="#ff960d" stroke="none" /><path d="M 108.92500713936063 119.00905698771935 l 7.719159260572888 16.440764247055082 a39.16271314306684,39.16271314306684 0 0,0 -0.6126764114322558,0.2812496906081981 l -7.435014853373213 -16.571201007997356" fill="#ffa80f" stroke="none" /><path d="M 108.59647513512805 119.15986991738527 l 18.363482028308482 40.92862729921594 a65.8594472190879,65.8594472190879 0 0,0 -1.038319112033757,0.4551685853296484 l -17.656242241616972 -41.23866043784004" fill="#34ff5b" stroke="none" /><path d="M 107.93186726928326 119.44442032107085 l 8.291529759675804 20.326107873256476 a42.95222373771843,42.95222373771843 0 0,0 -0.6869879376492322,0.2733666782058391 l -7.940420745984705 -20.46582139586838" fill="#ffdd14" stroke="none" /><path d="M 107.2578585660854 119.70592522655815 l 7.2832119886371265 19.774762700379444 a42.07335798414068,42.07335798414068 0 0,0 -0.6817495590774212,0.2444511363976681 l -6.94174286892997 -19.897201377817073" fill="#ffd113" stroke="none" /><path d="M 106.57524785965236 119.94407469862006 l 5.045021477349622 15.30258438131686 a37.11276917398874,37.11276917398874 0 0,0 -0.6084349643414884,0.19480166183924627 l -4.780865167917193 -15.387158889815813" fill="#ff890c" stroke="none" /><path d="M 106.2309692047433 120.05430185196036 l 12.87364616856004 41.43368033388824 a64.38756309916607,64.38756309916607 0 0,0 -1.0612450915918639,0.319744440570397 l -12.15852610252793 -41.64914014356436" fill="#32ff48" stroke="none" /><path d="M 105.18746579009965 120.34920634021253 l 4.71149964525658 18.482103272110916 a40.07318458643511,40.07318458643511 0 0,0 -0.6698838009022394,0.16464114006986816 l -4.3926625596111295 -18.560465670494814" fill="#ffb510" stroke="none" /><path d="M 104.13013068566511 120.58985236759428 l 4.3447813795127415 21.65994589084867 a43.091409670508874,43.091409670508874 0 0,0 -0.7285164746089854,0.13962191624263512 l -3.9712972903320516 -21.731525005439778" fill="#ffdf14" stroke="none" /><path d="M 103.7750983002368 120.6578951692458 l 8.379573617537627 45.8542638063786 a67.61363280454222,67.61363280454222 0 0,0 -1.1466983269451836,0.19936820260076105 l -7.589026319120393 -45.991710587500364" fill="#36ff72" stroke="none" /><path d="M 103.06178313531738 120.77559828337769 l 3.0306464638787443 20.5643217333736 a41.786441406424586,41.786441406424586 0 0,0 -0.7125014258898769,0.09874620530055825 l -2.676216446802037 -20.613442504166763" fill="#ffcd13" stroke="none" /><path d="M 102.34483914955558 120.86867818915974 l 2.0471181560699905 18.219010895611948 a39.33365895721141,39.33365895721141 0 0,0 -0.6734810293926327,0.06980906239433736 l -1.7332045300717551 -18.251549326462044" fill="#ffaa0f" stroke="none" /><path d="M 101.62511606390274 120.93702456842531 l 1.422754633702755 18.329920786789078 a39.385054440976916,39.385054440976916 0 0,0 -0.6763674904840687,0.04664626215539671 l -1.107024382439756 -18.351695393460762" fill="#ffab0f" stroke="none" /><path d="M 101.26447882468166 120.96189622390904 l 2.6070719384121466 43.21873198233976 a64.29729342872801,64.29729342872801 0 0,0 -1.1053376236423993,0.05713332952607005 l -1.8627462463562676 -43.257205118628036" fill="#32ff47" stroke="none" /><line stroke="#e1ed5e" stroke-width="0.3" x1="102.19456741930631" x2="102.32365962044197" y1="184.97166512339345" y2="189.96999836594603" /><path d="M 102.22038585953345 185.97133177190398 a86.0,86.0 0 0,1 -42.740103519485714,-10.115201625700543" fill="none" id="id67" stroke="none" /><text fill="#e1ed5e" style="font-size:6.75px; font-family:Arial;" text-anchor="middle"><textPath startOffset="22.20632615414155" xlink:href="#id67">July</textPath></text><path d="M 100.54218724476979 120.99299961872073 l 0.5623209736252135 21.772559385687757 a42.77981972103256,42.77981972103256 0 0,0 -0.7363024431574176,0.012676114295598988 l -0.187458840575128 -21.779012977262514" fill="#ffdb14" stroke="none" /><path d="M 100.18074693466247 120.99922214144158 l 0.1604486583113274 18.64096353538632 a39.64165403872619,39.64165403872619 0 0,0 -0.6823911859475529,0.0 l 0.16044865831131455 -18.64096353538632" fill="#ffaf10" stroke="none" /><path d="M 99.81925306533755 120.99922214144158 l -0.1681573021732776 19.536555624784302 a40.53727930287545,40.53727930287545 0 0,0 -0.697705085816135,-0.01201162578586635 l 0.5044220778820805 -19.530766521719276" fill="#ffbb11" stroke="none" /><path d="M 99.09653310690486 120.98055641714683 l -0.7929278901799742 18.41358932108466 a39.43065398526564,39.43065398526564 0 0,0 -0.677854121854291,-0.03503731537418147 l 1.1097700804477542 -18.397212198948278" fill="#ffab0f" stroke="none" /><path d="M 98.73552117531835 120.96189622390904 l -2.6888264976253926 44.574018091216736 a65.65504312762948,65.65504312762948 0 0,0 -1.1275073092613608,-0.07775950540184953 l 3.4556965676656834 -44.5211302412986" fill="#34ff59" stroke="none" /><path d="M 97.65516085044442 120.86867818915974 l -2.466251816940668 21.949230722678745 a43.08735220305837,43.08735220305837 0 0,0 -0.7363271009049502,-0.08915895755278991 l 2.8437063408970076 -21.903526236400605" fill="#ffdf14" stroke="none" /><path d="M 96.58105272829116 120.7198165907248 l -3.5490313877103996 21.508164234229582 a42.799008062697396,42.799008062697396 0 0,0 -0.7258528924526526,-0.1261988293872924 l 3.918733251635102 -21.443886826321283" fill="#ffdb14" stroke="none" /><path d="M 96.22490169976321 120.6578951692458 l -9.330242079459621 51.05646196526138 a72.90198190504387,72.90198190504387 0 0,0 -1.2325030732475641,-0.23621214736992693 l 10.20771276727888 -50.88829261954299" fill="#3effb3" stroke="none" /><path d="M 95.16358092515715 120.4354850818985 l -4.223124494136086 17.844110748761434 a39.33704089833023,39.33704089833023 0 0,0 -0.6575780473943245,-0.16161668525511777 l 4.529655826273621 -17.768772805192288" fill="#ffaa0f" stroke="none" /><path d="M 94.11515582081647 120.15858648285463 l -5.647120052462431 19.344260356001538 a41.151684138247504,41.151684138247504 0 0,0 -0.6782679868656117,-0.20435658052547181 l 5.979263013768288 -19.24418840637034" fill="#ffc412" stroke="none" /><path d="M 93.08242187328487 119.8279376855182 l -7.323640881872046 20.991840262139256 a43.2327027902097,43.2327027902097 0 0,0 -0.7005353857436667,-0.25118706547248393 l 7.683895828245439 -20.862665655626813" fill="#ffe115" stroke="none" /><path d="M 92.40401165467489 119.57807347666478 l -8.083508547117429 20.83461915553257 a43.34780673326591,43.34780673326591 0 0,0 -0.6933149848340406,-0.27588434085604496 l 8.440944607993329 -20.69238797027046" fill="#ffe315" stroke="none" /><path d="M 91.7346041902142 119.30500536409082 l -5.855220604901529 13.675698996983487 a35.87643611178963,35.87643611178963 0 0,0 -0.5656164887417089,-0.24794964672798256 l 6.089757768300981 -13.572884796961052" fill="#ff770b" stroke="none" /><path d="M 90.42595943632237 118.69057910512821 l -9.942808818402261 19.410493773396883 a42.80886782312133,42.80886782312133 0 0,0 -0.6529557055374541,-0.3415955645447266 l 10.27545542646621 -19.23646878990744" fill="#ffdb14" stroke="none" /><path d="M 90.10565033884886 118.52300852407294 l -7.5466933183381775 14.128009364071639 a37.01727906457105,37.01727906457105 0 0,0 -0.5594495210374952,-0.3050564851686443 l 7.788765651244313 -13.996012227143229" fill="#ff880c" stroke="none" /><line stroke="#e1ed5e" stroke-width="0.3" x1="58.666819895761336" x2="56.23545636021788" y1="174.27360380694188" y2="178.64263932499728" /><path d="M 58.180547188652646 175.14741091055294 a86.0,86.0 0 0,1 -31.652253787137756,-30.449443065178592" fill="none" id="id68" stroke="none" /><text fill="#e1ed5e" style="font-size:6.75px; font-family:Arial;" text-anchor="middle"><textPath startOffset="22.20632615414155" xlink:href="#id68">August</textPath></text><path d="M 89.4739219176387 118.17145234162733 l -9.348702695032303 16.138917472357743 a39.651083058623655,39.651083058623655 0 0,0 -0.5876519522078996,-0.34719513156756376 l 9.625122518268585 -15.97560376849643" fill="#ffaf10" stroke="none" /><path d="M 89.1626897886671 117.98757091392108 l -19.943062007753227 33.10113257900973 a59.64467233990048,59.64467233990048 0 0,0 -0.8748476044719734,-0.5374028523310285 l 20.50988881215751 -32.752941259850324" fill="#4fff2b" stroke="none" /><path d="M 88.24862548938628 117.40417183066458 l -11.842782094457657 17.539549466226195 a42.16334763724781,42.16334763724781 0 0,0 -0.5980029911907613,-0.4113119102234007 l 12.142941970271309 -17.333096766637695" fill="#ffd213" stroke="none" /><path d="M 87.95078237400918 117.19931262002967 l -13.046286515915984 18.62255021717771 a43.73774325755915,43.73774325755915 0 0,0 -0.6128963134410125,-0.4372852462337549 l 13.364910157205884 -18.395220709099736" fill="#ffe815" stroke="none" /><path d="M 87.36589467227662 116.77436683061367 l -11.026257824435937 14.63961940464063 a39.327488041836645,39.327488041836645 0 0,0 -0.5372345952247083,-0.4119285787599405 l 11.276621148154133 -14.447651484053322" fill="#ffaa0f" stroke="none" /><path d="M 87.07902340077011 116.55440617244103 l -23.42170709861165 30.007983497584256 a59.066460789052144,59.066460789052144 0 0,0 -0.7961104360973893,-0.6324782786287418 l 23.934775027426397 -29.600371304950382" fill="#56ff2b" stroke="none" /><path d="M 86.51685102203217 116.09983520530335 l -13.990530998033881 16.70568528695307 a42.790247325665376,42.790247325665376 0 0,0 -0.5606225859569915,-0.4777747301998147 l 14.27601906056793 -16.462386166530305" fill="#ffdb14" stroke="none" /><path d="M 86.24171649860922 115.8653595955263 l -14.300437749289882 16.49054456851307 a42.827518869249225,42.827518869249225 0 0,0 -0.552796499787972,-0.4877786385159546 l 14.582176601984441 -16.241942788224826" fill="#ffdc14" stroke="none" /><path d="M 85.44109423537348 115.13401014063109 l -14.048611147995077 14.603557919312808 a41.26394283179597,41.26394283179597 0 0,0 -0.5076448378931901,-0.49683731895374195 l 14.297905938264062 -14.359570497436495" fill="#ffc612" stroke="none" /><path d="M 85.18274418774928 114.88116024355367 l -32.02758307609331 32.16571286938426 a66.39161995447762,66.39161995447762 0 0,0 -0.8028940145328439,-0.813327397776779 l 32.57651771568169 -31.60964497762681" fill="#35ff62" stroke="none" /><path d="M 83.06392112726016 112.41649034213515 l -12.153757877015204 8.910387016649223 a36.07013030201067,36.07013030201067 0 0,0 -0.3627971624490279,-0.5038935275051675 l 12.30533483183984 -8.699859883692916" fill="#ff7a0b" stroke="none" /><path d="M 82.6465618267979 111.8261652097733 l -18.00618847400201 12.27100690747847 a42.789915876034655,42.789915876034655 0 0,0 -0.40955429575328817,-0.6122281030946052 l 18.214745875166027 -11.959241890178044" fill="#ffdb14" stroke="none" /><path d="M 82.24976979558568 111.22182372390057 l -15.65910330419443 9.899798195874547 a39.52602279525948,39.52602279525948 0 0,0 -0.35862404741844545,-0.5782161528211385 l 15.82719199128083 -9.628785711688144" fill="#ffad10" stroke="none" /><path d="M 82.05923443525364 110.91462005526583 l -6.7380946492083655 4.099253330473399 a28.887065193662828,28.887065193662828 0 0,0 -0.25478271041991973,-0.427030477737909 l 6.807658235326517 -3.9826607588493785" fill="#ff0a01" stroke="none" /><line stroke="#e1ed5e" stroke-width="0.3" x1="26.63291911575756" x2="22.317208475507996" y1="142.92168965132927" y2="145.44649492493687" /><path d="M 25.769776987707644 143.4266507060508 a86.0,86.0 0 0,1 -11.730757126820373,-40.83630448921669" fill="none" id="id69" stroke="none" /><text fill="#e1ed5e" style="font-size:6.75px; font-family:Arial;" text-anchor="middle"><textPath startOffset="21.46611528233685" xlink:href="#id69">September</textPath></text><line stroke="#e1ed5e" stroke-width="0.3" x1="15.007084014347285" x2="10.007500721073583" y1="101.09737516637583" y2="101.16192664675087" /><path d="M 14.007167355692545 101.11028546245083 a86.0,86.0 0 0,1 10.666146001902534,-42.60595125391555" fill="none" id="id70" stroke="none" /><text fill="#e1ed5e" style="font-size:6.75px; font-family:Arial;" text-anchor="middle"><textPath startOffset="22.20632615414155" xlink:href="#id70">October</textPath></text><path d="M 79.21141760316559 97.0276538004421 l -19.750753716849005 -2.8239577200617463 a40.951616716154135,40.951616716154135 0 0,0 0.10578018385637702,-0.696959245872968 l 19.699217639553325 3.1635160783268064" fill="#ffc112" stroke="none" /><path d="M 79.46518482838121 95.60439243477599 l -19.79957427800157 -4.238224583822128 a41.24810334853652,41.24810334853652 0 0,0 0.1545932028118987,-0.6930110155249101 l 19.723686688187634 4.578413768896997" fill="#ffc512" stroke="none" /><path d="M 79.62865764111835 94.90015583598534 l -21.46128335720904 -5.372704397842925 a43.123576471380446,43.123576471380446 0 0,0 0.1864656631653644,-0.7185282643072824 l 21.365621362173368 5.7413290876990715" fill="#ffe015" stroke="none" /><path d="M 79.91906864156998 93.8553929516997 l -21.53503331290421 -6.589550809071564 a43.52065362402321,43.52065362402321 0 0,0 0.22536344878266523,-0.7144637187569364 l 21.418414380353344 6.959264694254916" fill="#ffe515" stroke="none" /><path d="M 80.14247586403 93.16781622104843 l -6.876403389191462 -2.3658967437969873 a28.272027982151403,28.272027982151403 0 0,0 0.16229075583367658,-0.4588178210500223 l 6.834659552547976 2.4839121912736206" fill="#ff0000" stroke="none" /><path d="M 81.10775173730289 90.83032412892265 l -14.99577776875818 -7.278457262586759 a37.66881192566777,37.66881192566777 0 0,0 0.2881484504666476,-0.5808896930839751 l 14.868269305338119 7.535506544169696" fill="#ff920d" stroke="none" /><path d="M 81.26839172434947 90.50648371742162 l -17.902335588644714 -9.073225956145436 a41.07030265790046,41.07030265790046 0 0,0 0.32502366090486445,-0.6278422599147568 l 17.743502494579737 9.380040938320528" fill="#ffc312" stroke="none" /><path d="M 81.43458229118936 90.18545643968196 l -15.981365076555532 -8.448493115388573 a39.07708675729906,39.07708675729906 0 0,0 0.31948663344596945,-0.5919602101649347 l 15.833570343891092 8.72233430888598" fill="#ffa60f" stroke="none" /><line stroke="#e1ed5e" stroke-width="0.3" x1="26.266209847984243" x2="21.928928074336255" y1="57.711370442889674" y2="55.22380399835377" /><path d="M 25.398753493254645 57.213857153982495 a86.0,86.0 0 0,1 29.58750427330803,-30.492523968695096" fill="none" id="id71" stroke="none" /><text fill="#e1ed5e" style="font-size:6.75px; font-family:Arial;" text-anchor="middle"><textPath startOffset="21.46611528233685" xlink:href="#id71">November</textPath></text><path d="M 81.78341655067845 89.55222093294921 l -45.80112490284807 -26.268374381979765 a73.79934218376343,73.79934218376343 0 0,0 0.6414931402904788,-1.0965197198130516 l 45.34217208808727 27.052873514146707" fill="#3fffbd" stroke="none" /><path d="M 82.34701348167596 88.62581576622439 l -18.362270247786682 -11.831190406898395 a42.84376421537819,42.84376421537819 0 0,0 0.4047784273458555,-0.6165053150993968 l 18.15589518508291 12.145513785975458" fill="#ffdc14" stroke="none" /><path d="M 82.7489923806493 88.02491185347247 l -17.743613604521666 -12.317039192176141 a42.5996592150934,42.5996592150934 0 0,0 0.42333387042121046,-0.5987757378663046 l 17.528967114296577 12.620641430374231" fill="#ffd814" stroke="none" /><path d="M 83.17141714833178 87.43820079747576 l -17.68525424778357 -13.201266836572835 a43.069020456267296,43.069020456267296 0 0,0 0.4485824287983661,-0.5902818940573915 l 17.45539587876109 13.503733506511253" fill="#ffdf14" stroke="none" /><path d="M 83.39014120810768 87.1503855733568 l -43.20904389952761 -33.42710861117289 a75.62959879785365,75.62959879785365 0 0,0 0.8054405313073848,-1.0228276809938035 l 42.627249287626256 34.16592868611974" fill="#41ffd2" stroke="none" /><path d="M 83.84228863543731 86.58626213691792 l -16.73220366621044 -13.890667359146894 a42.74666133478919,42.74666133478919 0 0,0 0.47487344753650657,-0.5621003790874831 l 16.49061960518681 14.176626687863493" fill="#ffdb14" stroke="none" /><path d="M 84.07557802195018 86.31012108654704 l -16.37810422204364 -14.079899662339178 a42.598284015394896,42.598284015394896 0 0,0 0.4827970568231369,-0.5519204958589419 l 16.13331530164266 14.359735714401063" fill="#ffd814" stroke="none" /><path d="M 84.31358615837235 86.03803664274999 l -11.875257826861112 -10.569778173041453 a36.89786020449701,36.89786020449701 0 0,0 0.42635716315625516,-0.47079422845297825 l 11.691557023088812 10.772625188763987" fill="#ff860c" stroke="none" /><path d="M 84.80347519578584 85.50635884689758 l -13.230360979739215 -12.61841814736305 a39.28296825452331,39.28296825452331 0 0,0 0.4709012827371168,-0.4853051652519624 l 13.01119543329898 12.844287508165136" fill="#ffa90f" stroke="none" /><path d="M 85.05521093208273 85.24692304244772 l -39.33224445462778 -38.82768948529898 a76.26857085727289,76.26857085727289 0 0,0 0.930346544096947,-0.9263513403734366 l 38.65806211036352 39.49897667632253" fill="#42ffda" stroke="none" /><path d="M 85.57189188830299 84.74124197986013 l -12.415143911045195 -13.129904160495636 a39.07014614206989,39.07014614206989 0 0,0 0.49264127035252014,-0.45785637080746205 l 12.187294756897819 13.341665117377746" fill="#ffa60f" stroke="none" /><path d="M 85.83668400450813 84.49514656593479 l -14.938663153081167 -16.353640825574914 a43.14961004291352,43.14961004291352 0 0,0 0.5527033805267745,-0.49622255221822376 l 14.654948784958423 16.608362386562415" fill="#ffe015" stroke="none" /><path d="M 86.10567301691215 84.25364557470407 l -16.329187414850534 -18.505766621462907 a45.68006806873441,45.68006806873441 0 0,0 0.5940718984670891,-0.5151732962689596 l 16.00822171773667 18.784104911151548" fill="#fbff18" stroke="none" /><path d="M 86.65592168130627 83.78471172551755 l -14.327217847380522 -17.409967329188095 a43.54719791126374,43.54719791126374 0 0,0 0.5829033016616819,-0.47133393173629873 l 14.025411147154339 17.65400735818853" fill="#ffe615" stroke="none" /><path d="M 86.93701828274178 83.55741782278169 l -24.86959494489892 -31.30375341912837 a60.98026676810615,60.98026676810615 0 0,0 0.8274948003144665,-0.6458728171504672 l 24.32706758942503 31.727204625502058" fill="#40ff2d" stroke="none" /><path d="M 87.51073957382395 83.11751280151077 l -13.873181665854856 -18.753217074825756 a44.326986950511795,44.326986950511795 0 0,0 0.6173159497905701,-0.4485062907388726 l 13.548320399710503 18.989242600381296" fill="#fff016" stroke="none" /><path d="M 87.80319425747018 82.90503203632743 l -10.657411981123762 -14.93736312924026 a39.34952989561822,39.34952989561822 0 0,0 0.5547700225768751,-0.38865185383164735 l 10.398710818963227 15.118599825835851" fill="#ffaa0f" stroke="none" /><path d="M 88.09926311788651 82.69761687909137 l -15.370462510542621 -22.34698857200021 a48.122666093603414,48.122666093603414 0 0,0 0.6865392787754845,-0.4635543856745184 l 14.983518537360599 22.608254869973393" fill="#dbff1b" stroke="none" /><path d="M 88.70189139769569 82.29822771554957 l -11.587487054254005 -18.155167772204496 a42.53787299315782,42.53787299315782 0 0,0 0.6206090278059808,-0.3886253162773253 l 11.273258874075783 18.351937429804753" fill="#ffd814" stroke="none" /><path d="M 89.00827224532344 82.1063720568725 l -32.97518326402967 -53.68088382938249 a84.0,84.0 0 0,0 1.2385517351294033,-0.746213562165523 l 32.046269462682616 54.240544001006626" fill="#4dd2ff" stroke="none" /><line stroke="#e1ed5e" stroke-width="0.3" x1="56.762969772571076" x2="54.21961505331055" y1="26.818313649435495" y2="22.513508569990535" /><path d="M 56.25429882871897 25.957352633546506 a86.0,86.0 0 0,1 42.265352541879196,-11.944610805530505" fill="none" id="id72" stroke="none" /><text fill="#e1ed5e" style="font-size:6.75px; font-family:Arial;" text-anchor="middle"><textPath startOffset="22.20632615414155" xlink:href="#id72">December</textPath></text><path d="M 89.63071344664047 81.73862282372117 l -13.371679598019185 -23.54889927703538 a48.080481392176914,48.080481392176914 0 0,0 0.7232126598861164,-0.4024670622208934 l 12.964342849061024 23.77558173681646" fill="#dbff1b" stroke="none" /><path d="M 90.26544431104013 81.39251694778311 l -10.013918807805373 -19.141482205894494 a42.60265981141891,42.60265981141891 0 0,0 0.6527123331022711,-0.3343446084995416 l 9.682945987114337 19.31101933970654" fill="#ffd914" stroke="none" /></svg>