<?xml version="1.0" encoding="utf-8" ?>
<svg baseProfile="full" height="200mm" version="1.1" viewBox="0,0,200,200" width="200mm" xmlns="http://www.w3.org/2000/svg" xmlns:ev="http://www.w3.org/2001/xml-events" xmlns:xlink="http://www.w3.org/1999/xlink"><defs /><rect fill="#1a1a1a" height="200" width="200" x="0" y="0" /><text alignment-baseline="middle" fill="#e1ed5e" style="dominant-baseline: central; font-size:9.0px; font-family:Arial;" text-anchor="middle" x="100.0" y="100.0">2024</text><line stroke="#e1ed5e" stroke-width="0.3" x1="100.0" x2="100.0" y1="15.0" y2="10.0" /><path d="M 100.0 14.0 a86.0,86.0 0 0,1 42.35913384403234,11.155469271406648" fill="none" id="id49" stroke="none" /><text fill="#e1ed5e" style="font-size:6.75px; font-family:Arial;" text-anchor="middle"><textPath startOffset="22.145653131862478" xlink:href="#id49">January</textPath></text><line stroke="#e1ed5e" stroke-width="0.3" x1="143.13028292997686" x2="145.6673583964461" y1="26.7553504044142" y2="22.446841604673864" /><path d="M 143.63769802327073 25.89364864446614 a86.0,86.0 0 0,1 29.32050498858742,28.57503671076993" fill="none" id="id50" stroke="none" /><text fill="#e1ed5e" style="font-size:6.75px; font-family:Arial;" text-anchor="middle"><textPath startOffset="20.669276256404974" xlink:href="#id50">February</textPath></text><line stroke="#e1ed5e" stroke-width="0.3" x1="172.87174338648825" x2="177.1583165268699" y1="56.24261187166439" y2="53.66864786411523" /><path d="M 173.72905801456457 55.72781907015455 a86.0,86.0 0 0,1 12.242430191666344,42.057860355516425" fill="none" id="id51" stroke="none" /><text fill="#e1ed5e" style="font-size:6.75px; font-family:Arial;" text-anchor="middle"><textPath startOffset="22.145653131862474" xlink:href="#id51">March</textPath></text><line stroke="#e1ed5e" stroke-width="0.3" x1="184.99686870605535" x2="189.99668451229388" y1="99.2704041080226" y2="99.22748670261217" /><path d="M 185.99683186730306 99.26182062694052 a86.0,86.0 0 0,1 -10.086455211305974,41.156179273409016" fill="none" id="id52" stroke="none" /><text fill="#e1ed5e" style="font-size:6.75px; font-family:Arial;" text-anchor="middle"><textPath startOffset="21.40746469413373" xlink:href="#id52">April</textPath></text><line stroke="#e1ed5e" stroke-width="0.3" x1="174.33088141563837" x2="178.70328620479359" y1="141.23008692659167" y2="143.65538615756765" /><path d="M 175.20536237346943 141.71514677278685 a86.0,86.0 0 0,1 -30.301960400862466,31.631185727798858" fill="none" id="id53" stroke="none" /><text fill="#e1ed5e" style="font-size:6.75px; font-family:Arial;" text-anchor="middle"><textPath startOffset="22.145653131862474" xlink:href="#id53">May</textPath></text><line stroke="#e1ed5e" stroke-width="0.3" x1="143.1302829299769" x2="145.66735839644613" y1="173.24464959558577" y2="177.55315839532614" /><path d="M 143.63769802327073 174.10635135553383 a86.0,86.0 0 0,1 -40.68552437913181,11.842963189579606" fill="none" id="id54" stroke="none" /><text fill="#e1ed5e" style="font-size:6.75px; font-family:Arial;" text-anchor="middle"><textPath startOffset="21.407464694133747" xlink:href="#id54">June</textPath></text><path d="M 110.34350942703117 118.27599006163325 l 4.479502962416183 7.91485251690565 a30.094549859925067,30.094549859925067 0 0,0 -0.4517848451508367,0.25059743787414235 l -4.342973929109252 -7.990582870212935" fill="#ff4106" stroke="none" /><path d="M 109.71004243097381 118.62028667847754 l 5.2659703665257585 10.098192522032408 a32.38876359018654,32.38876359018654 0 0,0 -0.49519763386491245,0.2528514402742592 l -5.091845510947264 -10.187101913979502" fill="#ff6309" stroke="none" /><path d="M 109.3889696526874 118.78422872680471 l 2.1611786483231263 4.323805012828908 a25.833837289248798,25.833837289248798 0 0,0 -0.3983820680168851,0.19486863264706722 l -2.0866363310441716 -4.3602673955731985" fill="#ff0000" stroke="none" /><path d="M 109.06512990194946 118.94263497670748 l 5.885490448944344 12.298411433605127 a34.63414543031005,34.63414543031005 0 0,0 -0.5384971127815157,0.2520438390949603 l -5.673504622291322 -12.39763150427062" fill="#ff830c" stroke="none" /><path d="M 107.407793817531 119.65005319985036 l 2.7082392044688626 7.1839262480270705 a28.67745764727585,28.67745764727585 0 0,0 -0.46213156051511733,0.16970111021025266 l -2.584518492299618 -7.229358207246046" fill="#ff2c04" stroke="none" /><path d="M 106.72888874123015 119.89276391827305 l 3.6420138398769533 10.766966774146784 a32.36625876554973,32.36625876554973 0 0,0 -0.5278432235528808,0.17351255188044798 l -3.456647878676338 -10.827900247429252" fill="#ff6309" stroke="none" /><path d="M 105.3480935250658 120.30758222061773 l 2.899951920455117 11.01158979072939 a32.38704662589238,32.38704662589238 0 0,0 -0.5388506028166216,0.13697371607709202 l -2.7104960244130982 -11.059748738641753" fill="#ff6309" stroke="none" /><path d="M 104.9986988182912 120.39639698878246 l 2.700975761618986 11.02090281764413 a32.34705111387137,32.34705111387137 0 0,0 -0.5404542931995282,0.1275457416143437 l -2.5113893146795783 -11.065644702904699" fill="#ff6209" stroke="none" /><path d="M 103.58742460773223 120.69131181640829 l 3.8770995346919763 22.362079816995838 a43.69569374448821,43.69569374448821 0 0,0 -0.7401686326008379,0.12179446682726597 l -3.4926533990380664 -22.425340282318775" fill="#ffff18" stroke="none" /><path d="M 103.2317021107853 120.74984581791261 l 1.0523837048505618 6.757058314272185 a27.838519468767334,27.838519468767334 0 0,0 -0.4728238567409991,0.06948882435718809 l -0.9362347425018772 -6.7741282119282555" fill="#ff1f03" stroke="none" /><path d="M 102.51750503828377 120.84855314841334 l 1.3616384186082262 11.276319414489793 a32.35823220050679,32.35823220050679 0 0,0 -0.5520377564336453,0.06185698204896153 l -1.1678647605737817 -11.298032157045725" fill="#ff6309" stroke="none" /><line stroke="#e1ed5e" stroke-width="0.3" x1="101.45913802915013" x2="101.54496967792366" y1="184.9874750549273" y2="189.98673829345242" /><path d="M 101.47630435890484 185.9873277026323 a86.0,86.0 0 0,1 -42.54439059252881,-10.42667462771756" fill="none" id="id55" stroke="none" /><text fill="#e1ed5e" style="font-size:6.75px; font-family:Arial;" text-anchor="middle"><textPath startOffset="22.145653131862474" xlink:href="#id55">July</textPath></text><path d="M 100.0 121.0 l 8.344898733751616e-16 6.81412692995373 a27.81412692995373,27.81412692995373 0 0,0 -0.4774664747188688,-0.004098475435801535 l 0.11697354987001582 -6.813122852712364" fill="#ff1f03" stroke="none" /><path d="M 99.63950707515114 120.99690560180557 l -0.38939218366986617 22.680142546556848 a43.68348501013108,43.68348501013108 0 0,0 -0.7496641139353084,-0.019308688333285844 l 0.7786696116759184 -22.670116140873514" fill="#ffff18" stroke="none" /><path d="M 98.91894614982273 120.97215588758144 l -0.5844632176601768 11.33843028200375 a32.353483981256915,32.353483981256915 0 0,0 -0.5544087589927489,-0.0333518542226062 l 0.779016328785372 -11.326726449956453" fill="#ff6209" stroke="none" /><path d="M 98.55909050195518 120.95050786540614 l -0.7787955765874415 11.323516761446992 a32.350266710385405,32.350266710385405 0 0,0 -0.5536994706191924,-0.042859840866119145 l 0.9730640419818701 -11.308479153585818" fill="#ff6209" stroke="none" /><path d="M 98.19965949673042 120.92268563240118 l -2.9174517124734827 33.90521121806526 a55.030499147620986,55.030499147620986 0 0,0 -0.9404985795819866,-0.08906619331910105 l 3.4990498554404845 -33.85013326924098" fill="#76ff27" stroke="none" /><path d="M 97.12497278360702 120.80226474461374 l -1.5548762768998157 11.250310178896129 a32.35724963879194,32.35724963879194 0 0,0 -0.5495723141781853,-0.08076820462217134 l 1.7477736966856858 -11.221960900975075" fill="#ff6309" stroke="none" /><path d="M 96.76829788921471 120.74984581791261 l -3.4909618768886572 22.414479496703553 a43.68470202436069,43.68470202436069 0 0,0 -0.7399824420232607,-0.12176382923858133 l 3.8752218219649817 -22.351249668969302" fill="#ffff18" stroke="none" /><path d="M 96.05791012581884 120.62667999033965 l -2.1306622870440814 11.148525417998549 a32.35030135182285,32.35030135182285 0 0,0 -0.5445688200953321,-0.10892901555836389 l 2.3217275926703715 -11.110307005777322" fill="#ff6209" stroke="none" /><path d="M 95.70440661134978 120.55596938700252 l -7.4253363336814795 35.53292235867695 a57.30047094757938,57.30047094757938 0 0,0 -0.9611133053886067,-0.20947017156651807 l 8.034212055689222 -35.40022072897671" fill="#5dff2a" stroke="none" /><path d="M 95.00130118170881 120.39639698878247 l -2.7019245532391962 11.024774211230557 a32.351037075968485,32.351037075968485 0 0,0 -0.5382514815720434,-0.13682142179956913 l 2.8907813280366184 -10.976767557595725" fill="#ff6209" stroke="none" /><path d="M 94.6519064749342 120.30758222061772 l -5.782971933425105 21.958886370841817 a43.707607866755254,43.707607866755254 0 0,0 -0.7239199493671672,-0.19730760132904313 l 6.1590732837269675 -21.85637827536863" fill="#ffff18" stroke="none" /><path d="M 94.30408787586889 120.21278271476187 l -4.924650541177977 17.475847443862982 a39.15647066017779,39.15647066017779 0 0,0 -0.6454104890235198,-0.1878695870414971 l 5.223921042583104 -17.38873416251897" fill="#ffc212" stroke="none" /><path d="M 93.61358852112213 120.00534299687104 l -3.4500072642630957 10.807098617361067 a32.34442288742956,32.34442288742956 0 0,0 -0.5274871144214544,-0.1733954917357231 l 3.6350171163322935 -10.746282204223322" fill="#ff6209" stroke="none" /><path d="M 92.59220618246901 119.65005319985036 l -8.003866574490468 21.231207005389077 a43.68977811808498,43.68977811808498 0 0,0 -0.6995102499430225,-0.27058559186963427 l 8.36714908692702 -21.090681525381402" fill="#ffff18" stroke="none" /><path d="M 92.25597844496254 119.51999308798841 l -4.185025820140984 10.54899892796203 a32.34882458659886,32.34882458659886 0 0,0 -0.514416459829889,-0.20920869588291735 l 4.365496741161314 -10.47560297549982" fill="#ff6209" stroke="none" /><path d="M 91.92203290615298 119.3841803445677 l -5.952353293426907 14.28348102609314 a36.47411839015499,36.47411839015499 0 0,0 -0.5758827772503111,-0.24581011350147924 l 6.19667114584765 -14.179196262932257" fill="#ff9d0e" stroke="none" /><path d="M 91.26138138417905 119.09545874513695 l -7.556794248254888 16.51295921666483 a39.15992735122291,39.15992735122291 0 0,0 -0.6088646782927054,-0.2849794128208711 l 7.839147640419083 -16.38080357227343" fill="#ffc312" stroke="none" /><path d="M 90.93487009805054 118.94263497670748 l -8.444354190768195 17.64545249543008 a40.561930157007104,40.561930157007104 0 0,0 -0.62550311197593,-0.30596491642809187 l 8.746017552006194 -17.49789382890477" fill="#ffd513" stroke="none" /><path d="M 90.28995756902619 118.62028667847754 l -10.488413109724256 20.112915087002516 a43.68338958042226,43.68338958042226 0 0,0 -0.6619306251830063,-0.35244077451921735 l 10.832132550693824 -19.929903844760727" fill="#ffff18" stroke="none" /><path d="M 89.97174638481275 118.45085714620012 l -10.836705947620107 19.938318379992655 a43.69296665526872,43.69296665526872 0 0,0 -0.6559267464178609,-0.36383150928969066 l 11.177376882194071 -19.749353955269815" fill="#ffff18" stroke="none" /><line stroke="#e1ed5e" stroke-width="0.3" x1="58.13341422392154" x2="55.67067388415222" y1="173.97424548756322" y2="178.32567169271397" /><path d="M 57.64086615596768 174.84453072859336 a86.0,86.0 0 0,1 -31.369924170532247,-30.572349798747897" fill="none" id="id56" stroke="none" /><text fill="#e1ed5e" style="font-size:6.75px; font-family:Arial;" text-anchor="middle"><textPath startOffset="22.145653131862474" xlink:href="#id56">August</textPath></text><path d="M 89.65649057296885 118.27599006163327 l -5.600344403174732 9.895271945773482 a32.37014794604636,32.37014794604636 0 0,0 -0.481247809772804,-0.27784855251924834 l 5.769384680807935 -9.797676495978061" fill="#ff6309" stroke="none" /><path d="M 89.03521579738668 117.91015095944536 l -9.665251213822604 15.787461485951322 a39.51110534778233,39.51110534778233 0 0,0 -0.5754244441200218,-0.3591074113387685 l 9.934839786732338 -15.619218277771006" fill="#ffc712" stroke="none" /><path d="M 88.72937992617639 117.7192867562869 l -19.747529548740854 31.046396428096326 a57.79461447615541,57.79461447615541 0 0,0 -0.8325572027240015,-0.5396535201349424 l 20.277572383721864 -30.70282906625749" fill="#58ff2a" stroke="none" /><path d="M 88.1277618465304 117.32195027204791 l -12.825692436353938 18.713068565102635 a43.68650086712755,43.68650086712755 0 0,0 -0.614949719322117,-0.42928266348883315 l 13.145037246849821 -18.490141085808673" fill="#ffff18" stroke="none" /><path d="M 87.54013794807813 116.9041958592261 l -13.463938051026302 18.266417790390378 a43.69228165555337,43.69228165555337 0 0,0 -0.5999304201451319,-0.45019897169920364 l 13.775521460082201 -18.03259979142716" fill="#ffff18" stroke="none" /><path d="M 86.96720088162412 116.46651593811092 l -13.826375088714189 17.46917325255175 a43.27870423120442,43.27870423120442 0 0,0 -0.5785934701396719,-0.4660739430617724 l 14.124219329209122 -17.22925101569657" fill="#fff917" stroke="none" /><path d="M 86.68645165197938 116.24036423190432 l -25.251557887761557 30.80279477718913 a60.830306825890794,60.830306825890794 0 0,0 -0.801875723343504,-0.6689532481115273 l 25.776607945266953 -30.364779345165733" fill="#37ff2e" stroke="none" /><path d="M 86.13680546590413 115.77377054828092 l -13.251894451682078 15.078223269302404 a41.07400118355717,41.07400118355717 0 0,0 -0.5256200288723842,-0.4700126709516207 l 13.508779507377835 -14.848515068467401" fill="#ffdc14" stroke="none" /><path d="M 85.86807049272751 115.53346607816431 l -15.443749343486802 16.97538587517516 a43.94935989075829,43.94935989075829 0 0,0 -0.5536996284239369,-0.5124961098137232 l 15.732878743224706 -16.707772019229058" fill="#fcff18" stroke="none" /><path d="M 85.60350026404147 115.28858382429668 l -7.670762997879005 8.146084481665033 a32.18924918625256,32.18924918625256 0 0,0 -0.39903558202471806,-0.38226706102963276 l 7.809471065769038 -8.013205290329818" fill="#ff6008" stroke="none" /><path d="M 84.83555147118756 114.52719865689866 l -34.643124207157165 33.18732933128291 a68.97441904781704,68.97441904781704 0 0,0 -0.8117440613856692,-0.8620440630698576 l 35.20772410227909 -32.58774380826856" fill="#39ff8b" stroke="none" /><path d="M 84.3458050057657 113.99807769240083 l -8.313383855165398 7.433879106157641 a32.152349962599445,32.152349962599445 0 0,0 -0.36437635994428713,-0.414593409970773 l 8.439771279068278 -7.290073418375568" fill="#ff6008" stroke="none" /><path d="M 82.98947788004972 112.3143062007846 l -15.11689761818299 10.943468093662542 a39.66226372966679,39.66226372966679 0 0,0 -0.39451657386905536,-0.5549369678109404 l 15.302529290582006 -10.682353899142099" fill="#ffc912" stroke="none" /><path d="M 82.37810715431573 111.42229804090323 l -10.403887123290335 6.743673937118584 a33.398306555507446,33.398306555507446 0 0,0 -0.3077134022926549,-0.48377657824166814 l 10.518118217208881 -6.564083684198244" fill="#ff720a" stroke="none" /><line stroke="#e1ed5e" stroke-width="0.3" x1="26.387840678322732" x2="22.057713659400548" y1="142.50000000000003" y2="145.00000000000006" /><path d="M 25.521815274538298 143.00000000000003 a86.0,86.0 0 0,1 -11.493303480769221,-40.785679425670985" fill="none" id="id57" stroke="none" /><text fill="#e1ed5e" style="font-size:6.75px; font-family:Arial;" text-anchor="middle"><textPath startOffset="21.40746469413373" xlink:href="#id57">September</textPath></text><path d="M 81.63589988554817 110.18625677009913 l -19.319645687211157 10.716281791689934 a43.09270026317023,43.09270026317023 0 0,0 -0.3532670832351173,-0.6499716438517887 l 19.500758120061604 -10.383055314363558" fill="#fff717" stroke="none" /><path d="M 81.4637452351635 109.86951160357371 l -19.601522225667363 10.436706525037804 a43.20685742407282,43.20685742407282 0 0,0 -0.34296354750203567,-0.6576778237739515 l 19.777793842144348 -10.09868245815935" fill="#fff817" stroke="none" /><path d="M 81.29705330413844 109.54985784667822 l -19.761399788219972 10.090311537413305 a43.188449889794384,43.188449889794384 0 0,0 -0.3314818143565527,-0.6631856795774653 l 19.931701515788262 -9.749594001672087" fill="#fff817" stroke="none" /><path d="M 80.83023694016515 108.57439118712176 l -20.738740106109923 9.276174663338258 a43.718775441769104,43.718775441769104 0 0,0 -0.3005480901666724,-0.6877128472080206 l 20.894922078293565 -8.918799746354388" fill="#ffff18" stroke="none" /><path d="M 80.68587082218212 108.24405325689762 l -43.854609424292256 18.718925006959932 a68.68254314918,68.68254314918 0 0,0 -0.45354731744280613,-1.0883484537592165 l 44.16948258627155 -17.963344043759434" fill="#39ff87" stroke="none" /><path d="M 80.41425534168474 107.57618678355246 l -20.548630436088352 7.948651687537513 a43.03241422197598,43.03241422197598 0 0,0 -0.26059060430583936,-0.6912475379474807 l 20.682051724208627 -7.594735869395887" fill="#fff617" stroke="none" /><path d="M 80.28708602549918 107.23885506374661 l -13.817997815669703 5.074160197126973 a35.720195832255776,35.720195832255776 0 0,0 -0.2064284234380766,-0.5774170398227969 l 13.903066409151723 -4.836208200923255" fill="#ff930d" stroke="none" /><path d="M 79.94057633289273 106.21446072829308 l -21.095443766733602 6.535422403448659 a43.084598563408804,43.084598563408804 0 0,0 -0.21280443400776627,-0.708356749920676 l 21.204524520744997 -6.17232804993726" fill="#fff717" stroke="none" /><path d="M 79.73907114497094 105.5222062557868 l -46.618779006171444 12.706155522634015 a69.31932267935483,69.31932267935483 0 0,0 -0.3030591907359924,-1.1507651099855059 l 46.83002767771217 -11.904009908275707" fill="#3aff8f" stroke="none" /><path d="M 79.56144815229197 104.8234425847677 l -21.487014493438398 5.070876914344296 a43.07726397273135,43.07726397273135 0 0,0 -0.16367132280177196,-0.721166047650366 l 21.570896677797837 -4.701276532754904" fill="#fff717" stroke="none" /><path d="M 79.48165901384964 104.47187691870673 l -13.031268170152618 2.8401042458022108 a34.337171448603954,34.337171448603954 0 0,0 -0.12057626792553564,-0.577001091124033 l 13.07810214890252 -2.615986703392769" fill="#ff7f0b" stroke="none" /><path d="M 79.34024301695615 103.76489593502545 l -21.84191638079523 3.9803247570972324 a43.201628236631926,43.201628236631926 0 0,0 -0.12669429331360096,-0.7307390161345767 l 21.907025491601065 -3.604792708042063" fill="#fff817" stroke="none" /><path d="M 79.2786578344484 103.40968896794605 l -40.224243809053945 6.618884011659882 a61.765174052983284,61.765174052983284 0 0,0 -0.16317331877522417,-1.0476897591777907 l 40.33193861996744 -5.927406070550642" fill="#30ff32" stroke="none" /><path d="M 79.17382384314188 102.69636545807758 l -21.956636018838765 2.8427261198058744 a43.13989514555104,43.13989514555104 0 0,0 -0.08878172700798476,-0.7352400594978223 l 22.00219983210641 -2.465392383384653" fill="#fff817" stroke="none" /><path d="M 79.13060592940153 102.33845913500099 l -21.938426346022354 2.4582464312501715 a43.07572254891336,43.07572254891336 0 0,0 -0.07603399890532227,-0.7355599669254995 l 21.977392737409343 -2.0812819420417408" fill="#fff717" stroke="none" /><path d="M 79.0935383218832 101.97986365728391 l -22.27676432519901 2.1096327426608887 a43.37643356545824,43.37643356545824 0 0,0 -0.06383849627621109,-0.7419000941247843 l 22.309696444172964 -1.7269116011604426" fill="#fffb17" stroke="none" /><path d="M 79.03789590574601 101.26102812881392 l -47.61396603523603 2.86433796077187 a68.70004395761212,68.70004395761212 0 0,0 -0.06071255333889856,-1.1778073152856599 l 47.6561201780315 -2.0465588521094795" fill="#39ff87" stroke="none" /><path d="M 79.01933749520258 100.90099992219065 l -13.663073770385258 0.5867511762885145 a34.67566677708497,34.67566677708497 0 0,0 -0.02043439190282956,-0.5949250243736091 l 13.671132849284938 -0.35211988735078553" fill="#ff840c" stroke="none" /><line stroke="#e1ed5e" stroke-width="0.3" x1="15.003131293944662" x2="10.003315487706104" y1="100.72959589197737" y2="100.7725132973878" /><path d="M 14.003168132696942 100.73817937305945 a86.0,86.0 0 0,1 10.791469493833604,-42.45332614584628" fill="none" id="id58" stroke="none" /><text fill="#e1ed5e" style="font-size:6.75px; font-family:Arial;" text-anchor="middle"><textPath startOffset="22.145653131862435" xlink:href="#id58">October</textPath></text><path d="M 79.00077361379809 99.81974689727619 l -22.541604720059322 -0.19349256569919568 a43.54243515524402,43.54243515524402 0 0,0 0.012831682777089362,-0.7473811922821553 l 22.534961605683566 0.5804206739504033" fill="#fffd17" stroke="none" /><path d="M 79.01933749520258 99.09900007780938 l -35.559710700574314 -1.527086981500819 a56.59248543945208,56.59248543945208 0 0,0 0.05001269421230557,-0.9702329067200225 l 35.528256416905435 2.137291681597554" fill="#65ff29" stroke="none" /><path d="M 79.06263194458094 98.37931529534042 l -22.52716294673358 -1.7437448838129308 a43.594550596294454,43.594550596294454 0 0,0 0.06415950614530494,-0.7456307153954732 l 22.49390981789053 2.1301966465840847" fill="#fffd18" stroke="none" /><path d="M 79.13060592940154 97.66154086499901 l -22.018652624072267 -2.467235953041679 a43.15645090323687,43.15645090323687 0 0,0 0.08881579868928335,-0.735522221895798 l 21.973054739123317 2.844851851860913" fill="#fff817" stroke="none" /><path d="M 79.17382384314186 97.30363454192245 l -21.98383427953171 -2.846247479180697 a43.1673204141289,43.1673204141289 0 0,0 0.10145447466931315,-0.7340740392171122 l 21.931735288307188 3.223209826597876" fill="#fff817" stroke="none" /><path d="M 79.2786578344484 96.59031103205396 l -13.839243579048217 -2.277242264482563 a35.02535187335323,35.02535187335323 0 0,0 0.10271631845329386,-0.5924404290391828 l 13.798112443102688 2.5144757264423383" fill="#ff890c" stroke="none" /><path d="M 79.407916724674 95.88100663000787 l -49.02049581512637 -9.805472062079932 a70.99156221124773,70.99156221124773 0 0,0 0.24928953855294206,-1.1929406858046547 l 48.84494856574906 10.645529199169996" fill="#3cffa2" stroke="none" /><path d="M 79.48165901384962 95.52812308129327 l -21.615358738224952 -4.710966831883678 a43.1227697604361,43.1227697604361 0 0,0 0.16384422125869114,-0.7219278701534529 l 21.5313036554086 5.08132903597614" fill="#fff717" stroke="none" /><path d="M 79.56144815229197 95.17655741523228 l -25.809489799050805 -6.09096931697878 a47.51847791461049,47.51847791461049 0 0,0 0.1941751488587325,-0.7923008697756506 l 25.701127123675775 6.5331260113625484" fill="#cfff1d" stroke="none" /><path d="M 79.73907114497095 94.47779374421319 l -18.02177782635239 -4.911915685858644 a39.67916999567676,39.67916999567676 0 0,0 0.18475662263839396,-0.6556360749811975 l 17.934802711639414 5.220559684742854" fill="#ffca12" stroke="none" /><path d="M 79.94057633289273 93.78553927170692 l -21.094425659960905 -6.535106991367968 a43.08353271811925,43.08353271811925 0 0,0 0.22492739785099256,-0.7045818701605827 l 20.979133546332655 6.896257895219942" fill="#fff717" stroke="none" /><path d="M 80.05021161711548 93.44210830539832 l -45.549932407486956 -14.973167518959736 a68.9478058713583,68.9478058713583 0 0,0 0.3792607966066844,-1.1212171549404488 l 45.28618618930791 15.752886348374346" fill="#39ff8a" stroke="none" /><path d="M 80.28708602549916 92.7611449362534 l -26.67868947616741 -9.796784314002863 a49.4205815398077,49.4205815398077 0 0,0 0.2992753123766788,-0.7938633221251822 l 26.506583479976292 10.25331591632219" fill="#b8ff1f" stroke="none" /><path d="M 80.41425534168474 92.42381321644754 l -20.79059721456771 -8.042249635491746 a43.291853035087904,43.291853035087904 0 0,0 0.27406077645981386,-0.6908121864284298 l 20.649477763141764 8.39796283913376" fill="#fffa17" stroke="none" /><path d="M 80.5471966667186 92.08871423366112 l -17.04025117778162 -6.930121807532943 a39.39556328219203,39.39556328219203 0 0,0 0.26014983176989026,-0.6242648920268061 l 16.918775501475253 7.221619209001013" fill="#ffc612" stroke="none" /><path d="M 80.83023694016515 91.42560881287825 l -20.227150414767852 -9.047347101559089 a43.15834162291332,43.15834162291332 0 0,0 0.30830579593000246,-0.6737038044444822 l 20.0688601539828 9.393239888218242" fill="#fff817" stroke="none" /><path d="M 80.9802524753101 91.09779779509293 l -36.985373542923824 -17.311022319077615 a61.83612799765929,61.83612799765929 0 0,0 0.4582373392324778,-0.957539797406754 l 36.68275694573144 17.943374618549456" fill="#30ff32" stroke="none" /><path d="M 81.29705330413844 90.45014215332179 l -41.50516126687401 -21.192831078848496 a67.60273061662616,67.60273061662616 0 0,0 0.5366109385263031,-1.029022229428567 l 41.13524225937277 21.902199551381546" fill="#37ff7a" stroke="none" /><path d="M 81.46374523516351 90.13048839642627 l -15.467086894279491 -8.23535258406992 a38.52289385858225,38.52289385858225 0 0,0 0.315804539239485,-0.5810447823941042 l 15.323437005424656 8.499652199938645" fill="#ffba11" stroke="none" /><line stroke="#e1ed5e" stroke-width="0.3" x1="26.387840678322718" x2="22.05771365940052" y1="57.49999999999999" y2="54.99999999999999" /><path d="M 25.521815274538284 56.99999999999999 a86.0,86.0 0 0,1 29.574782752854787,-30.34633250058573" fill="none" id="id59" stroke="none" /><text fill="#e1ed5e" style="font-size:6.75px; font-family:Arial;" text-anchor="middle"><textPath startOffset="21.40746469413373" xlink:href="#id59">November</textPath></text><path d="M 81.99639281039701 89.18935116829357 l -54.01082156880897 -32.43194649511929 a84.0,84.0 0 0,0 0.752928142178428,-1.2298515355018278 l 53.44612546217515 33.35433514674566" fill="#4dd2ff" stroke="none" /><path d="M 82.37810715431573 88.57770195909679 l -18.557794129882534 -12.028937946082 a43.115313044987495,43.115313044987495 0 0,0 0.4079028100153001,-0.617616843602029 l 18.348566880946503 12.345734668023088" fill="#fff717" stroke="none" /><path d="M 82.576782715395 88.27688183743585 l -18.398736726780385 -12.379491179309204 a43.175782173352346,43.175782173352346 0 0,0 0.41903178704550686,-0.6113799002160664 l 18.183515202919565 12.693505814595303" fill="#fff817" stroke="none" /><path d="M 82.98947788004972 87.6856937992154 l -18.84935384956451 -13.645478566365934 a44.27009294891717,44.27009294891717 0 0,0 0.45091826069571467,-0.6117572219931782 l 18.612333569284974 13.967042097627976" fill="#f8ff18" stroke="none" /><path d="M 83.64595745247003 86.82634096563983 l -37.44162891434876 -30.160325899553698 a69.07827819428528,69.07827819428528 0 0,0 0.7518123906106045,-0.9170888735601661 l 36.918369704499526 30.798617054812357" fill="#39ff8c" stroke="none" /><path d="M 84.10781606972428 86.27271002978789 l -20.694937619738138 -17.875794218590325 a48.34637932213769,48.34637932213769 0 0,0 0.547900160777612,-0.623409806319644 l 20.385026395001933 18.228416302721268" fill="#c5ff1e" stroke="none" /><path d="M 84.34580500576568 86.00192230759919 l -16.772745964008752 -14.998292866900679 a43.50052879588601,43.50052879588601 0 0,0 0.5025394428798365,-0.5523788796778517 l 16.51280882028705 15.284009322136187" fill="#fffc17" stroke="none" /><path d="M 84.58840730492382 85.73525988315684 l -16.442344844848627 -15.218788918436454 a43.40451383406577,43.40451383406577 0 0,0 0.5108177325525071,-0.5424707301289129 l 16.178671278559847 15.498801108509877" fill="#fffb17" stroke="none" /><path d="M 85.08716467003674 85.21462403516908 l -15.900937494098693 -15.7650328620711 a43.391428590722285,43.391428590722285 0 0,0 0.5289788722060977,-0.5244577124314466 l 15.627966701762618 16.03567058473122" fill="#fffb17" stroke="none" /><path d="M 85.34317274990677 84.96080404539775 l -15.65234957363956 -16.060689559290736 a43.42636386700539,43.42636386700539 0 0,0 0.5383370168288787,-0.5157146844460814 l 15.374340070945381 16.327016374042387" fill="#fffb17" stroke="none" /><path d="M 86.40962598614128 83.9905735841838 l -17.451170011445623 -20.55743439314012 a47.96574574523463,47.96574574523463 0 0,0 0.6322928334926264,-0.5274811699734491 l 17.095702843791088 20.853977747025453" fill="#c9ff1d" stroke="none" /><path d="M 86.96720088162412 83.53348406188908 l -13.92059427290038 -17.5882161138731 a43.43052141567405,43.43052141567405 0 0,0 0.5885664044860415,-0.4576727960404182 l 13.616617923779094 17.824589961534322" fill="#fffb17" stroke="none" /><path d="M 87.25179093698888 83.31218511350988 l -34.43882484992757 -45.081527229684525 a77.73073906097801,77.73073906097801 0 0,0 1.0673060132376782,-0.8009263299763115 l 33.65986584777914 45.66607258692484" fill="#45ffed" stroke="none" /><path d="M 87.83215693770416 82.88440491214696 l -13.896809725658946 -19.547603224300488 a44.98395531112106,44.98395531112106 0 0,0 0.6332132384946357,-0.442032018287635 l 13.559201395990545 19.78328005839325" fill="#efff19" stroke="none" /><path d="M 88.12776184653039 82.6780497279521 l -12.743682229099951 -18.5934132218143 a43.541438551996116,43.541438551996116 0 0,0 0.6201621853570899,-0.41727279526721694 l 12.422623755645873 18.809435691138628" fill="#fffd17" stroke="none" /><path d="M 88.4268655584334 82.4767994020092 l -10.323604405531341 -15.631252864624924 a39.73266863102401,39.73266863102401 0 0,0 0.5723668156978726,-0.37100125479567664 l 10.053751957576443 15.806167961124508" fill="#ffca12" stroke="none" /><path d="M 89.03521579738668 82.08984904055464 l -12.258983140869615 -20.02412766226087 a44.47867875930514,44.47867875930514 0 0,0 0.6546144112431352,-0.3930771453517733 l 11.913435973069046 20.231618808148564" fill="#f5ff19" stroke="none" /><line stroke="#e1ed5e" stroke-width="0.3" x1="56.869717070023135" x2="54.33264160355391" y1="26.7553504044142" y2="22.446841604673864" /><path d="M 56.362301976729285 25.89364864446614 a86.0,86.0 0 0,1 42.16139366436587,-11.88097634709845" fill="none" id="id60" stroke="none" /><text fill="#e1ed5e" style="font-size:6.75px; font-family:Arial;" text-anchor="middle"><textPath startOffset="22.145653131862474" xlink:href="#id60">December</textPath></text><path d="M 89.34428304082924 81.90426304109057 l -24.5000756067094 -41.6064846083251 a69.28408916193067,69.28408916193067 0 0,0 1.0300483092279238,-0.5946986686110575 l 23.78223482962108 42.02093017421233" fill="#3aff8e" stroke="none" /><path d="M 89.97174638481275 81.54914285379989 l -11.606598874813338 -21.35483465118059 a45.3051866979063,45.3051866979063 0 0,0 0.686505576673889,-0.36552555199846 l 11.238304482352888 21.550930670901625" fill="#ebff1a" stroke="none" /><path d="M 90.28995756902619 81.37971332152246 l -8.17344633699442 -15.673661060482607 a38.67678918985618,38.67678918985618 0 0,0 0.5913363885897719,-0.3019405734525246 l 7.903182726691067 15.811659585607966" fill="#ffbc11" stroke="none" /><path d="M 90.61103034731259 81.2157712731953 l -12.386158570786497 -24.780614300263558 a48.70371399720793,48.70371399720793 0 0,0 0.751057076231813,-0.36737965193502514 l 11.95894124529263 24.989587702295797" fill="#c0ff1e" stroke="none" /><path d="M 91.26138138417902 80.90454125486306 l -10.39764118246906 -22.72072245916658 a45.98683996078442,45.98683996078442 0 0,0 0.7206501274341807,-0.3223376357017471 l 10.00607765217926 22.895863845778173" fill="#e2ff1b" stroke="none" /><path d="M 91.5904679813234 80.7573450057729 l -16.158530414868313 -36.97387979455812 a61.350537694442906,61.350537694442906 0 0,0 0.9686517342338853,-0.41345982575190376 l 15.521443605463995 37.245814269969436" fill="#32ff2f" stroke="none" /><path d="M 92.93061703081487 80.22567764915836 l -9.048056401630456 -25.309024099321167 a47.87776079786234,47.87776079786234 0 0,0 0.7762905332896235,-0.2700341444764348 l 8.61226009629583 25.460616676366186" fill="#caff1d" stroke="none" /></svg>