<?xml version="1.0" encoding="utf-8" ?>
<svg baseProfile="full" height="200mm" version="1.1" viewBox="0,0,200,200" width="200mm" xmlns="http://www.w3.org/2000/svg" xmlns:ev="http://www.w3.org/2001/xml-events" xmlns:xlink="http://www.w3.org/1999/xlink"><defs /><rect fill="#1a1a1a" height="200" width="200" x="0" y="0" /><text alignment-baseline="middle" fill="#e1ed5e" style="dominant-baseline: central; font-size:9.0px; font-family:Arial;" text-anchor="middle" x="100.0" y="100.0">2025</text><line stroke="#e1ed5e" stroke-width="0.3" x1="100.0" x2="100.0" y1="15.0" y2="10.0" /><path d="M 100.0 14.0 a86.0,86.0 0 0,1 42.46469731375804,11.215312516191453" fill="none" id="id61" stroke="none" /><text fill="#e1ed5e" style="font-size:6.75px; font-family:Arial;" text-anchor="middle"><textPath startOffset="22.20632615414155" xlink:href="#id61">January</textPath></text><path d="M 100.36148047927253 79.00311137660856 l 0.42541758124072426 -24.710727366856492 a45.71438907028735,45.71438907028735 0 0,0 0.7866648856352715,0.020317233108477828 l -0.8507091020708635 24.699743341605654" fill="#fff216" stroke="none" /><path d="M 100.72285384407766 79.0124445844662 l 0.7139345386290198 -20.728589624724076 a41.74088065525825,41.74088065525825 0 0,0 0.7178619863233011,0.030912647193882127 l -1.0706373573416523 20.713229251006" fill="#ffb811" stroke="none" /><path d="M 101.44485096284872 79.0497635885617 l 3.0647555980460415 -44.43873864730667 a65.54429502685369,65.54429502685369 0 0,0 1.1248955694765324,0.0873135461151505 l -3.829241356884915 44.37939983900306" fill="#33ff4f" stroke="none" /><path d="M 102.16513564639614 79.11191278185805 l 2.621594938762958 -25.29176581738347 a46.427272330793066,46.427272330793066 0 0,0 0.7942010517353578,0.0892377419330104 l -3.0565626940080413 25.24289212197986" fill="#fffc17" stroke="none" /><path d="M 102.52436894288641 79.15227682838746 l 2.882653576586708 -23.80664836401561 a44.980537899940764,44.980537899940764 0 0,0 0.767850492424923,0.09968903137344497 l -3.2920187975194772 23.75350100947803" fill="#ffe715" stroke="none" /><path d="M 102.88285421437855 79.19881850522331 l 3.454431406121226 -24.925386195941876 a46.163624010790784,46.163624010790784 0 0,0 0.786168758194633,0.1158608388803718 l -3.8829691447445147 24.862230872900536" fill="#fff817" stroke="none" /><path d="M 103.59715602781102 79.31037775812273 l 3.681960950421663 -21.17739141271676 a42.495086496402834,42.495086496402834 0 0,0 0.7195933374892897,0.13150108290130805 l -4.045949409013853 21.11087484846471" fill="#ffc312" stroke="none" /><path d="M 103.95276090670814 79.375362276772 l 9.209345017698444 -48.05233838856886 a69.92687666574002,69.92687666574002 0 0,0 1.1802111414946537,0.23673925213386138 l -10.035122568660222 47.88669518035779" fill="#39ff89" stroke="none" /><path d="M 104.66035177308747 79.52364482259891 l 5.7256780084444845 -25.157117368132024 a46.80046400610568,46.80046400610568 0 0,0 0.7839664131671896,0.18553952105773508 l -6.157868108574198 25.054831934933418" fill="#fdff18" stroke="none" /><path d="M 105.01212808612495 79.60689891045804 l 5.8493527960548155 -23.799559953098726 a45.5078351164246,45.5078351164246 0 0,0 0.7590947684033817,0.19351015841609037 l -6.258156453143222 23.695346798513768" fill="#ffef16" stroke="none" /><path d="M 105.36241919743992 79.69619591428918 l 8.36847049944977 -31.685658890486668 a53.77212653802676,53.77212653802676 0 0,0 0.8928787630828403,0.2440574946412184 l -8.912647151756321 31.536914855019155" fill="#a0ff22" stroke="none" /><path d="M 106.0581310904928 79.89281104454417 l 7.192865426746472 -23.87341939393262 a45.93346078276906,45.93346078276906 0 0,0 0.7550905973443077,0.23461032418756383 l -7.602741396801497 23.746068934862535" fill="#fff517" stroke="none" /><path d="M 106.40334571778207 80.00007090966166 l 14.092502331377432 -44.015903522166944 a67.21686255937963,67.21686255937963 0 0,0 1.098890645314549,0.3622869685749983 l -14.8480757989344 43.76680282933271" fill="#35ff66" stroke="none" /><path d="M 107.08798089147638 80.2323363322302 l 9.044883047389575 -25.225266367481378 a47.79783522322918,47.79783522322918 0 0,0 0.7720890713109251,0.284366920891524 l -9.477754444473076 25.065836178783528" fill="#efff19" stroke="none" /><path d="M 107.4271985657038 80.35727306442388 l 9.371992594593824 -24.78612760239344 a47.498799344786384,47.498799344786384 0 0,0 0.7622807153093236,0.2957530747985588 l -9.797256474902815 24.62113182370433" fill="#f3ff19" stroke="none" /><path d="M 108.09893153111575 80.62456947434976 l 9.660406549912956 -23.111015970225015 a46.048802643751195,46.048802643751195 0 0,0 0.7287030977536568,0.3119926369952955 l -10.056793405456927 22.94130380526693" fill="#fff717" stroke="none" /><path d="M 108.43124777332544 80.76684994638697 l 21.042621012434882 -48.00189703046095 a73.41158285718856,73.41158285718856 0 0,0 1.1529739399027794,0.5173057984507163 l -21.86577707080444 47.63257090149371" fill="#3effb4" stroke="none" /><path d="M 108.76106565485865 80.91482961587045 l 10.572243624655258 -23.03065390306431 a46.34133687203173,46.34133687203173 0 0,0 0.7220902448587675,0.3390310521342889 l -10.967112080813623 22.845257868290016" fill="#fffb17" stroke="none" /><path d="M 109.08828744355905 81.06846463323043 l 11.401394142660742 -23.74989763282993 a47.344817819947046,47.344817819947046 0 0,0 0.7316549400347307,0.3590199015325248 l -11.808520349705905 23.550122571162575" fill="#f5ff19" stroke="none" /><path d="M 109.73455568895987 81.39251694778311 l 12.438930900909234 -23.776862891530364 a47.83404946928861,47.83404946928861 0 0,0 0.7262916008520229,0.38795982010415847 l -12.84636754828957 23.55922434492445" fill="#efff19" stroke="none" /><path d="M 110.36928655335952 81.73862282372117 l 12.492458277180088 -22.000500351164554 a46.299872124354245,46.299872124354245 0 0,0 0.6896548231874032,0.399492587728825 l -12.86930983283282 21.78220360604568" fill="#fffa17" stroke="none" /><line stroke="#e1ed5e" stroke-width="0.3" x1="143.23703022742887" x2="145.7803849466894" y1="26.81831364943548" y2="22.513508569990506" /><path d="M 143.74570117128098 25.957352633546492 a86.0,86.0 0 0,1 28.547481713284135,27.462654790039103" fill="none" id="id62" stroke="none" /><text fill="#e1ed5e" style="font-size:6.75px; font-family:Arial;" text-anchor="middle"><textPath startOffset="19.985693538727396" xlink:href="#id62">February</textPath></text><path d="M 110.68208982089419 81.91981866633111 l 10.58932572294929 -17.923171634235583 a41.81763436841426,41.81763436841426 0 0,0 0.6165869476905762,0.371486736945126 l -10.896274736857503 17.738238287831845" fill="#ffb911" stroke="none" /><path d="M 111.2981086023043 82.29822771554956 l 30.209896083937426 -47.332586368102646 a77.15168344489945,77.15168344489945 0 0,0 1.1133097190503616,0.7241276099949149 l -31.02017282877207 46.80555983394821" fill="#43ffe1" stroke="none" /><path d="M 111.60114157652 82.49532879139004 l 13.873548632787578 -20.93344915341125 a46.11343555001538,46.11343555001538 0 0,0 0.6578747055033854,0.44419993784529216 l -14.231828032697507 20.69153730326729" fill="#fff717" stroke="none" /><path d="M 112.19680574252982 82.90503203632743 l 14.664952559592194 -20.5543073725308 a46.24956207817402,46.24956207817402 0 0,0 0.6440905260165807,0.4679591590363864 l -15.016588401962563 20.29882897867774" fill="#fff917" stroke="none" /><path d="M 112.48926042617603 83.11751280151076 l 13.970503675492424 -18.884773109832786 a44.490628521961916,44.490628521961916 0 0,0 0.6117542908296901,0.46076064885641427 l -14.293504120080497 18.64149587147052" fill="#ffe015" stroke="none" /><path d="M 113.06298171725822 83.55741782278167 l 34.319430502871334 -43.198411245823564 a76.17178666859277,76.17178666859277 0 0,0 1.0196014456100966,0.8244467938223139 l -35.05793534704593 42.60125835473712" fill="#42ffd5" stroke="none" /><path d="M 113.6212207817346 84.01681056812373 l 16.54860923764087 -19.41819756963286 a46.51319001131431,46.51319001131431 0 0,0 0.6049066969910154,0.5245691267810336 l -16.88040973327865 19.130463449432153" fill="#fffd17" stroke="none" /><path d="M 113.89432698308785 84.25364557470407 l 16.586904679137177 -18.797835995525766 a46.06958406016077,46.06958406016077 0 0,0 0.5901053294383888,0.5298023912435715 l -16.908020996171558 18.5095345955129" fill="#fff717" stroke="none" /><path d="M 114.16331599549186 84.49514656593476 l 19.39715181750349 -21.234433805221297 a49.76022735757845,49.76022735757845 0 0,0 0.6274340907077502,0.5831316070753937 l -19.75979379200609 20.897397612071263" fill="#d4ff1c" stroke="none" /><path d="M 114.68862486808459 84.99185889309783 l 16.795232022414954 -17.160572509633113 a45.011769354737865,45.011769354737865 0 0,0 0.549066851419498,0.5467089838666319 l -17.088134674001775 16.868927675116364" fill="#ffe815" stroke="none" /><path d="M 114.94478906791727 85.2469230424477 l 40.11932907985059 -39.604677370189705 a77.37456017934119,77.37456017934119 0 0,0 0.927521041780693,0.9558919649563558 l -40.79511438533439 38.908221209683234" fill="#44ffe3" stroke="none" /><path d="M 115.4437574822437 85.77008943001954 l 18.373738503607495 -16.92960123487749 a45.98410824045786,45.98410824045786 0 0,0 0.5313493473879837,0.5867292206155259 l -18.662431491611514 16.61081922699242" fill="#fff617" stroke="none" /><path d="M 115.68641384162765 86.03803664274999 l 19.36114281694078 -17.232719300523218 a46.919499718717624,46.919499718717624 0 0,0 0.5317725090434122,0.6079079040096778 l -19.65490718956204 16.89689584031059" fill="#fbff18" stroke="none" /><path d="M 115.9244219780498 86.31012108654704 l 19.033660973794515 -16.362823992615194 a46.100244203566064,46.100244203566064 0 0,0 0.5121284613497147,0.6061985646060678 l -19.312500048631346 16.03276647838002" fill="#fff717" stroke="none" /><path d="M 116.38621287248628 86.86637796730983 l 16.36329886233617 -13.115256352291246 a41.97063420224691,41.97063420224691 0 0,0 0.4469790987721871,0.5676180640025178 l -16.58663204170232 12.831645894335688" fill="#ffbc11" stroke="none" /><path d="M 116.60985879189232 87.15038557335679 l 45.29879328214469 -35.04376737699291 a78.27168851004194,78.27168851004194 0 0,0 0.8152334036395229,1.0727515986041738 l -45.89530262600833 34.258831002507705" fill="#45ffee" stroke="none" /><path d="M 117.04232023915458 87.72973835380427 l 21.746707173891682 -15.65736256696992 a47.79687062812639,47.79687062812639 0 0,0 0.47498112918840163,0.6718271226901233 l -22.01300092288397 15.280708943948005" fill="#efff19" stroke="none" /><path d="M 117.2510076193507 88.02491185347247 l 21.1230295495378 -14.662919775983587 a46.71349050027199,46.71349050027199 0 0,0 0.4528439899557818,0.6644926772466828 l -21.372298005162317 14.297149075466498" fill="#feff18" stroke="none" /><path d="M 117.45458315368197 88.32363383020206 l 22.935293711646406 -15.342726046858132 a48.59396564809825,48.59396564809825 0 0,0 0.45910506123257655,0.6992485056449873 l -23.195995408236907 14.945659477235472" fill="#e4ff1a" stroke="none" /><line stroke="#e1ed5e" stroke-width="0.3" x1="172.23445277983987" x2="176.4835382374775" y1="55.19839476539836" y2="52.563006222186495" /><path d="M 173.08426987136738 54.67131705675599 a86.0,86.0 0 0,1 12.851231095245387,41.99856678651699" fill="none" id="id63" stroke="none" /><text fill="#e1ed5e" style="font-size:6.75px; font-family:Arial;" text-anchor="middle"><textPath startOffset="22.20632615414155" xlink:href="#id63">March</textPath></text><path d="M 117.84615892207809 88.93136811851018 l 20.429113505178314 -12.67064459312011 a45.039424140619985,45.039424140619985 0 0,0 0.40296172620516957,0.6623631262294477 l -20.64419102966971 12.31711369368358" fill="#ffe815" stroke="none" /><path d="M 118.03404312379186 89.2402003453031 l 31.065483543885698 -18.534855263128147 a57.174647578664015,57.174647578664015 0 0,0 0.49698470385969723,0.8495079588549372 l -31.37992792221572 17.997367891919314" fill="#76ff27" stroke="none" /><path d="M 118.3937258080291 89.86733742301442 l 23.041237842875756 -12.692865537661708 a47.30603498988645,47.30603498988645 0 0,0 0.38676490789768647,0.7166166349249037 l -23.25631084999191 12.294367919404346" fill="#f6ff19" stroke="none" /><path d="M 118.56541770881063 90.18545643968196 l 22.40411528042864 -11.843857692779094 a46.342086467880634,46.342086467880634 0 0,0 0.3667436961257135,0.7084320887409253 l -22.60466840971447 11.456452881777825" fill="#fffb17" stroke="none" /><path d="M 119.04729006885535 91.15688171328212 l 23.34916382349228 -10.84035665129683 a46.74289773090038,46.74289773090038 0 0,0 0.33253717235313063,0.7327015798075567 l -23.532303312808757 10.43683306264721" fill="#feff18" stroke="none" /><path d="M 119.196687751892 91.48605970444005 l 57.59006325567602 -25.541820886679833 a84.0,84.0 0 0,0 0.574837160629277,1.3268034216535889 l -58.02119112614798 24.54671832043964" fill="#4dd2ff" stroke="none" /><path d="M 119.47837535516314 92.15188598940014 l 25.170213842119427 -10.141436557324079 a48.13647730093664,48.13647730093664 0 0,0 0.303045370721759,0.7712174137481723 l -25.341052762722885 9.706670138680122" fill="#ebff1a" stroke="none" /><path d="M 119.61058180528143 92.48833698450437 l 23.864405977139135 -9.141053414181275 a46.555209452529034,46.555209452529034 0 0,0 0.28020785029263967,0.750817728205946 l -24.0182184159334 8.728912548945997" fill="#fffe18" stroke="none" /><path d="M 119.7369772167798 92.82701384747503 l 22.107819699299846 -8.034618615801875 a44.52255913284395,44.52255913284395 0 0,0 0.25557415894892455,0.7225425633349823 l -22.24284693905858 7.652878426040279" fill="#ffe115" stroke="none" /><path d="M 120.08093135843002 93.85539295169968 l 52.99238608516132 -16.215253328299386 a76.41775368507572,76.41775368507572 0 0,0 0.37406163975220313,1.2611498932423486 l -53.26365362202523 15.300674048310507" fill="#42ffd8" stroke="none" /><path d="M 120.28053869075195 94.5502522615342 l 26.996156329693203 -7.254355722419902 a48.953857220867405,48.953857220867405 0 0,0 0.21167570498820143,0.8156728392739393 l -27.117028366551708 6.788586457597113" fill="#dfff1b" stroke="none" /><path d="M 120.37134235888165 94.90015583598534 l 24.31669509600167 -6.087539710872333 a46.067105938328005,46.067105938328005 0 0,0 0.18595140811810673,0.7708886362590063 l -24.417879304380595 5.668065842953921" fill="#fff717" stroke="none" /><path d="M 120.45610955862082 95.25157060432595 l 25.835209566246633 -5.997067438273732 a47.52212041280042,47.52212041280042 0 0,0 0.17810750562154476,0.7984210243291081 l -25.934611458870215 5.551468244394661" fill="#f3ff19" stroke="none" /><path d="M 120.67395015179393 96.31383870115 l 17.4348760455966 -3.1086350144821395 a38.709842302476396,38.709842302476396 0 0,0 0.11131501511867968,0.6569875204121598 l -17.4858029222355 2.808061705754142" fill="#ff8b0c" stroke="none" /><path d="M 120.78858239683441 97.02765380044208 l 28.38714494064486 -4.058786730617755 a49.67583909157355,49.67583909157355 0 0,0 0.11374348065152383,0.8475210470979966 l -28.45280442035422 3.5695473414550944" fill="#d6ff1c" stroke="none" /><path d="M 120.83666639777658 97.38593545837742 l 25.190408861875795 -3.160263419192201 a46.387870401180855,46.387870401180855 0 0,0 0.09257615587755981,0.7931359682532958 l -25.241075370756942 2.7261837126140525" fill="#fffb17" stroke="none" /><path d="M 120.94382443527127 98.46500227214037 l 23.216544193953546 -1.7015680539441018 a44.27881565183249,44.27881565183249 0 0,0 0.04916932438215094,0.760627685333781 l -23.24239410934011 1.3016813043572855" fill="#ffdd14" stroke="none" /><path d="M 120.96714384426684 98.82574320788733 l 44.08372844937705 -2.468892183781436 a65.15280900026127,65.15280900026127 0 0,0 0.05307283216412601,1.120283604871781 l -44.11969488977467 1.7096974722866551" fill="#32ff4a" stroke="none" /><line stroke="#e1ed5e" stroke-width="0.3" x1="184.98032266829074" x2="189.97916517819016" y1="98.17113171792111" y2="98.06355123074" /><path d="M 185.9800911702706 98.14961562048488 a86.0,86.0 0 0,1 -9.607161424134198,41.387399972396054" fill="none" id="id64" stroke="none" /><text fill="#e1ed5e" style="font-size:6.75px; font-family:Arial;" text-anchor="middle"><textPath startOffset="21.466115282336823" xlink:href="#id64">April</textPath></text><path d="M 120.99513854157772 99.54816195383933 l 22.737636956511153 -0.48933849311806205 a43.74290189327098,43.74290189327098 0 0,0 0.009721324370779171,0.7529272857921809 l -22.742691287999648 0.09787494926541841" fill="#ffd614" stroke="none" /><path d="M 120.99980553446 99.90962569577887 l 25.427228184024457 -0.10942806359002841 a46.42746364904586,46.42746364904586 0 0,0 -0.0034393967162057604,0.79919466953205 l -25.425344490018748 -0.32827608414570625" fill="#fffc17" stroke="none" /><path d="M 120.99824983174949 100.27111621757518 l 28.355204186871145 0.3661045929691209 a49.35756754469868,49.35756754469868 0 0,0 -0.01828095554205604,0.8494441704038762 l -28.344701168644082 -0.854138579163112" fill="#daff1c" stroke="none" /><path d="M 120.95626037817324 101.35467743843564 l 44.80660080693288 2.8964371558087723 a65.90012053513206,65.90012053513206 0 0,0 -0.08291942709395896,1.1313697029055212 l -44.75010482117458 -3.6672799952110635" fill="#33ff54" stroke="none" /><path d="M 120.89721153311464 102.0752229133903 l 24.92756787109022 2.4754623332976373 a46.050180712549455,46.050180712549455 0 0,0 -0.08512200146294384,0.7881240155219196 l -24.881263568126222 -2.904182670704348" fill="#fff717" stroke="none" /><path d="M 120.8583938346157 102.4346265915055 l 24.162060205677278 2.8202360521486805 a45.32609472917124,45.32609472917124 0 0,0 -0.09712408831176657,0.7741745450876863 l -24.109934608118664 -3.2357283515237616" fill="#ffec16" stroke="none" /><path d="M 120.81339534386255 102.79330883721812 l 23.145619296400746 3.1063102322027976 a44.35313374844169,44.35313374844169 0 0,0 -0.10806524660126784,0.755808083035161 l -23.088719998782878 -3.504263787218368" fill="#ffde14" stroke="none" /><path d="M 120.64145759157962 103.86396538481128 l 24.626548128771617 4.6099520392290545 a46.054311615821675,46.054311615821675 0 0,0 -0.1525715021843983,0.7779588026213349 l -24.543546693611553 -5.0331745689183345" fill="#fff717" stroke="none" /><path d="M 120.41448212921028 104.9243191809786 l 21.285600650268318 5.1344477365305385 a42.896103502720905,42.896103502720905 0 0,0 -0.17932345468413832,0.7163080617491463 l -21.19406588128912 -5.500083637677081" fill="#ffc912" stroke="none" /><path d="M 120.02730092923936 106.31721596034902 l 21.678804603436472 6.838150129465202 a43.731714986491525,43.731714986491525 0 0,0 -0.23262721144476312,0.7159529389625392 l -21.557885140975465 -7.2103019684055365" fill="#ffd513" stroke="none" /><path d="M 119.9155931802556 106.66101706037122 l 10.398375782183408 3.4778657034400062 a31.96456879036575,31.96456879036575 0 0,0 -0.1790155416520407,0.5203029593584207 l -10.336969409588136 -3.6563413658877275" fill="#ff1f03" stroke="none" /><path d="M 119.26925614724726 108.34839909993367 l 41.273846107252524 17.881880704658744 a65.98101855250513,65.98101855250513 0 0,0 -0.46048126225623387,1.0382636828848646 l -40.95992376026502 -18.589692724036297" fill="#33ff55" stroke="none" /><path d="M 119.12269723197855 108.67885076344098 l 22.729823060336432 10.315947579308547 a45.9612425735027,45.9612425735027 0 0,0 -0.33316513148899546,0.7176080534657815 l -22.548883312007604 -10.70567570005316" fill="#fff517" stroke="none" /><path d="M 118.97047184881838 109.00673069616215 l 19.123684028047936 9.079472209851954 a42.16960335986694,42.16960335986694 0 0,0 -0.31696831239067613,0.6530486064377408 l -18.964562459042547 -9.407309772254969" fill="#ffbf11" stroke="none" /><path d="M 118.81262510543309 109.33194174019688 l 19.313124484302513 9.580212835721197 a42.55869326568478,42.55869326568478 0 0,0 -0.33119039360173147,0.6534700666169982 l -19.145355420914512 -9.91123711404089" fill="#ffc412" stroke="none" /><line stroke="#e1ed5e" stroke-width="0.3" x1="174.80103733775053" x2="179.2010983576182" y1="140.37084112569926" y2="142.7455964860345" /><path d="M 175.68104954172406 140.8457921977663 a86.0,86.0 0 0,1 -30.038265399797805,32.042727171017184" fill="none" id="id65" stroke="none" /><text fill="#e1ed5e" style="font-size:6.75px; font-family:Arial;" text-anchor="middle"><textPath startOffset="22.206326154141568" xlink:href="#id65">May</textPath></text><path d="M 118.30583269289576 110.29060199501025 l 18.9505795448112 10.65304566812283 a42.739637694573645,42.739637694573645 0 0,0 -0.36603040593045644,0.6382048655344843 l -18.764397142728367 -10.977670379515631" fill="#ffc712" stroke="none" /><path d="M 117.14729908036423 112.12312394758627 l 20.34538850613533 14.384170093826603 a45.91664469293005,45.91664469293005 0 0,0 -0.4618344393074457,0.6414476430164924 l -20.09477427445228 -14.732251342294227" fill="#fff517" stroke="none" /><path d="M 116.71984013943494 112.70617746262583 l 16.845883277912048 12.801963455319575 a42.15830928321955,42.15830928321955 0 0,0 -0.44405383862192305,0.5739994454786673 l -16.623022622072057 -13.090040894911494" fill="#ffbf11" stroke="none" /><path d="M 116.498646956653 112.99209946851258 l 39.232301044689 30.89404597179353 a70.9361144039902,70.9361144039902 0 0,0 -0.7636849931033265,0.9528144508321238 l -38.69469813953082 -31.564788256203904" fill="#3aff96" stroke="none" /><path d="M 116.0416608686014 113.55231037782055 l 19.05269316651087 16.09608964065128 a45.94171643285785,45.94171643285785 0 0,0 -0.5155480762180094,0.5996988846701663 l -18.772802580722082 -16.421665624482973" fill="#fff517" stroke="none" /><path d="M 115.80600337817218 113.82643327865902 l 18.218079233393148 15.93641674996041 a45.204705942907246,45.204705942907246 0 0,0 -0.5173595727441394,0.5812589644692151 l -17.94106081100067 -16.247649884170492" fill="#ffeb16" stroke="none" /><path d="M 115.07121518719521 114.62390073753431 l 18.189840185073326 17.6499647834721 a46.34544422211443,46.34544422211443 0 0,0 -0.5604695260081771,0.5677526708013246 l -17.883330034009614 -17.96045794825409" fill="#fffb17" stroke="none" /><path d="M 114.81725581225074 114.88116024355365 l 31.570432064277192 31.706590239084896 a65.74371514877117,65.74371514877117 0 0,0 -0.808804378079869,0.7915853147073588 l -31.019977733821527 -32.245325656714826" fill="#33ff52" stroke="none" /><path d="M 114.29624159901734 115.38237550388516 l 17.32581396024406 18.642114740509744 a46.45019197144333,46.45019197144333 0 0,0 -0.5903608173585183,0.5392806093371293 l -17.00235359341868 -18.937588116433457" fill="#fffc17" stroke="none" /><path d="M 114.0293411484842 115.62618273729858 l 14.477796683422145 16.12568218380326 a42.67127644370629,42.67127644370629 0 0,0 -0.5507797995858846,0.48599913506532433 l -14.198074530929674 -16.372504460640872" fill="#ffc612" stroke="none" /><path d="M 113.75828350139079 115.86535959552629 l 14.384141174714232 16.587067142975215 a42.9552798601994,42.9552798601994 0 0,0 -0.5627847834683581,0.47961740182686785 l -14.096490914668827 -16.83220893502503" fill="#ffca12" stroke="none" /><path d="M 113.20401910651253 116.32954008644616 l 13.527168739875187 16.729182411207205 a42.51394520455281,42.51394520455281 0 0,0 -0.5730120783416084,0.4552354503975397 l -13.237199168816227 -16.95955177560987" fill="#ffc412" stroke="none" /><path d="M 112.92097659922987 116.55440617244103 l 30.991462641074595 39.70638414970581 a71.36931306735413,71.36931306735413 0 0,0 -0.9749431231513234,0.747544813124933 l -30.303390789429777 -40.23396830465811" fill="#3bff9b" stroke="none" /><path d="M 111.7513745106137 117.40417183066458 l 15.150981097231613 22.43910090527776 a48.0751819503749,48.0751819503749 0 0,0 -0.6898223183013217,0.45717661770879986 l -14.762484080190326 -22.696575544077874" fill="#ebff1a" stroke="none" /><path d="M 111.1453310114006 117.79835938074945 l 29.270351729648095 46.74282340760646 a76.15111087269227,76.15111087269227 0 0,0 -1.116958385573816,0.6861270686163937 l -28.461414144141973 -47.23973894305123" fill="#42ffd5" stroke="none" /><line stroke="#e1ed5e" stroke-width="0.3" x1="143.8653032363475" x2="146.44561519142675" y1="172.8068346515853" y2="177.08958963109032" /><path d="M 144.38136562736335 173.6633856474863 a86.0,86.0 0 0,1 -40.68145358897372,12.25698825130547" fill="none" id="id66" stroke="none" /><text fill="#e1ed5e" style="font-size:6.75px; font-family:Arial;" text-anchor="middle"><textPath startOffset="21.466115282336833" xlink:href="#id66">June</textPath></text><path d="M 110.8373102113329 117.98757091392108 l 12.889297396153847 21.3934220228822 a45.97623857220377,45.97623857220377 0 0,0 -0.6813944101397141,0.40257982805809583 l -12.519135114985751 -21.612120423234042" fill="#fff517" stroke="none" /><path d="M 110.21172684928248 118.3499491758327 l 12.209084931605222 21.939099163636772 a46.10748547702532,46.10748547702532 0 0,0 -0.6968316234526387,0.3799681612214214 l -11.829630496283935 -22.146007976617962" fill="#fff717" stroke="none" /><path d="M 109.89434966115114 118.52300852407294 l 10.829937381957068 20.274503055901505 a43.98571334244101,43.98571334244101 0 0,0 -0.6709059115450267,0.3509862639487602 l -10.479340567885545 -20.457918738794984" fill="#ffd914" stroke="none" /><path d="M 109.57404056367764 118.69057910512821 l 8.902294570590247 17.379186956865794 a40.52657132994051,40.52657132994051 0 0,0 -0.6236191981088641,0.31269561205397317 l -8.601821464798622 -17.529850409829066" fill="#ffa60f" stroke="none" /><path d="M 108.92500713936063 119.00905698771935 l 8.884253707073116 18.922257693925843 a41.90410964779362,41.90410964779362 0 0,0 -0.6555638632462596,0.30093721623933023 l -8.557221848059436 -19.072381980499248" fill="#ffbb11" stroke="none" /><path d="M 108.59647513512805 119.15986991738527 l 21.135181666489164 47.10620632815995 a72.6303261534021,72.6303261534021 0 0,0 -1.1450666372502698,0.501963563363975 l -20.32119435458114 -47.463034444818376" fill="#3dffab" stroke="none" /><path d="M 107.93186726928326 119.44442032107085 l 9.543015180546973 23.394037242592752 a46.265591567267265,46.265591567267265 0 0,0 -0.739982719614297,0.2944543956373923 l -9.13891138489081 -23.554838482636214" fill="#fffa17" stroke="none" /><path d="M 107.2578585660854 119.70592522655815 l 8.38250655611509 22.75947456152091 a45.25407385326906,45.25407385326906 0 0,0 -0.7332893397183251,0.26293146803793355 l -7.989497655767029 -22.900393570598805" fill="#ffeb16" stroke="none" /><path d="M 106.57524785965236 119.94407469862006 l 5.80649384853868 17.612286186646653 a39.54475655093542,39.54475655093542 0 0,0 -0.6483055044791557,0.20756694972116815 l -5.502466998968584 -17.70962598302753" fill="#ff970e" stroke="none" /><path d="M 106.2309692047433 120.05430185196036 l 14.816735195600671 47.6874897482954 a70.93628260443833,70.93628260443833 0 0,0 -1.1691820299797697,0.35226495468646624 l -13.993678191180654 -47.93547007208759" fill="#3aff96" stroke="none" /><path d="M 105.18746579009965 120.34920634021253 l 5.4226317628971765 21.27170705603154 a42.95200346924179,42.95200346924179 0 0,0 -0.7180076062655014,0.17646880058179057 l -5.055670871888465 -21.361897114927363" fill="#ffca12" stroke="none" /><path d="M 104.13013068566511 120.58985236759428 l 5.000562726373073 24.929198644554692 a46.42578558550471,46.42578558550471 0 0,0 -0.7848884477049677,0.15042573905290688 l -4.570706664096401 -25.011581581956065" fill="#fffc17" stroke="none" /><path d="M 103.7750983002368 120.6578951692458 l 9.644347973949642 52.77529578741887 a74.64928045456135,74.64928045456135 0 0,0 -1.2660199053696868,0.22011378848240518 l -8.734479097107904 -52.93348815442228" fill="#40ffc3" stroke="none" /><path d="M 103.06178313531738 120.77559828337769 l 3.488078322087174 23.668206008695478 a44.92385140505314,44.92385140505314 0 0,0 -0.7659974648533745,0.10616026884388183 l -3.080152266046969 -23.724740843031963" fill="#ffe715" stroke="none" /><path d="M 102.34483914955558 120.86867818915974 l 2.3561007686129427 20.968904724545496 a42.10085723801109,42.10085723801109 0 0,0 -0.7208617103690412,0.07472026370545848 l -1.9948064616382988 -21.006354356706712" fill="#ffbe11" stroke="none" /><path d="M 101.62511606390274 120.93702456842531 l 1.6374986837350283 21.09655484531375 a42.16001012004874,42.16001012004874 0 0,0 -0.7240223645346064,0.049932821280751584 l -1.2741135584214913 -21.12161601111079" fill="#ffbf11" stroke="none" /><path d="M 101.26447882468166 120.96189622390904 l 3.0005714031252433 49.74196889424003 a70.8323880445318,70.8323880445318 0 0,0 -1.2176827250877322,0.06294028801931732 l -2.1439006096240316 -49.78624898902155" fill="#3aff94" stroke="none" /><line stroke="#e1ed5e" stroke-width="0.3" x1="102.19456741930631" x2="102.32365962044197" y1="184.97166512339345" y2="189.96999836594603" /><path d="M 102.22038585953345 185.97133177190398 a86.0,86.0 0 0,1 -42.740103519485714,-10.115201625700543" fill="none" id="id67" stroke="none" /><text fill="#e1ed5e" style="font-size:6.75px; font-family:Arial;" text-anchor="middle"><textPath startOffset="22.20632615414155" xlink:href="#id67">July</textPath></text><path d="M 100.54218724476979 120.99299961872073 l 0.6471951187756677 25.058809503097372 a46.0671656801141,46.0671656801141 0 0,0 -0.7928824118660136,0.013650189768058396 l -0.21575301701698618 -25.066237170144593" fill="#fff717" stroke="none" /><path d="M 100.18074693466247 120.99922214144158 l 0.18466604189372884 21.454544957837758 a42.45533968258042,42.45533968258042 0 0,0 -0.7308259531123539,0.0 l 0.18466604189371408 -21.454544957837758" fill="#ffc312" stroke="none" /><path d="M 99.81925306533755 120.99922214144158 l -0.19353819305620598 22.485313603964755 a43.48614651070329,43.48614651070329 0 0,0 -0.7484593466762607,-0.012885406414506815 l 0.5805572296251346 -22.478650720271087" fill="#ffd213" stroke="none" /><path d="M 99.09653310690486 120.98055641714683 l -0.9126087841916448 21.192851923905916 a42.21249225012437,42.21249225012437 0 0,0 -0.7256768268713347,-0.03750920297316075 l 1.2772736794764683 -21.174002914170554" fill="#ffbf11" stroke="none" /><path d="M 98.73552117531835 120.96189622390904 l -3.0946656200265936 51.30181566387921 a72.39507024715908,72.39507024715908 0 0,0 -1.243255155578613,-0.08574215456698453 l 3.9772835363841366 -51.24094516479594" fill="#3cffa8" stroke="none" /><path d="M 97.65516085044442 120.86867818915974 l -2.838496539272697 25.262146800283702 a46.42111570255222,46.42111570255222 0 0,0 -0.793298353190692,-0.0960573828016107 l 3.272922315514778 -25.20954388875674" fill="#fffc17" stroke="none" /><path d="M 96.58105272829116 120.7198165907248 l -4.084705885501432 24.754507761783106 a46.089250221942265,46.089250221942265 0 0,0 -0.7816539938393708,-0.1359005661258903 l 4.510208850812852 -24.680528617136208" fill="#fff717" stroke="none" /><path d="M 96.22490169976321 120.6578951692458 l -10.73850596731654 58.762689843925614 a80.73582868014381,80.73582868014381 0 0,0 -1.3649444688496388,-0.2615948560502421 l 11.748418050737873 -58.569137789526906" fill="#48f5ff" stroke="none" /><path d="M 95.16358092515715 120.4354850818985 l -4.860543509459249 20.537418871357936 a42.104749633789915,42.104749633789915 0 0,0 -0.7038444788405457,-0.1729878484479144 l 5.213341273043005 -20.45070976459599" fill="#ffbe11" stroke="none" /><path d="M 94.11515582081647 120.15858648285463 l -6.499470417281271 22.263994170479044 a44.193286790108885,44.193286790108885 0 0,0 -0.728400119990285,-0.21946098099577707 l 6.881745511711802 -22.14881782037754" fill="#ffdc14" stroke="none" /><path d="M 93.08242187328487 119.8279376855182 l -8.429037600814448 24.160252220700546 a46.588404839766966,46.588404839766966 0 0,0 -0.7549106127826701,-0.27068408731075705 l 8.843667774226846 -24.011580592349834" fill="#fffe18" stroke="none" /><path d="M 92.40401165467489 119.57807347666478 l -9.303596201557745 23.97930088234237 a46.72088204334263,46.72088204334263 0 0,0 -0.7472647422425331,-0.2973520627249849 l 9.714982019842136 -23.815601975211315" fill="#feff18" stroke="none" /><path d="M 91.7346041902142 119.30500536409082 l -6.738980711348431 15.739846194305555 a38.121817054516185,38.121817054516185 0 0,0 -0.6010164510109597,-0.26346794987782746 l 7.008917837017134 -15.621513691133275" fill="#ff820b" stroke="none" /><path d="M 90.42595943632237 118.69057910512821 l -11.443530716459614 22.34022455570147 a46.10059816932102,46.10059816932102 0 0,0 -0.7031638567906621,-0.3678620962966309 l 11.826385475776771 -22.13993304046012" fill="#fff717" stroke="none" /><path d="M 90.10565033884886 118.52300852407294 l -8.685756547613178 16.260426210846404 a39.43485360296593,39.43485360296593 0 0,0 -0.595986807184816,-0.32497952678468256 l 8.964366166666634 -16.108506032301953" fill="#ff960d" stroke="none" /><line stroke="#e1ed5e" stroke-width="0.3" x1="58.666819895761336" x2="56.23545636021788" y1="174.27360380694188" y2="178.64263932499728" /><path d="M 58.180547188652646 175.14741091055294 a86.0,86.0 0 0,1 -31.652253787137756,-30.449443065178592" fill="none" id="id68" stroke="none" /><text fill="#e1ed5e" style="font-size:6.75px; font-family:Arial;" text-anchor="middle"><textPath startOffset="22.20632615414155" xlink:href="#id68">August</textPath></text><path d="M 89.4739219176387 118.17145234162733 l -10.759752943418484 18.574851553367235 a42.46619187543594,42.46619187543594 0 0,0 -0.6293734907956738,-0.37184495196679695 l 11.07789430524254 -18.38688802910669" fill="#ffc312" stroke="none" /><path d="M 89.1626897886671 117.98757091392108 l -22.953176193390394 38.09726550473586 a65.47752169695565,65.47752169695565 0 0,0 -0.960401839025995,-0.5899572508837674 l 23.605557232348698 -37.69651978702372" fill="#33ff4e" stroke="none" /><path d="M 88.24862548938628 117.40417183066458 l -13.630277232670531 20.186888507615464 a45.35764613131478,45.35764613131478 0 0,0 -0.643307744282062,-0.44247293251039144 l 13.975741861575484 -19.94927478573997" fill="#ffed16" stroke="none" /><path d="M 87.95078237400918 117.19931262002967 l -15.015433084089837 21.433352417946796 a47.169673795725565,47.169673795725565 0 0,0 -0.6609879024935476,-0.4715973181118547 l 15.382148314432271 -21.171710837990723" fill="#f8ff18" stroke="none" /><path d="M 87.36589467227662 116.77436683061367 l -12.690510539436481 16.84925632123379 a42.093754913011225,42.093754913011225 0 0,0 -0.5750232854466224,-0.44090333502968865 l 12.97866255337659 -16.628313644376732" fill="#ffbe11" stroke="none" /><path d="M 87.07902340077011 116.55440617244103 l -26.956871997660787 34.53725070706933 a64.8120375502125,64.8120375502125 0 0,0 -0.8735505528718515,-0.6940013909175612 l 27.547380043249998 -34.06811540214664" fill="#32ff45" stroke="none" /><path d="M 86.51685102203217 116.09983520530335 l -16.102197491644844 19.227164698865742 a46.079167179498654,46.079167179498654 0 0,0 -0.6037128429360713,-0.514497182020548 l 16.430775811157975 -18.947143126622244" fill="#fff717" stroke="none" /><path d="M 86.24171649860922 115.8653595955263 l -16.4588801446063 18.979551628475342 a46.12206431869158,46.12206431869158 0 0,0 -0.5953208682531221,-0.5253014494629081 l 16.783143365766012 -18.693427037240145" fill="#fff817" stroke="none" /><path d="M 85.44109423537348 115.13401014063109 l -16.169043992692657 16.807751880932532 a44.322489295283674,44.322489295283674 0 0,0 -0.5452722485838042,-0.5336636598346659 l 16.455966193652255 -16.5269381181753" fill="#ffde14" stroke="none" /><path d="M 85.18274418774928 114.88116024355367 l -36.86167937041068 37.020657840303166 a73.2428225973268,73.2428225973268 0 0,0 -0.8857476879040752,-0.8972577314690526 l 37.493467683370284 -36.38065961485345" fill="#3effb2" stroke="none" /><path d="M 83.06392112726016 112.41649034213515 l -13.988190271608381 10.255279909621516 a38.34474655621713,38.34474655621713 0 0,0 -0.3856754918528044,-0.5356695260517764 l 14.162645555836795 -10.0129767781186" fill="#ff850c" stroke="none" /><path d="M 82.6465618267979 111.8261652097733 l -20.723959864061293 14.123136332232434 a46.078785702382945,46.078785702382945 0 0,0 -0.4410329920296861,-0.659284482942223 l 20.96399596150171 -13.764314935084391" fill="#fff717" stroke="none" /><path d="M 82.24976979558568 111.22182372390057 l -18.02261643833545 11.394028268105288 a42.32225559029207,42.32225559029207 0 0,0 -0.3839945818552937,-0.6191215324873658 l 18.2160756598587 -11.082110404252658" fill="#ffc111" stroke="none" /><path d="M 82.05923443525364 110.91462005526583 l -7.755111709069222 4.717975801264557 a30.07750259055102,30.07750259055102 0 0,0 -0.2652823186193344,-0.4446284250164632 l 7.835174903386789 -4.5837852823619825" fill="#ff0000" stroke="none" /><line stroke="#e1ed5e" stroke-width="0.3" x1="26.63291911575756" x2="22.317208475507996" y1="142.92168965132927" y2="145.44649492493687" /><path d="M 25.769776987707644 143.4266507060508 a86.0,86.0 0 0,1 -11.730757126820373,-40.83630448921669" fill="none" id="id69" stroke="none" /><text fill="#e1ed5e" style="font-size:6.75px; font-family:Arial;" text-anchor="middle"><textPath startOffset="21.46611528233685" xlink:href="#id69">September</textPath></text><line stroke="#e1ed5e" stroke-width="0.3" x1="15.007084014347285" x2="10.007500721073583" y1="101.09737516637583" y2="101.16192664675087" /><path d="M 14.007167355692545 101.11028546245083 a86.0,86.0 0 0,1 10.666146001902534,-42.60595125391555" fill="none" id="id70" stroke="none" /><text fill="#e1ed5e" style="font-size:6.75px; font-family:Arial;" text-anchor="middle"><textPath startOffset="22.20632615414155" xlink:href="#id70">October</textPath></text><path d="M 79.21141760316559 97.0276538004421 l -22.73184177228403 -3.250192928551434 a43.963022110187566,43.963022110187566 0 0,0 0.11355880267025366,-0.7482106249574818 l 22.672527076174475 3.641002665901008" fill="#ffd914" stroke="none" /><line stroke="#e1ed5e" stroke-width="0.3" x1="26.266209847984243" x2="21.928928074336255" y1="57.711370442889674" y2="55.22380399835377" /><path d="M 25.398753493254645 57.213857153982495 a86.0,86.0 0 0,1 29.58750427330803,-30.492523968695096" fill="none" id="id71" stroke="none" /><text fill="#e1ed5e" style="font-size:6.75px; font-family:Arial;" text-anchor="middle"><textPath startOffset="21.46611528233685" xlink:href="#id71">November</textPath></text><line stroke="#e1ed5e" stroke-width="0.3" x1="56.762969772571076" x2="54.21961505331055" y1="26.818313649435495" y2="22.513508569990535" /><path d="M 56.25429882871897 25.957352633546506 a86.0,86.0 0 0,1 42.265352541879196,-11.944610805530505" fill="none" id="id72" stroke="none" /><text fill="#e1ed5e" style="font-size:6.75px; font-family:Arial;" text-anchor="middle"><textPath startOffset="22.20632615414155" xlink:href="#id72">December</textPath></text></svg>