<?xml version="1.0" encoding="utf-8" ?>
<svg baseProfile="full" height="200mm" version="1.1" viewBox="0,0,200,200" width="200mm" xmlns="http://www.w3.org/2000/svg" xmlns:ev="http://www.w3.org/2001/xml-events" xmlns:xlink="http://www.w3.org/1999/xlink"><defs /><rect fill="#1a1a1a" height="200" width="200" x="0" y="0" /><text alignment-baseline="middle" fill="#e1ed5e" style="dominant-baseline: central; font-size:9.0px; font-family:Arial;" text-anchor="middle" x="100.0" y="100.0">2025</text><line stroke="#e1ed5e" stroke-width="0.3" x1="100.0" x2="100.0" y1="15.0" y2="10.0" /><path d="M 100.0 14.0 a86.0,86.0 0 0,1 42.46469731375804,11.215312516191453" fill="none" id="id61" stroke="none" /><text fill="#e1ed5e" style="font-size:6.75px; font-family:Arial;" text-anchor="middle"><textPath startOffset="22.20632615414155" xlink:href="#id61">January</textPath></text><path d="M 100.36148047927253 79.00311137660856 l 0.47730194312812074 -27.72447286713306 a48.72858115564716,48.72858115564716 0 0,0 0.8385338730664844,0.021656856025407237 l -0.9544624513894729 27.71214921896529" fill="#ff6309" stroke="none" /><path d="M 100.72285384407766 79.0124445844662 l 0.8010067227595088 -23.256669546498507 a44.27045960364636,44.27045960364636 0 0,0 0.7613658257235544,0.03278601403121411 l -1.2012133808723946 23.2394358059431" fill="#ff0000" stroke="none" /><path d="M 101.44485096284872 79.0497635885617 l 3.4385363150575157 -49.85853251448024 a70.97696265768312,70.97696265768312 0 0,0 1.2181330319567503,0.0945505676670395 l -4.296259536376607 49.791956684624736" fill="#34ff5a" stroke="none" /><path d="M 102.16513564639614 79.11191278185805 l 2.9413273300013376 -28.376375359408645 a49.52840838533175,49.52840838533175 0 0,0 0.8472501625799662,0.0951984276472674 l -3.4293441960910287 28.321540978290777" fill="#ff740a" stroke="none" /><path d="M 102.52436894288641 79.15227682838746 l 3.234224945422522 -26.710131467469303 a47.90522874846239,47.90522874846239 0 0,0 0.8177770920850608,0.10617093691233546 l -3.6935167660154287 26.65050220739283" fill="#ff5107" stroke="none" /><path d="M 102.88285421437855 79.19881850522331 l 3.8757373819289422 -27.96531170584125 a49.23260524745357,49.23260524745357 0 0,0 0.8384336576571586,0.12356332646030606 l -4.356540020014757 27.89445389521997" fill="#ff6d0a" stroke="none" /><path d="M 103.59715602781102 79.31037775812273 l 4.131016661400473 -23.76020765807237 a45.11664915802959,45.11664915802959 0 0,0 0.7639857409563819,0.13961351088581717 l -4.539397523459756 23.685578665835816" fill="#ff1302" stroke="none" /><path d="M 103.95276090670814 79.375362276772 l 10.332526124249327 -53.912850563963346 a75.8940484209403,75.8940484209403 0 0,0 1.2809238134242722,0.25694126666731665 l -11.259016347140724 53.72700534121882" fill="#3dffaf" stroke="none" /><path d="M 104.66035177308747 79.52364482259891 l 6.423987535226222 -28.22530504802314 a49.947114897804624,49.947114897804624 0 0,0 0.8366767583623297,0.19801435676247403 l -6.908887980551075 28.1105447791198" fill="#ff7c0b" stroke="none" /><path d="M 105.01212808612495 79.60689891045804 l 6.562745826010084 -26.70217854673092 a48.49683567100603,48.49683567100603 0 0,0 0.8089528791645915,0.20622010098626722 l -7.021407593859701 26.585255449575786" fill="#ff5e08" stroke="none" /><path d="M 105.36241919743992 79.69619591428918 l 9.389097692550575 -35.55007414977129 a57.76904849917245,57.76904849917245 0 0,0 0.9592471023428215,0.26219846883951126 l -9.999642684117108 35.383189140105486" fill="#e7ff1a" stroke="none" /><path d="M 106.0581310904928 79.89281104454417 l 8.070114626744818 -26.78504596026273 a48.974371077509275,48.974371077509275 0 0,0 0.805079488488064,0.2501421159993824 l -8.529979487943601 26.642163709380828" fill="#ff6809" stroke="none" /><path d="M 106.40334571778207 80.00007090966166 l 15.811238281893838 -49.384127986431814 a72.85351823152507,72.85351823152507 0 0,0 1.1910411556646558,0.3926675430113409 l -16.658962259800912 49.10464671916123" fill="#37ff7b" stroke="none" /><path d="M 107.08798089147638 80.2323363322302 l 10.148006204385734 -28.301765568805607 a51.066126525308874,51.066126525308874 0 0,0 0.8248825081770771,0.3038111892314692 l -10.633671038335388 28.122891111767814" fill="#ff940d" stroke="none" /><path d="M 107.4271985657038 80.35727306442388 l 10.515010365429097 -27.809068992260617 a50.730619926287986,50.730619926287986 0 0,0 0.8141463316744001,0.3158761281675126 l -10.992139862103164 27.623950160202558" fill="#ff8d0d" stroke="none" /><path d="M 108.09893153111575 80.62456947434976 l 10.83859958075396 -25.929659037790287 a49.103780149438606,49.103780149438606 0 0,0 0.777046842740569,0.33269090564159365 l -11.283330181284846 25.739248604185903" fill="#ff6b09" stroke="none" /><path d="M 108.43124777332544 80.76684994638697 l 23.609000522384456 -53.85625732639966 a79.8037529318778,79.8037529318778 0 0,0 1.2533668919234482,0.5623491896380798 l -24.532549532774684 53.44188780624505" fill="#45ffee" stroke="none" /><path d="M 108.76106565485865 80.91482961587045 l 11.861645234676974 -25.839495930995948 a49.431992150415546,49.431992150415546 0 0,0 0.7702488043087241,0.3616421415318253 l -12.304672250285297 25.631488806824123" fill="#ff720a" stroke="none" /><path d="M 109.08828744355905 81.06846463323043 l 12.791919795111196 -26.646459359255378 a50.557858657707364,50.557858657707364 0 0,0 0.7813084672786401,0.3833846717082099 l -13.24869952940027 26.422319527412334" fill="#ff890c" stroke="none" /><path d="M 109.73455568895987 81.39251694778311 l 13.955995594081609 -26.676713328395838 a51.106757497735245,51.106757497735245 0 0,0 0.7759829897156789,0.4145032391133473 l -14.413123630325599 26.432531362780736" fill="#ff950d" stroke="none" /><path d="M 110.36928655335952 81.73862282372117 l 14.016051223729344 -24.68370380174715 a49.3854703198413,49.3854703198413 0 0,0 0.7356160230849004,0.42611628129963547 l -14.438863979279573 24.438783363057464" fill="#ff710a" stroke="none" /><line stroke="#e1ed5e" stroke-width="0.3" x1="143.23703022742887" x2="145.7803849466894" y1="26.81831364943548" y2="22.513508569990506" /><path d="M 143.74570117128098 25.957352633546492 a86.0,86.0 0 0,1 28.547481713284135,27.462654790039103" fill="none" id="id62" stroke="none" /><text fill="#e1ed5e" style="font-size:6.75px; font-family:Arial;" text-anchor="middle"><textPath startOffset="19.985693538727396" xlink:href="#id62">February</textPath></text><path d="M 110.68208982089419 81.91981866633111 l 11.880810683092779 -20.10909991799025 a44.35657427790315,44.35657427790315 0 0,0 0.6540227623368485,0.39404139639731606 l -12.225195511647266 19.901611912134317" fill="#ff0200" stroke="none" /><path d="M 111.2981086023043 82.29822771554956 l 33.894325806912875 -53.10531685335132 a84.0,84.0 0 0,0 1.2121318968628794,0.7884043033618879 l -34.803424729560035 52.514013625829904" fill="#4dd2ff" stroke="none" /><path d="M 111.60114157652 82.49532879139004 l 15.565580767018137 -23.486513952142303 a49.17629575083886,49.17629575083886 0 0,0 0.7015708263536593,0.4737037536986775 l -15.967556287778338 23.215098286144958" fill="#ff6c0a" stroke="none" /><path d="M 112.19680574252982 82.90503203632743 l 16.453505123508997 -23.06113165316088 a49.329024409141866,49.329024409141866 0 0,0 0.6869763918167533,0.4991175643905423 l -16.84802683167954 22.774494853953666" fill="#ff6f0a" stroke="none" /><path d="M 112.48926042617603 83.11751280151076 l 15.674360545569195 -21.187979289827258 a47.355569523321726,47.355569523321726 0 0,0 0.6511477543248309,0.4904309888488078 l -16.03675445365241 20.915031711472604" fill="#ff4506" stroke="none" /><path d="M 113.06298171725822 83.55741782278167 l 38.505063232922396 -48.466933518697445 a82.90059401392841,82.90059401392841 0 0,0 1.1096702492523889,0.897276169168939 l -39.33363688073928 47.79695125226437" fill="#4be2ff" stroke="none" /><line stroke="#e1ed5e" stroke-width="0.3" x1="172.23445277983987" x2="176.4835382374775" y1="55.19839476539836" y2="52.563006222186495" /><path d="M 173.08426987136738 54.67131705675599 a86.0,86.0 0 0,1 12.851231095245387,41.99856678651699" fill="none" id="id63" stroke="none" /><text fill="#e1ed5e" style="font-size:6.75px; font-family:Arial;" text-anchor="middle"><textPath startOffset="22.20632615414155" xlink:href="#id63">March</textPath></text><line stroke="#e1ed5e" stroke-width="0.3" x1="184.98032266829074" x2="189.97916517819016" y1="98.17113171792111" y2="98.06355123074" /><path d="M 185.9800911702706 98.14961562048488 a86.0,86.0 0 0,1 -9.607161424134198,41.387399972396054" fill="none" id="id64" stroke="none" /><text fill="#e1ed5e" style="font-size:6.75px; font-family:Arial;" text-anchor="middle"><textPath startOffset="21.466115282336823" xlink:href="#id64">April</textPath></text><line stroke="#e1ed5e" stroke-width="0.3" x1="174.80103733775053" x2="179.2010983576182" y1="140.37084112569926" y2="142.7455964860345" /><path d="M 175.68104954172406 140.8457921977663 a86.0,86.0 0 0,1 -30.038265399797805,32.042727171017184" fill="none" id="id65" stroke="none" /><text fill="#e1ed5e" style="font-size:6.75px; font-family:Arial;" text-anchor="middle"><textPath startOffset="22.206326154141568" xlink:href="#id65">May</textPath></text><line stroke="#e1ed5e" stroke-width="0.3" x1="143.8653032363475" x2="146.44561519142675" y1="172.8068346515853" y2="177.08958963109032" /><path d="M 144.38136562736335 173.6633856474863 a86.0,86.0 0 0,1 -40.68145358897372,12.25698825130547" fill="none" id="id66" stroke="none" /><text fill="#e1ed5e" style="font-size:6.75px; font-family:Arial;" text-anchor="middle"><textPath startOffset="21.466115282336833" xlink:href="#id66">June</textPath></text><line stroke="#e1ed5e" stroke-width="0.3" x1="102.19456741930631" x2="102.32365962044197" y1="184.97166512339345" y2="189.96999836594603" /><path d="M 102.22038585953345 185.97133177190398 a86.0,86.0 0 0,1 -42.740103519485714,-10.115201625700543" fill="none" id="id67" stroke="none" /><text fill="#e1ed5e" style="font-size:6.75px; font-family:Arial;" text-anchor="middle"><textPath startOffset="22.20632615414155" xlink:href="#id67">July</textPath></text><line stroke="#e1ed5e" stroke-width="0.3" x1="58.666819895761336" x2="56.23545636021788" y1="174.27360380694188" y2="178.64263932499728" /><path d="M 58.180547188652646 175.14741091055294 a86.0,86.0 0 0,1 -31.652253787137756,-30.449443065178592" fill="none" id="id68" stroke="none" /><text fill="#e1ed5e" style="font-size:6.75px; font-family:Arial;" text-anchor="middle"><textPath startOffset="22.20632615414155" xlink:href="#id68">August</textPath></text><line stroke="#e1ed5e" stroke-width="0.3" x1="26.63291911575756" x2="22.317208475507996" y1="142.92168965132927" y2="145.44649492493687" /><path d="M 25.769776987707644 143.4266507060508 a86.0,86.0 0 0,1 -11.730757126820373,-40.83630448921669" fill="none" id="id69" stroke="none" /><text fill="#e1ed5e" style="font-size:6.75px; font-family:Arial;" text-anchor="middle"><textPath startOffset="21.46611528233685" xlink:href="#id69">September</textPath></text><line stroke="#e1ed5e" stroke-width="0.3" x1="15.007084014347285" x2="10.007500721073583" y1="101.09737516637583" y2="101.16192664675087" /><path d="M 14.007167355692545 101.11028546245083 a86.0,86.0 0 0,1 10.666146001902534,-42.60595125391555" fill="none" id="id70" stroke="none" /><text fill="#e1ed5e" style="font-size:6.75px; font-family:Arial;" text-anchor="middle"><textPath startOffset="22.20632615414155" xlink:href="#id70">October</textPath></text><line stroke="#e1ed5e" stroke-width="0.3" x1="26.266209847984243" x2="21.928928074336255" y1="57.711370442889674" y2="55.22380399835377" /><path d="M 25.398753493254645 57.213857153982495 a86.0,86.0 0 0,1 29.58750427330803,-30.492523968695096" fill="none" id="id71" stroke="none" /><text fill="#e1ed5e" style="font-size:6.75px; font-family:Arial;" text-anchor="middle"><textPath startOffset="21.46611528233685" xlink:href="#id71">November</textPath></text><line stroke="#e1ed5e" stroke-width="0.3" x1="56.762969772571076" x2="54.21961505331055" y1="26.818313649435495" y2="22.513508569990535" /><path d="M 56.25429882871897 25.957352633546506 a86.0,86.0 0 0,1 42.265352541879196,-11.944610805530505" fill="none" id="id72" stroke="none" /><text fill="#e1ed5e" style="font-size:6.75px; font-family:Arial;" text-anchor="middle"><textPath startOffset="22.20632615414155" xlink:href="#id72">December</textPath></text></svg>