<?xml version="1.0" encoding="utf-8" ?>
<svg baseProfile="full" height="200mm" version="1.1" viewBox="0,0,200,200" width="200mm" xmlns="http://www.w3.org/2000/svg" xmlns:ev="http://www.w3.org/2001/xml-events" xmlns:xlink="http://www.w3.org/1999/xlink"><defs /><rect fill="#1a1a1a" height="200" width="200" x="0" y="0" /><text alignment-baseline="middle" fill="#e1ed5e" style="dominant-baseline: central; font-size:9.0px; font-family:Arial;" text-anchor="middle" x="100.0" y="100.0">2020</text><line stroke="#e1ed5e" stroke-width="0.3" x1="100.0" x2="100.0" y1="15.0" y2="10.0" /><path d="M 100.0 14.0 a86.0,86.0 0 0,1 42.35913384403234,11.155469271406648" fill="none" id="id1" stroke="none" /><text fill="#e1ed5e" style="font-size:6.75px; font-family:Arial;" text-anchor="middle"><textPath startOffset="22.145653131862478" xlink:href="#id1">January</textPath></text><line stroke="#e1ed5e" stroke-width="0.3" x1="143.13028292997686" x2="145.6673583964461" y1="26.7553504044142" y2="22.446841604673864" /><path d="M 143.63769802327073 25.89364864446614 a86.0,86.0 0 0,1 29.32050498858742,28.57503671076993" fill="none" id="id2" stroke="none" /><text fill="#e1ed5e" style="font-size:6.75px; font-family:Arial;" text-anchor="middle"><textPath startOffset="20.669276256404974" xlink:href="#id2">February</textPath></text><line stroke="#e1ed5e" stroke-width="0.3" x1="172.87174338648825" x2="177.1583165268699" y1="56.24261187166439" y2="53.66864786411523" /><path d="M 173.72905801456457 55.72781907015455 a86.0,86.0 0 0,1 12.242430191666344,42.057860355516425" fill="none" id="id3" stroke="none" /><text fill="#e1ed5e" style="font-size:6.75px; font-family:Arial;" text-anchor="middle"><textPath startOffset="22.145653131862474" xlink:href="#id3">March</textPath></text><line stroke="#e1ed5e" stroke-width="0.3" x1="184.99686870605535" x2="189.99668451229388" y1="99.2704041080226" y2="99.22748670261217" /><path d="M 185.99683186730306 99.26182062694052 a86.0,86.0 0 0,1 -10.086455211305974,41.156179273409016" fill="none" id="id4" stroke="none" /><text fill="#e1ed5e" style="font-size:6.75px; font-family:Arial;" text-anchor="middle"><textPath startOffset="21.40746469413373" xlink:href="#id4">April</textPath></text><line stroke="#e1ed5e" stroke-width="0.3" x1="174.33088141563837" x2="178.70328620479359" y1="141.23008692659167" y2="143.65538615756765" /><path d="M 175.20536237346943 141.71514677278685 a86.0,86.0 0 0,1 -30.301960400862466,31.631185727798858" fill="none" id="id5" stroke="none" /><text fill="#e1ed5e" style="font-size:6.75px; font-family:Arial;" text-anchor="middle"><textPath startOffset="22.145653131862474" xlink:href="#id5">May</textPath></text><path d="M 111.5731344415666 117.5232005979908 l 2.547514552555855 3.8572617259507282 a25.622585685303005,25.622585685303005 0 0,0 -0.36910477659666824,0.23924925679256415 l -2.4809241437021767 -3.900424824447187" fill="#ff0000" stroke="none" /><line stroke="#e1ed5e" stroke-width="0.3" x1="143.1302829299769" x2="145.66735839644613" y1="173.24464959558577" y2="177.55315839532614" /><path d="M 143.63769802327073 174.10635135553383 a86.0,86.0 0 0,1 -40.68552437913181,11.842963189579606" fill="none" id="id6" stroke="none" /><text fill="#e1ed5e" style="font-size:6.75px; font-family:Arial;" text-anchor="middle"><textPath startOffset="21.407464694133747" xlink:href="#id6">June</textPath></text><line stroke="#e1ed5e" stroke-width="0.3" x1="101.45913802915013" x2="101.54496967792366" y1="184.9874750549273" y2="189.98673829345242" /><path d="M 101.47630435890484 185.9873277026323 a86.0,86.0 0 0,1 -42.54439059252881,-10.42667462771756" fill="none" id="id7" stroke="none" /><text fill="#e1ed5e" style="font-size:6.75px; font-family:Arial;" text-anchor="middle"><textPath startOffset="22.145653131862474" xlink:href="#id7">July</textPath></text><path d="M 91.26138138417905 119.09545874513695 l -3.7217679403847175 8.132734621914052 a29.943876622167537,29.943876622167537 0 0,0 -0.4655720794084452,-0.2179112412755645 l 3.8608287336646527 -8.06764714906796" fill="#ff4206" stroke="none" /><path d="M 90.28995756902619 118.62028667847754 l -6.874841742700132 13.183415523489366 a35.86828483222435,35.86828483222435 0 0,0 -0.5435090186746195,-0.28938793917701405 l 7.100139577161313 -13.06345711658978" fill="#ff970e" stroke="none" /><line stroke="#e1ed5e" stroke-width="0.3" x1="58.13341422392154" x2="55.67067388415222" y1="173.97424548756322" y2="178.32567169271397" /><path d="M 57.64086615596768 174.84453072859336 a86.0,86.0 0 0,1 -31.369924170532247,-30.572349798747897" fill="none" id="id8" stroke="none" /><text fill="#e1ed5e" style="font-size:6.75px; font-family:Arial;" text-anchor="middle"><textPath startOffset="22.145653131862474" xlink:href="#id8">August</textPath></text><path d="M 89.03521579738668 117.91015095944536 l -7.760968279317838 12.67695842485622 a35.863980070563564,35.863980070563564 0 0,0 -0.522309123330914,-0.3259595227742252 l 7.977441531438465 -12.541863105240447" fill="#ff970e" stroke="none" /><path d="M 88.1277618465304 117.32195027204791 l -8.405614399225058 12.26404261329909 a35.8681234407465,35.8681234407465 0 0,0 -0.5048949218795237,-0.35245586758760067 l 8.614904412278348 -12.117941929906358" fill="#ff970e" stroke="none" /><path d="M 87.2517909369889 116.68781488649013 l -3.525415160750321 4.614881612769165 a26.807381884767278,26.807381884767278 0 0,0 -0.3632911568938332,-0.2824974009475618 l 3.604116262279382 -4.553683160200809" fill="#ff1202" stroke="none" /><path d="M 86.96720088162412 116.46651593811092 l -9.22658105420993 11.65748375337141 a35.86696759295668,35.86696759295668 0 0,0 -0.4795058819721607,-0.386255996076362 l 9.425337706537354 -11.49737946350164" fill="#ff970e" stroke="none" /><path d="M 86.13680546590413 115.77377054828092 l -8.57184650904849 9.753187815136718 a33.984653446743124,33.984653446743124 0 0,0 -0.43489833011559753,-0.38888876850554727 l 8.738009865987458 -9.604603516747787" fill="#ff7d0b" stroke="none" /><path d="M 85.08716467003676 114.78537596483092 l -8.430812536224671 8.35875474240878 a32.87212621499217,32.87212621499217 0 0,0 -0.39386003952040544,-0.4041350977236304 l 8.573059376895886 -8.212796952617412" fill="#ff6d0a" stroke="none" /><path d="M 84.3458050057657 113.99807769240083 l -11.07753066810897 9.905596230866859 a35.860434798210264,35.860434798210264 0 0,0 -0.40639936779087266,-0.46240787884303547 l 11.245941099858436 -9.713976074212525" fill="#ff970e" stroke="none" /><path d="M 81.99639281039703 110.81064883170644 l -5.989462063540087 3.596499877932942 a27.986305689172035,27.986305689172035 0 0,0 -0.24378243175687378,-0.41399586505336294 l 6.050318205426731 -3.4931528445860205" fill="#ff2403" stroke="none" /><line stroke="#e1ed5e" stroke-width="0.3" x1="26.387840678322732" x2="22.057713659400548" y1="142.50000000000003" y2="145.00000000000006" /><path d="M 25.521815274538298 143.00000000000003 a86.0,86.0 0 0,1 -11.493303480769221,-40.785679425670985" fill="none" id="id9" stroke="none" /><text fill="#e1ed5e" style="font-size:6.75px; font-family:Arial;" text-anchor="middle"><textPath startOffset="21.40746469413373" xlink:href="#id9">September</textPath></text><path d="M 81.63589988554817 110.18625677009913 l -7.178461469189545 3.9817715697315266 a29.208825366528465,29.208825366528465 0 0,0 -0.23944929138674284,-0.440559726415846 l 7.245756110191618 -3.8579570098410936" fill="#ff3705" stroke="none" /><path d="M 80.83023694016515 108.57439118712176 l -13.563692613345234 6.066867182744301 a35.85868886282958,35.85868886282958 0 0,0 -0.2465133193851472,-0.5640707171189965 l 13.665839814747349 -5.833134395849455" fill="#ff970e" stroke="none" /><path d="M 80.5471966667186 107.91128576633889 l -13.758483889025547 5.59545562111484 a35.852777603278156,35.852777603278156 0 0,0 -0.22696741717736454,-0.5721061573774656 l 13.852509981169035 -5.358448446523809" fill="#ff970d" stroke="none" /><path d="M 79.94057633289273 106.21446072829308 l -14.18440559551948 4.39436511189896 a35.84950527239474,35.84950527239474 0 0,0 -0.17706869585247917,-0.5894041000206667 l 14.25775061137559 -4.15022340828757" fill="#ff970d" stroke="none" /><path d="M 79.83685265289637 105.86919833188381 l -14.259047546875859 4.150600927309958 a35.85085603599512,35.85085603599512 0 0,0 -0.16693098874366313,-0.5923791888468937 l 14.328197027694097 -3.905213814560069" fill="#ff970d" stroke="none" /><path d="M 79.73907114497094 105.5222062557868 l -14.339495556315812 3.9082932787782423 a35.862566708430414,35.862566708430414 0 0,0 -0.15678861281790038,-0.59535190084713 l 14.404473649938446 -3.66156087355831" fill="#ff970e" stroke="none" /><path d="M 79.34024301695615 103.76489593502545 l -17.565038472118573 3.2009351318372468 a38.85431494751998,38.85431494751998 0 0,0 -0.11394524177415362,-0.6572058747836502 l 17.61739853138496 -2.8989362241330037" fill="#ffc111" stroke="none" /><path d="M 79.2786578344484 103.40968896794605 l -14.672302775693897 2.414321838274412 a35.869613938512444,35.869613938512444 0 0,0 -0.0947615551850034,-0.6084371616406914 l 14.711585823017169 -2.1620964947022703" fill="#ff970e" stroke="none" /><path d="M 79.22317932658666 103.0534771498775 l -23.52034596228071 3.4566808888589575 a44.77299554016652,44.77299554016652 0 0,0 -0.10522823048363007,-0.7613790563951851 l 23.57621870931955 -3.0524135242636867" fill="#f0ff19" stroke="none" /><path d="M 79.17382384314188 102.69636545807758 l -14.731275058044712 1.9072584866651756 a35.854228346525666,35.854228346525666 0 0,0 -0.07378785466221677,-0.6110692873454205 l 14.761844998966591 -1.6540955223963558" fill="#ff970d" stroke="none" /><path d="M 79.06263194458094 101.62068470465958 l -16.287170935725403 1.2607300376932604 a37.3358923024572,37.3358923024572 0 0,0 -0.04397819437764245,-0.6394332943639983 l 16.30641309126811 -0.9809533191749186" fill="#ffac0f" stroke="none" /><path d="M 79.03789590574601 101.26102812881392 l -29.642778083554482 1.783235919995141 a50.69636716598882,50.69636716598882 0 0,0 -0.0448020949965119,-0.869148673956464 l 29.669021768007564 -1.2741154526619463" fill="#a7ff21" stroke="none" /><line stroke="#e1ed5e" stroke-width="0.3" x1="15.003131293944662" x2="10.003315487706104" y1="100.72959589197737" y2="100.7725132973878" /><path d="M 14.003168132696942 100.73817937305945 a86.0,86.0 0 0,1 10.791469493833604,-42.45332614584628" fill="none" id="id10" stroke="none" /><text fill="#e1ed5e" style="font-size:6.75px; font-family:Arial;" text-anchor="middle"><textPath startOffset="22.145653131862435" xlink:href="#id10">October</textPath></text><path d="M 79.00077361379809 100.18025310272382 l -14.865792763494754 0.12760495176288808 a35.86634042092698,35.86634042092698 0 0,0 0.0,-0.6157161089734058 l 14.865792763494754 0.1276049517628826" fill="#ff970e" stroke="none" /><path d="M 79.00077361379809 99.81974689727619 l -20.782366455942128 -0.17839162104030368 a41.78313208059666,41.78313208059666 0 0,0 0.012313227185844964,-0.717183753282071 l 20.776241797157617 0.535122290291427" fill="#ffe815" stroke="none" /><path d="M 79.01933749520258 99.09900007780938 l -14.852627883137782 -0.6378357482264179 a35.86631728023714,35.86631728023714 0 0,0 0.03169627813178792,-0.6148993280278868 l 14.839490015549423 0.8927068696310166" fill="#ff970e" stroke="none" /><path d="M 79.06263194458094 98.37931529534042 l -14.8148834552163 -1.1467656753050688 a35.8592006280856,35.8592006280856 0 0,0 0.05277514211280668,-0.6133271487400533 l 14.79301469040575 1.400913871420803" fill="#ff970e" stroke="none" /><path d="M 79.0935383218832 98.0201363427161 l -44.33948434882876 -4.198995267422131 a65.53786516634878,65.53786516634878 0 0,0 0.1156824696940885,-1.1191229556135662 l 44.26086948665301 4.959522745318609" fill="#35ff62" stroke="none" /><path d="M 79.17382384314186 97.30363454192245 l -14.748057357196858 -1.909431291283736 a35.87115071765806,35.87115071765806 0 0,0 0.08430657073290551,-0.6100003485520596 l 14.713106269908746 2.1623199480358624" fill="#ff970e" stroke="none" /><path d="M 79.22317932658666 96.9465228501225 l -14.698886275679167 -2.1602300985765095 a35.85677797586493,35.85677797586493 0 0,0 0.0947276447062104,-0.6082194320411043 l 14.659637138834688 2.4122377125490635" fill="#ff970d" stroke="none" /><path d="M 79.48165901384962 95.52812308129327 l -11.060632760185344 -2.410613430196446 a32.32027624068992,32.32027624068992 0 0,0 0.12280033311728686,-0.5410809258968285 l 11.017621565510396 2.600128690032283" fill="#ff6509" stroke="none" /><path d="M 79.56144815229197 95.17655741523228 l -18.833616546621656 -4.444682223723587 a40.350977037221284,40.350977037221284 0 0,0 0.1648865308118101,-0.6727933133787917 l 18.75454248929355 4.767331361710497" fill="#ffd513" stroke="none" /><path d="M 79.64726062577567 94.8264132398404 l -46.02584088256236 -11.699588769696609 a68.48956102478691,68.48956102478691 0 0,0 0.2994315312924817,-1.1369902961995526 l 45.81821987046516 12.487959570268945" fill="#39ff86" stroke="none" /><path d="M 79.83685265289637 94.1308016681162 l -12.841343509341323 -3.7379279438236783 a34.37431151267685,34.37431151267685 0 0,0 0.16978238511602103,-0.5651503413231329 l 12.775284804221673 3.9578158887375348" fill="#ff820c" stroke="none" /><path d="M 80.83023694016515 91.42560881287825 l -10.894531577854744 -4.872985401927132 a32.93468914669624,32.93468914669624 0 0,0 0.23527214367496765,-0.5141120937915196 l 10.80927496932473 5.059286477933323" fill="#ff6e0a" stroke="none" /><line stroke="#e1ed5e" stroke-width="0.3" x1="26.387840678322718" x2="22.05771365940052" y1="57.49999999999999" y2="54.99999999999999" /><path d="M 25.521815274538284 56.99999999999999 a86.0,86.0 0 0,1 29.574782752854787,-30.34633250058573" fill="none" id="id11" stroke="none" /><text fill="#e1ed5e" style="font-size:6.75px; font-family:Arial;" text-anchor="middle"><textPath startOffset="21.40746469413373" xlink:href="#id11">November</textPath></text><path d="M 82.37810715431573 88.57770195909679 l -9.965134106701326 -6.459279532629144 a32.875444827255265,32.875444827255265 0 0,0 0.3110260688945503,-0.47093311012344835 l 9.852783598886047 6.629392521091654" fill="#ff6d0a" stroke="none" /><path d="M 82.576782715395 88.27688183743585 l -12.323019733657086 -8.291477635701595 a35.85279154702717,35.85279154702717 0 0,0 0.34796032767168167,-0.5076845169933597 l 12.17886966917009 8.50179688776499" fill="#ff970d" stroke="none" /><path d="M 83.42222388311158 87.10902102172516 l -19.381265457900987 -15.070989246599913 a45.55133738965672,45.55133738965672 0 0,0 0.4853030144399233,-0.6131645051461602 l 19.119696012819503 15.401473695660755" fill="#e6ff1a" stroke="none" /><path d="M 84.34580500576568 86.00192230759919 l -11.092336871964006 -9.918836029653606 a35.88029722365406,35.88029722365406 0 0,0 0.41450679052074724,-0.45561557368435396 l 10.920432380601394 10.107789178895619" fill="#ff980e" stroke="none" /><path d="M 85.08716467003674 85.21462403516908 l -12.657490377280268 -12.549307348905025 a38.824061758988165,38.824061758988165 0 0,0 0.4732987382701794,-0.46925347421655844 l 12.440199718880113 12.764740833350258" fill="#ffc011" stroke="none" /><path d="M 85.60350026404147 84.71141617570332 l -10.176177257965929 -10.806747603427441 a35.84386665763768,35.84386665763768 0 0,0 0.45158190469539844,-0.4179774692596794 l 9.989165581956577 10.979842818819487" fill="#ff970d" stroke="none" /><path d="M 85.86807049272753 84.46653392183569 l -9.99879178559676 -10.990423702882723 a35.85817116406335,35.85817116406335 0 0,0 0.45887355552079934,-0.410327562901455 l 9.80865320325257 11.160446795667578" fill="#ff970e" stroke="none" /><path d="M 86.96720088162412 83.53348406188908 l -7.398521640276917 -9.34779040185654 a32.92138028328461,32.92138028328461 0 0,0 0.44614749702400636,-0.3469269921848788 l 7.236964198617666 9.473418445662224" fill="#ff6d0a" stroke="none" /><path d="M 87.54013794807813 83.09580414077388 l -12.342159653643403 -16.744509950561255 a41.80162297515432,41.80162297515432 0 0,0 0.5812794145682331,-0.42080146915718974 l 12.052899228701202 16.953912191091526" fill="#ffe815" stroke="none" /><path d="M 87.83215693770416 82.88440491214696 l -8.606696356779393 -12.106396271924108 a35.85395748178436,35.85395748178436 0 0,0 0.5046955158315504,-0.35231666667946515 l 8.397605749774078 12.252357754408699" fill="#ff970d" stroke="none" /><path d="M 89.03521579738668 82.08984904055464 l -9.296377782373341 -15.184934457593544 a38.804630699736975,38.804630699736975 0 0,0 0.5711066782464033,-0.3429331510592894 l 9.034338347569502 15.342281609188756" fill="#ffc011" stroke="none" /><line stroke="#e1ed5e" stroke-width="0.3" x1="56.869717070023135" x2="54.33264160355391" y1="26.7553504044142" y2="22.446841604673864" /><path d="M 56.362301976729285 25.89364864446614 a86.0,86.0 0 0,1 42.16139366436587,-11.88097634709845" fill="none" id="id12" stroke="none" /><text fill="#e1ed5e" style="font-size:6.75px; font-family:Arial;" text-anchor="middle"><textPath startOffset="22.145653131862474" xlink:href="#id12">December</textPath></text><path d="M 89.34428304082924 81.90426304109057 l -9.03817510019522 -15.348797253941466 a38.812192068479106,38.812192068479106 0 0,0 0.5770218429822871,-0.33314371637411566 l 8.773360789352534 15.501687867591757" fill="#ffc011" stroke="none" /><path d="M 89.65649057296885 81.72400993836675 l -7.308184735257377 -12.912862170463551 a35.83750563801199,35.83750563801199 0 0,0 0.5379991397319867,-0.2984190537651118 l 7.085441407369288 13.036414139661808" fill="#ff970d" stroke="none" /><path d="M 90.28995756902619 81.37971332152246 l -7.865554215171621 -15.083237319789406 a38.01090800506816,38.01090800506816 0 0,0 0.5811556113512699,-0.2967421960536356 l 7.605471382106769 15.216037467515877" fill="#ffb510" stroke="none" /><path d="M 91.26138138417902 80.90454125486306 l -14.262863489341306 -31.166930761247045 a55.27545547460971,55.27545547460971 0 0,0 0.866210073702146,-0.38744474821963754 l 13.725740012783541 31.407179260376527" fill="#72ff27" stroke="none" /><path d="M 91.92203290615298 80.6158196554323 l -6.858292747423144 -16.457405920005897 a38.82925654718115,38.82925654718115 0 0,0 0.6174693809153815,-0.2511194217456756 l 6.574768905317321 16.572712598330863" fill="#ffc011" stroke="none" /><path d="M 92.25597844496254 80.48000691201159 l -5.475305224007315 -13.801345898595251 a35.84776467717325,35.84776467717325 0 0,0 0.5739529910509684,-0.22201734685306435 l 5.237579970462816 13.893303133586356" fill="#ff970d" stroke="none" /><path d="M 93.61358852112211 79.99465700312896 l -9.961911907113663 -31.205547162995906 a53.7570734740919,53.7570734740919 0 0,0 0.8815119904863007,-0.2730946679878655 l 9.424759283755746 31.371958418790413" fill="#83ff25" stroke="none" /><path d="M 94.30408787586887 79.78721728523814 l -6.454971929177 -22.90641818043227 a44.798543158422554,44.798543158422554 0 0,0 0.7419888819776149,-0.20223236926099467 l 6.060801646264707 23.013851043837402" fill="#efff19" stroke="none" /><path d="M 94.6519064749342 79.69241777938228 l -3.8333213259712067 -14.555745452160872 a36.05204564357442,36.05204564357442 0 0,0 0.5998282817267604,-0.15247400360469418 l 3.582887751019068 14.619404687600829" fill="#ff9a0e" stroke="none" /><path d="M 95.35216902796891 79.52079915486377 l -13.943492916093277 -61.43760253540869 a84.0,84.0 0 0,0 1.4089503335235265,-0.3070741674651436 l 12.886780165950631 61.667908161007546" fill="#4dd2ff" stroke="none" /><path d="M 96.76829788921471 79.25015418208739 l -2.28695726293067 -14.683906180460305 a35.86093113633973,35.86093113633973 0 0,0 0.6090806583744789,-0.08951388193664447 l 2.034551498948506 14.721001135695833" fill="#ff970e" stroke="none" /><path d="M 97.84075906011542 79.11130261209362 l -1.5261478775039157 -14.76409630510202 a35.84276480479081,35.84276480479081 0 0,0 0.612570663710839,-0.058011078740734606 l 1.272477650408061 14.788119139347938" fill="#ff970d" stroke="none" /><path d="M 98.5590905019552 79.04949213459386 l -1.4304808234726274 -20.79887722590606 a41.84801115801305,41.84801115801305 0 0,0 0.7171068174873254,-0.04313936540671982 l 1.073229653852818 20.82036856913747" fill="#ffe915" stroke="none" /><path d="M 98.9189461498227 79.02784411241856 l -0.8707180185505717 -16.891696945692235 a37.91412355320065,37.91412355320065 0 0,0 0.650270981583837,-0.02792543389303865 l 0.5806212763659147 16.904154948011104" fill="#ffb410" stroke="none" /><path d="M 99.27912038922189 79.0123766808444 l -0.5199705393434955 -15.13837491536221 a36.147302216561634,36.147302216561634 0 0,0 0.6203336405290428,-0.015977594105117444 l 0.26002358474370874 15.145070226817372" fill="#ff9b0e" stroke="none" /></svg>