<?xml version="1.0" encoding="utf-8" ?>
<svg baseProfile="full" height="200mm" version="1.1" viewBox="0,0,200,200" width="200mm" xmlns="http://www.w3.org/2000/svg" xmlns:ev="http://www.w3.org/2001/xml-events" xmlns:xlink="http://www.w3.org/1999/xlink"><defs /><rect fill="#1a1a1a" height="200" width="200" x="0" y="0" /><text alignment-baseline="middle" fill="#e1ed5e" style="dominant-baseline: central; font-size:9.0px; font-family:Arial;" text-anchor="middle" x="100.0" y="100.0">2026</text><line stroke="#e1ed5e" stroke-width="0.3" x1="100.0" x2="100.0" y1="15.0" y2="10.0" /><path d="M 100.0 14.0 a86.0,86.0 0 0,1 42.46469731375804,11.215312516191453" fill="none" id="id73" stroke="none" /><text fill="#e1ed5e" style="font-size:6.75px; font-family:Arial;" text-anchor="middle"><textPath startOffset="22.20632615414155" xlink:href="#id73">January</textPath></text><path d="M 100.0 79.0 l 0.0 -16.049501376864285 a37.049501376864285,37.049501376864285 0 0,0 0.6377462625960525,0.005489283425845007 l -0.2762657833235241 16.047123470046998" fill="#ffa90f" stroke="none" /><path d="M 100.72285384407766 79.0124445844662 l 2.0172281633419895 -58.56880780365192 a79.60353621586412,79.60353621586412 0 0,0 1.369026041837485,0.058953141184299285 l -3.025095037568806 58.52540693594343" fill="#47fdff" stroke="none" /><path d="M 101.44485096284872 79.0497635885617 l 1.1380512308827007 -16.501662073375627 a37.54085885883793,37.54085885883793 0 0,0 0.6442901824994692,0.05000931827599286 l -1.421931602744511 16.479627492911167" fill="#ffb010" stroke="none" /><path d="M 102.16513564639614 79.11191278185805 l 1.6909300872194037 -16.31320199286816 a37.40060376388569,37.40060376388569 0 0,0 0.639787722896535,0.07188760526443352 l -1.9714845136256638 16.281678434133124" fill="#ffae10" stroke="none" /><path d="M 102.52436894288641 79.15227682838746 l 2.16267988075313 -17.860682207254573 a38.99114096368417,38.99114096368417 0 0,0 0.6656071311502458,0.08641490867587524 l -2.4698017404112216 17.82080897541456" fill="#ffc412" stroke="none" /><path d="M 103.2404852339499 79.25152402106235 l 2.006444922139518 -12.847049520212932 a34.00278826253749,34.00278826253749 0 0,0 0.5775143563376659,0.09529481712966659 l -2.2272884846160594 12.81060844014364" fill="#ff7e0b" stroke="none" /><path d="M 103.59715602781102 79.31037775812273 l 5.390322978346814 -31.003310760354125 a52.46841050822211,52.46841050822211 0 0,0 0.888477274509505,0.16236354291279362 l -5.92319537395922 30.905931736090594" fill="#91ff23" stroke="none" /><path d="M 104.307194497241 79.44645832069477 l 3.8353774303030113 -18.302073407665908 a39.69962596022897,39.69962596022897 0 0,0 0.667629131249445,0.14591786927487813 l -4.149849285705984 18.23334204029516" fill="#ffcd13" stroke="none" /><path d="M 104.66035177308747 79.52364482259891 l 3.993008672058562 -17.54422579593094 a38.992886845466,38.992886845466 0 0,0 0.6531797128183594,0.15458653463398067 l -4.294412071839445 17.47289334915609" fill="#ffc412" stroke="none" /><path d="M 105.01212808612495 79.60689891045804 l 4.161338240889033 -16.931449068341138 a38.43532917695893,38.43532917695893 0 0,0 0.6411216271978012,0.16343617794122509 l -4.452168756771859 16.857309894231044" fill="#ffbc11" stroke="none" /><path d="M 105.36241919743992 79.69619591428918 l 1.1504490419386653 -4.355961572207551 a25.505322875959777,25.505322875959777 0 0,0 0.42351237727990226,0.11576193098333293 l -1.2252593084422785 4.335513100397925" fill="#ff0000" stroke="none" /><path d="M 106.0581310904928 79.89281104454417 l 8.444771969037845 -28.028549255669628 a50.273089126133335,50.273089126133335 0 0,0 0.8264288440647125,0.2567754647003849 l -8.925986185813276 27.879033656086722" fill="#abff21" stroke="none" /><path d="M 106.74666289553966 80.11325718540242 l 6.241055578513954 -18.39639375839733 a40.42622140427984,40.42622140427984 0 0,0 0.6570569939525327,0.22923428353776612 l -6.55679457652976 18.286238621687357" fill="#ffd714" stroke="none" /><path d="M 107.08798089147638 80.2323363322302 l 5.593826189569001 -15.600616935118435 a37.57317532024,37.57317532024 0 0,0 0.6069278640700496,0.2235366544119445 l -5.8615363794116275 15.502017012900165" fill="#ffb010" stroke="none" /><path d="M 107.4271985657038 80.35727306442388 l 7.708332179381332 -20.386241567240763 a42.79489000260338,42.79489000260338 0 0,0 0.6867903991840373,0.2664640049543756 l -8.058105743565037 20.250534858395838" fill="#fff617" stroke="none" /><path d="M 108.43124777332544 80.76684994638697 l 15.23602463871722 -34.756035639718206 a58.94889273985422,58.94889273985422 0 0,0 0.9258285201041772,0.4153922697171466 l -15.832035277288178 34.48862303948453" fill="#4aff2c" stroke="none" /><path d="M 109.08828744355905 81.06846463323043 l 8.249215016775997 -17.18368909522779 a40.06118357590769,40.06118357590769 0 0,0 0.619095483235801,0.30378746492164377 l -8.543781767022232 17.039146470171314" fill="#ffd213" stroke="none" /><path d="M 109.73455568895987 81.39251694778311 l 6.330443009332917 -12.1005636798379 a34.65643255261872,34.65643255261872 0 0,0 0.5262083423361887,0.28108227272705166 l -6.537796398197417 11.989802680609095" fill="#ff880c" stroke="none" /><path d="M 110.05341064243156 81.56283822128135 l 2.2200023585656457 -4.071309139732122 a25.637237171344953,25.637237171344953 0 0,0 0.38562788786547,0.21460150208667858 l -2.289754335503151 4.032492240085263" fill="#ff0200" stroke="none" /><path d="M 110.36928655335952 81.73862282372117 l 8.873379148450924 -15.626930804172945 a38.97047088616692,38.97047088616692 0 0,0 0.5804805062170384,0.3362517766250266 l -9.141056387133291 15.471874870157869" fill="#ffc312" stroke="none" /><line stroke="#e1ed5e" stroke-width="0.3" x1="143.23703022742887" x2="145.7803849466894" y1="26.81831364943548" y2="22.513508569990506" /><path d="M 143.74570117128098 25.957352633546492 a86.0,86.0 0 0,1 28.547481713284135,27.462654790039103" fill="none" id="id74" stroke="none" /><text fill="#e1ed5e" style="font-size:6.75px; font-family:Arial;" text-anchor="middle"><textPath startOffset="19.985693538727396" xlink:href="#id74">February</textPath></text><path d="M 110.68208982089419 81.91981866633111 l 20.094917350564568 -34.012047799171484 a60.50474780098143,60.50474780098143 0 0,0 0.8921221472913728,0.5374936117202151 l -20.67740156407358 33.66110757799265" fill="#39ff2e" stroke="none" /><path d="M 111.60114157652 82.49532879139004 l 8.392177270774276 -12.662745547954914 a36.19123971755934,36.19123971755934 0 0,0 0.5163202629994424,0.3486217463812142 l -8.608902228180261 12.51641188927503" fill="#ff9d0e" stroke="none" /><path d="M 111.90073688211348 82.69761687909136 l 5.636659607691671 -8.19509287706492 a30.946430455027723,30.946430455027723 0 0,0 0.43629878089399315,0.3056551780345004 l -5.776889528169315 8.096852856266484" fill="#ff5207" stroke="none" /><path d="M 112.48926042617603 83.11751280151076 l 8.225220412244916 -11.118526924415663 a34.83025277422529,34.83025277422529 0 0,0 0.4789223549583479,0.36071438865294947 l -8.415388920961647 10.975295946256866" fill="#ff8a0c" stroke="none" /><path d="M 112.77801427241765 83.33499621200491 l 19.818565097020635 -25.847244757536707 a53.57077806962636,53.57077806962636 0 0,0 0.7269489402201261,0.5673951785148322 l -20.26054659240019 25.50227118979865" fill="#85ff25" stroke="none" /><path d="M 113.34407831869373 83.78471172551755 l 14.953462903857908 -18.170959874250173 a44.53273965284672,44.53273965284672 0 0,0 0.5877101501594438,0.4921903491194329 l -15.26403059097647 17.91086836773692" fill="#f2ff19" stroke="none" /><path d="M 113.6212207817346 84.01681056812373 l 11.121583751442875 -13.050106354648761 a38.14627950921138,38.14627950921138 0 0,0 0.4960945472628332,0.43020830278948274 l -11.344572097352472 12.856733058439607" fill="#ffb811" stroke="none" /><path d="M 114.16331599549186 84.49514656593476 l 10.979067681049251 -12.018995784005279 a37.27870347420202,37.27870347420202 0 0,0 0.4700527039199214,0.43686276009926106 l -11.18432826876402 11.828228437831378" fill="#ffac0f" stroke="none" /><path d="M 114.68862486808459 84.99185889309783 l 21.44680449838902 -21.91332892593232 a51.662018978016135,51.662018978016135 0 0,0 0.6301885596782906,0.6274823297297671 l -21.820828858234634 21.540910745552434" fill="#9bff22" stroke="none" /><path d="M 115.19652480421416 85.50635884689758 l 11.89382953041764 -11.343705180689843 a37.43602227198066,37.43602227198066 0 0,0 0.44073371624167496,0.47014399921693273 l -12.08733056862978 11.137291764594856" fill="#ffae10" stroke="none" /><path d="M 115.68641384162765 86.03803664274999 l 12.114112479763646 -10.782374879031952 a37.21762403079886,37.21762403079886 0 0,0 0.4218141589347967,0.4822065016127482 l -12.297918502276291 10.572252821216257" fill="#ffab0f" stroke="none" /><path d="M 115.9244219780498 86.31012108654704 l 12.575115360068555 -10.810552925521232 a37.583171616868945,37.583171616868945 0 0,0 0.41751214522417834,0.4942026898357971 l -12.759338118779851 10.592491286056328" fill="#ffb010" stroke="none" /><path d="M 116.38621287248628 86.86637796730983 l 23.734309904201627 -19.023154276966384 a51.41706536262083,51.41706536262083 0 0,0 0.547581755056361,0.6953732211237187 l -24.05824573985195 18.611788661889626" fill="#9eff22" stroke="none" /><path d="M 117.04232023915458 87.72973835380427 l 12.902204162298545 -9.289428825560686 a36.898438921818446,36.898438921818446 0 0,0 0.3666780262819396,0.5186400642307966 l -13.060194808384367 9.065962260998095" fill="#ffa70f" stroke="none" /><path d="M 117.2510076193507 88.02491185347247 l 14.684230064255415 -10.193314689983701 a38.875409840029405,38.875409840029405 0 0,0 0.37686106335861747,0.5529971082660322 l -14.857515593282766 9.939039558447263" fill="#ffc212" stroke="none" /><line stroke="#e1ed5e" stroke-width="0.3" x1="172.23445277983987" x2="176.4835382374775" y1="55.19839476539836" y2="52.563006222186495" /><path d="M 173.08426987136738 54.67131705675599 a86.0,86.0 0 0,1 12.851231095245387,41.99856678651699" fill="none" id="id75" stroke="none" /><text fill="#e1ed5e" style="font-size:6.75px; font-family:Arial;" text-anchor="middle"><textPath startOffset="22.20632615414155" xlink:href="#id75">March</textPath></text><path d="M 117.84615892207809 88.93136811851018 l 34.519716442098755 -21.409987192163296 a61.62017201848731,61.62017201848731 0 0,0 0.5513074680551928,0.906204520944387 l -34.88313970844017 20.812614898011827" fill="#30ff31" stroke="none" /><path d="M 118.56541770881063 90.18545643968196 l 16.821755349197414 -8.892762512817596 a40.027681890803876,40.027681890803876 0 0,0 0.31677253060567817,0.6119037024587458 l -16.97233731296321 8.601886088098505" fill="#ffd213" stroke="none" /><path d="M 118.89224826269711 90.83032412892265 l 12.202531813312222 -5.922707555961818 a34.563931857995456,34.563931857995456 0 0,0 0.25518354396162285,0.5374816235005698 l -12.3026735511156 5.7117835168207085" fill="#ff860c" stroke="none" /><path d="M 119.04729006885535 91.15688171328212 l 25.861859762847804 -12.006930338679746 a49.513192850873686,49.513192850873686 0 0,0 0.35224553769845246,0.7761263504031495 l -26.0647076175096 11.559981979434534" fill="#b4ff20" stroke="none" /><path d="M 119.34039704204932 91.81776055985345 l 17.4644453272373 -7.388590474441597 a39.96307253023807,39.96307253023807 0 0,0 0.26257320640794246,0.6358418464367428 l -17.589040220531437 7.086874057551551" fill="#ffd113" stroke="none" /><path d="M 119.61058180528143 92.48833698450437 l 15.30880437552162 -5.8639045379109405 a37.393439780525696,37.393439780525696 0 0,0 0.22506472420948767,0.6030615657405228 l -15.407473688232733 5.599519835141084" fill="#ffae10" stroke="none" /><path d="M 119.97218684219823 93.5106431181261 l 59.91656052659467 -19.46807064562169 a84.0,84.0 0 0,0 0.4349780649271753,1.3789993342943234 l -60.24279407529006 18.433821144900946" fill="#4dd2ff" stroke="none" /><path d="M 120.18372546131832 94.20196356495316 l 13.353333894243896 -3.835918031909018 a34.893372277409384,34.893372277409384 0 0,0 0.1608638121907686,0.5787127214198187 l -13.417384477001027 3.6054940070702473" fill="#ff8b0c" stroke="none" /><path d="M 120.6074358757038 95.95851677861258 l 28.792816308212345 -5.646781322431574 a50.34130893913598,50.34130893913598 0 0,0 0.15944836769127424,0.8517795559668986 l -28.885750399813478 5.1503236890021125" fill="#aaff21" stroke="none" /><path d="M 120.73433829027371 96.67025291283417 l 16.81955979087686 -2.701069088245518 a38.035062834587876,38.035062834587876 0 0,0 0.09824657149725281,0.6473221532049827 l -16.863562255813413 2.411147822648453" fill="#ffb710" stroke="none" /><path d="M 120.83666639777658 97.38593545837742 l 16.171123252232835 -2.0287487012020784 a37.29788478703708,37.29788478703708 0 0,0 0.07443529453035883,0.6377161466678037 l -16.203648899766783 1.7500888162094217" fill="#ffad10" stroke="none" /><path d="M 120.94382443527127 98.46500227214037 l 33.94542240218221 -2.487900260032442 a55.03647087708189,55.03647087708189 0 0,0 0.06111514162172606,0.9454241906861474 l -33.983218134808354 1.9032170050932593" fill="#74ff27" stroke="none" /><line stroke="#e1ed5e" stroke-width="0.3" x1="184.98032266829074" x2="189.97916517819016" y1="98.17113171792111" y2="98.06355123074" /><path d="M 185.9800911702706 98.14961562048488 a86.0,86.0 0 0,1 -9.607161424134198,41.387399972396054" fill="none" id="id76" stroke="none" /><text fill="#e1ed5e" style="font-size:6.75px; font-family:Arial;" text-anchor="middle"><textPath startOffset="21.466115282336823" xlink:href="#id76">April</textPath></text><line stroke="#e1ed5e" stroke-width="0.3" x1="174.80103733775053" x2="179.2010983576182" y1="140.37084112569926" y2="142.7455964860345" /><path d="M 175.68104954172406 140.8457921977663 a86.0,86.0 0 0,1 -30.038265399797805,32.042727171017184" fill="none" id="id77" stroke="none" /><text fill="#e1ed5e" style="font-size:6.75px; font-family:Arial;" text-anchor="middle"><textPath startOffset="22.206326154141568" xlink:href="#id77">May</textPath></text><line stroke="#e1ed5e" stroke-width="0.3" x1="143.8653032363475" x2="146.44561519142675" y1="172.8068346515853" y2="177.08958963109032" /><path d="M 144.38136562736335 173.6633856474863 a86.0,86.0 0 0,1 -40.68145358897372,12.25698825130547" fill="none" id="id78" stroke="none" /><text fill="#e1ed5e" style="font-size:6.75px; font-family:Arial;" text-anchor="middle"><textPath startOffset="21.466115282336833" xlink:href="#id78">June</textPath></text><line stroke="#e1ed5e" stroke-width="0.3" x1="102.19456741930631" x2="102.32365962044197" y1="184.97166512339345" y2="189.96999836594603" /><path d="M 102.22038585953345 185.97133177190398 a86.0,86.0 0 0,1 -42.740103519485714,-10.115201625700543" fill="none" id="id79" stroke="none" /><text fill="#e1ed5e" style="font-size:6.75px; font-family:Arial;" text-anchor="middle"><textPath startOffset="22.20632615414155" xlink:href="#id79">July</textPath></text><line stroke="#e1ed5e" stroke-width="0.3" x1="58.666819895761336" x2="56.23545636021788" y1="174.27360380694188" y2="178.64263932499728" /><path d="M 58.180547188652646 175.14741091055294 a86.0,86.0 0 0,1 -31.652253787137756,-30.449443065178592" fill="none" id="id80" stroke="none" /><text fill="#e1ed5e" style="font-size:6.75px; font-family:Arial;" text-anchor="middle"><textPath startOffset="22.20632615414155" xlink:href="#id80">August</textPath></text><line stroke="#e1ed5e" stroke-width="0.3" x1="26.63291911575756" x2="22.317208475507996" y1="142.92168965132927" y2="145.44649492493687" /><path d="M 25.769776987707644 143.4266507060508 a86.0,86.0 0 0,1 -11.730757126820373,-40.83630448921669" fill="none" id="id81" stroke="none" /><text fill="#e1ed5e" style="font-size:6.75px; font-family:Arial;" text-anchor="middle"><textPath startOffset="21.46611528233685" xlink:href="#id81">September</textPath></text><line stroke="#e1ed5e" stroke-width="0.3" x1="15.007084014347285" x2="10.007500721073583" y1="101.09737516637583" y2="101.16192664675087" /><path d="M 14.007167355692545 101.11028546245083 a86.0,86.0 0 0,1 10.666146001902534,-42.60595125391555" fill="none" id="id82" stroke="none" /><text fill="#e1ed5e" style="font-size:6.75px; font-family:Arial;" text-anchor="middle"><textPath startOffset="22.20632615414155" xlink:href="#id82">October</textPath></text><line stroke="#e1ed5e" stroke-width="0.3" x1="26.266209847984243" x2="21.928928074336255" y1="57.711370442889674" y2="55.22380399835377" /><path d="M 25.398753493254645 57.213857153982495 a86.0,86.0 0 0,1 29.58750427330803,-30.492523968695096" fill="none" id="id83" stroke="none" /><text fill="#e1ed5e" style="font-size:6.75px; font-family:Arial;" text-anchor="middle"><textPath startOffset="21.46611528233685" xlink:href="#id83">November</textPath></text><line stroke="#e1ed5e" stroke-width="0.3" x1="56.762969772571076" x2="54.21961505331055" y1="26.818313649435495" y2="22.513508569990535" /><path d="M 56.25429882871897 25.957352633546506 a86.0,86.0 0 0,1 42.265352541879196,-11.944610805530505" fill="none" id="id84" stroke="none" /><text fill="#e1ed5e" style="font-size:6.75px; font-family:Arial;" text-anchor="middle"><textPath startOffset="22.20632615414155" xlink:href="#id84">December</textPath></text></svg>