<?xml version="1.0" encoding="utf-8" ?>
<svg baseProfile="full" height="200mm" version="1.1" viewBox="0,0,200,200" width="200mm" xmlns="http://www.w3.org/2000/svg" xmlns:ev="http://www.w3.org/2001/xml-events" xmlns:xlink="http://www.w3.org/1999/xlink"><defs /><rect fill="#1a1a1a" height="200" width="200" x="0" y="0" /><text alignment-baseline="middle" fill="#e1ed5e" style="dominant-baseline: central; font-size:9.0px; font-family:Arial;" text-anchor="middle" x="100.0" y="100.0">2022</text><line stroke="#e1ed5e" stroke-width="0.3" x1="100.0" x2="100.0" y1="15.0" y2="10.0" /><path d="M 100.0 14.0 a86.0,86.0 0 0,1 42.46469731375804,11.215312516191453" fill="none" id="id25" stroke="none" /><text fill="#e1ed5e" style="font-size:6.75px; font-family:Arial;" text-anchor="middle"><textPath startOffset="22.20632615414155" xlink:href="#id25">January</textPath></text><line stroke="#e1ed5e" stroke-width="0.3" x1="143.23703022742887" x2="145.7803849466894" y1="26.81831364943548" y2="22.513508569990506" /><path d="M 143.74570117128098 25.957352633546492 a86.0,86.0 0 0,1 28.547481713284135,27.462654790039103" fill="none" id="id26" stroke="none" /><text fill="#e1ed5e" style="font-size:6.75px; font-family:Arial;" text-anchor="middle"><textPath startOffset="19.985693538727396" xlink:href="#id26">February</textPath></text><line stroke="#e1ed5e" stroke-width="0.3" x1="172.23445277983987" x2="176.4835382374775" y1="55.19839476539836" y2="52.563006222186495" /><path d="M 173.08426987136738 54.67131705675599 a86.0,86.0 0 0,1 12.851231095245387,41.99856678651699" fill="none" id="id27" stroke="none" /><text fill="#e1ed5e" style="font-size:6.75px; font-family:Arial;" text-anchor="middle"><textPath startOffset="22.20632615414155" xlink:href="#id27">March</textPath></text><line stroke="#e1ed5e" stroke-width="0.3" x1="184.98032266829074" x2="189.97916517819016" y1="98.17113171792111" y2="98.06355123074" /><path d="M 185.9800911702706 98.14961562048488 a86.0,86.0 0 0,1 -9.607161424134198,41.387399972396054" fill="none" id="id28" stroke="none" /><text fill="#e1ed5e" style="font-size:6.75px; font-family:Arial;" text-anchor="middle"><textPath startOffset="21.466115282336823" xlink:href="#id28">April</textPath></text><line stroke="#e1ed5e" stroke-width="0.3" x1="174.80103733775053" x2="179.2010983576182" y1="140.37084112569926" y2="142.7455964860345" /><path d="M 175.68104954172406 140.8457921977663 a86.0,86.0 0 0,1 -30.038265399797805,32.042727171017184" fill="none" id="id29" stroke="none" /><text fill="#e1ed5e" style="font-size:6.75px; font-family:Arial;" text-anchor="middle"><textPath startOffset="22.206326154141568" xlink:href="#id29">May</textPath></text><path d="M 112.04921762599082 117.19931262002967 l 22.533799726980405 32.16523081012949 a60.27307224046224,60.27307224046224 0 0,0 -0.8548533147356803,0.587975904843893 l -21.976789527621843 -32.54834750433848" fill="#f8ff18" stroke="none" /><line stroke="#e1ed5e" stroke-width="0.3" x1="143.8653032363475" x2="146.44561519142675" y1="172.8068346515853" y2="177.08958963109032" /><path d="M 144.38136562736335 173.6633856474863 a86.0,86.0 0 0,1 -40.68145358897372,12.25698825130547" fill="none" id="id30" stroke="none" /><text fill="#e1ed5e" style="font-size:6.75px; font-family:Arial;" text-anchor="middle"><textPath startOffset="21.466115282336833" xlink:href="#id30">June</textPath></text><path d="M 102.34483914955558 120.86867818915974 l 4.409080826861159 39.240085573971506 a60.48701444260381,60.48701444260381 0 0,0 -1.0356742248669744,0.10735186802388126 l -3.732974005388582 -39.31016681045115" fill="#f4ff19" stroke="none" /><line stroke="#e1ed5e" stroke-width="0.3" x1="102.19456741930631" x2="102.32365962044197" y1="184.97166512339345" y2="189.96999836594603" /><path d="M 102.22038585953345 185.97133177190398 a86.0,86.0 0 0,1 -42.740103519485714,-10.115201625700543" fill="none" id="id31" stroke="none" /><text fill="#e1ed5e" style="font-size:6.75px; font-family:Arial;" text-anchor="middle"><textPath startOffset="22.20632615414155" xlink:href="#id31">July</textPath></text><path d="M 94.81253420990036 120.34920634021253 l -6.992223172056953 27.42884442275412 a49.30605396828565,49.30605396828565 0 0,0 -0.8206160518651586,-0.2167321577608206 l 7.463329666733601 -27.304420915689718" fill="#ff0000" stroke="none" /><line stroke="#e1ed5e" stroke-width="0.3" x1="58.666819895761336" x2="56.23545636021788" y1="174.27360380694188" y2="178.64263932499728" /><path d="M 58.180547188652646 175.14741091055294 a86.0,86.0 0 0,1 -31.652253787137756,-30.449443065178592" fill="none" id="id32" stroke="none" /><text fill="#e1ed5e" style="font-size:6.75px; font-family:Arial;" text-anchor="middle"><textPath startOffset="22.20632615414155" xlink:href="#id32">August</textPath></text><path d="M 82.05923443525364 110.91462005526583 l -33.58670137486648 20.43313497929455 a60.313859061742185,60.313859061742185 0 0,0 -0.5319657218417214,-0.8916051484178784 l 33.933447972406434 -19.85196773699056" fill="#f8ff18" stroke="none" /><line stroke="#e1ed5e" stroke-width="0.3" x1="26.63291911575756" x2="22.317208475507996" y1="142.92168965132927" y2="145.44649492493687" /><path d="M 25.769776987707644 143.4266507060508 a86.0,86.0 0 0,1 -11.730757126820373,-40.83630448921669" fill="none" id="id33" stroke="none" /><text fill="#e1ed5e" style="font-size:6.75px; font-family:Arial;" text-anchor="middle"><textPath startOffset="21.46611528233685" xlink:href="#id33">September</textPath></text><path d="M 81.69416730710424 110.29060199501025 l -54.91749807868727 30.871805985030743 a84.0,84.0 0 0,0 -0.6976943621939338,-1.2665179264087099 l 55.44076885033272 -29.92191754022421" fill="#4dd2ff" stroke="none" /><path d="M 81.18737489456691 109.33194174019688 l -35.256775685613384 17.48900936479698 a60.356139042182676,60.356139042182676 0 0,0 -0.4536676186246548,-0.9346896662767936 l 35.552596560852756 -16.879530742554902" fill="#f7ff19" stroke="none" /><path d="M 80.87730276802145 108.67885076344099 l -35.856345425623495 16.273429793730973 a60.37641457183629,60.37641457183629 0 0,0 -0.42136675368870824,-0.9500707919938067 l 36.13115326404348 -15.653810665244471" fill="#f6ff19" stroke="none" /><path d="M 80.58989483394504 108.01547362559985 l -52.70761109921946 21.765799979951087 a78.02492715079785,78.02492715079785 0 0,0 -0.5019506514681216,-1.2458003522705514 l 53.07446436494497 -20.85530025983773" fill="#40ffc4" stroke="none" /><path d="M 79.97269907076064 106.31721596034903 l -37.50479690218588 11.83014637954691 a60.326354446296165,60.326354446296165 0 0,0 -0.30385301012970944,-0.9930092179214013 l 37.70287668482172 -11.18281018907346" fill="#f7ff18" stroke="none" /><path d="M 79.86692584326677 105.97154293290107 l -37.72080833499076 11.188128781654434 a60.34505822946501,60.34505822946501 0 0,0 -0.2868038637541623,-0.9984018748603561 l 37.907804835631026 -10.537169431289481" fill="#f7ff19" stroke="none" /><path d="M 79.35854240842038 103.8639653848113 l -38.69639884766503 7.243749381595245 a60.36855583941241,60.36855583941241 0 0,0 -0.1824095066121934,-1.0230493842172304 l 38.81535479661641 -6.5765812466448015" fill="#f6ff19" stroke="none" /><path d="M 79.07016306316243 101.71520430193888 l -39.28323323275443 3.2192687806515465 a60.41492236071333,60.41492236071333 0 0,0 -0.07601762651414493,-1.0372001174999856 l 39.332827417932904 -2.5425955266548" fill="#f5ff19" stroke="none" /><path d="M 79.0235259727143 100.99374915477108 l -39.38403281648574 1.865797334287428 a60.428203618509684,60.428203618509684 0 0,0 -0.04027933172821342,-1.0394305747179442 l 39.410314281065155 -1.187589512555487" fill="#f5ff19" stroke="none" /><line stroke="#e1ed5e" stroke-width="0.3" x1="15.007084014347285" x2="10.007500721073583" y1="101.09737516637583" y2="101.16192664675087" /><path d="M 14.007167355692545 101.11028546245083 a86.0,86.0 0 0,1 10.666146001902534,-42.60595125391555" fill="none" id="id34" stroke="none" /><text fill="#e1ed5e" style="font-size:6.75px; font-family:Arial;" text-anchor="middle"><textPath startOffset="22.20632615414155" xlink:href="#id34">October</textPath></text><line stroke="#e1ed5e" stroke-width="0.3" x1="26.266209847984243" x2="21.928928074336255" y1="57.711370442889674" y2="55.22380399835377" /><path d="M 25.398753493254645 57.213857153982495 a86.0,86.0 0 0,1 29.58750427330803,-30.492523968695096" fill="none" id="id35" stroke="none" /><text fill="#e1ed5e" style="font-size:6.75px; font-family:Arial;" text-anchor="middle"><textPath startOffset="21.46611528233685" xlink:href="#id35">November</textPath></text><line stroke="#e1ed5e" stroke-width="0.3" x1="56.762969772571076" x2="54.21961505331055" y1="26.818313649435495" y2="22.513508569990535" /><path d="M 56.25429882871897 25.957352633546506 a86.0,86.0 0 0,1 42.265352541879196,-11.944610805530505" fill="none" id="id36" stroke="none" /><text fill="#e1ed5e" style="font-size:6.75px; font-family:Arial;" text-anchor="middle"><textPath startOffset="22.20632615414155" xlink:href="#id36">December</textPath></text></svg>