<?xml version="1.0" encoding="utf-8" ?>
<svg baseProfile="full" height="200mm" version="1.1" viewBox="0,0,200,200" width="200mm" xmlns="http://www.w3.org/2000/svg" xmlns:ev="http://www.w3.org/2001/xml-events" xmlns:xlink="http://www.w3.org/1999/xlink"><defs /><rect fill="#1a1a1a" height="200" width="200" x="0" y="0" /><text alignment-baseline="middle" fill="#e1ed5e" style="dominant-baseline: central; font-size:9.0px; font-family:Arial;" text-anchor="middle" x="100.0" y="100.0">2025</text><line stroke="#e1ed5e" stroke-width="0.3" x1="100.0" x2="100.0" y1="15.0" y2="10.0" /><path d="M 100.0 14.0 a86.0,86.0 0 0,1 42.46469731375804,11.215312516191453" fill="none" id="id61" stroke="none" /><text fill="#e1ed5e" style="font-size:6.75px; font-family:Arial;" text-anchor="middle"><textPath startOffset="22.20632615414155" xlink:href="#id61">January</textPath></text><path d="M 100.36148047927253 79.00311137660856 l 0.42541758124072426 -24.710727366856492 a45.71438907028735,45.71438907028735 0 0,0 0.7866648856352715,0.020317233108477828 l -0.8507091020708635 24.699743341605654" fill="#ff860c" stroke="none" /><path d="M 100.72285384407766 79.0124445844662 l 0.7139345386290198 -20.728589624724076 a41.74088065525825,41.74088065525825 0 0,0 0.7178619863233011,0.030912647193882127 l -1.0706373573416523 20.713229251006" fill="#ff3c05" stroke="none" /><path d="M 101.44485096284872 79.0497635885617 l 3.0647555980460415 -44.43873864730667 a65.54429502685369,65.54429502685369 0 0,0 1.1248955694765324,0.0873135461151505 l -3.829241356884915 44.37939983900306" fill="#3dff2e" stroke="none" /><path d="M 102.16513564639614 79.11191278185805 l 2.621594938762958 -25.29176581738347 a46.427272330793066,46.427272330793066 0 0,0 0.7942010517353578,0.0892377419330104 l -3.0565626940080413 25.24289212197986" fill="#ff930d" stroke="none" /><path d="M 102.52436894288641 79.15227682838746 l 2.882653576586708 -23.80664836401561 a44.980537899940764,44.980537899940764 0 0,0 0.767850492424923,0.09968903137344497 l -3.2920187975194772 23.75350100947803" fill="#ff790b" stroke="none" /><path d="M 102.88285421437855 79.19881850522331 l 3.454431406121226 -24.925386195941876 a46.163624010790784,46.163624010790784 0 0,0 0.786168758194633,0.1158608388803718 l -3.8829691447445147 24.862230872900536" fill="#ff8e0d" stroke="none" /><path d="M 103.59715602781102 79.31037775812273 l 3.681960950421663 -21.17739141271676 a42.495086496402834,42.495086496402834 0 0,0 0.7195933374892897,0.13150108290130805 l -4.045949409013853 21.11087484846471" fill="#ff4a06" stroke="none" /><path d="M 103.95276090670814 79.375362276772 l 9.209345017698444 -48.05233838856886 a69.92687666574002,69.92687666574002 0 0,0 1.1802111414946537,0.23673925213386138 l -10.035122568660222 47.88669518035779" fill="#35ff66" stroke="none" /><path d="M 104.66035177308747 79.52364482259891 l 5.7256780084444845 -25.157117368132024 a46.80046400610568,46.80046400610568 0 0,0 0.7839664131671896,0.18553952105773508 l -6.157868108574198 25.054831934933418" fill="#ff9a0e" stroke="none" /><path d="M 105.01212808612495 79.60689891045804 l 5.8493527960548155 -23.799559953098726 a45.5078351164246,45.5078351164246 0 0,0 0.7590947684033817,0.19351015841609037 l -6.258156453143222 23.695346798513768" fill="#ff820c" stroke="none" /><path d="M 105.36241919743992 79.69619591428918 l 8.36847049944977 -31.685658890486668 a53.77212653802676,53.77212653802676 0 0,0 0.8928787630828403,0.2440574946412184 l -8.912647151756321 31.536914855019155" fill="#ecff1a" stroke="none" /><path d="M 106.0581310904928 79.89281104454417 l 7.192865426746472 -23.87341939393262 a45.93346078276906,45.93346078276906 0 0,0 0.7550905973443077,0.23461032418756383 l -7.602741396801497 23.746068934862535" fill="#ff8a0c" stroke="none" /><path d="M 106.40334571778207 80.00007090966166 l 14.092502331377432 -44.015903522166944 a67.21686255937963,67.21686255937963 0 0,0 1.098890645314549,0.3622869685749983 l -14.8480757989344 43.76680282933271" fill="#30ff3a" stroke="none" /><path d="M 107.08798089147638 80.2323363322302 l 9.044883047389575 -25.225266367481378 a47.79783522322918,47.79783522322918 0 0,0 0.7720890713109251,0.284366920891524 l -9.477754444473076 25.065836178783528" fill="#ffac0f" stroke="none" /><path d="M 107.4271985657038 80.35727306442388 l 9.371992594593824 -24.78612760239344 a47.498799344786384,47.498799344786384 0 0,0 0.7622807153093236,0.2957530747985588 l -9.797256474902815 24.62113182370433" fill="#ffa60f" stroke="none" /><path d="M 108.09893153111575 80.62456947434976 l 9.660406549912956 -23.111015970225015 a46.048802643751195,46.048802643751195 0 0,0 0.7287030977536568,0.3119926369952955 l -10.056793405456927 22.94130380526693" fill="#ff8c0c" stroke="none" /><path d="M 108.43124777332544 80.76684994638697 l 21.042621012434882 -48.00189703046095 a73.41158285718856,73.41158285718856 0 0,0 1.1529739399027794,0.5173057984507163 l -21.86577707080444 47.63257090149371" fill="#3bff9b" stroke="none" /><path d="M 108.76106565485865 80.91482961587045 l 10.572243624655258 -23.03065390306431 a46.34133687203173,46.34133687203173 0 0,0 0.7220902448587675,0.3390310521342889 l -10.967112080813623 22.845257868290016" fill="#ff920d" stroke="none" /><path d="M 109.08828744355905 81.06846463323043 l 11.401394142660742 -23.74989763282993 a47.344817819947046,47.344817819947046 0 0,0 0.7316549400347307,0.3590199015325248 l -11.808520349705905 23.550122571162575" fill="#ffa40f" stroke="none" /><path d="M 109.73455568895987 81.39251694778311 l 12.438930900909234 -23.776862891530364 a47.83404946928861,47.83404946928861 0 0,0 0.7262916008520229,0.38795982010415847 l -12.84636754828957 23.55922434492445" fill="#ffac10" stroke="none" /><path d="M 110.36928655335952 81.73862282372117 l 12.492458277180088 -22.000500351164554 a46.299872124354245,46.299872124354245 0 0,0 0.6896548231874032,0.399492587728825 l -12.86930983283282 21.78220360604568" fill="#ff910d" stroke="none" /><line stroke="#e1ed5e" stroke-width="0.3" x1="143.23703022742887" x2="145.7803849466894" y1="26.81831364943548" y2="22.513508569990506" /><path d="M 143.74570117128098 25.957352633546492 a86.0,86.0 0 0,1 28.547481713284135,27.462654790039103" fill="none" id="id62" stroke="none" /><text fill="#e1ed5e" style="font-size:6.75px; font-family:Arial;" text-anchor="middle"><textPath startOffset="19.985693538727396" xlink:href="#id62">February</textPath></text><path d="M 110.68208982089419 81.91981866633111 l 10.58932572294929 -17.923171634235583 a41.81763436841426,41.81763436841426 0 0,0 0.6165869476905762,0.371486736945126 l -10.896274736857503 17.738238287831845" fill="#ff3d05" stroke="none" /><path d="M 111.2981086023043 82.29822771554956 l 30.209896083937426 -47.332586368102646 a77.15168344489945,77.15168344489945 0 0,0 1.1133097190503616,0.7241276099949149 l -31.02017282877207 46.80555983394821" fill="#41ffd2" stroke="none" /><path d="M 111.60114157652 82.49532879139004 l 13.873548632787578 -20.93344915341125 a46.11343555001538,46.11343555001538 0 0,0 0.6578747055033854,0.44419993784529216 l -14.231828032697507 20.69153730326729" fill="#ff8d0d" stroke="none" /><path d="M 112.19680574252982 82.90503203632743 l 14.664952559592194 -20.5543073725308 a46.24956207817402,46.24956207817402 0 0,0 0.6440905260165807,0.4679591590363864 l -15.016588401962563 20.29882897867774" fill="#ff900d" stroke="none" /><path d="M 112.48926042617603 83.11751280151076 l 13.970503675492424 -18.884773109832786 a44.490628521961916,44.490628521961916 0 0,0 0.6117542908296901,0.46076064885641427 l -14.293504120080497 18.64149587147052" fill="#ff700a" stroke="none" /><path d="M 113.06298171725822 83.55741782278167 l 34.319430502871334 -43.198411245823564 a76.17178666859277,76.17178666859277 0 0,0 1.0196014456100966,0.8244467938223139 l -35.05793534704593 42.60125835473712" fill="#40ffc4" stroke="none" /><path d="M 113.6212207817346 84.01681056812373 l 16.54860923764087 -19.41819756963286 a46.51319001131431,46.51319001131431 0 0,0 0.6049066969910154,0.5245691267810336 l -16.88040973327865 19.130463449432153" fill="#ff950d" stroke="none" /><path d="M 113.89432698308785 84.25364557470407 l 16.586904679137177 -18.797835995525766 a46.06958406016077,46.06958406016077 0 0,0 0.5901053294383888,0.5298023912435715 l -16.908020996171558 18.5095345955129" fill="#ff8d0d" stroke="none" /><path d="M 114.16331599549186 84.49514656593476 l 19.39715181750349 -21.234433805221297 a49.76022735757845,49.76022735757845 0 0,0 0.6274340907077502,0.5831316070753937 l -19.75979379200609 20.897397612071263" fill="#ffce13" stroke="none" /><path d="M 114.68862486808459 84.99185889309783 l 16.795232022414954 -17.160572509633113 a45.011769354737865,45.011769354737865 0 0,0 0.549066851419498,0.5467089838666319 l -17.088134674001775 16.868927675116364" fill="#ff790b" stroke="none" /><path d="M 114.94478906791727 85.2469230424477 l 40.11932907985059 -39.604677370189705 a77.37456017934119,77.37456017934119 0 0,0 0.927521041780693,0.9558919649563558 l -40.79511438533439 38.908221209683234" fill="#42ffd5" stroke="none" /><path d="M 115.4437574822437 85.77008943001954 l 18.373738503607495 -16.92960123487749 a45.98410824045786,45.98410824045786 0 0,0 0.5313493473879837,0.5867292206155259 l -18.662431491611514 16.61081922699242" fill="#ff8b0c" stroke="none" /><path d="M 115.68641384162765 86.03803664274999 l 19.36114281694078 -17.232719300523218 a46.919499718717624,46.919499718717624 0 0,0 0.5317725090434122,0.6079079040096778 l -19.65490718956204 16.89689584031059" fill="#ff9c0e" stroke="none" /><path d="M 115.9244219780498 86.31012108654704 l 19.033660973794515 -16.362823992615194 a46.100244203566064,46.100244203566064 0 0,0 0.5121284613497147,0.6061985646060678 l -19.312500048631346 16.03276647838002" fill="#ff8d0d" stroke="none" /><path d="M 116.38621287248628 86.86637796730983 l 16.36329886233617 -13.115256352291246 a41.97063420224691,41.97063420224691 0 0,0 0.4469790987721871,0.5676180640025178 l -16.58663204170232 12.831645894335688" fill="#ff4006" stroke="none" /><path d="M 116.60985879189232 87.15038557335679 l 45.29879328214469 -35.04376737699291 a78.27168851004194,78.27168851004194 0 0,0 0.8152334036395229,1.0727515986041738 l -45.89530262600833 34.258831002507705" fill="#43ffe1" stroke="none" /><path d="M 117.04232023915458 87.72973835380427 l 21.746707173891682 -15.65736256696992 a47.79687062812639,47.79687062812639 0 0,0 0.47498112918840163,0.6718271226901233 l -22.01300092288397 15.280708943948005" fill="#ffac0f" stroke="none" /><path d="M 117.2510076193507 88.02491185347247 l 21.1230295495378 -14.662919775983587 a46.71349050027199,46.71349050027199 0 0,0 0.4528439899557818,0.6644926772466828 l -21.372298005162317 14.297149075466498" fill="#ff980e" stroke="none" /><path d="M 117.45458315368197 88.32363383020206 l 22.935293711646406 -15.342726046858132 a48.59396564809825,48.59396564809825 0 0,0 0.45910506123257655,0.6992485056449873 l -23.195995408236907 14.945659477235472" fill="#ffba11" stroke="none" /><line stroke="#e1ed5e" stroke-width="0.3" x1="172.23445277983987" x2="176.4835382374775" y1="55.19839476539836" y2="52.563006222186495" /><path d="M 173.08426987136738 54.67131705675599 a86.0,86.0 0 0,1 12.851231095245387,41.99856678651699" fill="none" id="id63" stroke="none" /><text fill="#e1ed5e" style="font-size:6.75px; font-family:Arial;" text-anchor="middle"><textPath startOffset="22.20632615414155" xlink:href="#id63">March</textPath></text><path d="M 117.84615892207809 88.93136811851018 l 20.429113505178314 -12.67064459312011 a45.039424140619985,45.039424140619985 0 0,0 0.40296172620516957,0.6623631262294477 l -20.64419102966971 12.31711369368358" fill="#ff7a0b" stroke="none" /><path d="M 118.03404312379186 89.2402003453031 l 31.065483543885698 -18.534855263128147 a57.174647578664015,57.174647578664015 0 0,0 0.49698470385969723,0.8495079588549372 l -31.37992792221572 17.997367891919314" fill="#b6ff1f" stroke="none" /><path d="M 118.3937258080291 89.86733742301442 l 23.041237842875756 -12.692865537661708 a47.30603498988645,47.30603498988645 0 0,0 0.38676490789768647,0.7166166349249037 l -23.25631084999191 12.294367919404346" fill="#ffa30f" stroke="none" /><path d="M 118.56541770881063 90.18545643968196 l 22.40411528042864 -11.843857692779094 a46.342086467880634,46.342086467880634 0 0,0 0.3667436961257135,0.7084320887409253 l -22.60466840971447 11.456452881777825" fill="#ff920d" stroke="none" /><path d="M 119.04729006885535 91.15688171328212 l 23.34916382349228 -10.84035665129683 a46.74289773090038,46.74289773090038 0 0,0 0.33253717235313063,0.7327015798075567 l -23.532303312808757 10.43683306264721" fill="#ff990e" stroke="none" /><path d="M 119.196687751892 91.48605970444005 l 57.59006325567602 -25.541820886679833 a84.0,84.0 0 0,0 0.574837160629277,1.3268034216535889 l -58.02119112614798 24.54671832043964" fill="#4dd2ff" stroke="none" /><path d="M 119.47837535516314 92.15188598940014 l 25.170213842119427 -10.141436557324079 a48.13647730093664,48.13647730093664 0 0,0 0.303045370721759,0.7712174137481723 l -25.341052762722885 9.706670138680122" fill="#ffb210" stroke="none" /><path d="M 119.61058180528143 92.48833698450437 l 23.864405977139135 -9.141053414181275 a46.555209452529034,46.555209452529034 0 0,0 0.28020785029263967,0.750817728205946 l -24.0182184159334 8.728912548945997" fill="#ff960d" stroke="none" /><path d="M 119.7369772167798 92.82701384747503 l 22.107819699299846 -8.034618615801875 a44.52255913284395,44.52255913284395 0 0,0 0.25557415894892455,0.7225425633349823 l -22.24284693905858 7.652878426040279" fill="#ff700a" stroke="none" /><path d="M 120.08093135843002 93.85539295169968 l 52.99238608516132 -16.215253328299386 a76.41775368507572,76.41775368507572 0 0,0 0.37406163975220313,1.2611498932423486 l -53.26365362202523 15.300674048310507" fill="#40ffc7" stroke="none" /><path d="M 120.28053869075195 94.5502522615342 l 26.996156329693203 -7.254355722419902 a48.953857220867405,48.953857220867405 0 0,0 0.21167570498820143,0.8156728392739393 l -27.117028366551708 6.788586457597113" fill="#ffc011" stroke="none" /><path d="M 120.37134235888165 94.90015583598534 l 24.31669509600167 -6.087539710872333 a46.067105938328005,46.067105938328005 0 0,0 0.18595140811810673,0.7708886362590063 l -24.417879304380595 5.668065842953921" fill="#ff8d0d" stroke="none" /><path d="M 120.45610955862082 95.25157060432595 l 25.835209566246633 -5.997067438273732 a47.52212041280042,47.52212041280042 0 0,0 0.17810750562154476,0.7984210243291081 l -25.934611458870215 5.551468244394661" fill="#ffa70f" stroke="none" /><path d="M 120.67395015179393 96.31383870115 l 17.4348760455966 -3.1086350144821395 a38.709842302476396,38.709842302476396 0 0,0 0.11131501511867968,0.6569875204121598 l -17.4858029222355 2.808061705754142" fill="#ff0000" stroke="none" /><path d="M 120.78858239683441 97.02765380044208 l 28.38714494064486 -4.058786730617755 a49.67583909157355,49.67583909157355 0 0,0 0.11374348065152383,0.8475210470979966 l -28.45280442035422 3.5695473414550944" fill="#ffcd13" stroke="none" /><path d="M 120.83666639777658 97.38593545837742 l 25.190408861875795 -3.160263419192201 a46.387870401180855,46.387870401180855 0 0,0 0.09257615587755981,0.7931359682532958 l -25.241075370756942 2.7261837126140525" fill="#ff920d" stroke="none" /><path d="M 120.94382443527127 98.46500227214037 l 23.216544193953546 -1.7015680539441018 a44.27881565183249,44.27881565183249 0 0,0 0.04916932438215094,0.760627685333781 l -23.24239410934011 1.3016813043572855" fill="#ff6c09" stroke="none" /><path d="M 120.96714384426684 98.82574320788733 l 44.08372844937705 -2.468892183781436 a65.15280900026127,65.15280900026127 0 0,0 0.05307283216412601,1.120283604871781 l -44.11969488977467 1.7096974722866551" fill="#42ff2d" stroke="none" /><line stroke="#e1ed5e" stroke-width="0.3" x1="184.98032266829074" x2="189.97916517819016" y1="98.17113171792111" y2="98.06355123074" /><path d="M 185.9800911702706 98.14961562048488 a86.0,86.0 0 0,1 -9.607161424134198,41.387399972396054" fill="none" id="id64" stroke="none" /><text fill="#e1ed5e" style="font-size:6.75px; font-family:Arial;" text-anchor="middle"><textPath startOffset="21.466115282336823" xlink:href="#id64">April</textPath></text><path d="M 120.99513854157772 99.54816195383933 l 22.737636956511153 -0.48933849311806205 a43.74290189327098,43.74290189327098 0 0,0 0.009721324370779171,0.7529272857921809 l -22.742691287999648 0.09787494926541841" fill="#ff6209" stroke="none" /><path d="M 120.99980553446 99.90962569577887 l 25.427228184024457 -0.10942806359002841 a46.42746364904586,46.42746364904586 0 0,0 -0.0034393967162057604,0.79919466953205 l -25.425344490018748 -0.32827608414570625" fill="#ff930d" stroke="none" /><path d="M 120.99824983174949 100.27111621757518 l 28.355204186871145 0.3661045929691209 a49.35756754469868,49.35756754469868 0 0,0 -0.01828095554205604,0.8494441704038762 l -28.344701168644082 -0.854138579163112" fill="#ffc712" stroke="none" /><path d="M 120.95626037817324 101.35467743843564 l 44.80660080693288 2.8964371558087723 a65.90012053513206,65.90012053513206 0 0,0 -0.08291942709395896,1.1313697029055212 l -44.75010482117458 -3.6672799952110635" fill="#38ff2e" stroke="none" /><line stroke="#e1ed5e" stroke-width="0.3" x1="174.80103733775053" x2="179.2010983576182" y1="140.37084112569926" y2="142.7455964860345" /><path d="M 175.68104954172406 140.8457921977663 a86.0,86.0 0 0,1 -30.038265399797805,32.042727171017184" fill="none" id="id65" stroke="none" /><text fill="#e1ed5e" style="font-size:6.75px; font-family:Arial;" text-anchor="middle"><textPath startOffset="22.206326154141568" xlink:href="#id65">May</textPath></text><line stroke="#e1ed5e" stroke-width="0.3" x1="143.8653032363475" x2="146.44561519142675" y1="172.8068346515853" y2="177.08958963109032" /><path d="M 144.38136562736335 173.6633856474863 a86.0,86.0 0 0,1 -40.68145358897372,12.25698825130547" fill="none" id="id66" stroke="none" /><text fill="#e1ed5e" style="font-size:6.75px; font-family:Arial;" text-anchor="middle"><textPath startOffset="21.466115282336833" xlink:href="#id66">June</textPath></text><line stroke="#e1ed5e" stroke-width="0.3" x1="102.19456741930631" x2="102.32365962044197" y1="184.97166512339345" y2="189.96999836594603" /><path d="M 102.22038585953345 185.97133177190398 a86.0,86.0 0 0,1 -42.740103519485714,-10.115201625700543" fill="none" id="id67" stroke="none" /><text fill="#e1ed5e" style="font-size:6.75px; font-family:Arial;" text-anchor="middle"><textPath startOffset="22.20632615414155" xlink:href="#id67">July</textPath></text><line stroke="#e1ed5e" stroke-width="0.3" x1="58.666819895761336" x2="56.23545636021788" y1="174.27360380694188" y2="178.64263932499728" /><path d="M 58.180547188652646 175.14741091055294 a86.0,86.0 0 0,1 -31.652253787137756,-30.449443065178592" fill="none" id="id68" stroke="none" /><text fill="#e1ed5e" style="font-size:6.75px; font-family:Arial;" text-anchor="middle"><textPath startOffset="22.20632615414155" xlink:href="#id68">August</textPath></text><line stroke="#e1ed5e" stroke-width="0.3" x1="26.63291911575756" x2="22.317208475507996" y1="142.92168965132927" y2="145.44649492493687" /><path d="M 25.769776987707644 143.4266507060508 a86.0,86.0 0 0,1 -11.730757126820373,-40.83630448921669" fill="none" id="id69" stroke="none" /><text fill="#e1ed5e" style="font-size:6.75px; font-family:Arial;" text-anchor="middle"><textPath startOffset="21.46611528233685" xlink:href="#id69">September</textPath></text><line stroke="#e1ed5e" stroke-width="0.3" x1="15.007084014347285" x2="10.007500721073583" y1="101.09737516637583" y2="101.16192664675087" /><path d="M 14.007167355692545 101.11028546245083 a86.0,86.0 0 0,1 10.666146001902534,-42.60595125391555" fill="none" id="id70" stroke="none" /><text fill="#e1ed5e" style="font-size:6.75px; font-family:Arial;" text-anchor="middle"><textPath startOffset="22.20632615414155" xlink:href="#id70">October</textPath></text><line stroke="#e1ed5e" stroke-width="0.3" x1="26.266209847984243" x2="21.928928074336255" y1="57.711370442889674" y2="55.22380399835377" /><path d="M 25.398753493254645 57.213857153982495 a86.0,86.0 0 0,1 29.58750427330803,-30.492523968695096" fill="none" id="id71" stroke="none" /><text fill="#e1ed5e" style="font-size:6.75px; font-family:Arial;" text-anchor="middle"><textPath startOffset="21.46611528233685" xlink:href="#id71">November</textPath></text><line stroke="#e1ed5e" stroke-width="0.3" x1="56.762969772571076" x2="54.21961505331055" y1="26.818313649435495" y2="22.513508569990535" /><path d="M 56.25429882871897 25.957352633546506 a86.0,86.0 0 0,1 42.265352541879196,-11.944610805530505" fill="none" id="id72" stroke="none" /><text fill="#e1ed5e" style="font-size:6.75px; font-family:Arial;" text-anchor="middle"><textPath startOffset="22.20632615414155" xlink:href="#id72">December</textPath></text></svg>