<?xml version="1.0" encoding="utf-8" ?>
<svg baseProfile="full" height="200mm" version="1.1" viewBox="0,0,200,200" width="200mm" xmlns="http://www.w3.org/2000/svg" xmlns:ev="http://www.w3.org/2001/xml-events" xmlns:xlink="http://www.w3.org/1999/xlink"><defs /><rect fill="#1a1a1a" height="200" width="200" x="0" y="0" /><text alignment-baseline="middle" fill="#e1ed5e" style="dominant-baseline: central; font-size:9.0px; font-family:Arial;" text-anchor="middle" x="100.0" y="100.0">2024</text><line stroke="#e1ed5e" stroke-width="0.3" x1="100.0" x2="100.0" y1="15.0" y2="10.0" /><path d="M 100.0 14.0 a86.0,86.0 0 0,1 42.35913384403234,11.155469271406648" fill="none" id="id49" stroke="none" /><text fill="#e1ed5e" style="font-size:6.75px; font-family:Arial;" text-anchor="middle"><textPath startOffset="22.145653131862478" xlink:href="#id49">January</textPath></text><line stroke="#e1ed5e" stroke-width="0.3" x1="143.13028292997686" x2="145.6673583964461" y1="26.7553504044142" y2="22.446841604673864" /><path d="M 143.63769802327073 25.89364864446614 a86.0,86.0 0 0,1 29.32050498858742,28.57503671076993" fill="none" id="id50" stroke="none" /><text fill="#e1ed5e" style="font-size:6.75px; font-family:Arial;" text-anchor="middle"><textPath startOffset="20.669276256404974" xlink:href="#id50">February</textPath></text><line stroke="#e1ed5e" stroke-width="0.3" x1="172.87174338648825" x2="177.1583165268699" y1="56.24261187166439" y2="53.66864786411523" /><path d="M 173.72905801456457 55.72781907015455 a86.0,86.0 0 0,1 12.242430191666344,42.057860355516425" fill="none" id="id51" stroke="none" /><text fill="#e1ed5e" style="font-size:6.75px; font-family:Arial;" text-anchor="middle"><textPath startOffset="22.145653131862474" xlink:href="#id51">March</textPath></text><line stroke="#e1ed5e" stroke-width="0.3" x1="184.99686870605535" x2="189.99668451229388" y1="99.2704041080226" y2="99.22748670261217" /><path d="M 185.99683186730306 99.26182062694052 a86.0,86.0 0 0,1 -10.086455211305974,41.156179273409016" fill="none" id="id52" stroke="none" /><text fill="#e1ed5e" style="font-size:6.75px; font-family:Arial;" text-anchor="middle"><textPath startOffset="21.40746469413373" xlink:href="#id52">April</textPath></text><line stroke="#e1ed5e" stroke-width="0.3" x1="174.33088141563837" x2="178.70328620479359" y1="141.23008692659167" y2="143.65538615756765" /><path d="M 175.20536237346943 141.71514677278685 a86.0,86.0 0 0,1 -30.301960400862466,31.631185727798858" fill="none" id="id53" stroke="none" /><text fill="#e1ed5e" style="font-size:6.75px; font-family:Arial;" text-anchor="middle"><textPath startOffset="22.145653131862474" xlink:href="#id53">May</textPath></text><line stroke="#e1ed5e" stroke-width="0.3" x1="143.1302829299769" x2="145.66735839644613" y1="173.24464959558577" y2="177.55315839532614" /><path d="M 143.63769802327073 174.10635135553383 a86.0,86.0 0 0,1 -40.68552437913181,11.842963189579606" fill="none" id="id54" stroke="none" /><text fill="#e1ed5e" style="font-size:6.75px; font-family:Arial;" text-anchor="middle"><textPath startOffset="21.407464694133747" xlink:href="#id54">June</textPath></text><path d="M 110.34350942703117 118.27599006163325 l 5.6451263803219325 9.974397408466396 a32.46106694474069,32.46106694474069 0 0,0 -0.48731142918969494,0.2703034351693502 l -5.4730707629761435 -10.06983375906889" fill="#ff5307" stroke="none" /><path d="M 109.71004243097381 118.62028667847754 l 6.636242566080084 12.725870141839748 a35.35226415109552,35.35226415109552 0 0,0 -0.5405071271289316,0.27598679037778856 l -6.416808217237571 -12.837914883890372" fill="#ff7e0b" stroke="none" /><path d="M 109.3889696526874 118.78422872680471 l 2.7235447107856805 5.448913851844652 a27.091662987762305,27.091662987762305 0 0,0 -0.41777892328728405,0.20435660654863222 l -2.629605538236327 -5.494864208490507" fill="#ff0000" stroke="none" /><path d="M 109.06512990194946 118.94263497670748 l 7.416969622126944 15.49861388694108 a38.18192279088801,38.18192279088801 0 0,0 -0.5936585103481758,0.27786215841840173 l -7.149822397907262 -15.623652276930015" fill="#ffa70f" stroke="none" /><path d="M 107.407793817531 119.65005319985036 l 3.412957353894221 9.053274864930643 a30.67522938640142,30.67522938640142 0 0,0 -0.494325257136017,0.18152308153860996 l -3.257042945104077 -9.110528795477974" fill="#ff3805" stroke="none" /><path d="M 106.72888874123015 119.89276391827305 l 4.589711978647152 13.568667926497215 a35.32390328599336,35.32390328599336 0 0,0 -0.5760777949039624,0.1893682135438723 l -4.356111446095455 -13.645457061443107" fill="#ff7e0b" stroke="none" /><path d="M 105.3480935250658 120.30758222061773 l 3.6545561472285226 13.876944950919496 a35.35010041094124,35.35010041094124 0 0,0 -0.5881494270254083,0.149505284409413 l -3.415801426977717 -13.93763546716418" fill="#ff7e0b" stroke="none" /><path d="M 104.9986988182912 120.39639698878246 l 3.4038038712003087 13.888681345416407 a35.29969756002259,35.29969756002259 0 0,0 -0.5897870884056556,0.13918814695675272 l -3.1648846290547743 -13.945065636019384" fill="#ff7e0b" stroke="none" /><path d="M 103.58742460773223 120.69131181640829 l 4.885969949357544 28.180976271907063 a49.60140076960941,49.60140076960941 0 0,0 -0.8402063873252725,0.13825564129834086 l -4.4014860589791995 -28.260697911701076" fill="#bfff1e" stroke="none" /><path d="M 103.2317021107853 120.74984581791261 l 1.3262272766236614 8.515330487179089 a29.617988866037265,29.617988866037265 0 0,0 -0.5030472881384089,0.07393062797158687 l -1.1798548828775668 -8.536842188449558" fill="#ff2803" stroke="none" /><path d="M 102.51750503828377 120.84855314841334 l 1.7159539845909768 14.210560576421042 a35.313788107044395,35.313788107044395 0 0,0 -0.6024601170109847,0.06750691272263212 l -1.4717579659791928 -14.237923249650644" fill="#ff7e0b" stroke="none" /><line stroke="#e1ed5e" stroke-width="0.3" x1="101.45913802915013" x2="101.54496967792366" y1="184.9874750549273" y2="189.98673829345242" /><path d="M 101.47630435890484 185.9873277026323 a86.0,86.0 0 0,1 -42.54439059252881,-10.42667462771756" fill="none" id="id55" stroke="none" /><text fill="#e1ed5e" style="font-size:6.75px; font-family:Arial;" text-anchor="middle"><textPath startOffset="22.145653131862474" xlink:href="#id55">July</textPath></text><path d="M 100.0 121.0 l 1.0516347098832346e-15 8.587249079615638 a29.58724907961564,29.58724907961564 0 0,0 -0.5079044742353405,-0.004359749053821839 l 0.1474115493864873 -8.585983728756252" fill="#ff2703" stroke="none" /><path d="M 99.63950707515114 120.99690560180557 l -0.49071696274540744 28.581802952971156 a49.58601516791028,49.58601516791028 0 0,0 -0.8509590321333815,-0.021917686108256115 l 0.9812893089495329 -28.56916754951285" fill="#bfff1e" stroke="none" /><path d="M 98.91894614982273 120.97215588758144 l -0.7365479509721474 14.28883347849289 a35.30780434099448,35.30780434099448 0 0,0 -0.6050339431385425,-0.03639733958739493 l 0.9817262462431362 -14.274084161080802" fill="#ff7e0b" stroke="none" /><path d="M 98.55909050195518 120.95050786540614 l -0.9814480515267787 14.270039270960313 a35.30374989548528,35.30374989548528 0 0,0 -0.6042505863399014,-0.046772816930502 l 1.2262676326419162 -14.251088687034757" fill="#ff7e0b" stroke="none" /><path d="M 98.19965949673042 120.92268563240118 l -3.676609606820327 42.72777669383417 a63.88566612982853,63.88566612982853 0 0,0 -1.0918377841635525,-0.10339817333975318 l 4.409546954368895 -42.65836676498923" fill="#32ff47" stroke="none" /><path d="M 97.12497278360702 120.80226474461374 l -1.9594747815792153 14.177783408236607 a35.31254987032409,35.31254987032409 0 0,0 -0.5997666664629145,-0.08814504587057513 l 2.2025665536498145 -14.14205728906715" fill="#ff7e0b" stroke="none" /><path d="M 96.76829788921471 120.74984581791261 l -4.39935438133803 28.247011012082538 a49.58754886465977,49.58754886465977 0 0,0 -0.8399717476007142,-0.1382170314209578 l 4.883603631991808 -28.16732798216591" fill="#bfff1e" stroke="none" /><path d="M 96.05791012581884 120.62667999033965 l -2.68508760571551 14.049512963127276 a35.30379355106359,35.30379355106359 0 0,0 -0.5942864330662132,-0.11887393057549936 l 2.9258705243126815 -14.001349635888914" fill="#ff7e0b" stroke="none" /><path d="M 95.70440661134978 120.55596938700252 l -9.357502913095258 44.779038893347206 a66.74631334851463,66.74631334851463 0 0,0 -1.1195504815934605,-0.24400081670073198 l 10.124815811307855 -44.61180661851276" fill="#36ff6b" stroke="none" /><path d="M 95.00130118170881 120.39639698878247 l -3.404999550419549 13.893560124657483 a35.3047207199522,35.3047207199522 0 0,0 -0.5873944068432189,-0.14931336123158767 l 3.6429992504881468 -13.833061531590634" fill="#ff7e0b" stroke="none" /><path d="M 94.6519064749342 120.30758222061772 l -7.287774490148076 27.67286678334245 a49.616415097420415,49.616415097420415 0 0,0 -0.8217862852298767,-0.22398150636068903 l 7.761742176312647 -27.54368478283762" fill="#beff1e" stroke="none" /><path d="M 94.30408787586889 120.21278271476187 l -6.206106998280761 22.023284335684473 a43.881014335131965,43.881014335131965 0 0,0 -0.7232844646973864,-0.21053756641267793 l 6.583251475359754 -21.91350307496928" fill="#fff617" stroke="none" /><path d="M 93.61358852112213 120.00534299687104 l -4.347742859687486 13.619242583712692 a35.29638543576581,35.29638543576581 0 0,0 -0.5756290216652918,-0.18922069286655335 l 4.580894619000521 -13.542600969444118" fill="#ff7d0b" stroke="none" /><path d="M 92.59220618246901 119.65005319985036 l -10.086574051479603 26.755836028636242 a49.59394582227593,49.59394582227593 0 0,0 -0.7940409618020178,-0.3071521019676744 l 10.544387275775149 -26.578744038530527" fill="#bfff1e" stroke="none" /><path d="M 92.25597844496254 119.51999308798841 l -5.274022555141541 13.293982085482437 a35.301932512820414,35.301932512820414 0 0,0 -0.5613772797148813,-0.2283072525056597 l 5.501454296046863 -13.201487576397485" fill="#ff7e0b" stroke="none" /><path d="M 91.92203290615298 119.3841803445677 l -7.501231025773454 18.000223734584683 a40.50068002396665,40.50068002396665 0 0,0 -0.6394573775091869,-0.27294632997258395 l 7.809123478453072 -17.868802754952693" fill="#ffc812" stroke="none" /><path d="M 91.26138138417905 119.09545874513695 l -9.523167842371285 20.809840393741897 a43.88537050097696,43.88537050097696 0 0,0 -0.6823366078333412,-0.31936798566109276 l 9.878993164076116 -20.64329617651028" fill="#fff617" stroke="none" /><path d="M 90.93487009805054 118.94263497670748 l -10.641682125682834 22.237022770254203 a45.65219219762984,45.65219219762984 0 0,0 -0.7039997400914546,-0.3443615507555925 l 11.021842115036359 -22.05106746940139" fill="#f1ff19" stroke="none" /><path d="M 90.28995756902619 118.62028667847754 l -13.21763106982802 25.346550386378357 a49.58589490618231,49.58589490618231 0 0,0 -0.751370778018065,-0.4000626181672434 l 13.650790663632646 -25.11591730048854" fill="#bfff1e" stroke="none" /><path d="M 89.97174638481275 118.45085714620012 l -13.656554116375695 25.126521404384537 a49.597964057227784,49.597964057227784 0 0,0 -0.7445736392697995,-0.4130024464351866 l 14.085871943801596 -24.888386042516203" fill="#bfff1e" stroke="none" /><line stroke="#e1ed5e" stroke-width="0.3" x1="58.13341422392154" x2="55.67067388415222" y1="173.97424548756322" y2="178.32567169271397" /><path d="M 57.64086615596768 174.84453072859336 a86.0,86.0 0 0,1 -31.369924170532247,-30.572349798747897" fill="none" id="id56" stroke="none" /><text fill="#e1ed5e" style="font-size:6.75px; font-family:Arial;" text-anchor="middle"><textPath startOffset="22.145653131862474" xlink:href="#id56">August</textPath></text><path d="M 89.65649057296885 118.27599006163327 l -7.057624962970769 12.470147061006799 a35.328804480524,35.328804480524 0 0,0 -0.5252342314431834,-0.3032441249113304 l 7.270651662274352 -12.347156038819296" fill="#ff7e0b" stroke="none" /><path d="M 89.03521579738668 117.91015095944536 l -12.180272020661599 19.8955589627714 a44.32792946102215,44.32792946102215 0 0,0 -0.6455748059838037,-0.40288642544009884 l 12.520010955435115 -19.683536740489753" fill="#fffc17" stroke="none" /><path d="M 88.72937992617639 117.7192867562869 l -24.886086902296523 39.12506207957631 a67.36903928311816,67.36903928311816 0 0,0 -0.9704810630564366,-0.6290541000536212 l 25.55405359760997 -38.6920941378188" fill="#36ff73" stroke="none" /><path d="M 88.1277618465304 117.32195027204791 l -16.163100086288164 23.58244606599266 a49.589815789102616,49.589815789102616 0 0,0 -0.6980472845260689,-0.48729121768333294 l 16.565542461988 -23.3015100325042" fill="#bfff1e" stroke="none" /><path d="M 87.54013794807813 116.9041958592261 l -16.967425295299375 23.019571101454318 a49.59710081190882,49.59710081190882 0 0,0 -0.6810083703716815,-0.5110413770745499 l 17.360086654581824 -22.724910697115753" fill="#bfff1e" stroke="none" /><path d="M 86.96720088162412 116.46651593811092 l -17.424173041606043 22.0148734352443 a49.075905302477,49.075905302477 0 0,0 -0.656096314656597,-0.5285047484661038 l 17.7995201266179 -21.712520392984786" fill="#c5ff1e" stroke="none" /><path d="M 86.68645165197938 116.24036423190432 l -31.822333141072548 38.81807219311703 a71.19465723890791,71.19465723890791 0 0,0 -0.9385003997274528,-0.7829304123760168 l 32.48400787496189 -38.26607959682915" fill="#3cffa1" stroke="none" /><path d="M 86.13680546590413 115.77377054828092 l -16.70020526520237 19.001767977403297 a46.297510592288766,46.297510592288766 0 0,0 -0.5924647746268297,-0.5297856547904023 l 17.023935066652573 -18.71228679272951" fill="#e9ff1a" stroke="none" /><path d="M 85.86807049272751 115.53346607816431 l -19.462408566635286 21.392596326894083 a49.921074060623695,49.921074060623695 0 0,0 -0.6289347609748376,-0.5821326253075261 l 19.826773098924093 -21.05534595545418" fill="#bbff1f" stroke="none" /><path d="M 85.60350026404147 115.28858382429668 l -9.666792704422587 10.265798859740979 a35.10083357177642,35.10083357177642 0 0,0 -0.4351291784664701,-0.41684390995064824 l 9.841594368754372 -10.098342819484749" fill="#ff7b0b" stroke="none" /><path d="M 84.83555147118756 114.52719865689866 l -43.657703990691694 41.82309284586449 a81.45797063194115,81.45797063194115 0 0,0 -0.9586601065413279,-1.018063811806851 l 44.36921993096927 -41.067487574113144" fill="#4aebff" stroke="none" /><path d="M 84.3458050057657 113.99807769240083 l -10.476631649602297 9.36826862319097 a35.05433270268329,35.05433270268329 0 0,0 -0.39726396874062436,-0.4520134716859266 l 10.635906682301513 -9.187042873693743" fill="#ff7a0b" stroke="none" /><path d="M 82.98947788004972 112.3143062007846 l -19.050505881795658 13.79109712529891 a44.518421168772335,44.518421168772335 0 0,0 -0.4428202866400344,-0.6228821890630005 l 19.28444126696565 -13.462037709526404" fill="#fffe18" stroke="none" /><path d="M 82.37810715431573 111.42229804090323 l -13.111110350934805 8.498463325534614 a36.62450298505033,36.62450298505033 0 0,0 -0.3374377800286677,-0.5305082371305938 l 13.255065822589362 -8.272141413725349" fill="#ff910d" stroke="none" /><line stroke="#e1ed5e" stroke-width="0.3" x1="26.387840678322732" x2="22.057713659400548" y1="142.50000000000003" y2="145.00000000000006" /><path d="M 25.521815274538298 143.00000000000003 a86.0,86.0 0 0,1 -11.493303480769221,-40.785679425670985" fill="none" id="id57" stroke="none" /><text fill="#e1ed5e" style="font-size:6.75px; font-family:Arial;" text-anchor="middle"><textPath startOffset="21.40746469413373" xlink:href="#id57">September</textPath></text><path d="M 81.63589988554817 110.18625677009913 l -24.346862239493213 13.504794069519349 a48.84150074563125,48.84150074563125 0 0,0 -0.4003948326250841,-0.7366813946202883 l 24.57510242173363 -13.084857841424475" fill="#c8ff1d" stroke="none" /><path d="M 81.4637452351635 109.86951160357371 l -24.702086624114376 13.15246977677858 a48.985363045962515,48.985363045962515 0 0,0 -0.38883165514736445,-0.7456359681205605 l 24.92422634823669 -12.726487565553516" fill="#c6ff1e" stroke="none" /><path d="M 81.29705330413844 109.54985784667822 l -24.903566353798603 12.71593842518514 a48.962165638075135,48.962165638075135 0 0,0 -0.3757964812802981,-0.7518446986434749 l 25.11818274829064 -12.286561870377913" fill="#c7ff1e" stroke="none" /><path d="M 80.83023694016515 108.57439118712176 l -26.135223003512458 11.689952822855076 a49.63048861692556,49.63048861692556 0 0,0 -0.3411886178679335,-0.7807063278918314 l 26.33204550339736 -11.239584425187395" fill="#beff1e" stroke="none" /><path d="M 80.68587082218212 108.24405325689762 l -55.26613435394491 23.589826428211595 a81.09014492694655,81.09014492694655 0 0,0 -0.5354813030551574,-1.2849601922087055 l 55.66294150153656 -22.637633726561607" fill="#49efff" stroke="none" /><path d="M 80.41425534168474 107.57618678355246 l -25.8956443890105 10.016991551470161 a48.76552751280472,48.76552751280472 0 0,0 -0.2953085136776993,-0.7833409172921028 l 26.063783586502637 -9.570982353983913" fill="#c9ff1d" stroke="none" /><path d="M 80.28708602549918 107.23885506374661 l -17.413615895990695 6.394520960720756 a39.550577265686286,39.550577265686286 0 0,0 -0.2285643491251225,-0.6393351636502824 l 17.52082041515976 -6.094650840689552" fill="#ffba11" stroke="none" /><path d="M 79.94057633289273 106.21446072829308 l -26.584745475411438 8.236022104638874 a48.831290880958235,48.831290880958235 0 0,0 -0.2411886280545804,-0.8028385004437186 l 26.722210423469647 -7.778446000604432" fill="#c8ff1d" stroke="none" /><path d="M 79.73907114497094 105.5222062557868 l -58.7495758779869 16.0124581533049 a81.89262255770136,81.89262255770136 0 0,0 -0.3580287712040299,-1.3594935605549663 l 59.01579412999566 -15.001584088377134" fill="#4ae7ff" stroke="none" /><path d="M 79.56144815229197 104.8234425847677 l -27.07820786568761 6.39038332616486 a48.8220477368707,48.8220477368707 0 0,0 -0.18549852980549505,-0.817340749098743 l 27.18391725705077 -5.924608243127091" fill="#c8ff1d" stroke="none" /><path d="M 79.48165901384964 104.47187691870673 l -16.42216923028868 3.5791353494706777 a37.807672417026424,37.807672417026424 0 0,0 -0.13276306249685588,-0.6353193148170971 l 16.481190003609903 -3.2966995833681714" fill="#ffa20e" stroke="none" /><path d="M 79.34024301695615 103.76489593502545 l -27.525459720090534 5.016055682306852 a48.97877315770528,48.97877315770528 0 0,0 -0.14363650875827305,-0.8284572126008941 l 27.607511046341042 -4.542805436785365" fill="#c6ff1e" stroke="none" /><path d="M 79.2786578344484 103.40968896794605 l -50.691101615549016 8.341201480612122 a72.37278876154264,72.37278876154264 0 0,0 -0.191196872870607,-1.2276210792114393 l 50.826819980557886 -7.469792219469234" fill="#3dffaf" stroke="none" /><path d="M 79.17382384314188 102.69636545807758 l -27.67003086124037 3.58243946830443 a48.90097633428013,48.90097633428013 0 0,0 -0.10063800843015532,-0.8334270778408606 l 27.727450955930188 -3.1069187135401704" fill="#c7ff1e" stroke="none" /><path d="M 79.13060592940153 102.33845913500099 l -27.647082800873967 3.0979132941341914 a48.820105215048244,48.820105215048244 0 0,0 -0.08617354757691315,-0.8336509024660846 l 27.69618874093255 -2.622857869385175" fill="#c8ff1d" stroke="none" /><path d="M 79.0935383218832 101.97986365728391 l -28.07346060835393 2.6585859074780616 a49.199065047555045,49.199065047555045 0 0,0 -0.07240785082276806,-0.8414889835179761 l 28.114962081874438 -2.1762758765844237" fill="#c4ff1e" stroke="none" /><path d="M 79.03789590574601 101.26102812881392 l -60.00372317920812 3.609674984072156 a81.11219966743585,81.11219966743585 0 0,0 -0.07168159530993924,-1.3906037991207363 l 60.056846363974635 -2.5790993915746885" fill="#49efff" stroke="none" /><path d="M 79.01933749520258 100.90099992219065 l -17.218378651519785 0.7394312654198167 a38.234248518093054,38.234248518093054 0 0,0 -0.022531466326271284,-0.6559790581032148 l 17.228534804842905 -0.4437459427524821" fill="#ffa80f" stroke="none" /><line stroke="#e1ed5e" stroke-width="0.3" x1="15.003131293944662" x2="10.003315487706104" y1="100.72959589197737" y2="100.7725132973878" /><path d="M 14.003168132696942 100.73817937305945 a86.0,86.0 0 0,1 10.791469493833604,-42.45332614584628" fill="none" id="id58" stroke="none" /><text fill="#e1ed5e" style="font-size:6.75px; font-family:Arial;" text-anchor="middle"><textPath startOffset="22.145653131862435" xlink:href="#id58">October</textPath></text><path d="M 79.00077361379809 99.81974689727619 l -28.40721582899886 -0.2438417824899792 a49.40826235393871,49.40826235393871 0 0,0 0.014560305293733521,-0.8480647877184465 l 28.39884409210646 0.7314534861774781" fill="#c1ff1e" stroke="none" /><path d="M 79.01933749520258 99.09900007780938 l -44.8127979011654 -1.9244543594780055 a65.85410104229499,65.85410104229499 0 0,0 0.058197497291019494,-1.129015899859346 l 44.77315881441781 2.6934420527140635" fill="#34ff60" stroke="none" /><path d="M 79.06263194458094 98.37931529534042 l -28.389016123302977 -2.1974893926299 a49.47393889295749,49.47393889295749 0 0,0 0.0728123915264069,-0.8461903597034309 l 28.347110109078827 2.684500799709012" fill="#c0ff1e" stroke="none" /><path d="M 79.13060592940154 97.66154086499901 l -27.74818497279224 -3.1092420033765986 a48.92184010984689,48.92184010984689 0 0,0 0.10068094599455531,-0.8337826624692788 l 27.69072194053802 3.585118342769314" fill="#c7ff1e" stroke="none" /><path d="M 79.17382384314186 97.30363454192245 l -27.70430645391768 -3.5868771299977436 a48.93553800516979,48.93553800516979 0 0,0 0.11501129218457873,-0.8321644174364811 l 27.638650645177893 4.0619298556342915" fill="#c7ff1e" stroke="none" /><path d="M 79.2786578344484 96.59031103205396 l -17.44039007614515 -2.8698095501829037 a38.67492610627901,38.67492610627901 0 0,0 0.11341916108235925,-0.6541715811538837 l 17.388556097570557 3.16877416425738" fill="#ffae10" stroke="none" /><path d="M 79.407916724674 95.88100663000787 l -61.776249825978006 -12.356980109976396 a84.0,84.0 0 0,0 0.29496915670253276,-1.4115341948583637 l 61.55502295845111 13.41563075612017" fill="#4dd2ff" stroke="none" /><path d="M 79.48165901384962 95.52812308129327 l -27.239948908853762 -5.936820080847485 a48.87939470701107,48.87939470701107 0 0,0 0.18571641863120963,-0.8183008074680221 l 27.13402162866489 6.403555222254516" fill="#c8ff1d" stroke="none" /><path d="M 79.56144815229197 95.17655741523228 l -32.525446003653066 -7.675916694664258 a54.4189218084602,54.4189218084602 0 0,0 0.22237248974762536,-0.9073556429685056 l 32.388885987389145 8.233128162240881" fill="#84ff25" stroke="none" /><path d="M 79.73907114497095 94.47779374421319 l -22.711272719634085 -6.190058372280083 a44.53972665936948,44.53972665936948 0 0,0 0.20738864930186124,-0.7359491534441394 l 22.60166557825764 6.579015449627235" fill="#fffe18" stroke="none" /><path d="M 79.94057633289273 93.78553927170692 l -26.583462444358926 -8.23562461833909 a48.829947689222024,48.829947689222024 0 0,0 0.25492786635664383,-0.7985579104623007 l 26.438169862225024 8.690751562492784" fill="#c8ff1d" stroke="none" /><path d="M 80.05021161711548 93.44210830539832 l -57.40260185399907 -18.869375389957824 a81.42443236982771,81.42443236982771 0 0,0 0.4478909037576251,-1.324109871961335 l 57.07022552866908 19.85198693639332" fill="#4aecff" stroke="none" /><path d="M 80.28708602549916 92.7611449362534 l -33.62082244792081 -12.346031699791846 a56.815976893097314,56.815976893097314 0 0,0 0.3440594728528568,-0.9126586284665829 l 33.40393229125351 12.921358608452573" fill="#69ff28" stroke="none" /><path d="M 80.41425534168474 92.42381321644754 l -26.200573988525385 -10.134944871196383 a49.09247559170218,49.09247559170218 0 0,0 0.31078184544541615,-0.7833732682498293 l 26.022733468113838 10.583219156659794" fill="#c5ff1e" stroke="none" /><line stroke="#e1ed5e" stroke-width="0.3" x1="26.387840678322718" x2="22.05771365940052" y1="57.49999999999999" y2="54.99999999999999" /><path d="M 25.521815274538284 56.99999999999999 a86.0,86.0 0 0,1 29.574782752854787,-30.34633250058573" fill="none" id="id59" stroke="none" /><text fill="#e1ed5e" style="font-size:6.75px; font-family:Arial;" text-anchor="middle"><textPath startOffset="21.40746469413373" xlink:href="#id59">November</textPath></text><line stroke="#e1ed5e" stroke-width="0.3" x1="56.869717070023135" x2="54.33264160355391" y1="26.7553504044142" y2="22.446841604673864" /><path d="M 56.362301976729285 25.89364864446614 a86.0,86.0 0 0,1 42.16139366436587,-11.88097634709845" fill="none" id="id60" stroke="none" /><text fill="#e1ed5e" style="font-size:6.75px; font-family:Arial;" text-anchor="middle"><textPath startOffset="22.145653131862474" xlink:href="#id60">December</textPath></text></svg>